<svg width="116" height="106" viewBox="0 0 116 106" fill="none" xmlns="http://www.w3.org/2000/svg">
<g clip-path="url(#clip0_2049_3103)">
<path fill-rule="evenodd" clip-rule="evenodd" d="M101.876 54.9536C105.64 51.0498 108.439 56.0062 108.048 60.9847C107.679 65.7041 103.685 81.8978 104.424 88.7128H102.897C99.155 79.9759 97.0573 59.9479 101.876 54.9536Z" fill="#638C9A"/>
<path fill-rule="evenodd" clip-rule="evenodd" d="M103.459 88.7128C99.8156 74.9436 104.427 55.9081 104.442 55.8386C104.455 55.7817 104.49 55.7324 104.539 55.7016C104.588 55.6708 104.647 55.6609 104.703 55.6742C104.731 55.6813 104.757 55.6938 104.78 55.7111C104.803 55.7284 104.822 55.7502 104.837 55.7751C104.851 55.8001 104.861 55.8278 104.865 55.8565C104.87 55.8853 104.868 55.9147 104.861 55.9429C104.861 56.0061 100.231 75.0605 103.899 88.7065L103.459 88.7128Z" fill="#92B8C9"/>
<path fill-rule="evenodd" clip-rule="evenodd" d="M111.164 63.5541C115.13 61.4141 116.129 66.0829 114.578 69.9488C113.296 73.154 107.633 82.6243 105.495 88.7124H103.478C103.314 80.301 106.482 66.0829 111.164 63.5541Z" fill="#1D3F4D"/>
<path fill-rule="evenodd" clip-rule="evenodd" d="M104.219 88.7127C105.532 77.3332 112.957 64.9706 112.985 64.9264C112.998 64.9056 113.014 64.8876 113.033 64.8732C113.053 64.8589 113.074 64.8486 113.098 64.8428C113.121 64.8371 113.145 64.8361 113.169 64.8399C113.192 64.8436 113.215 64.8521 113.235 64.8647C113.255 64.8774 113.273 64.894 113.287 64.9137C113.301 64.9333 113.311 64.9556 113.317 64.9792C113.323 65.0028 113.324 65.0273 113.32 65.0514C113.316 65.0754 113.308 65.0984 113.296 65.1192C113.271 65.1634 105.892 77.447 104.582 88.7127H104.219Z" fill="#7BA7B5"/>
<path fill-rule="evenodd" clip-rule="evenodd" d="M94.3982 68.9538C90.5535 67.2438 89.9453 71.6691 91.652 75.1589C92.8094 77.5201 96.9737 83.5671 99.7757 88.7131H102.978C101.883 80.9308 98.3732 70.724 94.3982 68.9538Z" fill="#7BA7B5"/>
<path fill-rule="evenodd" clip-rule="evenodd" d="M101.836 88.7125C99.1053 79.2833 92.8185 70.3978 92.7937 70.363C92.7809 70.3447 92.7646 70.3292 92.7459 70.3173C92.7272 70.3055 92.7064 70.2975 92.6846 70.2938C92.6628 70.2901 92.6406 70.2909 92.6191 70.296C92.5976 70.301 92.5774 70.3104 92.5594 70.3235C92.5415 70.3366 92.5263 70.3531 92.5146 70.3722C92.503 70.3912 92.4951 70.4125 92.4915 70.4346C92.4879 70.4568 92.4886 70.4794 92.4936 70.5013C92.4986 70.5232 92.5078 70.5439 92.5206 70.5621C92.5455 70.5969 98.764 79.3907 101.488 88.7125H101.836Z" fill="#1D3F4D"/>
<path d="M107.906 85.5996H96.6389C96.3013 85.5996 96.0276 85.8784 96.0276 86.2223V89.0577C96.0276 89.4016 96.3013 89.6804 96.6389 89.6804H107.906C108.244 89.6804 108.517 89.4016 108.517 89.0577V86.2223C108.517 85.8784 108.244 85.5996 107.906 85.5996Z" fill="#B62351"/>
<path fill-rule="evenodd" clip-rule="evenodd" d="M105.969 87.9041H98.5716L96.6384 89.6805L98.2179 95.8729H102.27H106.323L107.902 89.6805L105.969 87.9041Z" fill="#B62351"/>
<path fill-rule="evenodd" clip-rule="evenodd" d="M96.6384 89.6799L96.9611 90.9538L107.043 93.0464L107.902 89.6799H96.6384Z" fill="#97234E"/>
<path fill-rule="evenodd" clip-rule="evenodd" d="M13.1977 50.4998L10.6191 47.6549C10.6191 47.6549 10.2746 47.3388 10.0574 47.6549C9.8402 47.971 10.2312 48.6032 10.4081 48.9477C10.5849 49.2923 11.7548 51.5998 11.7548 51.5998L13.3839 51.3785L13.1977 50.4998Z" fill="#D6725F"/>
<path fill-rule="evenodd" clip-rule="evenodd" d="M12.4839 50.4273L8.92165 48.1103C8.92165 48.1103 8.4655 47.8732 8.31966 48.2841C8.17382 48.6951 8.7727 49.2672 9.05508 49.5706C9.33745 49.8741 11.2272 52.0362 11.2272 52.0362L12.9184 51.3281L12.4839 50.4273Z" fill="#D6725F"/>
<path fill-rule="evenodd" clip-rule="evenodd" d="M102.969 50.4998L105.547 47.6549C105.547 47.6549 105.892 47.3388 106.112 47.6549C106.332 47.971 105.935 48.6032 105.761 48.9477C105.588 49.2923 104.415 51.5998 104.415 51.5998L102.782 51.3785L102.969 50.4998Z" fill="#D6725F"/>
<path fill-rule="evenodd" clip-rule="evenodd" d="M103.686 50.4273L107.261 48.1103C107.261 48.1103 107.72 47.8732 107.866 48.2841C108.011 48.6951 107.409 49.2672 107.13 49.5706C106.851 49.8741 104.958 52.0362 104.958 52.0362L103.227 51.3281L103.686 50.4273Z" fill="#D6725F"/>
<path fill-rule="evenodd" clip-rule="evenodd" d="M53.2142 4.41911C62.5233 -7.12479 74.861 5.91425 68.3043 20.9763C67.6837 22.1554 83.4595 37.9571 67.1406 46.8331C58.7624 51.3944 46.3503 42.3572 46.3503 42.3572C38.1769 29.9156 48.7365 22.7401 48.6341 21.0206C48.5069 18.9406 47.8553 17.003 46.5737 13.9305C44.4481 8.8508 48.3021 3.01247 53.2142 4.41911Z" fill="#30295E"/>
<path fill-rule="evenodd" clip-rule="evenodd" d="M46.2049 52.0267C46.2049 52.0267 34.9595 67.721 32.8463 67.2405C30.7332 66.76 8.46266 50.6359 7.96307 50.2471C7.46348 49.8583 7.65277 49.1692 8.18959 49.2103C8.72642 49.2514 11.6029 50.8603 11.7767 50.9867C11.9505 51.1132 11.9753 50.9204 11.9753 50.9204C11.4261 48.3315 13.7316 47.7056 14.3398 47.6645C14.948 47.6234 15.4073 47.8985 15.4042 48.224C15.401 48.5496 14.9387 48.6824 14.9387 48.6824C13.5113 48.8341 13.1731 50.0795 13.7285 50.8951C14.284 51.7106 15.491 52.1436 16.4002 51.3344C17.3094 50.5252 16.6299 49.4379 16.3537 49.1218C16.0775 48.8057 15.792 48.4738 16.093 48.1735C16.173 48.0884 16.2822 48.0379 16.3977 48.0326C16.5133 48.0273 16.6264 48.0676 16.7136 48.145C19.6057 50.187 18.169 52.5293 18.169 52.5293C18.0881 52.759 18.0831 53.0093 18.1548 53.2421C18.2265 53.4749 18.371 53.6775 18.5661 53.819C19.2581 54.2868 30.9162 60.0872 31.7137 60.1567C32.3095 60.2105 38.0284 48.6761 41.3642 41.7472C42.987 38.3776 45.2926 34.458 48.4856 33.4275C48.4701 33.4401 51.1667 39.2532 46.2049 52.0267Z" fill="#E6AD83"/>
<path fill-rule="evenodd" clip-rule="evenodd" d="M70.2594 52.0262C70.2594 52.0262 81.5079 67.7205 83.6179 67.24C85.728 66.7596 108.002 50.6354 108.514 50.2466C109.026 49.8578 108.824 49.1687 108.287 49.2098C107.75 49.2509 104.874 50.8598 104.7 50.9863C104.526 51.1127 104.501 50.9199 104.501 50.9199C105.051 48.3311 102.745 47.7052 102.137 47.6641C101.529 47.623 101.066 47.898 101.073 48.2236C101.079 48.5492 101.538 48.6819 101.538 48.6819C102.965 48.8337 103.304 50.0791 102.748 50.8946C102.193 51.7101 100.986 52.1432 100.076 51.334C99.1672 50.5248 99.8468 49.4374 100.123 49.1213C100.399 48.8052 100.685 48.4733 100.384 48.173C100.304 48.0879 100.194 48.0375 100.079 48.0322C99.9634 48.0269 99.8502 48.0671 99.763 48.1446C96.871 50.1866 98.3077 52.5288 98.3077 52.5288C98.3886 52.7585 98.3936 53.0088 98.3219 53.2417C98.2501 53.4745 98.1057 53.6771 97.9105 53.8185C97.2185 54.2863 85.5604 60.0867 84.7629 60.1563C84.1672 60.21 78.4483 48.6756 75.1125 41.7467C73.4896 38.3771 71.212 34.4069 68.0159 33.3765C68.019 33.3954 65.2976 39.2527 70.2594 52.0262Z" fill="#E6AD83"/>
<path fill-rule="evenodd" clip-rule="evenodd" d="M74.8983 77.5039L93.5538 78.5692C93.5538 78.5692 92.0581 84.1989 91.844 84.8184C91.6299 85.438 58.2568 95.2718 58.2568 95.2718C58.2568 95.2718 24.8836 85.4411 24.6695 84.8184C24.4554 84.1957 22.9597 78.5692 22.9597 78.5692L41.6183 77.5039H74.8983Z" fill="#B62351"/>
<path fill-rule="evenodd" clip-rule="evenodd" d="M74.5262 95.6672C74.5262 95.6672 75.5037 94.5703 76.1584 94.4976C76.8131 94.4249 86.7087 97.4974 88.0492 97.9431C90.5534 98.7681 91.3788 106.042 85.4675 105.277C82.8858 104.96 76.3042 104.012 75.1747 103.721C74.0452 103.431 73.6946 101.594 73.6946 101.594L74.5262 95.6672Z" fill="#B62351"/>
<path fill-rule="evenodd" clip-rule="evenodd" d="M62.117 32.2419L67.9693 33.3293L69.1112 42.1231C69.1112 42.1231 70.4921 46.4189 70.6441 47.9362C70.7962 49.4535 69.0088 53.2687 68.4255 54.8271C67.8421 56.3855 67.8452 64.977 67.9165 65.5744C67.9879 66.1719 71.935 77.5071 71.935 77.5071C71.935 77.5071 69.0647 80.4943 58.2568 80.4943C47.4489 80.4943 44.5786 77.504 44.5786 77.504C44.5786 77.504 48.5226 66.1656 48.597 65.5713C48.6715 64.977 48.6684 56.3855 48.0881 54.824C47.5079 53.2624 45.7236 49.4503 45.8695 47.933C46.0153 46.4158 47.3962 42.1168 47.3962 42.1168L48.5381 33.323L54.3904 32.2356L58.2475 36.0762L62.117 32.2419Z" fill="#CF5392"/>
<path fill-rule="evenodd" clip-rule="evenodd" d="M26.5814 79.1442C26.5814 79.1442 74.5575 95.6224 75.7615 96.1123C76.8041 96.539 77.7846 102.15 73.6824 101.593C71.9633 101.36 29.2376 93.416 25.1261 92.4266C15.5656 90.1159 16.0466 75.4079 26.5814 79.1442Z" fill="#E6AD83"/>
<path fill-rule="evenodd" clip-rule="evenodd" d="M62.7191 91.5767C69.8933 94.0517 75.3764 95.9515 75.7736 96.1127C76.4128 96.375 77.0303 98.5909 76.4625 100.133C76.0839 100.551 75.6247 101.019 75.1158 101.502C74.6546 101.64 74.1691 101.671 73.6946 101.594C72.9219 101.489 63.8424 99.8205 53.7141 97.9302L62.7191 91.5767Z" fill="#D6725F"/>
<path fill-rule="evenodd" clip-rule="evenodd" d="M71.929 94.76C71.8421 96.2204 71.5194 98.765 70.3589 101.006C72.2207 101.344 73.434 101.559 73.6947 101.594C77.7969 102.15 76.8163 96.5365 75.7737 96.1129C75.5782 96.0339 74.1632 95.5376 71.929 94.76Z" fill="white"/>
<path fill-rule="evenodd" clip-rule="evenodd" d="M71.929 94.76C71.8421 96.2204 71.5194 98.765 70.3589 101.006L71.8949 101.284C73.2851 99.0716 73.4464 96.5807 73.4216 95.2784L71.929 94.76Z" fill="#DEDAE3"/>
<path fill-rule="evenodd" clip-rule="evenodd" d="M77.3809 96.827C77.3772 96.7963 77.3845 96.7652 77.4013 96.7395C77.4181 96.7137 77.4434 96.6949 77.4727 96.6865C77.5019 96.6781 77.5332 96.6806 77.5607 96.6937C77.5883 96.7067 77.6104 96.7293 77.623 96.7575L78.4329 99.732L79.6741 98.1515L79.4662 97.3865C79.4617 97.3705 79.4603 97.3538 79.4622 97.3373C79.4641 97.3208 79.4691 97.3048 79.477 97.2903C79.485 97.2757 79.4956 97.2629 79.5084 97.2526C79.5212 97.2423 79.5358 97.2346 79.5515 97.23C79.5672 97.2255 79.5836 97.2241 79.5998 97.226C79.616 97.2279 79.6317 97.233 79.646 97.2411C79.6603 97.2492 79.6728 97.26 79.683 97.273C79.6931 97.2861 79.7006 97.301 79.7051 97.317L79.8665 97.9049L80.0558 97.6647C80.077 97.6386 80.1073 97.622 80.1404 97.6185C80.1735 97.6149 80.2066 97.6247 80.2326 97.6457C80.258 97.6668 80.2742 97.6972 80.2777 97.7303C80.2812 97.7635 80.2717 97.7967 80.2512 97.8227L79.9534 98.1957L80.4871 100.159L81.7283 98.5782L81.5514 97.946C81.5438 97.929 81.5399 97.9105 81.5399 97.8918C81.54 97.8731 81.544 97.8547 81.5517 97.8377C81.5595 97.8208 81.5707 97.8057 81.5846 97.7936C81.5986 97.7815 81.615 97.7726 81.6326 97.7675C81.6503 97.7624 81.6688 97.7613 81.6869 97.7642C81.7051 97.7671 81.7224 97.774 81.7376 97.7843C81.7529 97.7947 81.7658 97.8083 81.7754 97.8242C81.7851 97.8401 81.7912 97.8579 81.7935 97.8765L81.9207 98.3443L82.1875 98.0061C82.1968 97.9899 82.2094 97.976 82.2244 97.9653C82.2394 97.9546 82.2565 97.9473 82.2745 97.9439C82.2926 97.9406 82.3111 97.9412 82.3289 97.9458C82.3466 97.9505 82.3632 97.9589 82.3775 97.9707C82.3917 97.9824 82.4033 97.9972 82.4114 98.0139C82.4196 98.0307 82.424 98.049 82.4246 98.0677C82.4251 98.0863 82.4217 98.1049 82.4145 98.1221C82.4073 98.1393 82.3966 98.1547 82.383 98.1673L82.0045 98.6477L82.5382 100.611L83.7794 99.0302L83.6367 98.5055C83.629 98.4885 83.6251 98.47 83.6252 98.4513C83.6252 98.4326 83.6293 98.4142 83.637 98.3972C83.6447 98.3803 83.6559 98.3652 83.6699 98.3531C83.6839 98.341 83.7002 98.3321 83.7179 98.327C83.7355 98.3219 83.7541 98.3208 83.7722 98.3237C83.7903 98.3266 83.8076 98.3335 83.8229 98.3438C83.8382 98.3542 83.851 98.3678 83.8607 98.3837C83.8703 98.3996 83.8765 98.4174 83.8787 98.436L83.9718 98.7837L84.3162 98.3475C84.3369 98.3216 84.3667 98.3051 84.3993 98.3015C84.4318 98.298 84.4644 98.3077 84.49 98.3285C84.5161 98.3496 84.5329 98.3804 84.537 98.4141C84.5411 98.4477 84.532 98.4817 84.5117 98.5087L84.0556 99.0871L84.5893 101.05L85.9888 99.2705C86.01 99.2444 86.0404 99.2278 86.0734 99.2243C86.1065 99.2207 86.1396 99.2305 86.1656 99.2515C86.191 99.2725 86.2072 99.3029 86.2107 99.3361C86.2142 99.3692 86.2047 99.4025 86.1842 99.4285L84.6731 101.354L85.1509 103.105C85.1586 103.122 85.1625 103.14 85.1624 103.159C85.1624 103.178 85.1583 103.196 85.1506 103.213C85.1429 103.23 85.1317 103.245 85.1177 103.257C85.1038 103.269 85.0874 103.278 85.0697 103.283C85.0521 103.288 85.0335 103.289 85.0154 103.287C84.9973 103.284 84.98 103.277 84.9647 103.266C84.9494 103.256 84.9366 103.242 84.9269 103.227C84.9173 103.211 84.9111 103.193 84.9089 103.174L84.4807 101.594L83.6739 102.618C83.6635 102.631 83.6507 102.641 83.6363 102.649C83.6219 102.657 83.6061 102.662 83.5898 102.664C83.5735 102.665 83.5571 102.664 83.5414 102.659C83.5258 102.654 83.5112 102.646 83.4986 102.635C83.4859 102.625 83.4755 102.612 83.4678 102.597C83.4601 102.582 83.4553 102.566 83.4537 102.55C83.4521 102.533 83.4538 102.516 83.4586 102.5C83.4633 102.484 83.4711 102.47 83.4815 102.457L84.3969 101.29L83.8632 99.3273L82.622 100.908L83.0657 102.539C83.0704 102.555 83.0719 102.572 83.07 102.589C83.0682 102.606 83.0631 102.622 83.055 102.637C83.0469 102.651 83.036 102.664 83.0229 102.675C83.0098 102.685 82.9948 102.693 82.9788 102.697C82.9467 102.706 82.9125 102.701 82.8835 102.685C82.8545 102.668 82.8331 102.641 82.8237 102.608L82.4358 101.139L81.5545 102.261C81.5443 102.274 81.5317 102.285 81.5174 102.293C81.5031 102.301 81.4873 102.306 81.471 102.308C81.4548 102.31 81.4383 102.309 81.4225 102.304C81.4068 102.299 81.392 102.292 81.3792 102.281C81.3664 102.271 81.3557 102.258 81.3477 102.243C81.3397 102.229 81.3347 102.213 81.3328 102.196C81.3309 102.18 81.3323 102.163 81.3368 102.147C81.3413 102.131 81.3488 102.116 81.359 102.103L82.352 100.838L81.8152 98.8753L80.574 100.456L80.9867 101.967C80.9952 102 80.9905 102.035 80.9737 102.065C80.9568 102.094 80.9291 102.116 80.8967 102.125C80.865 102.134 80.8312 102.129 80.8027 102.113C80.7742 102.096 80.7533 102.069 80.7446 102.036L80.3847 100.725L79.4258 101.941C79.4046 101.968 79.3742 101.984 79.3412 101.988C79.3081 101.991 79.275 101.981 79.249 101.96C79.2236 101.939 79.2074 101.909 79.2039 101.876C79.2004 101.843 79.2099 101.809 79.2304 101.783L80.3009 100.421L79.7672 98.4581L78.526 100.039L78.9045 101.429C78.9088 101.446 78.9099 101.462 78.9078 101.479C78.9057 101.496 78.9003 101.512 78.8921 101.526C78.8839 101.541 78.873 101.554 78.8599 101.564C78.8469 101.574 78.832 101.582 78.8161 101.586C78.8002 101.59 78.7836 101.591 78.7673 101.589C78.751 101.587 78.7352 101.582 78.721 101.573C78.7067 101.565 78.6942 101.554 78.6842 101.54C78.6741 101.527 78.6668 101.512 78.6625 101.496L78.3336 100.285L77.2972 101.6C77.2765 101.626 77.2467 101.642 77.2141 101.646C77.1816 101.65 77.149 101.64 77.1234 101.619C77.0973 101.598 77.0805 101.567 77.0764 101.533C77.0723 101.5 77.0814 101.466 77.1017 101.439L78.2498 99.9817L77.3809 96.827Z" fill="white"/>
<path fill-rule="evenodd" clip-rule="evenodd" d="M86.8546 98.0064C89.1012 98.7492 89.8428 105.277 84.5366 104.591C82.2186 104.275 76.3136 103.459 75.302 103.194C74.5821 103.004 74.2159 102.125 74.0607 101.629C73.9459 101.629 73.8218 101.61 73.6946 101.594C73.6946 101.594 74.0483 103.424 75.1747 103.721C76.3011 104.019 82.8858 104.945 85.4675 105.277C91.3788 106.042 90.5534 98.7682 88.0492 97.9432C86.7056 97.4975 76.8131 94.4219 76.1584 94.4977C75.5037 94.5736 74.5262 95.6673 74.5262 95.6673L74.883 95.7906C75.1654 95.5061 75.7519 94.9655 76.1801 94.915C76.7697 94.8486 85.6475 97.6081 86.8546 98.0064Z" fill="white"/>
<path fill-rule="evenodd" clip-rule="evenodd" d="M41.991 95.6672C41.991 95.6672 41.0135 94.5703 40.3588 94.4976C39.7041 94.4249 29.8085 97.4974 28.468 97.9431C25.9638 98.7681 25.1353 106.042 31.0497 105.277C33.6314 104.96 40.213 104.012 41.3394 103.721C42.4658 103.431 42.8195 101.594 42.8195 101.594L41.991 95.6672Z" fill="#B62351"/>
<path fill-rule="evenodd" clip-rule="evenodd" d="M89.9207 79.1442C89.9207 79.1442 41.9446 95.6224 40.7437 96.1123C39.7011 96.539 38.7175 102.15 42.8197 101.593C44.5419 101.36 87.2676 93.416 91.3791 92.4266C100.949 90.1159 100.468 75.4079 89.9207 79.1442Z" fill="#E6AD83"/>
<path fill-rule="evenodd" clip-rule="evenodd" d="M44.5786 94.76C44.6655 96.2204 44.9882 98.765 46.1457 101.006C44.2838 101.344 43.0706 101.559 42.8099 101.594C38.7077 102.15 39.6914 96.5365 40.734 96.1129C40.9357 96.0339 42.3507 95.5376 44.5786 94.76Z" fill="white"/>
<path fill-rule="evenodd" clip-rule="evenodd" d="M44.5788 94.76C44.6657 96.2204 44.9884 98.765 46.1458 101.006L44.6129 101.284C43.2197 99.0716 43.0614 96.5807 43.0863 95.2784L44.5788 94.76Z" fill="#DEDAE3"/>
<path fill-rule="evenodd" clip-rule="evenodd" d="M39.1359 96.827C39.1395 96.7963 39.1323 96.7652 39.1155 96.7395C39.0987 96.7137 39.0734 96.6949 39.0441 96.6865C39.0149 96.6781 38.9836 96.6806 38.9561 96.6937C38.9285 96.7067 38.9064 96.7293 38.8938 96.7575L38.0839 99.732L36.8427 98.1515L37.0506 97.3865C37.0543 97.3558 37.0471 97.3247 37.0303 97.299C37.0134 97.2732 36.9881 97.2544 36.9589 97.246C36.9296 97.2376 36.8984 97.2401 36.8708 97.2532C36.8433 97.2662 36.8212 97.2888 36.8086 97.317L36.6503 97.9049L36.461 97.6647C36.4398 97.6386 36.4094 97.622 36.3764 97.6185C36.3433 97.6149 36.3102 97.6247 36.2842 97.6457C36.2588 97.6668 36.2426 97.6972 36.2391 97.7303C36.2356 97.7635 36.2451 97.7967 36.2655 97.8227L36.5758 98.2084L36.039 100.171L34.7978 98.5908L34.9716 97.9586C34.9761 97.9427 34.9774 97.9259 34.9755 97.9094C34.9737 97.8929 34.9686 97.8769 34.9607 97.8624C34.9528 97.8479 34.9421 97.8351 34.9294 97.8248C34.9166 97.8144 34.9019 97.8067 34.8862 97.8022C34.8706 97.7976 34.8541 97.7962 34.8379 97.7981C34.8217 97.8 34.806 97.8052 34.7918 97.8132C34.7775 97.8213 34.7649 97.8322 34.7548 97.8452C34.7446 97.8582 34.7371 97.8731 34.7326 97.8891L34.6023 98.3569L34.3386 98.0187C34.3161 97.9979 34.287 97.9859 34.2566 97.985C34.2262 97.9841 34.1965 97.9943 34.1729 98.0138C34.1492 98.0333 34.1332 98.0608 34.1278 98.0912C34.1223 98.1217 34.1277 98.1532 34.1431 98.1799L34.5216 98.6604L33.9848 100.623L32.7436 99.0429L32.8863 98.5181C32.8939 98.5011 32.8979 98.4827 32.8978 98.464C32.8977 98.4453 32.8937 98.4268 32.886 98.4099C32.8783 98.3929 32.8671 98.3779 32.8531 98.3657C32.8391 98.3536 32.8228 98.3447 32.8051 98.3396C32.7875 98.3346 32.7689 98.3334 32.7508 98.3363C32.7327 98.3393 32.7154 98.3461 32.7001 98.3565C32.6848 98.3668 32.6719 98.3804 32.6623 98.3963C32.6527 98.4122 32.6465 98.43 32.6443 98.4486L32.5481 98.7963L32.2068 98.3601C32.1975 98.344 32.185 98.3301 32.1699 98.3193C32.1549 98.3086 32.1378 98.3013 32.1198 98.298C32.1018 98.2946 32.0832 98.2953 32.0655 98.2999C32.0477 98.3045 32.0311 98.313 32.0169 98.3247C32.0026 98.3365 31.991 98.3512 31.9829 98.368C31.9748 98.3847 31.9703 98.403 31.9697 98.4217C31.9692 98.4404 31.9726 98.4589 31.9798 98.4761C31.987 98.4933 31.9977 98.5087 32.0113 98.5213L32.4674 99.0998L31.9306 101.063L30.5311 99.2831C30.5106 99.2567 30.4805 99.2397 30.4476 99.2358C30.4148 99.232 30.3817 99.2416 30.3558 99.2626C30.3299 99.2835 30.3132 99.3141 30.3094 99.3476C30.3056 99.3811 30.3151 99.4147 30.3356 99.4411L31.8499 101.366L31.3721 103.117C31.3673 103.134 31.3659 103.151 31.3677 103.167C31.3695 103.184 31.3747 103.2 31.3828 103.215C31.3909 103.23 31.4018 103.243 31.4149 103.253C31.4279 103.263 31.4429 103.271 31.4589 103.275C31.491 103.284 31.5252 103.28 31.5542 103.263C31.5832 103.247 31.6047 103.219 31.6141 103.187L32.0423 101.606L32.846 102.631C32.8685 102.651 32.8976 102.663 32.9279 102.664C32.9583 102.665 32.988 102.655 33.0117 102.635C33.0353 102.616 33.0513 102.588 33.0568 102.558C33.0622 102.528 33.0568 102.496 33.0415 102.469L32.1261 101.303L32.6598 99.34L33.901 100.92L33.4542 102.552C33.4457 102.585 33.4503 102.62 33.4672 102.649C33.4841 102.679 33.5117 102.701 33.5442 102.71C33.5759 102.718 33.6096 102.714 33.6381 102.697C33.6666 102.681 33.6875 102.653 33.6962 102.621L34.0934 101.164L34.9747 102.286C34.9953 102.312 35.0253 102.329 35.0582 102.333C35.091 102.337 35.1241 102.328 35.15 102.307C35.1759 102.286 35.1926 102.255 35.1964 102.222C35.2002 102.188 35.1907 102.154 35.1702 102.128L34.1772 100.864L34.7109 98.9006L35.9521 100.481L35.527 101.989C35.5233 102.02 35.5305 102.051 35.5474 102.076C35.5642 102.102 35.5895 102.121 35.6188 102.129C35.648 102.138 35.6792 102.135 35.7068 102.122C35.7344 102.109 35.7564 102.087 35.7691 102.058L36.1321 100.725L37.0909 101.941C37.1115 101.968 37.1416 101.985 37.1744 101.989C37.2073 101.993 37.2403 101.983 37.2663 101.962C37.2922 101.941 37.3089 101.91 37.3127 101.877C37.3164 101.843 37.307 101.81 37.2864 101.783L36.2159 100.408L36.7496 98.4454L37.9908 100.026L37.6123 101.417C37.6075 101.433 37.6061 101.45 37.6079 101.467C37.6098 101.483 37.6149 101.5 37.623 101.514C37.6311 101.529 37.642 101.542 37.6551 101.552C37.6681 101.563 37.6831 101.57 37.6991 101.575C37.7316 101.583 37.7658 101.578 37.7947 101.56C37.8235 101.543 37.8449 101.516 37.8543 101.483L38.1832 100.272L39.2165 101.587C39.239 101.608 39.2681 101.62 39.2985 101.621C39.3289 101.622 39.3586 101.612 39.3822 101.592C39.4058 101.573 39.4218 101.545 39.4273 101.515C39.4328 101.484 39.4274 101.453 39.412 101.426L38.267 99.969L39.1359 96.827Z" fill="white"/>
<path fill-rule="evenodd" clip-rule="evenodd" d="M29.6625 98.0064C27.4159 98.7492 26.6742 105.277 31.9804 104.591C34.2953 104.275 40.2035 103.459 41.2151 103.194C41.9319 103.004 42.3011 102.125 42.4563 101.629C42.5742 101.629 42.6952 101.61 42.8224 101.594C42.8224 101.594 42.4718 103.424 41.3423 103.721C40.2128 104.019 33.6343 104.945 31.0526 105.277C25.1382 106.042 25.9667 98.7682 28.4709 97.9432C29.8145 97.4975 39.707 94.4219 40.3617 94.4977C41.0165 94.5736 41.9939 95.6673 41.9939 95.6673L41.6371 95.7906C41.3547 95.5061 40.7682 94.9655 40.3369 94.915C39.7473 94.8486 30.8695 97.6081 29.6625 98.0064Z" fill="white"/>
<path d="M58.2569 90.0371L44.585 94.7596" stroke="#D6725F" stroke-width="1.6258" stroke-linecap="round" stroke-linejoin="round"/>
<path fill-rule="evenodd" clip-rule="evenodd" d="M58.2324 25.3543H58.3037C59.3016 25.3416 60.2639 25.7318 60.9802 26.4396C61.6965 27.1474 62.1087 28.1152 62.1267 29.1317V33.557C62.1079 34.5729 61.6954 35.54 60.9791 36.2471C60.2629 36.9542 59.3011 37.344 58.3037 37.3313H58.2324C57.235 37.344 56.2732 36.9542 55.557 36.2471C54.8407 35.54 54.4282 34.5729 54.4094 33.557V29.1317C54.4274 28.1152 54.8396 27.1474 55.5559 26.4396C56.2722 25.7318 57.2345 25.3416 58.2324 25.3543Z" fill="#D6725F"/>
<path fill-rule="evenodd" clip-rule="evenodd" d="M67.0857 17.5244L67.278 17.556C67.854 17.6841 68.37 18.008 68.7413 18.4744C69.1126 18.9409 69.3171 19.5221 69.3211 20.1226C69.3252 20.7231 69.1286 21.3071 68.7637 21.7787C68.3987 22.2503 67.8871 22.5815 67.313 22.7176C66.7388 22.8538 66.1363 22.787 65.6044 22.5281C65.0724 22.2693 64.6428 21.8338 64.386 21.2932C64.1293 20.7527 64.0607 20.1392 64.1915 19.5537C64.3223 18.9681 64.6448 18.4454 65.1059 18.0713C65.0345 18.852 65.1494 19.8193 66.1268 19.9236L66.1082 18.3968C66.1123 18.2728 66.1413 18.151 66.1934 18.0388C66.2456 17.9267 66.3198 17.8267 66.4114 17.7449C66.503 17.6631 66.6101 17.6014 66.7261 17.5634C66.842 17.5255 66.9644 17.5122 67.0857 17.5244Z" fill="#D6725F"/>
<path fill-rule="evenodd" clip-rule="evenodd" d="M49.3266 17.3981L49.1373 17.4297C48.5602 17.5507 48.0407 17.868 47.664 18.3294C47.2873 18.7909 47.0758 19.3691 47.0642 19.9691C47.0527 20.5692 47.2417 21.1554 47.6003 21.6316C47.959 22.1077 48.4659 22.4456 49.0378 22.5895C49.6098 22.7335 50.2128 22.6752 50.7479 22.424C51.283 22.1728 51.7183 21.7438 51.9825 21.2074C52.2467 20.6709 52.3239 20.0589 52.2016 19.4718C52.0793 18.8847 51.7647 18.3574 51.3094 17.9765C51.3684 18.7573 51.2411 19.7246 50.2606 19.8131L50.3009 18.2895C50.2993 18.1641 50.2722 18.0405 50.2214 17.9264C50.1705 17.8122 50.097 17.71 50.0055 17.6263C49.9139 17.5425 49.8063 17.479 49.6895 17.4397C49.5726 17.4005 49.4491 17.3863 49.3266 17.3981Z" fill="#D6725F"/>
<path fill-rule="evenodd" clip-rule="evenodd" d="M58.1885 30.7691C53.3416 30.7691 49.2983 24.6779 49.2983 19.8669V13.4817C49.3049 11.0819 50.2436 8.78233 51.9095 7.08541C53.5753 5.38849 55.8327 4.43221 58.1885 4.42554C60.5444 4.43221 62.8018 5.38849 64.4676 7.08541C66.1334 8.78233 67.0722 11.0819 67.0787 13.4817V19.7373C67.0787 25.0035 63.5537 30.7691 58.1885 30.7691Z" fill="#E6AD83"/>
<path fill-rule="evenodd" clip-rule="evenodd" d="M63.2154 21.8706C62.9686 21.8707 62.7275 21.9457 62.5227 22.0861C62.318 22.2265 62.159 22.4258 62.066 22.6587C61.9731 22.8916 61.9504 23.1474 62.0008 23.3935C62.0513 23.6396 62.1726 23.8648 62.3493 24.0403C62.526 24.2158 62.7501 24.3337 62.9929 24.3788C63.2356 24.424 63.4861 24.3944 63.7123 24.2938C63.9385 24.1933 64.1301 24.0263 64.2627 23.8142C64.3953 23.6022 64.4628 23.3547 64.4567 23.1034C64.4486 22.7736 64.3142 22.46 64.0823 22.2297C63.8504 21.9994 63.5393 21.8705 63.2154 21.8706Z" fill="#D6725F"/>
<path fill-rule="evenodd" clip-rule="evenodd" d="M53.013 22.0732C52.766 22.0733 52.5248 22.1485 52.32 22.289C52.1152 22.4295 51.9562 22.6291 51.8633 22.8622C51.7705 23.0952 51.748 23.3512 51.7987 23.5974C51.8494 23.8435 51.9711 24.0687 52.1481 24.2441C52.3251 24.4194 52.5494 24.537 52.7924 24.5818C53.0354 24.6266 53.286 24.5966 53.5121 24.4955C53.7382 24.3945 53.9296 24.227 54.0618 24.0145C54.194 23.8021 54.261 23.5543 54.2542 23.3029C54.2453 22.9736 54.1106 22.6609 53.8788 22.4312C53.647 22.2016 53.3363 22.0731 53.013 22.0732Z" fill="#D6725F"/>
<path fill-rule="evenodd" clip-rule="evenodd" d="M55.5017 16.6736C55.5918 16.7155 55.6618 16.7922 55.6965 16.8867C55.7311 16.9813 55.7274 17.086 55.6863 17.1778C55.6451 17.2696 55.5699 17.3409 55.4771 17.3762C55.3842 17.4115 55.2815 17.4077 55.1913 17.3658C54.8397 17.2127 54.4575 17.146 54.0758 17.1713C53.6942 17.1965 53.3237 17.313 52.9944 17.5112C52.91 17.5653 52.8081 17.583 52.7109 17.5605C52.6137 17.538 52.5293 17.477 52.4762 17.3911C52.4231 17.3052 52.4057 17.2013 52.4278 17.1023C52.4499 17.0033 52.5098 16.9173 52.5941 16.8632C53.0305 16.6025 53.5209 16.4496 54.0258 16.4167C54.5307 16.3837 55.0361 16.4717 55.5017 16.6736Z" fill="#30295E"/>
<path fill-rule="evenodd" clip-rule="evenodd" d="M64.2954 16.845C64.3818 16.8941 64.4456 16.9761 64.4726 17.073C64.4997 17.1699 64.4878 17.2738 64.4397 17.3619C64.3916 17.4499 64.3111 17.5148 64.2159 17.5424C64.1208 17.5699 64.0188 17.5579 63.9324 17.5088C63.5941 17.3261 63.2184 17.2271 62.8356 17.22C62.4528 17.2129 62.0738 17.2977 61.7292 17.4677C61.6858 17.4908 61.6384 17.5049 61.5896 17.5093C61.5409 17.5136 61.4918 17.5082 61.4451 17.4932C61.3984 17.4782 61.3551 17.454 61.3176 17.422C61.2801 17.39 61.2491 17.3507 61.2265 17.3065C61.2039 17.2623 61.19 17.214 61.1858 17.1644C61.1815 17.1147 61.1868 17.0647 61.2015 17.0171C61.2162 16.9696 61.24 16.9254 61.2714 16.8872C61.3028 16.849 61.3414 16.8175 61.3848 16.7945C61.8398 16.5698 62.3404 16.4573 62.846 16.4661C63.3516 16.4748 63.8481 16.6047 64.2954 16.845Z" fill="#30295E"/>
<path fill-rule="evenodd" clip-rule="evenodd" d="M56.2276 24.1556C56.2223 24.7743 56.4584 25.3698 56.8841 25.8112C57.3098 26.2525 57.8901 26.5035 58.4975 26.509C59.1049 26.5144 59.6895 26.2739 60.1227 25.8402C60.556 25.4066 60.8024 24.8154 60.8077 24.1967C60.8081 24.144 60.7983 24.0917 60.7789 24.0428C60.7595 23.994 60.7308 23.9495 60.6945 23.9119C60.6582 23.8744 60.615 23.8444 60.5673 23.8239C60.5196 23.8033 60.4685 23.7925 60.4167 23.7921L56.6372 23.7573C56.5324 23.7565 56.4315 23.7979 56.3565 23.8725C56.2816 23.9471 56.2386 24.0489 56.2369 24.1556H56.2276Z" fill="#30295E"/>
<path fill-rule="evenodd" clip-rule="evenodd" d="M57.0657 25.9801C57.4333 26.2857 57.8847 26.468 58.358 26.502C58.8314 26.5359 59.3034 26.4199 59.7095 26.1698C59.5996 25.9112 59.418 25.691 59.1871 25.536C58.9561 25.3811 58.6858 25.2981 58.4093 25.2973C58.1454 25.2749 57.8806 25.3267 57.6437 25.4471C57.4067 25.5675 57.2068 25.7519 57.0657 25.9801Z" fill="#B94440"/>
<path fill-rule="evenodd" clip-rule="evenodd" d="M60.2832 23.7921L56.7302 23.7573C56.691 23.9289 56.707 24.1087 56.7757 24.2703C56.8444 24.432 56.9623 24.5668 57.1119 24.655C57.4222 24.7625 60.0039 24.7183 60.187 24.516C60.2827 24.288 60.316 24.0378 60.2832 23.7921Z" fill="white"/>
<path fill-rule="evenodd" clip-rule="evenodd" d="M58.6293 20.7804C58.8173 21.2478 58.9607 21.7326 59.0576 22.2281C59.0234 22.4209 58.0398 22.5442 57.7822 22.2818C57.6084 22.1016 57.8225 21.3651 58.0087 20.872C58.2632 20.1987 58.4059 20.1513 58.6293 20.7804Z" fill="#F1D3C8"/>
<path fill-rule="evenodd" clip-rule="evenodd" d="M63.4269 20.2431C63.4269 20.1386 63.4067 20.0352 63.3674 19.9387C63.328 19.8423 63.2704 19.7547 63.1977 19.6809C63.1251 19.6072 63.0388 19.5489 62.944 19.5092C62.8491 19.4695 62.7475 19.4493 62.645 19.4497C62.4384 19.4522 62.2411 19.5375 62.0959 19.6872C61.9506 19.837 61.8692 20.0389 61.8692 20.2494C61.8692 20.3333 61.8365 20.4137 61.7783 20.4729C61.7201 20.5322 61.6412 20.5655 61.5589 20.5655C61.4766 20.5655 61.3977 20.5322 61.3395 20.4729C61.2813 20.4137 61.2486 20.3333 61.2486 20.2494C61.2466 20.0612 61.2816 19.8745 61.3514 19.7003C61.4212 19.5261 61.5244 19.3678 61.6551 19.2347C61.7852 19.1013 61.9399 18.9954 62.1103 18.9232C62.2807 18.8509 62.4635 18.8137 62.6481 18.8137C62.8327 18.8137 63.0154 18.8509 63.1859 18.9232C63.3563 18.9954 63.511 19.1013 63.6411 19.2347C63.7752 19.3708 63.8807 19.5332 63.9514 19.7121C63.984 19.7192 64.0177 19.7193 64.0503 19.7122C64.083 19.7051 64.1137 19.6911 64.1406 19.671C64.1597 19.6586 64.1826 19.654 64.2048 19.658C64.227 19.662 64.247 19.6744 64.2606 19.6927C64.2743 19.711 64.2807 19.7339 64.2786 19.7568C64.2765 19.7797 64.266 19.801 64.2493 19.8164C64.1806 19.8694 64.0964 19.8973 64.0103 19.8954C64.1023 19.9152 64.1981 19.9041 64.2834 19.8638C64.2939 19.8585 64.3054 19.8555 64.3172 19.8549C64.3289 19.8543 64.3406 19.8561 64.3516 19.8602C64.3627 19.8643 64.3727 19.8707 64.3813 19.8789C64.3898 19.8872 64.3966 19.8971 64.4013 19.908C64.4066 19.9186 64.4097 19.9301 64.4105 19.9419C64.4113 19.9537 64.4098 19.9656 64.406 19.9768C64.4023 19.988 64.3964 19.9983 64.3886 20.0071C64.3809 20.0159 64.3715 20.0231 64.361 20.0281C64.2641 20.0739 64.1569 20.0925 64.0507 20.0819C64.1384 20.1211 64.2352 20.1342 64.3299 20.1198C64.3537 20.118 64.3772 20.1255 64.3956 20.1408C64.4141 20.1561 64.4261 20.178 64.4292 20.202C64.4319 20.2258 64.4252 20.2498 64.4107 20.2687C64.3962 20.2876 64.375 20.3 64.3517 20.3032C64.2527 20.3146 64.1525 20.306 64.0569 20.2779C64.0515 20.3617 64.0137 20.4399 63.9517 20.4954C63.8897 20.5508 63.8087 20.5789 63.7264 20.5734C63.6441 20.568 63.5673 20.5294 63.5129 20.4663C63.4585 20.4032 63.4309 20.3206 63.4363 20.2368L63.4269 20.2431Z" fill="#30295E"/>
<path fill-rule="evenodd" clip-rule="evenodd" d="M53.4787 20.2431C53.4787 20.1386 53.4989 20.0352 53.5383 19.9387C53.5776 19.8423 53.6352 19.7547 53.7079 19.6809C53.7806 19.6072 53.8668 19.5489 53.9616 19.5092C54.0565 19.4695 54.1581 19.4493 54.2606 19.4497C54.363 19.4505 54.4642 19.4719 54.5584 19.5125C54.6527 19.5532 54.7381 19.6124 54.8099 19.6868C54.8827 19.7603 54.9402 19.848 54.9791 19.9447C55.018 20.0413 55.0375 20.145 55.0364 20.2494C55.0364 20.3333 55.0691 20.4137 55.1273 20.4729C55.1855 20.5322 55.2644 20.5655 55.3467 20.5655C55.429 20.5655 55.5079 20.5322 55.5661 20.4729C55.6243 20.4137 55.657 20.3333 55.657 20.2494C55.659 20.0612 55.6241 19.8745 55.5543 19.7003C55.4845 19.5261 55.3812 19.3678 55.2505 19.2347C55.1204 19.1013 54.9657 18.9954 54.7953 18.9232C54.6249 18.8509 54.4421 18.8137 54.2575 18.8137C54.0729 18.8137 53.8902 18.8509 53.7198 18.9232C53.5493 18.9954 53.3946 19.1013 53.2646 19.2347C53.1313 19.3715 53.0258 19.5337 52.9543 19.7121C52.9217 19.7194 52.8879 19.7196 52.8552 19.7125C52.8226 19.7054 52.7918 19.6912 52.765 19.671C52.7454 19.6568 52.7213 19.6509 52.6976 19.6545C52.6739 19.658 52.6525 19.6707 52.6378 19.6899C52.6241 19.7093 52.6184 19.7334 52.6219 19.757C52.6253 19.7806 52.6377 19.8019 52.6564 19.8164C52.7246 19.8701 52.8091 19.898 52.8953 19.8954C52.8033 19.915 52.7076 19.9039 52.6222 19.8638C52.6016 19.8579 52.5796 19.8597 52.5602 19.8688C52.5408 19.8779 52.5252 19.8938 52.5162 19.9136C52.5072 19.9334 52.5055 19.9558 52.5113 19.9768C52.5171 19.9978 52.53 20.016 52.5478 20.0281C52.6446 20.0742 52.7518 20.0928 52.8581 20.0819C52.7704 20.1212 52.6735 20.1344 52.5788 20.1198C52.5549 20.1169 52.5309 20.1237 52.512 20.1388C52.4931 20.154 52.4808 20.1761 52.4779 20.2004C52.4751 20.2247 52.4818 20.2492 52.4966 20.2685C52.5115 20.2877 52.5332 20.3002 52.5571 20.3032C52.6611 20.3164 52.7667 20.3078 52.8674 20.2779C52.8772 20.3544 52.9142 20.4246 52.9714 20.4753C53.0285 20.5259 53.1019 20.5535 53.1777 20.5529C53.2573 20.5504 53.3329 20.5169 53.389 20.4593C53.445 20.4016 53.4771 20.3242 53.4787 20.2431Z" fill="#30295E"/>
<path fill-rule="evenodd" clip-rule="evenodd" d="M49.3265 17.3976L49.2986 18.8738C49.8258 18.6495 50.2609 18.2469 50.5305 17.7338C50.8002 17.2207 50.8878 16.6286 50.7787 16.0573C50.7787 16.0573 55.6164 15.1691 57.0686 10.5762C57.0686 10.5762 60.1965 11.6857 62.4524 10.7975C62.4524 10.7975 63.5074 14.7234 65.8347 15.4283C65.8347 15.4283 65.9247 18.3554 67.0759 18.5893V17.2427L68.0068 15.2797L67.2435 8.5753C67.2435 8.5753 63.7525 3.38813 63.1692 3.091C62.5858 2.79387 57.351 2.0542 57.351 2.0542L51.179 5.6103C51.179 5.6103 49.0069 8.5753 49.0069 9.24227C49.0069 9.90923 46.8999 14.1576 49.3265 17.3976Z" fill="#30295E"/>
<path d="M31.5247 60.1248L33.1972 60.6621M84.9 60.1374L83.4602 60.542" stroke="#D6725F" stroke-width="0.812899" stroke-linecap="round" stroke-linejoin="round"/>
<path fill-rule="evenodd" clip-rule="evenodd" d="M52.4757 44.5726C52.7881 44.2438 53.1611 43.981 53.5734 43.7994C53.9856 43.6177 54.429 43.5207 54.8782 43.514C55.3273 43.5072 55.7733 43.5908 56.1907 43.76C56.608 43.9292 56.9885 44.1806 57.3103 44.4999L58.3839 45.5652L59.4265 44.4683C59.7391 44.1397 60.1123 43.8772 60.5246 43.6958C60.937 43.5144 61.3805 43.4177 61.8296 43.4112C62.2788 43.4048 62.7247 43.4887 63.142 43.6581C63.5592 43.8276 63.9395 44.0793 64.2611 44.3988C67.7489 47.8474 62.694 52.0072 58.5111 54.4222C54.6354 52.6774 49.0841 48.1287 52.4757 44.5726Z" fill="white"/>
<path fill-rule="evenodd" clip-rule="evenodd" d="M32.893 30.9868L35.0652 32.4535L34.3484 33.5599C35.2265 34.151 35.2793 35.6651 34.7021 36.5596L33.9822 37.6723L32.9892 39.2054L32.8589 39.4045C32.731 39.5799 32.5668 39.7245 32.3779 39.8281C32.0676 39.9956 31.8566 40.0209 31.7573 40.1442C31.658 40.2675 31.6487 40.3971 31.6798 40.7163C31.6793 41.0978 31.5586 41.469 31.3353 41.7752L31.1367 42.0913L26.8142 48.7673L26.6156 49.0834C26.3347 49.5146 25.8977 49.8151 25.4001 49.9194C24.9025 50.0236 24.3846 49.9231 23.9594 49.6398L21.7873 48.1731C21.3638 47.8863 21.0687 47.4406 20.9664 46.9332C20.8641 46.4257 20.9629 45.8977 21.2411 45.4641L21.4397 45.148L25.7592 38.472L25.9578 38.1559C26.1348 37.8878 26.3762 37.6701 26.659 37.5237C27.0469 37.3119 27.1493 37.2582 27.2114 37.1349C27.29 36.9339 27.329 36.7191 27.3262 36.5027C27.3427 36.2556 27.4059 36.0141 27.5124 35.7915L27.6489 35.5829L28.6419 34.0466L29.3618 32.9371C29.9421 32.0394 31.326 31.4957 32.2073 32.0868L32.893 30.9868Z" fill="#8FCADA"/>
<path fill-rule="evenodd" clip-rule="evenodd" d="M32.8931 30.9868L33.7123 31.5368L32.9955 32.6432C33.8737 33.2343 33.9264 34.7452 33.3493 35.6429L32.6294 36.7556L31.6364 38.2887L31.5061 38.4878C31.3781 38.6632 31.2139 38.8078 31.0251 38.9114C30.7148 39.0789 30.5038 39.1042 30.4045 39.2433C30.3052 39.3824 30.2959 39.4962 30.3269 39.8154C30.3269 40.196 30.2061 40.5663 29.9825 40.8712L29.7839 41.1873L25.4644 47.8633L25.2659 48.1794C24.9843 48.6108 24.5468 48.9114 24.0487 49.0156C23.5506 49.1198 23.0322 49.0192 22.6066 48.7357L21.7905 48.1857C21.3669 47.8989 21.0719 47.4533 20.9696 46.9458C20.8673 46.4384 20.966 45.9103 21.2443 45.4767L21.4429 45.1606L25.7623 38.4847L25.9609 38.1686C26.138 37.9004 26.3794 37.6828 26.6622 37.5364C27.0501 37.3246 27.1525 37.2708 27.2146 37.1476C27.2932 36.9465 27.3322 36.7317 27.3294 36.5154C27.3459 36.2683 27.4091 36.0268 27.5156 35.8041L27.6521 35.5955L28.6451 34.0593L29.365 32.9498C29.9452 32.0521 31.3292 31.5084 32.2104 32.0995L32.8931 30.9868Z" fill="#B0DAED"/>
<path fill-rule="evenodd" clip-rule="evenodd" d="M34.7796 30.4908L33.8487 29.8586C33.7086 29.772 33.5406 29.7453 33.3814 29.7844C33.2221 29.8235 33.0844 29.9252 32.9984 30.0672L32.3096 31.1356L33.7308 32.0839L35.1519 33.0322L35.8439 31.967C35.9385 31.8306 35.9762 31.6616 35.9489 31.497C35.9215 31.3323 35.8314 31.1854 35.6981 31.0882L34.7796 30.4908Z" fill="#387286"/>
<path d="M29.2793 33.0134L27.8308 35.2512L33.2166 38.8688L34.6651 36.631L29.2793 33.0134Z" fill="#5293AA"/>
<path d="M14.1766 30.5693L4.16211 34.5037L4.76953 36.108L14.784 32.1737L14.1766 30.5693Z" fill="#255262"/>
<path d="M14.1775 30.5673L4.16309 34.5017L4.42548 35.1948L14.4399 31.2604L14.1775 30.5673Z" fill="#387286"/>
<path fill-rule="evenodd" clip-rule="evenodd" d="M3.64989 38.9684C3.37267 39.0565 3.07294 39.034 2.81139 38.9055C2.54983 38.7769 2.34598 38.552 2.24111 38.2761L0.860259 34.6252C0.756937 34.3492 0.759977 34.0436 0.868768 33.7697C0.977558 33.4959 1.18404 33.2741 1.44673 33.149L1.40329 33.0289C1.29666 32.7463 1.30176 32.4326 1.4175 32.1538C1.53324 31.875 1.75061 31.6527 2.0239 31.5338C1.96297 31.2605 2.00062 30.9741 2.12996 30.7269C2.2593 30.4796 2.47169 30.288 2.72829 30.1872C2.86964 30.1318 3.02034 30.1055 3.17172 30.1098C3.32309 30.114 3.47215 30.1487 3.6103 30.2119C3.74846 30.2751 3.87298 30.3654 3.9767 30.4778C4.08042 30.5902 4.16128 30.7224 4.21464 30.8668L7.21218 38.7692C7.32062 39.0577 7.31264 39.3782 7.18997 39.6606C7.0673 39.9431 6.83991 40.1647 6.55743 40.277C6.30064 40.3774 6.01697 40.3802 5.75829 40.285C5.49961 40.1898 5.28321 40.003 5.14866 39.7586C4.86813 39.8601 4.5599 39.8466 4.28897 39.7209C4.01804 39.5953 3.80559 39.3674 3.69643 39.0853L3.64989 38.9652V38.9684ZM12.1894 26.473C11.9072 26.5848 11.6796 26.8056 11.5564 27.0874C11.4332 27.3692 11.4243 27.6892 11.5316 27.9777L14.5322 35.9022C14.6425 36.19 14.86 36.4216 15.1373 36.5466C15.4146 36.6715 15.7292 36.6797 16.0124 36.5692C16.2684 36.4678 16.4801 36.276 16.6088 36.0288C16.7376 35.7816 16.7748 35.4954 16.7137 35.2226C16.9875 35.1043 17.2054 34.8821 17.3212 34.6031C17.437 34.324 17.4417 34.01 17.3343 33.7275L17.2908 33.6074C17.5563 33.4851 17.7662 33.2645 17.878 32.9904C17.9898 32.7163 17.9951 32.4091 17.8928 32.1312L16.5089 28.4803C16.404 28.2044 16.2002 27.9794 15.9386 27.8509C15.677 27.7224 15.3773 27.6999 15.1001 27.788L15.0567 27.6679C14.948 27.3851 14.736 27.1563 14.4652 27.0296C14.1943 26.9028 13.8858 26.888 13.6044 26.9883C13.4692 26.743 13.2515 26.5558 12.9915 26.4611C12.7315 26.3664 12.4466 26.3707 12.1894 26.473Z" fill="#387286"/>
<path fill-rule="evenodd" clip-rule="evenodd" d="M13.8586 34.1448L14.5227 35.9023C14.5708 36.0317 14.6424 36.1508 14.7337 36.2532C14.9016 36.4479 15.1285 36.58 15.3784 36.6284C15.6283 36.6769 15.887 36.6389 16.1133 36.5205C16.3396 36.4022 16.5207 36.2102 16.6277 35.9751C16.7347 35.74 16.7616 35.4752 16.7041 35.2227C16.9779 35.1044 17.1958 34.8822 17.3116 34.6032C17.4275 34.3241 17.4322 34.0101 17.3247 33.7276L17.2813 33.6075C17.5048 33.5007 17.6886 33.3235 17.8054 33.102C17.9222 32.8805 17.9658 32.6266 17.9298 32.3778C17.9183 32.2935 17.8975 32.2108 17.8678 32.1313L17.2006 30.3738C17.3047 30.6497 17.302 30.9557 17.1932 31.2297C17.0843 31.5037 16.8773 31.7254 16.6141 31.85L16.6607 31.9701C16.7673 32.2527 16.7622 32.5663 16.6465 32.8452C16.5307 33.124 16.3134 33.3463 16.0401 33.4652C16.0882 33.7452 16.0343 34.0334 15.8885 34.2758C15.7428 34.5181 15.5151 34.6979 15.2484 34.7814C14.9817 34.8648 14.6942 34.8462 14.44 34.729C14.1858 34.6118 13.9824 34.404 13.868 34.1448H13.8586Z" fill="#255262"/>
<path fill-rule="evenodd" clip-rule="evenodd" d="M7.21226 38.7694L6.54821 37.015C6.65088 37.2899 6.64784 37.5941 6.53971 37.8668C6.43158 38.1394 6.22633 38.3604 5.96507 38.4855C5.70381 38.6106 5.4058 38.6305 5.13073 38.5413C4.85565 38.4521 4.6238 38.2603 4.48159 38.0044C4.20025 38.1047 3.8917 38.0899 3.62086 37.9631C3.35001 37.8364 3.13798 37.6076 3.02937 37.3248L2.98593 37.2079C2.70831 37.295 2.40858 37.2717 2.14715 37.1427C1.88572 37.0136 1.68204 36.7884 1.57715 36.5125L2.2412 38.27C2.34607 38.5458 2.54992 38.7708 2.81147 38.8993C3.07303 39.0278 3.37276 39.0503 3.64998 38.9622L3.69652 39.0823C3.80509 39.365 4.01729 39.5936 4.28828 39.7199C4.55928 39.8461 4.86783 39.86 5.14874 39.7588C5.28705 40.0213 5.51894 40.2197 5.79662 40.3132C6.0743 40.4066 6.3766 40.388 6.6412 40.2611C6.9058 40.1343 7.11253 39.9088 7.21878 39.6313C7.32503 39.3537 7.3227 39.0452 7.21226 38.7694Z" fill="#255262"/>
<path fill-rule="evenodd" clip-rule="evenodd" d="M1.44666 33.1526C1.18532 33.2782 0.980273 33.4999 0.872652 33.7731C0.76503 34.0463 0.762795 34.3508 0.866395 34.6256L1.5832 36.5222C1.68804 36.7967 1.89073 37.0209 2.15075 37.1498C2.41077 37.2787 2.70898 37.3029 2.98577 37.2176L1.44666 33.1526Z" fill="#255262"/>
<path fill-rule="evenodd" clip-rule="evenodd" d="M15.001 27.5574L16.717 32.0839L16.6797 31.9701L16.6332 31.85C16.8964 31.7254 17.1033 31.5037 17.2122 31.2297C17.3211 30.9557 17.3237 30.6498 17.2196 30.3738L16.5028 28.4772C16.398 28.2014 16.1941 27.9764 15.9326 27.8479C15.671 27.7193 15.3713 27.6969 15.0941 27.785L15.0506 27.6648C15.0359 27.6282 15.0193 27.5923 15.001 27.5574Z" fill="#255262"/>
<path fill-rule="evenodd" clip-rule="evenodd" d="M101.47 23.2015C101.554 22.4334 101.895 20.9888 102.376 20.875C102.659 20.8181 103.022 20.9382 102.721 21.6115C102.213 22.6842 101.941 23.8567 101.923 25.0475C101.895 26.5743 101.365 24.0834 101.47 23.2015Z" fill="#387286"/>
<path fill-rule="evenodd" clip-rule="evenodd" d="M101.653 23.7957C101.56 22.5313 100.511 21.5641 98.9969 21.583C97.4826 21.602 97.0513 21.7917 97.0513 21.7917C97.0513 21.7917 98.3235 24.9179 101.653 23.7957Z" fill="#387286"/>
<path fill-rule="evenodd" clip-rule="evenodd" d="M101.653 23.7957C101.746 22.5313 102.795 21.5641 104.309 21.583C105.824 21.602 106.255 21.7917 106.255 21.7917C106.255 21.7917 104.986 24.9179 101.653 23.7957Z" fill="#387286"/>
<path fill-rule="evenodd" clip-rule="evenodd" d="M100.433 32.8678C101.312 32.9468 101.541 32.4632 101.839 32.4632C102.137 32.4632 102.519 32.9468 103.208 32.8678C107.347 32.3937 110.655 23.4354 101.33 23.682C93.4299 23.8906 96.1141 32.479 100.433 32.8678Z" fill="#CC342A"/>
<path fill-rule="evenodd" clip-rule="evenodd" d="M98.9347 24.5449C97.4979 25.2719 96.657 26.5205 97.0542 27.336C97.4514 28.1515 98.9378 28.2242 100.374 27.4972C101.811 26.7702 102.652 25.5184 102.255 24.7029C101.858 23.8874 100.371 23.8147 98.9347 24.5449Z" fill="#D1544B"/>
<path fill-rule="evenodd" clip-rule="evenodd" d="M79.643 32.1879C80.1376 31.4547 80.8969 30.9507 81.7551 30.786C82.6133 30.6213 83.5006 30.8094 84.2231 31.3091L85.4178 32.1405L86.2339 30.9266C86.7289 30.1939 87.4885 29.6906 88.3466 29.5265C89.2048 29.3625 90.0918 29.551 90.814 30.0511C94.6834 32.7442 90.5502 37.5426 86.9631 40.536C83.0036 39.5308 76.993 36.1328 79.643 32.1879Z" fill="#CC342A"/>
<path fill-rule="evenodd" clip-rule="evenodd" d="M80.2388 32.8706C79.581 33.8822 79.5903 34.9474 80.2575 35.2572C80.9246 35.567 81.9952 34.998 82.653 33.9928C83.3108 32.9876 83.3015 31.916 82.6344 31.6063C81.9672 31.2965 80.8843 31.8623 80.2388 32.8706Z" fill="#D1544B"/>
<path fill-rule="evenodd" clip-rule="evenodd" d="M86.5784 31.36C86.0757 32.0238 86.0292 32.7603 86.4729 33.0069C86.9166 33.2535 87.6862 32.9152 88.1858 32.2514C88.6854 31.5876 88.735 30.8543 88.2913 30.6077C87.8475 30.3612 87.0904 30.6994 86.5784 31.36Z" fill="#D1544B"/>
</g>
<defs>
<clipPath id="clip0_2049_3103">
<rect width="114.493" height="105.333" fill="white" transform="translate(0.782715)"/>
</clipPath>
</defs>
</svg>
