<svg width="79" height="102" viewBox="0 0 79 102" fill="none" xmlns="http://www.w3.org/2000/svg">
<path d="M25.6597 132.135C31.8994 119.111 47.9785 99.69 45.353 85.2334L13.5237 85.6421C13.5237 85.6421 8.25015 116.166 6.10091 129.046C3.86432 142.438 10.0548 175.483 10.0548 175.483L20.724 175.685C20.724 175.685 24.4766 147.398 25.6597 132.135Z" fill="#407BFF"/>
<path opacity="0.6" d="M40.2029 106.597C37.0534 112.837 33.066 119.057 29.7535 124.661C28.1821 127.312 26.7677 129.82 25.6617 132.132C24.4766 147.4 20.7253 175.684 20.7253 175.684L10.0534 175.481C10.0534 175.481 3.8663 142.436 6.10561 129.048C8.25349 116.162 13.5236 85.6389 13.5236 85.6389L45.3563 85.2329C46.5272 91.7025 43.961 99.1594 40.2029 106.597Z" fill="white"/>
<path opacity="0.2" d="M40.2024 106.597C37.0529 112.837 33.0655 119.057 29.7529 124.661C30.5451 111.593 34.192 96.5605 40.2024 106.597Z" fill="black"/>
<path d="M61.7411 129.506C62.493 115.387 63.5171 94.2662 58.7847 87.7741L29.7344 87.1226C29.7344 87.1226 37.8121 118.034 40.8286 131.061C43.9631 144.606 51.6458 176.626 51.6458 176.626L61.7295 176.653C61.7295 176.653 65.532 145.619 61.7411 129.506Z" fill="#407BFF"/>
<path opacity="0.6" d="M61.7411 129.506C62.493 115.387 63.5171 94.2662 58.7847 87.7741L29.7344 87.1226C29.7344 87.1226 37.8121 118.034 40.8286 131.061C43.9631 144.606 51.6458 176.626 51.6458 176.626L61.7295 176.653C61.7295 176.653 65.532 145.619 61.7411 129.506Z" fill="white"/>
<path d="M24.6707 45.4298C22.3127 47.5292 19.7391 49.6683 17.3599 51.7315C16.1747 52.7761 14.9977 53.8009 13.9695 54.7889C13.4694 55.2802 12.9911 55.7591 12.6356 56.129L12.4057 56.3719C12.345 56.4346 12.3033 56.4783 12.2658 56.5022C12.201 56.5779 12.345 56.1665 12.3259 56.0457C12.3265 55.7291 12.1935 55.8799 12.1826 56.2327C12.1628 56.5847 12.2297 57.1176 12.3668 57.6982C12.6206 58.8814 13.1173 60.2589 13.6925 61.6522C14.8517 64.4366 16.3944 67.4128 17.8341 70.2696L17.918 70.4361C18.7716 72.1289 18.0906 74.1929 16.3978 75.0464C15.1779 75.6612 13.7621 75.477 12.7489 74.6937C11.2328 73.5181 9.95009 72.3268 8.6428 71.0229C8.0069 70.3686 7.37918 69.6972 6.7617 69.0033C6.15854 68.2992 5.56494 67.5739 4.98431 66.8158C3.83326 65.2882 2.7484 63.6465 1.80478 61.6515C1.34696 60.6437 0.920521 59.5446 0.610756 58.2236C0.313273 56.9088 0.090156 55.33 0.467468 53.352C0.628491 52.4009 1.10747 51.2014 1.4534 50.5348C1.62807 50.1923 1.80274 49.8695 1.97263 49.5768C2.13365 49.31 2.31037 49.0057 2.46661 48.7731C3.10934 47.7701 3.7275 46.95 4.35727 46.1756C5.6011 44.6417 6.83197 43.2703 8.10992 41.9794C9.37013 40.6714 10.672 39.4583 11.9868 38.2684C13.3261 37.0853 14.6252 35.9704 16.1079 34.8555C19.1134 32.5964 23.3812 33.2016 25.6403 36.2071C27.7793 39.053 27.3501 43.0308 24.7471 45.3629L24.6707 45.4298Z" fill="#E9B376"/>
<path d="M25.8508 48.2285C24.0174 50.4481 21.1695 52.4977 18.688 54.0363C17.3391 54.868 16.1082 55.5551 15.1919 56.0395C14.2428 56.5437 13.6403 56.8255 13.6403 56.8255C12.8482 56.0204 12.0294 54.9594 11.2373 53.7743C8.19898 49.2172 5.58031 42.7094 6.27421 40.7976C6.27421 40.7976 6.75864 40.4374 7.58354 39.8485C11.4338 37.0989 22.7668 29.3663 27.9523 29.6672C27.9652 29.6672 27.972 29.6672 27.985 29.6741C29.3865 29.7593 30.283 30.4075 30.794 31.4289C32.7188 35.2389 29.177 44.2214 25.8508 48.2285Z" fill="#263238"/>
<path opacity="0.2" d="M19.5852 47.1543C19.5593 49.7013 19.225 52.0123 18.688 54.0353C17.3391 54.867 16.1082 55.5541 15.1919 56.0385C14.2428 56.5428 13.6404 56.8245 13.6404 56.8245C12.8482 56.0194 12.0295 54.9585 11.2373 53.7733C13.9808 49.616 19.5852 47.1543 19.5852 47.1543Z" fill="black"/>
<g opacity="0.2">
<path d="M25.8508 48.2285C24.0174 50.4481 21.1695 52.4977 18.688 54.0363C17.3391 54.868 16.1082 55.5551 15.1919 56.0395C14.2428 56.5437 13.6403 56.8255 13.6403 56.8255C12.8482 56.0204 12.0294 54.9594 11.2373 53.7743C8.19898 49.2172 5.58031 42.7094 6.27421 40.7976C6.27421 40.7976 6.75864 40.4374 7.58354 39.8485C11.4338 37.0989 22.7668 29.3663 27.9523 29.6672C27.9652 29.6672 27.972 29.6672 27.985 29.6741C29.3865 29.7593 30.283 30.4075 30.794 31.4289C32.7188 35.2389 29.177 44.2214 25.8508 48.2285Z" fill="white"/>
</g>
<path d="M62.4108 40.2862C61.7101 43.8219 61.2256 47.4231 60.8852 50.9909C60.5645 54.356 60.368 57.689 60.2568 60.8972C59.7785 73.835 60.5119 84.7688 58.7837 87.7737C58.7837 87.7737 30.0343 88.2779 13.2797 87.1187C10.7129 74.8032 12.4022 65.1588 15.1915 56.0385C17.3851 48.8498 20.2528 41.9879 22.256 34.4062C22.3672 33.9934 22.518 33.6072 22.7207 33.2476C23.7223 31.3686 25.7978 30.1636 27.9846 29.6731C28.3906 29.5748 28.8027 29.5093 29.2155 29.4636C30.7411 29.3067 32.365 29.1818 34.0605 29.0972C40.8828 28.7369 48.7463 28.9792 55.13 29.8764C60.106 30.5703 63.3865 35.3628 62.4108 40.2862Z" fill="#263238"/>
<path opacity="0.2" d="M62.4108 40.2862C61.7101 43.8219 61.2256 47.4231 60.8852 50.9909C60.5645 54.356 60.368 57.689 60.2568 60.8972C59.7785 73.835 60.5119 84.7688 58.7837 87.7737C58.7837 87.7737 30.0343 88.2779 13.2797 87.1187C10.7129 74.8032 12.4022 65.1588 15.1915 56.0385C17.3851 48.8498 20.2528 41.9879 22.256 34.4062C22.3672 33.9934 22.518 33.6072 22.7207 33.2476C23.7223 31.3686 25.7978 30.1636 27.9846 29.6731C28.3906 29.5748 28.8027 29.5093 29.2155 29.4636C30.7411 29.3067 32.365 29.1818 34.0605 29.0972C40.8828 28.7369 48.7463 28.9792 55.13 29.8764C60.106 30.5703 63.3865 35.3628 62.4108 40.2862Z" fill="white"/>
<path opacity="0.2" d="M60.8854 50.9908C60.5648 54.3559 60.3682 57.6889 60.257 60.8971C56.7084 57.7149 55.7197 49.4263 55.7197 49.4263C57.6902 49.5771 59.4192 50.1529 60.8854 50.9908Z" fill="black"/>
<path d="M60.6836 32.0763L61.557 32.7429L62.3416 33.3645C62.8567 33.78 63.3521 34.2078 63.8468 34.6363C64.8388 35.4905 65.7831 36.3932 66.722 37.3136C68.5799 39.1715 70.3716 41.1454 72.0132 43.3568C73.6624 45.5626 75.2044 47.9739 76.4168 50.8491C77.0138 52.2915 77.5569 53.8437 77.8633 55.5809C78.1737 57.3091 78.2829 59.2237 77.9881 61.203L77.924 61.6322C77.9022 61.7802 77.8633 61.9392 77.8203 62.0777C77.3488 63.5454 76.7491 64.7066 76.0961 65.7192C75.4452 66.7297 74.7629 67.603 74.071 68.4102C72.688 70.0067 71.2088 71.3045 69.7309 72.5101C68.2306 73.6912 66.7043 74.7569 65.1295 75.719C63.5357 76.6844 61.9841 77.5421 60.2094 78.3308C58.475 79.1011 56.4445 78.3199 55.6742 76.5855C55.1236 75.3458 55.3658 73.9545 56.1818 72.9809L56.3019 72.839L59.4787 69.0631C60.526 67.8022 61.542 66.5475 62.4685 65.2927C62.9291 64.6664 63.3862 64.055 63.7936 63.4369C64.1982 62.8194 64.5707 62.2094 64.9105 61.6322C65.5593 60.5003 65.9844 59.3083 65.9551 58.8941L65.7872 59.7688C65.762 59.0046 65.3929 57.7342 64.6144 56.2618C64.2241 55.5317 63.7451 54.7689 63.1965 54.0027C62.6603 53.2283 62.0605 52.4484 61.411 51.6767C60.1044 50.1382 58.6613 48.5941 57.1145 47.1142C56.3503 46.365 55.5486 45.6431 54.7544 44.9179L53.5502 43.8555L52.9559 43.3383L52.4292 42.8928L52.1692 42.6731C49.3015 40.2489 48.9419 35.9586 51.3661 33.0909C53.7132 30.3159 57.8227 29.9018 60.6836 32.0763Z" fill="#E9B376"/>
<path d="M77.5218 51.0174L64.2503 58.5535C64.2503 58.5535 59.4312 55.1884 55.2016 51.8819C55.2016 51.8819 52.3537 42.6306 46.2778 34.2172L48.5956 30.6289L49.748 28.8413C57.8926 30.4386 63.6547 29.0835 75.597 47.9007C76.2261 48.8832 76.8606 49.9176 77.5218 51.0174Z" fill="#263238"/>
<path opacity="0.2" d="M77.5218 51.0174L64.2503 58.5535C64.2503 58.5535 59.4312 55.1884 55.2016 51.8819C55.2016 51.8819 52.3537 42.6306 46.2778 34.2172L48.5956 30.6289L49.748 28.8413C57.8926 30.4386 63.6547 29.0835 75.597 47.9007C76.2261 48.8832 76.8606 49.9176 77.5218 51.0174Z" fill="white"/>
<path opacity="0.5" d="M75.5971 47.9007L71.9502 49.9108C71.9502 49.9108 66.21 38.5429 58.5689 34.2219C56.262 32.9174 49.4731 30.8125 48.5957 30.6289L49.7481 28.8413C57.8934 30.4393 63.6548 29.0835 75.5971 47.9007Z" fill="white"/>
<path opacity="0.5" d="M34.061 29.0972L32.1233 31.2908C32.1233 31.2908 31.5993 31.3494 30.7942 31.4279C29.4978 31.5589 27.4809 31.7486 25.8052 31.8537C25.2286 31.8925 24.1158 32.4234 22.7212 33.2483C17.5684 36.2859 8.57914 43.246 8.57914 43.246C7.73445 42.0411 7.57753 40.7256 7.58367 39.8482C11.4339 37.0985 22.7669 29.366 27.9524 29.6669C27.9654 29.6669 27.9722 29.6669 27.9851 29.6737C28.3911 29.5755 28.8032 29.51 29.216 29.4642C30.741 29.3066 32.3648 29.1818 34.061 29.0972Z" fill="white"/>
<path d="M33.2936 30.9575C33.7937 30.2186 34.7667 28.9051 35.9089 28.4821C36.3141 27.4873 36.3687 26.3759 35.9969 25.0734L48.7682 21.0068C47.7352 25.2282 46.928 28.564 48.4973 30.6143C45.6828 34.8575 34.5675 38.8476 34.5675 38.8476C34.5675 38.8476 30.4662 35.1346 33.2936 30.9575Z" fill="#EBB376"/>
<path opacity="0.2" d="M36.0989 25.468L45.6832 24.9058C42.6851 28.1078 38.1444 29.3121 36.0723 28.0102C36.2892 27.2413 36.3097 26.4068 36.0989 25.468Z" fill="black"/>
<path d="M40.7646 34.3281L40.6978 36.0414C40.6978 36.0414 44.666 35.413 40.7646 34.3281Z" fill="#263238"/>
<path d="M33.0678 33.295L32.2279 35.3937C32.2279 35.3937 30.6995 34.9189 31.3381 33.7105C31.9768 32.5008 33.0678 33.295 33.0678 33.295Z" fill="#263238"/>
<path d="M31.8483 32.7417C31.8483 32.7417 32.7898 35.9014 34.5208 38.0002C34.5208 38.0002 41.2592 35.5105 44.1085 32.8836L45.6833 34.5737C45.6833 34.5737 38.661 39.4098 34.5208 40.1433C34.5208 40.1433 31.6756 38.6074 30.4673 33.4827L31.8483 32.7417Z" fill="#263238"/>
<path opacity="0.5" d="M31.8483 32.7417C31.8483 32.7417 32.7898 35.9014 34.5208 38.0002C34.5208 38.0002 41.2592 35.5105 44.1085 32.8836L45.6833 34.5737C45.6833 34.5737 38.661 39.4098 34.5208 40.1433C34.5208 40.1433 31.6756 38.6074 30.4673 33.4827L31.8483 32.7417Z" fill="white"/>
<path d="M47.6211 27.7678C47.6211 27.7678 44.5071 32.8837 40.7646 34.3281C43.8869 35.8074 44.4129 38.0003 44.4129 38.0003C44.4129 38.0003 48.4822 35.9616 49.7465 28.8438C48.9488 27.701 47.6211 27.7678 47.6211 27.7678Z" fill="#263238"/>
<path d="M35.9092 28.4823C35.9092 28.4823 33.167 31.5533 33.0688 33.2953C30.5593 34.0049 28.6973 37.0247 28.6973 37.0247C28.6973 37.0247 29.5495 31.769 33.4856 28.9354C34.4409 28.3056 35.9092 28.4823 35.9092 28.4823Z" fill="#263238"/>
<path d="M43.1298 7.8058C43.1298 7.8058 39.3431 15.0314 36.5798 16.2322C35.8906 16.5324 35.2629 16.4574 34.7717 15.8024C33.5094 14.1103 32.9772 11.613 33.2092 9.31368C33.4275 7.15079 34.3213 5.15847 35.9111 4.15549C39.193 2.09494 42.9729 3.8894 43.1298 7.8058Z" fill="#263238"/>
<path opacity="0.5" d="M37.071 15.7611C36.9141 15.959 36.7503 16.1159 36.5798 16.2319C35.8906 16.5321 35.2629 16.4571 34.7717 15.8021C33.5094 14.1099 32.9772 11.6127 33.2092 9.31337C33.7891 8.65836 34.5192 8.8153 34.5192 8.8153C33.8505 9.23832 33.5503 10.2549 33.5162 10.3778C34.0621 9.12915 36.3205 9.04046 36.3205 9.04046C38.2241 9.66817 39.1043 13.2707 37.071 15.7611Z" fill="white"/>
<path d="M51.2572 14.5434C49.7343 20.0386 48.5717 23.7421 44.6034 25.5086C36.7188 29.0191 33.1947 25.2957 32.9163 19.4941C32.6652 14.2725 35.1986 6.16267 41.5304 4.98024C47.7693 3.81623 52.7808 9.04812 51.2572 14.5434Z" fill="#EBB376"/>
<path d="M46.8909 11.6831C45.1912 13.3036 44.5151 20.4425 47.0819 20.3258C49.6487 20.2092 52.294 19.6538 52.294 19.6538C52.294 19.6538 55.5608 18.4202 53.7719 13.5199C51.9822 8.61825 46.8909 11.6831 46.8909 11.6831Z" fill="#263238"/>
<path d="M42.6187 14.2398C42.5273 14.729 42.1943 15.0756 41.8743 15.0129C41.5543 14.9501 41.3694 14.5025 41.4609 14.0133C41.5523 13.5241 41.8853 13.1775 42.2053 13.2403C42.5246 13.303 42.7102 13.7506 42.6187 14.2398Z" fill="#263238"/>
<path d="M36.4878 13.5616C36.3963 14.0508 36.0634 14.3967 35.7434 14.3347C35.4234 14.2719 35.2385 13.8243 35.3292 13.3351C35.4207 12.8459 35.7536 12.4993 36.0736 12.562C36.3936 12.6248 36.5792 13.0717 36.4878 13.5616Z" fill="#263238"/>
<path d="M37.0711 13.7026L36.3369 17.8237C36.3369 17.8237 35.6055 17.8572 34.8816 17.619C34.4654 17.4819 34.3917 16.9108 34.7513 16.6604C36.0074 15.7837 37.0711 13.7026 37.0711 13.7026Z" fill="#D58745"/>
<path d="M43.4096 12.9059C43.458 12.9087 43.5078 12.8998 43.5549 12.8766C43.6995 12.8056 43.7582 12.6303 43.6859 12.4849C42.9633 11.0289 41.6247 10.8474 41.568 10.8406C41.4077 10.8208 41.2624 10.9348 41.2446 11.0951C41.2262 11.2555 41.3408 11.4008 41.5005 11.4219C41.5448 11.4281 42.5867 11.5802 43.1632 12.7422C43.2117 12.8404 43.3079 12.8998 43.4096 12.9059Z" fill="#263238"/>
<path d="M33.7575 11.3008C33.8509 11.3172 33.9499 11.2878 34.0195 11.2135C34.8989 10.2753 35.9394 10.4425 35.9831 10.45C36.1421 10.4773 36.2922 10.3715 36.3195 10.2125C36.3461 10.0536 36.241 9.90209 36.0821 9.87343C36.0241 9.86456 34.6936 9.63463 33.5916 10.8102C33.4818 10.9276 33.4879 11.1132 33.606 11.2244C33.6496 11.266 33.7022 11.2912 33.7575 11.3008Z" fill="#263238"/>
<path d="M35.5415 19.6038C35.5415 19.6038 37.6253 19.1432 43.4658 19.1944C42.7657 20.9438 41.4769 22.3657 38.4857 22.3112C35.4945 22.2573 35.5415 19.6038 35.5415 19.6038Z" fill="#263238"/>
<path d="M39.8846 20.9439C38.4416 20.9173 37.3956 21.2373 36.6191 21.764C37.0415 22.0765 37.6474 22.2935 38.4832 22.3085C39.9263 22.3345 40.9661 22.0226 41.7419 21.4884C41.3188 21.1766 40.7205 20.9589 39.8846 20.9439Z" fill="#A02724"/>
<path d="M35.8066 19.5561C35.969 19.932 36.1301 20.308 36.7141 20.4349C37.9306 20.5283 41.0481 20.2097 41.8859 20.0425C42.4222 19.9593 42.8807 19.7805 43.213 19.1924C38.7153 19.1644 36.5162 19.4421 35.8066 19.5561Z" fill="white"/>
<path opacity="0.5" d="M46.8909 11.6831C45.1912 13.3036 44.5151 20.4425 47.0819 20.3258C49.6487 20.2092 52.294 19.6538 52.294 19.6538C52.294 19.6538 55.5608 18.4202 53.7719 13.5199C51.9822 8.61825 46.8909 11.6831 46.8909 11.6831Z" fill="white"/>
<path d="M52.388 20.9804C51.2806 22.1976 49.7106 22.7837 48.3542 22.8179C46.3142 22.869 45.7745 20.9197 46.7433 19.2515C47.616 17.7497 49.7284 15.913 51.5822 16.6574C53.4094 17.3902 53.6544 19.5885 52.388 20.9804Z" fill="#EBB376"/>
<path d="M54.0726 6.7807C52.0892 2.02574 46.6929 4.03853 42.2163 0.479651C40.2984 -1.04529 37.5098 1.32025 38.0065 4.00374L38.0038 4.00169C38.0065 4.01124 38.0092 4.02011 38.012 4.02966C38.0556 4.25482 38.1204 4.48204 38.2132 4.70992C39.0647 7.40024 40.0657 8.12143 41.0025 8.91699C40.5447 8.24288 40.2049 7.47734 39.9647 6.82165C40.2499 7.03043 40.5658 7.23239 40.922 7.42548C48.4928 11.5227 47.5812 18.1369 57.3688 16.2019C53.1788 13.2646 55.8446 11.028 54.0726 6.7807Z" fill="#263238"/>
<g opacity="0.5">
<path d="M18.7241 56.8235C19.0537 55.1785 20.5609 53.7948 22.2646 53.6181C23.1679 53.5239 23.8796 53.7825 24.2739 54.34C24.0113 54.5631 23.7479 54.7876 23.4845 55.0127C23.1679 54.6149 22.7108 54.4485 22.1322 54.5092C20.9825 54.6286 19.9891 55.5463 19.7626 56.6782C19.534 57.8129 20.2068 58.4986 21.3564 58.3751C21.9357 58.313 22.4768 58.0537 22.9694 57.5795C23.1495 57.7699 23.3283 57.9609 23.5084 58.1527C22.8732 58.7879 22.0319 59.1775 21.1217 59.2771C19.4242 59.462 18.3952 58.4727 18.7241 56.8235Z" fill="white"/>
<path d="M24.3697 56.2113C24.6959 54.5894 26.2045 53.2931 27.917 53.2473C29.631 53.2016 30.6476 54.4175 30.3208 56.0386C29.9933 57.6639 28.4977 58.8272 26.783 58.8811C25.0684 58.935 24.0422 57.8372 24.3697 56.2113ZM29.2898 56.0339C29.5143 54.9176 28.8497 54.1091 27.7376 54.1391C26.6241 54.1691 25.632 55.0261 25.4062 56.1464C25.181 57.2681 25.8497 58.0234 26.9625 57.9893C28.076 57.9545 29.064 57.1515 29.2898 56.0339Z" fill="white"/>
<path d="M34.5863 57.7032C33.6768 57.6343 32.7646 57.5831 31.8503 57.5497C31.5849 57.9645 31.3202 58.3793 31.0547 58.7962C30.7047 58.786 30.3533 58.7792 30.002 58.7737C31.1946 56.9636 32.3852 55.1711 33.5731 53.3965C33.9068 53.4142 34.2404 53.4333 34.5734 53.4558C35.0291 55.3267 35.4836 57.2092 35.9352 59.1019C35.5832 59.0678 35.2304 59.0357 34.8777 59.007C34.7801 58.5724 34.6832 58.1378 34.5863 57.7032ZM34.411 56.8858C34.2281 56.0677 34.0446 55.251 33.861 54.4363C33.3595 55.2107 32.8574 55.9885 32.3552 56.7691C33.0416 56.7977 33.7266 56.8366 34.411 56.8858Z" fill="white"/>
<path d="M36.7123 56.4064C37.0398 54.7845 38.517 53.7317 40.1729 53.9781C41.0497 54.1084 41.7347 54.5553 42.1134 55.2321C41.8582 55.3972 41.603 55.5637 41.3478 55.7309C41.0428 55.2389 40.6021 54.951 40.0412 54.8678C38.925 54.702 37.952 55.4013 37.7275 56.5183C37.5017 57.6372 38.156 58.5194 39.2716 58.6811C39.8324 58.7623 40.3592 58.6307 40.8368 58.2629C41.0094 58.5051 41.182 58.7487 41.3546 58.993C40.7392 59.4931 39.9239 59.6848 39.0396 59.5572C37.3905 59.3205 36.3841 58.0323 36.7123 56.4064Z" fill="white"/>
<path d="M47.9249 55.6771C47.5626 57.4736 47.201 59.2708 46.8387 61.0687C46.5146 60.9827 46.1905 60.8988 45.865 60.8176C46.0206 60.0466 46.1755 59.2756 46.331 58.5053C45.4263 58.2767 44.5154 58.0665 43.5998 57.8755C43.4442 58.6479 43.288 59.4209 43.1317 60.1933C42.8029 60.1257 42.4733 60.0602 42.1431 59.9975C42.5067 58.1934 42.8711 56.3895 43.2348 54.5854C43.5643 54.6496 43.8938 54.7164 44.222 54.786C44.0719 55.5304 43.9218 56.2748 43.7717 57.0192C44.6874 57.2109 45.5976 57.4211 46.503 57.6497C46.6524 56.9073 46.8025 56.1643 46.9519 55.4219C47.2774 55.5038 47.6015 55.5891 47.9249 55.6771Z" fill="white"/>
</g>
<path opacity="0.2" d="M20.7105 43.6167L25.9731 43.438C25.9731 43.438 25.2137 49.1168 21.4726 50.4111C21.4726 50.4111 19.6741 47.572 20.7105 43.6167Z" fill="black"/>
<path opacity="0.2" d="M50.7 47.0248C50.7 48.6187 49.4077 49.9109 47.8139 49.9109C46.22 49.9109 44.9277 48.6187 44.9277 47.0248C44.9277 45.4309 46.22 44.1387 47.8139 44.1387C49.4077 44.138 50.7 45.4303 50.7 47.0248Z" fill="black"/>
<path d="M60.7419 100.455L35.7274 90.016C35.1065 89.7567 34.8131 89.0431 35.0724 88.4222L42.4815 70.6673C42.7408 70.0464 43.4545 69.7531 44.0754 70.0123L69.0899 80.4515C69.7108 80.7108 70.0041 81.4245 69.7449 82.0454L62.3358 99.8002C62.0765 100.421 61.3628 100.714 60.7419 100.455Z" fill="#407BFF"/>
<path d="M38.2599 84.5216L36.8257 83.9233C36.5834 83.8223 36.4695 83.5439 36.5705 83.3024L39.8953 75.3345C39.9963 75.0922 40.2747 74.9783 40.5162 75.0793L41.9504 75.6777C42.1926 75.7786 42.3066 76.057 42.2056 76.2985L38.8808 84.2665C38.7798 84.508 38.5021 84.6226 38.2599 84.5216Z" fill="#263238"/>
<path d="M68.1259 81.8263L43.7964 71.6743L36.7154 88.644L61.045 98.796L68.1259 81.8263Z" fill="white"/>
<path d="M39.8553 83.8921L38.4607 83.3101C38.0261 83.1286 37.82 82.6278 38.0015 82.1925L38.3038 82.3187C38.1919 82.5869 38.3188 82.896 38.5869 83.0078L39.9815 83.5898C40.2497 83.7017 40.5594 83.5749 40.6707 83.3067L42.7824 78.2468C42.8943 77.9786 42.7667 77.6695 42.4985 77.5576L41.1039 76.9756C40.8358 76.8637 40.5267 76.9913 40.4148 77.2588L40.1125 77.1326C40.294 76.6979 40.7955 76.4919 41.2295 76.6734L42.6241 77.2554C43.0587 77.4369 43.2654 77.9377 43.084 78.373L40.9722 83.4329C40.7914 83.8676 40.2906 84.0736 39.8553 83.8921Z" fill="#263238"/>
<g opacity="0.5">
<path d="M39.8553 83.8921L38.4607 83.3101C38.0261 83.1286 37.82 82.6278 38.0015 82.1925L38.3038 82.3187C38.1919 82.5869 38.3188 82.896 38.5869 83.0078L39.9815 83.5898C40.2497 83.7017 40.5594 83.5749 40.6707 83.3067L42.7824 78.2468C42.8943 77.9786 42.7667 77.6695 42.4985 77.5576L41.1039 76.9756C40.8358 76.8637 40.5267 76.9913 40.4148 77.2588L40.1125 77.1326C40.294 76.6979 40.7955 76.4919 41.2295 76.6734L42.6241 77.2554C43.0587 77.4369 43.2654 77.9377 43.084 78.373L40.9722 83.4329C40.7914 83.8676 40.2906 84.0736 39.8553 83.8921Z" fill="white"/>
</g>
<path d="M56.4123 72.6768L59.9971 74.2815C62.9228 77.1929 58.5288 80.3062 58.5288 80.3062L57.0209 82.6568C56.5098 83.4537 55.4004 83.7157 54.3988 83.277L51.8838 82.1744C50.7376 81.6722 50.1474 80.4407 50.5759 79.4445L51.5386 77.2059C51.819 76.5543 52.2557 75.9825 52.8111 75.5411L56.4123 72.6768Z" fill="#EBB376"/>
</svg>
