<svg width="114" height="89" viewBox="0 0 114 89" fill="none" xmlns="http://www.w3.org/2000/svg">
<path opacity="0.49" d="M56.6053 88.7701C87.8675 88.7701 113.211 86.0849 113.211 82.7725C113.211 79.4601 87.8675 76.7749 56.6053 76.7749C25.3431 76.7749 0 79.4601 0 82.7725C0 86.0849 25.3431 88.7701 56.6053 88.7701Z" fill="#F1CFC7"/>
<path d="M74.4001 18.5819C72.7253 17.2691 70.8091 16.1851 69.5466 14.472C67.3529 11.4957 67.6101 7.30262 65.7014 4.1359C64.4704 2.09371 62.3449 0.612311 60.0029 0.164741C57.6608 -0.28283 53.3411 0.0965215 50.9803 2.36586C47.0863 3.57438 45.0711 6.8438 43.7464 9.40852C42.0109 12.7687 41.3939 15.7915 41.3226 19.573C41.2484 23.5014 42.2658 28.4217 44.1977 31.8433C47.2213 37.1976 52.2323 39.6784 58.3723 40.0128C64.9239 40.3696 71.582 38.0755 76.5225 33.7588C78.0856 32.3928 79.8197 30.7157 81.8746 31.0096C81.0042 26.1426 78.2903 21.6309 74.4001 18.5819Z" fill="#6E2501"/>
<path d="M66.9096 23.8463C66.1291 22.7788 65.1643 21.8034 64.7009 20.5731C63.8965 18.4365 64.7759 16.0187 64.1754 13.8206C63.7878 12.4029 62.766 11.1569 61.4345 10.4792C60.103 9.80146 57.4394 9.26018 55.6273 10.1748C53.0761 10.1951 51.2993 11.7589 50.0586 13.0312C48.434 14.6977 47.5403 16.3636 46.8439 18.5722C46.1204 20.8663 45.8813 23.9371 46.4518 26.2889C47.3439 29.9691 49.9296 32.3134 53.5649 33.5969C57.4439 34.9666 61.8446 34.7972 65.5631 33.1366C66.7394 32.6111 68.0723 31.9333 69.2576 32.4686C69.574 29.4571 68.7216 26.3263 66.9096 23.8463Z" fill="#3F1303"/>
<path d="M51.2364 19.5718C52.807 22.1927 52.4734 25.8138 50.4507 28.1034C49.6815 28.9745 48.6327 29.8149 48.6417 30.977C48.6454 31.513 48.8861 32.0145 49.1222 32.4959C49.4948 33.2575 49.8719 34.026 50.3922 34.6962C52.1158 36.9153 55.3335 37.7145 58.0062 36.8494C60.6788 35.9835 62.742 33.6376 63.5832 30.9575C63.6221 30.8323 63.6589 30.6951 63.6116 30.5729C63.5644 30.4514 63.446 30.375 63.3358 30.3045C59.9944 28.1611 58.5812 23.4612 60.187 19.8312" fill="#FF9670"/>
<path d="M52.5466 22.7855C53.9643 24.6852 56.5177 23.428 59.3156 21.2741C59.3239 21.2673 59.599 20.99 59.6065 20.9825C59.7474 20.8445 59.8037 20.7718 60.1853 19.8407L51.2354 19.5723C51.8441 20.6721 51.7901 19.711 51.8366 20.9907C52.1792 21.0829 51.7182 21.6767 52.5466 22.7855Z" fill="#FC7F51"/>
<path d="M63.0821 5.80353C64.1212 8.55042 64.2838 12.802 66.4775 14.8749C67.8876 16.2079 70.2185 16.5122 71.9923 17.2124C72.4481 17.3924 72.8956 17.585 73.3365 17.789C71.9593 16.7941 70.5483 15.8308 69.5467 14.4716C67.3531 11.4953 67.6103 7.30217 65.7015 4.13544C64.4705 2.09326 62.3451 0.611856 60.0031 0.164286C59.5457 0.0765707 58.9985 0.0330949 58.4189 0.0166016C60.7198 1.20862 62.1195 3.25755 63.0821 5.80353Z" fill="#3F1303"/>
<path d="M55.409 4.88721C53.3675 5.62116 51.3441 6.78544 50.3133 8.69343C49.9219 9.41764 49.6917 10.2183 49.5133 11.022C49.1422 12.6953 48.9848 14.4346 49.2547 16.1282C49.5238 17.821 50.2413 19.4696 51.4446 20.6909C51.9558 21.2097 52.5459 21.6445 53.1404 22.0658C53.6846 22.4511 54.2649 22.8395 54.9284 22.9107C55.6039 22.9834 56.2659 22.7158 56.8874 22.4406C57.5853 22.131 58.281 21.8027 58.8965 21.3498C61.0294 19.7807 61.8758 16.9469 61.8728 14.2982C61.8706 12.4022 61.486 10.468 60.4859 8.85685C59.4851 7.2465 57.814 5.99674 55.9307 5.77933" fill="#FF9670"/>
<path d="M61.3554 15.026C61.668 14.3131 62.0106 13.5626 62.6538 13.1248C62.7738 13.0431 62.9065 12.9726 63.0512 12.9591C63.45 12.9209 63.7581 13.3152 63.8811 13.6968C64.0685 14.2786 64.0183 14.9331 63.7431 15.4796C63.468 16.0254 62.9724 16.4565 62.3937 16.6521C62.15 16.7346 61.8719 16.7736 61.644 16.6544C61.4228 16.5382 61.2946 16.2923 61.2579 16.0449C61.2212 15.7982 61.2624 15.5471 61.3036 15.3012" fill="#FF9670"/>
<path d="M61.7719 14.9865C61.9188 14.6514 62.08 14.299 62.3821 14.0929C62.4384 14.0546 62.5006 14.0216 62.5688 14.0149C62.7562 13.9969 62.9009 14.1821 62.9587 14.3613C63.0471 14.6349 63.0231 14.9423 62.8934 15.1987C62.7645 15.4551 62.5313 15.6575 62.2592 15.7497C62.1445 15.7879 62.014 15.8067 61.9068 15.7504C61.8026 15.6957 61.7427 15.5802 61.7254 15.464C61.7082 15.3478 61.7277 15.2302 61.7471 15.1147" fill="#FC7F51"/>
<path d="M49.7782 15.2188C49.5503 14.4743 49.2962 13.6894 48.7084 13.1796C48.5989 13.0844 48.4753 12.999 48.3328 12.969C47.9407 12.885 47.5899 13.2411 47.4234 13.6062C47.17 14.1625 47.1445 14.8184 47.3544 15.3927C47.5644 15.967 48.0074 16.4521 48.56 16.713C48.7924 16.8232 49.0645 16.8936 49.3037 16.8014C49.5368 16.7115 49.6928 16.482 49.7572 16.2406C49.8217 15.9992 49.8105 15.7458 49.7977 15.4962" fill="#FF9670"/>
<path d="M49.0262 15.0193C48.9369 14.7277 48.8372 14.4196 48.6063 14.2202C48.5636 14.1827 48.5149 14.1497 48.4594 14.1377C48.3057 14.1047 48.1678 14.2442 48.1025 14.3874C48.0028 14.6055 47.9931 14.8627 48.0755 15.0876C48.158 15.3125 48.3312 15.5029 48.5478 15.6049C48.6386 15.6476 48.7458 15.6761 48.8395 15.6393C48.9309 15.6041 48.9917 15.5141 49.0172 15.4197C49.0427 15.3252 49.0382 15.2255 49.0329 15.128" fill="#FC7F51"/>
<path d="M57.6749 14.3509C58.088 14.6396 58.6487 14.7251 59.1248 14.5526C59.5866 14.3847 59.9427 14.0233 60.1114 13.5638C60.1519 13.4543 60.0709 13.3261 59.9645 13.2954C59.8453 13.2609 59.7365 13.3321 59.6961 13.4423C59.5784 13.7609 59.31 14.0338 58.9861 14.144C58.6165 14.27 58.2169 14.2033 57.8983 13.9806C57.8023 13.9139 57.6584 13.9589 57.6014 14.0541C57.5377 14.1598 57.5789 14.2835 57.6749 14.3509Z" fill="#AD5E45"/>
<path d="M53.2264 11.6885C52.3418 11.4253 51.191 11.1779 50.5995 11.573C50.3056 11.7694 50.0387 11.6442 50.3183 11.4223C51.1872 10.7333 52.0974 10.8676 53.4124 11.1494C53.5556 11.1802 53.6328 11.3624 53.578 11.5213C53.533 11.6525 53.3599 11.7627 53.2264 11.6885Z" fill="#6E2501"/>
<path d="M57.6356 11.7537C58.5277 11.5168 59.6845 11.3031 60.2648 11.7162C60.5526 11.9216 60.8233 11.8039 60.5496 11.5738C59.7017 10.8593 58.7878 10.9665 57.4654 11.2094C57.3214 11.2357 57.239 11.4156 57.2892 11.576C57.3304 11.7087 57.5006 11.8234 57.6356 11.7537Z" fill="#6E2501"/>
<path d="M52.9476 13.9486C52.5397 14.244 51.9805 14.3392 51.5014 14.1743C51.0374 14.0146 50.6752 13.6585 50.4983 13.2019C50.4563 13.0932 50.5351 12.9635 50.6408 12.9313C50.7592 12.8945 50.8694 12.9643 50.9114 13.0737C51.0344 13.3908 51.3072 13.6585 51.6326 13.7634C52.0045 13.8834 52.4026 13.8099 52.7174 13.582C52.8119 13.5138 52.9566 13.5558 53.0158 13.6502C53.081 13.7544 53.042 13.8796 52.9476 13.9486Z" fill="#AD5E45"/>
<path d="M55.1411 16.2491C54.9289 16.1966 54.7422 16.0954 54.5705 15.9687C55.186 15.3667 55.5219 14.4888 55.4409 13.6289C55.4297 13.5127 55.354 13.4114 55.228 13.4092C55.1208 13.4077 54.9971 13.5052 55.0084 13.6221C55.0871 14.4663 54.7422 15.2939 54.084 15.8292C53.9948 15.9019 54.0015 16.0586 54.0795 16.1351C54.3411 16.393 54.662 16.5767 55.0196 16.6644C55.2902 16.7311 55.4117 16.3158 55.1411 16.2491Z" fill="#AD5E45"/>
<path d="M52.2868 16.1649C52.2786 16.7241 51.6878 17.1694 50.9666 17.1589C50.2461 17.1484 49.6681 16.6859 49.6764 16.1266C49.6846 15.5673 50.2754 15.122 50.9966 15.1325C51.717 15.143 52.2951 15.6056 52.2868 16.1649Z" fill="#FC7F51"/>
<path d="M61.0891 16.3255C61.0808 16.8848 60.4901 17.3301 59.7688 17.3196C59.0484 17.3091 58.4704 16.8465 58.4786 16.2873C58.4868 15.728 59.0776 15.2827 59.7988 15.2932C60.5193 15.3036 61.0973 15.7662 61.0891 16.3255Z" fill="#FC7F51"/>
<path d="M54.2529 18.2273C54.2529 18.2273 55.4667 18.7281 56.7869 18.0361C56.7869 18.0361 55.0529 19.9681 54.2529 18.2273Z" fill="#E53E3E"/>
<path d="M46.3474 13.2827C47.3213 13.3187 48.2734 13.0016 49.1685 12.6177C51.8944 11.4474 54.3272 9.60018 56.1865 7.28886C56.5426 7.70719 56.8994 8.12478 57.2555 8.54311C58.6807 10.2149 60.2791 11.991 62.439 12.3921C63.1639 12.5263 64.0373 12.4296 64.4391 11.8118C64.6896 11.4272 64.2907 11.1971 64.2277 10.742C64.0636 9.56721 63.9241 8.21549 63.3139 7.19814C62.5634 5.94765 61.6818 4.75338 60.5407 3.84475C59.3997 2.93611 57.9753 2.32959 56.5171 2.36633C55.5132 2.39182 54.5409 2.7157 53.6098 3.09205C51.6493 3.88448 49.7541 4.95055 48.3379 6.52042C46.9217 8.09029 46.0295 10.2209 46.2882 12.3193" fill="#6E2501"/>
<path d="M54.8339 4.30922C56.8933 3.33236 59.596 3.45531 61.2581 5.13988C62.1607 6.05527 62.7537 7.29977 63.1908 8.49404C63.6601 9.77677 63.8633 11.0827 63.924 12.4427C63.978 13.6625 63.9825 14.9197 64.3528 16.096C64.7074 17.2235 65.4061 18.1509 66.3358 18.8699C68.3982 20.466 71.0926 20.7869 73.2622 22.1828C74.4025 22.9168 75.3524 23.9633 75.6163 25.327C75.9027 26.8069 75.5623 28.3341 76.0076 29.796C76.1276 30.1888 76.7453 30.0217 76.6246 29.6258C76.2138 28.2764 76.4799 26.8542 76.285 25.4747C76.1133 24.2572 75.4963 23.2061 74.5862 22.389C72.556 20.5664 69.7409 20.2411 67.4573 18.8639C66.3155 18.1749 65.3754 17.2198 64.9691 15.9251C64.5762 14.6708 64.616 13.3349 64.5432 12.0364C64.4653 10.6419 64.1961 9.29022 63.6803 7.98949C63.2103 6.80346 62.615 5.60396 61.7101 4.68633C59.8359 2.78584 56.8288 2.65539 54.5108 3.7552C54.1397 3.93288 54.4635 4.48465 54.8339 4.30922Z" fill="#3F1303"/>
<path d="M53.3526 5.03046C51.2827 4.83104 49.4197 6.01033 47.8753 7.25558C46.3834 8.45885 45.0519 9.91775 44.1688 11.6301C43.2834 13.3461 42.8801 15.3058 43.1612 17.2258C43.3044 18.2019 43.6335 19.1451 44.1501 19.9877C44.6613 20.8214 45.3248 21.5568 45.7806 22.4257C46.8879 24.5324 45.54 26.864 46.2215 29.0516C46.3437 29.4437 46.9614 29.2765 46.8385 28.8814C46.262 27.0326 47.2036 25.1104 46.771 23.2391C46.3549 21.4376 44.7625 20.2254 44.1395 18.5123C42.7728 14.7548 44.7738 10.8976 47.5387 8.38386C49.1033 6.96093 51.1207 5.45554 53.3526 5.6707C53.7619 5.70969 53.7597 5.06944 53.3526 5.03046Z" fill="#3F1303"/>
<path d="M56.9703 6.55919C58.0364 8.58638 59.9129 10.1308 62.1005 10.8025C62.4949 10.9239 62.6635 10.3062 62.2707 10.1855C60.2353 9.56025 58.5125 8.11857 57.5229 6.23607C57.3309 5.87172 56.7792 6.19484 56.9703 6.55919Z" fill="#3F1303"/>
<path d="M57.7854 1.42159C59.6432 1.08198 61.6374 1.57153 63.1031 2.77179C64.529 3.94058 65.3994 5.70912 65.4879 7.54589C65.5074 7.95597 66.1476 7.95822 66.1274 7.54589C66.0284 5.50221 65.0673 3.52151 63.4584 2.24027C61.8181 0.935043 59.6709 0.428235 57.616 0.803834C57.2104 0.878054 57.3821 1.49506 57.7854 1.42159Z" fill="#3F1303"/>
<path d="M44.1605 60.0027L43.3613 65.0781H68.7371L67.8353 59.2515L44.1605 60.0027Z" fill="#FF9670"/>
<path d="M75.5588 42.939L80.111 57.1488C80.111 57.1488 92.8844 60.3702 98.4037 59.8657C98.4037 59.8657 101.268 55.7843 103.331 54.7872C103.331 54.7872 104.001 55.5189 103.532 56.5288C103.063 57.5379 102.244 58.6609 102.403 59.7337C102.562 60.8066 105.199 61.0839 105.212 59.7337C105.224 58.3835 103.807 56.6045 103.844 55.8218C103.881 55.0399 104.357 54.5728 104.431 54.5855C104.504 54.5983 105.712 55.4942 106.408 56.5033C107.104 57.5124 108.423 59.9226 107.873 61.6515C107.324 63.3803 105.212 65.2695 103.746 65.3212C102.281 65.3737 98.0566 64.7297 97.031 64.5783C96.0054 64.4269 77.6677 64.7275 75.2747 62.1785C72.8816 59.6295 68.7373 45.4362 68.7373 45.4362L75.5588 42.939Z" fill="#FF9670"/>
<path d="M36.6617 42.939L32.1095 57.1488C32.1095 57.1488 19.3362 60.3702 13.8169 59.8657C13.8169 59.8657 10.9523 55.7843 8.8891 54.7872C8.8891 54.7872 8.22037 55.5189 8.68894 56.5288C9.1575 57.5379 9.97615 58.6609 9.81721 59.7337C9.65828 60.8066 7.02158 61.0839 7.00884 59.7337C6.99684 58.3835 8.41303 56.6045 8.37629 55.8218C8.33956 55.0399 7.86351 54.5728 7.79004 54.5855C7.71657 54.5983 6.50806 55.4942 5.81234 56.5033C5.11661 57.5124 3.79789 59.9226 4.34742 61.6515C4.89694 63.3803 7.00885 65.2695 8.47451 65.3212C9.93943 65.3737 14.164 64.7297 15.1896 64.5783C16.2152 64.4269 34.5528 64.7275 36.9458 62.1785C39.3389 59.6295 43.4832 45.4362 43.4832 45.4362L36.6617 42.939Z" fill="#FF9670"/>
<path d="M68.7039 63.5444C68.7039 63.5444 70.6457 65.0018 73.3963 65.6991C76.147 66.3963 99.5204 64.2281 101.021 65.3489C102.523 66.4697 68.045 84.1941 50.0297 80.1263C32.0144 76.0584 13.9092 65.3235 13.9092 65.3235C13.9092 65.3235 34.0888 67.7105 38.9087 66.6962C38.9087 66.6962 43.1489 65.6991 43.4826 64.2034L68.7039 63.5444Z" fill="#3B10B2"/>
<path d="M56.5607 73.6669C50.2572 73.5079 44.2079 71.9081 38.1496 70.0323C33.6634 68.6431 29.154 68.2661 24.5913 68.1648C30.6039 72.148 39.7825 77.3442 50.0316 80.0273C63.8231 83.6379 85.6521 72.7702 94.4565 66.8926C81.4282 65.6788 69.6302 73.9967 56.5607 73.6669Z" fill="#260A8E"/>
<path d="M55.6578 84.9687C63.1563 86.7822 83.0188 85.7956 83.0188 85.7956C83.0188 85.7956 83.2258 83.0674 78.142 83.4813C73.0583 83.8944 71.1571 81.3319 68.3877 78.7694C65.6183 76.2069 62.1465 77.86 60.3697 79.1C58.9093 80.1189 56.1871 79.4112 55.2627 79.1263C55.0071 79.0476 54.7537 78.9808 54.4928 78.9238L31.4972 73.9121L28.5659 82.3672L55.6578 84.9687Z" fill="#FC7F51"/>
<path d="M34.6903 73.2725C24.8452 68.8388 14.1575 63.6606 10.7726 65.6533C3.93912 69.6762 5.10489 74.1774 9.51387 78.4214C11.5568 80.3879 21.4019 81.7156 32.3025 82.7262C32.3625 75.4549 32.957 75.5096 34.6903 73.2725Z" fill="#4C16C4"/>
<path d="M57.2997 85.016C49.8012 86.8295 29.9387 85.8429 29.9387 85.8429C29.9387 85.8429 29.7318 83.1148 34.8155 83.5286C39.8992 83.9417 41.8004 81.3792 44.5698 78.8168C47.3392 76.2543 50.811 77.9074 52.5878 79.1474C54.0482 80.1662 56.7704 79.4585 57.6948 79.1736C57.9504 79.0949 58.2038 79.0282 58.4647 78.9712L81.4602 73.9595L84.3916 82.4146L57.2997 85.016Z" fill="#FF9670"/>
<path d="M77.5684 73.7592C88.5027 70.1045 98.8006 63.7073 102.186 65.7C109.02 69.7229 108.508 74.29 104.099 78.5333C102.057 80.4998 91.5577 81.7615 80.6564 82.7721C80.9877 79.0221 79.3017 75.9963 77.5684 73.7592Z" fill="#4C16C4"/>
<path d="M50.4506 28.0932C50.4506 28.0932 54.7367 33.2984 61.0117 27.9883L70.4211 30.8604C71.7938 31.2795 72.9199 32.1903 73.5384 33.3839L78.5486 43.0415L69.0657 47.6244L71.416 61.2622L40.5771 61.5448L42.2062 48.3434L33.4497 44.7965L38.2125 34.255C38.8783 32.7818 40.1843 31.6266 41.8186 31.0635L50.4506 28.0932Z" fill="#AACAF9"/>
<path d="M47.3089 30.5755C50.3452 29.9105 58.0371 31.7443 60.023 28.747C54.2916 32.7497 50.4509 28.0933 50.4509 28.0933L41.8196 31.0628C40.1845 31.6251 38.8793 32.7811 38.2135 34.2543L37.0732 36.7778C39.8186 33.842 42.9936 31.5209 47.3089 30.5755Z" fill="#88B4FF"/>
<path d="M40.5857 61.4734L40.5767 61.5439L71.4155 61.2613L69.743 51.5557C63.7259 61.4622 50.5859 59.0489 40.5857 61.4734Z" fill="#88B4FF"/>
<path d="M78.6711 34.0465C72.6982 36.3346 66.2666 37.1788 59.8679 37.4959C56.6472 37.6556 53.419 37.7028 50.1945 37.6998C46.8876 37.6976 43.5784 37.6098 40.2842 37.3287C36.5267 37.0086 32.7932 36.4238 29.1632 35.4432C28.7434 35.33 28.5642 35.947 28.9833 36.0602C35.4247 37.801 42.1502 38.2763 48.8226 38.3333C55.3352 38.3888 61.9288 38.2951 68.374 37.3309C71.956 36.7957 75.4871 35.9522 78.8518 34.6635C79.2498 34.5113 79.0759 33.8921 78.6711 34.0465Z" fill="white"/>
<path d="M82.6459 40.8673C76.0096 42.8331 69.0441 43.3316 62.1424 43.7447C55.1252 44.1653 48.0855 44.5469 41.0533 44.238C37.0657 44.0633 33.0893 43.6592 29.1729 42.9185C28.747 42.8383 28.5656 43.4546 28.9929 43.5355C35.9711 44.8543 43.109 45.1107 50.2072 44.9412C53.7555 44.8565 57.3001 44.6691 60.8424 44.4606C64.3525 44.2545 67.8648 44.0476 71.3592 43.6637C75.2374 43.2371 79.0946 42.5887 82.8258 41.4829C83.2397 41.3622 83.0627 40.7436 82.6459 40.8673Z" fill="white"/>
<path d="M81.5203 47.4833C76.139 49.5247 70.3408 50.1837 64.5801 50.2924C58.5893 50.4056 52.5864 50.0413 46.6023 49.8111C43.0315 49.6739 39.4607 49.5367 35.8899 49.4003C35.4543 49.3838 35.4551 50.0233 35.8899 50.0405C42.2436 50.2842 48.598 50.5323 54.9517 50.7715C60.7342 50.9889 66.5548 51.1448 72.3035 50.3906C75.5175 49.9693 78.6857 49.2443 81.7003 48.1003C82.0998 47.9489 81.9259 47.3296 81.5203 47.4833Z" fill="white"/>
<path d="M74.8607 54.9877C70.3145 56.1505 65.5652 56.2075 60.887 56.1985C56.0747 56.1895 51.2639 56.0148 46.4606 55.7351C43.7234 55.5755 40.9885 55.382 38.2559 55.1661C37.8218 55.1316 37.824 55.7719 38.2559 55.8064C43.1357 56.1917 48.0222 56.5066 52.9162 56.6828C57.7241 56.8567 62.5731 56.9781 67.3794 56.7053C69.9621 56.5583 72.5396 56.2457 75.0406 55.6054C75.4604 55.4975 75.282 54.8797 74.8607 54.9877Z" fill="white"/>
<path d="M71.8286 31.1878C63.5294 32.8589 54.9236 33.1625 46.515 32.0702C44.1527 31.7636 41.8077 31.3452 39.4873 30.8234C39.0638 30.7282 38.8831 31.3452 39.3074 31.4405C47.68 33.3229 56.3901 33.8237 64.9411 32.8971C67.3139 32.64 69.6717 32.2756 72.0078 31.8048C72.4344 31.7193 72.2544 31.1023 71.8286 31.1878Z" fill="white"/>
</svg>
