<svg width="93" height="91" viewBox="0 0 93 91" fill="none" xmlns="http://www.w3.org/2000/svg">
<path d="M50.5443 59.3647C50.5443 59.3647 44.5623 58.7353 39.0518 62.9855C33.1403 67.5459 34.4865 68.8104 33.227 69.7548C31.9674 70.6993 15.9096 76.9964 15.9096 76.9964C15.9096 76.9964 19.2154 72.7455 21.105 66.1341C22.994 59.5219 24.7258 56.8456 24.7258 56.8456L17.7986 54.4844C17.7986 54.4844 4.41711 68.8104 1.42574 74.9503C-1.56563 81.0902 -0.306057 92.7399 9.61183 90.3786C19.5297 88.0174 42.6719 81.7203 44.2465 81.8775C45.8205 82.0347 54.7946 84.3966 54.7946 84.3966C54.7946 84.3966 55.2668 87.5451 54.7946 89.9064C54.7946 89.9064 86.4379 90.2214 90.0587 86.4428C93.6795 82.6641 91.6326 78.0988 89.1142 77.4694C86.5951 76.84 62.3512 76.0526 62.3512 76.0526L68.176 65.9769C68.176 65.9769 53.2206 66.2912 50.5443 59.3647Z" fill="#F8C4C4"/>
<path d="M50.387 30.5553C50.387 30.5553 55.5282 36.598 54.3102 39.3842C52.5791 43.3447 49.2847 44.409 49.2847 44.409C49.2847 44.409 51.6459 50.864 51.0165 53.3824C51.0165 53.3824 69.4355 55.4293 72.8991 54.4841C72.8991 54.4841 75.4182 47.872 74.7881 45.0385C74.1587 42.205 66.602 28.1934 66.602 28.1934H64.713C64.713 28.1934 67.2322 33.861 63.4535 34.6484C59.6748 35.4357 53.2205 29.2958 53.2205 29.2958L50.387 30.5553Z" fill="#F8C4C4"/>
<path d="M17.7993 54.4844C17.7993 54.4844 22.7276 43.505 24.7632 40.3974C26.7995 37.2897 28.1923 37.3969 28.5137 37.504C28.8351 37.6111 30.4421 36.3255 31.4071 36.5398C32.3713 36.754 31.7285 38.4682 31.4071 39.0046C31.0857 39.5403 27.978 45.0057 28.2994 46.3984C28.6208 47.7912 31.6213 51.9702 28.8351 53.4709C26.0488 54.9708 24.6561 54.7565 24.3346 55.1851C24.0132 55.6136 23.591 56.4587 23.591 56.4587L17.7993 54.4844Z" fill="#E5AA8C"/>
<path d="M51.0167 53.3828C51.0167 53.3828 50.5888 55.2923 51.0167 56.0429C51.0167 56.0429 49.6683 57.8248 50.5445 59.3655C50.5445 59.3655 52.6548 66.8038 68.1769 65.9777C68.1769 65.9777 70.4585 62.6783 72.9 54.4852L51.0167 53.3828Z" fill="#E5AA8C"/>
<path d="M66.6022 28.1938C66.6022 28.1938 63.8751 12.8585 63.553 7.71525L42.015 4.17904C42.015 4.17904 41.9079 6.42961 40.7294 7.17956C39.5509 7.92952 35.5861 11.4657 35.1576 11.4657C34.729 11.4657 34.8362 10.8229 35.1576 10.2872C35.479 9.75154 36.8718 7.39382 36.8718 7.39382C36.8718 7.39382 34.4069 11.0372 33.8713 12.1086C33.3356 13.1799 32.907 11.7871 33.1213 10.7158C33.3356 9.64441 35.1569 3.53621 35.3719 3.2148C35.5862 2.89339 42.23 0.428546 42.98 0.428546C43.7299 0.428546 65.8043 -0.535683 67.4113 0.428546C69.0184 1.39278 75.3662 20.0853 74.8898 31.7709C74.71 36.1819 74.789 45.039 74.789 45.039L66.6022 28.1938Z" fill="#E5AA8C"/>
<path d="M50.3873 30.5551C50.3873 30.5551 46.1949 29.8961 43.0872 31.8252C39.9795 33.7544 30.443 37.9327 30.443 37.9327V23.2522L35.4601 11.0591C35.4601 11.0591 34.7735 9.66769 31.4072 15.0013C30.1794 16.9466 29.2638 17.5733 29.2638 17.5733L28.7281 13.7156C28.7281 13.7156 27.9781 13.2871 27.871 15.2155C27.7639 17.1447 27.0139 19.9303 27.0139 21.6452C27.0139 23.36 23.5848 43.5715 24.3348 45.0383C25.0847 46.5051 36.5505 47.0407 44.48 40.8261L49.2849 44.4088C49.2849 44.4088 52.9973 43.1923 54.3105 39.384C55.6243 35.5757 50.3873 30.5551 50.3873 30.5551Z" fill="#E5AA8C"/>
<path d="M55.3257 89.9057C55.3257 89.9057 36.667 91.0039 34.833 90.6895C32.999 90.3744 32.7368 89.5011 31.8635 88.89C30.9902 88.2789 30.2917 86.8812 30.9902 86.5316C31.6887 86.182 34.5708 84.8724 35.8811 84.8724C37.1914 84.8724 43.043 84.785 43.9163 84.2613C44.7896 83.7376 45.6383 81.6879 47.4103 81.2044C49.3317 80.6807 51.0198 81.8789 51.7775 82.7762C52.5352 83.6735 55.3264 84.3959 55.3264 84.3959V89.9057H55.3257Z" fill="#E5AA8C"/>
<path d="M49.2612 35.4438C50.3742 36.8268 50.6582 38.8299 49.9738 40.468C49.9329 40.566 49.8829 40.6689 49.7906 40.721" stroke="#C98867" stroke-width="0.2378" stroke-miterlimit="10" stroke-linecap="round" stroke-linejoin="round"/>
<path d="M28.281 46.5806C27.9081 45.5882 27.5296 44.5337 27.727 43.4919C27.8179 43.0112 28.0293 42.5601 28.2796 42.1393C29.2621 40.4886 30.8558 39.2403 31.6854 37.5078" stroke="#C98867" stroke-width="0.2378" stroke-miterlimit="10" stroke-linecap="round" stroke-linejoin="round"/>
<path d="M24.314 41.0526C24.3852 40.8433 24.536 40.672 24.6868 40.5106C26.1882 38.9028 28.0595 37.6426 30.1134 36.856" stroke="#C98867" stroke-width="0.2378" stroke-miterlimit="10" stroke-linecap="round" stroke-linejoin="round"/>
<path d="M55.0486 7.39601C55.6392 6.73345 56.2976 6.11812 57.0708 5.68253C59.093 4.54209 61.7122 4.25873 63.7731 5.32868C65.8616 6.41203 67.3728 8.5435 67.7041 10.8723C67.771 11.3403 67.7929 11.8161 67.9113 12.2742C68.1559 13.2187 68.8255 14.0448 69.6988 14.4797C69.8426 14.5516 70.0012 14.6207 70.0836 14.7588C70.1661 14.897 70.1414 15.1063 70.0096 15.1979C69.6791 15.4277 69.3478 15.6575 69.0172 15.8873C68.8501 16.0029 68.7289 16.0191 68.712 16.2721C68.7007 16.4385 68.8001 16.5914 68.9073 16.719C69.0144 16.8466 69.137 16.9699 69.1892 17.1285C69.271 17.3801 69.1215 17.593 69.1406 17.8312C69.1554 18.0131 69.3781 18.0913 69.4218 18.3077C69.4902 18.6432 69.2336 18.9505 69.1532 19.2832C69.0729 19.6131 69.0954 19.9719 69.228 20.2806C69.3774 20.6288 69.4169 21.0023 69.3978 21.3815C69.2949 23.3495 64.8664 22.9033 64.8664 22.9033C64.8664 22.9033 64.1369 26.0575 64.2708 27.162C64.3229 27.5898 64.5661 27.9 64.8445 28.122C65.7136 30.6855 67.1035 34.732 62.8836 35.4439C58.4262 36.196 54.5227 30.3881 53.2583 29.34C54.0117 28.9579 54.6651 28.38 55.2924 27.8034C55.4327 27.6744 55.5758 27.5419 55.6674 27.3749C55.7647 27.1979 55.7971 26.9928 55.8183 26.792C55.9191 25.8573 55.8091 24.7669 55.4983 23.8795C54.9238 22.2422 53.6466 20.9551 52.8438 19.4171C51.8408 17.4957 51.6188 15.2113 52.0671 13.0912C52.5139 10.9703 53.6065 9.01292 55.0486 7.39601Z" fill="#E5AA8C"/>
<path d="M66.1991 7.41992C67.0646 8.9727 67.7088 10.6495 68.1057 12.382C68.1818 12.7147 68.253 13.0587 68.4419 13.342C68.616 13.6035 68.8775 13.7931 69.1453 13.9581C69.478 14.1632 69.8297 14.338 70.1934 14.4804C70.2195 14.6855 70.1321 14.9653 70.0193 15.1387C69.7106 15.6109 69.2278 15.9366 68.752 16.2397C68.7464 16.5216 68.8887 16.8078 69.0424 17.0439C69.1411 17.1954 69.2757 17.3604 69.2257 17.5338C69.1897 17.6571 69.0664 17.7431 69.041 17.8692C69.3131 17.9024 69.49 18.314 69.459 18.5868C69.428 18.8596 69.2778 19.1013 69.1841 19.3593C69.0558 19.7124 69.0346 20.1036 69.1242 20.4687C69.208 20.8099 69.3864 21.1355 69.3765 21.4865C69.3652 21.8869 69.0995 22.2485 68.7619 22.4649C68.425 22.6812 68.0232 22.7736 67.6271 22.8314C66.7432 22.9604 65.6147 22.8483 64.5723 22.8349" stroke="#C98867" stroke-width="0.5" stroke-miterlimit="10" stroke-linecap="round" stroke-linejoin="round"/>
<path d="M55.3795 23.5327C56.1823 23.821 57.1113 23.4052 57.6371 22.7334C58.1636 22.0617 58.3596 21.1905 58.4519 20.3426C58.4949 19.9479 58.5104 19.5179 58.2891 19.1888C58.1249 18.9442 57.8556 18.7962 57.6153 18.6263C56.8639 18.0942 56.3148 17.18 56.4678 16.2714C56.6207 15.3636 57.6625 14.6362 58.5041 15.0104C59.0214 15.2409 59.5515 15.8196 60.0294 15.5165C60.4452 15.2529 60.2887 14.6249 60.1407 14.1555C59.5571 12.3046 59.9758 10.1696 61.2149 8.676C62.454 7.18243 64.3409 7.22262 66.2672 7.45452C64.0117 3.74562 59.7256 3.98385 56.2535 5.26315C51.9913 6.83425 50.4977 11.9817 51.5078 15.5412C50.9996 15.0408 50.0001 14.9569 49.3389 15.2268C48.6785 15.4968 48.1626 16.0311 47.7256 16.595C47.2843 17.1645 46.891 17.808 46.8142 18.5241C46.7649 18.9872 46.8508 19.4573 47.0094 19.8957C47.4655 21.1581 48.5467 22.1773 49.8345 22.5572C51.1222 22.9371 52.5834 22.6693 53.6519 21.8573C53.4447 22.3867 53.7182 22.8815 54.1397 23.2628C54.3948 23.4947 55.0792 23.7026 55.3795 23.5327Z" fill="#473D38"/>
<path d="M65.0884 22.8469C64.2109 22.8469 63.3333 22.7292 62.4868 22.498" stroke="#C98867" stroke-width="0.5" stroke-miterlimit="10" stroke-linecap="round" stroke-linejoin="round"/>
<path d="M65.7165 13.4104C65.8286 13.9179 66.1937 14.2689 66.5313 14.1942C66.8696 14.1195 67.0529 13.648 66.9408 13.1405C66.8288 12.633 66.4637 12.282 66.126 12.3567C65.7877 12.4314 65.6044 12.903 65.7165 13.4104Z" fill="#473D38"/>
<path d="M67.041 11.6977C66.0204 11.6019 64.9653 11.9924 64.252 12.7282C64.2139 12.7677 64.1194 12.6958 64.0877 12.6514C64.056 12.6063 64.0567 12.5464 64.063 12.4914C64.1201 12.034 64.5113 11.6956 64.9004 11.4475C65.2895 11.2001 65.7089 10.9936 66.1564 10.885C66.3291 10.8435 66.5124 10.8167 66.6815 10.8702C67.0304 10.9809 67.0981 11.3376 67.041 11.6977Z" fill="#473D38"/>
<path d="M69.1783 17.9546C68.7054 18.0843 68.2176 18.183 67.7278 18.1632C67.2379 18.1435 66.741 17.9962 66.3667 17.6797" stroke="#C98867" stroke-width="0.5" stroke-miterlimit="10" stroke-linecap="round" stroke-linejoin="round"/>
<path d="M12.2437 79.8231C15.3443 77.605 17.8289 74.5347 19.352 71.04" stroke="#E8B1B1" stroke-width="0.75" stroke-miterlimit="10" stroke-linecap="round" stroke-linejoin="round"/>
<path d="M32.9907 71.9294C33.1416 70.163 33.8253 68.446 34.9305 67.0596" stroke="#E8B1B1" stroke-width="0.75" stroke-miterlimit="10" stroke-linecap="round" stroke-linejoin="round"/>
<path d="M53.5747 78.7011C57.1765 76.6288 61.4225 75.6956 65.5613 76.0664" stroke="#E8B1B1" stroke-width="0.75" stroke-miterlimit="10" stroke-linecap="round" stroke-linejoin="round"/>
<path d="M74.5625 47.4102C74.4773 48.7846 73.6061 50.0836 72.367 50.6849C71.1278 51.2861 69.5687 51.1656 68.436 50.3811" stroke="#E8B1B1" stroke-width="0.75" stroke-miterlimit="10" stroke-linecap="round" stroke-linejoin="round"/>
<path d="M54.4189 48.709C56.6808 50.593 60.1839 50.8024 62.6544 49.2017" stroke="#E8B1B1" stroke-width="0.75" stroke-miterlimit="10" stroke-linecap="round" stroke-linejoin="round"/>
</svg>
