<svg width="129" height="102" viewBox="0 0 129 102" fill="none" xmlns="http://www.w3.org/2000/svg">
<path d="M158 77.6732C157.979 77.792 157.923 77.8899 157.853 77.9737C157.629 78.2533 157.224 78.3512 156.881 78.1415C154.777 76.8134 149.346 75.1987 138.12 81.5806C137.365 82.007 136.624 82.4194 135.89 82.8109C121.7 90.3532 111.194 90.7656 103.61 87.69C97.5076 85.2085 91.7477 92.4293 89.3921 95.9523C89.0076 96.5185 88.1268 96.2878 88.0639 95.6098L86.5261 78.7706L83.5833 46.6581C83.5833 46.6022 83.5693 46.5532 83.5553 46.5043L77.5508 27.9106C77.411 27.4772 77.6906 27.0229 78.145 26.967C80.6335 26.6454 87.9241 26.0163 91.7757 29.064C91.7827 29.064 91.7827 29.071 91.7827 29.071C96.473 32.7827 100.003 42.3452 101.492 47.2033C102.988 52.0614 111.334 63.7699 116.073 67.3837C120.806 70.9976 127.16 74.7303 135.876 73.3603C144.6 71.9902 152.673 71.438 154.938 72.7382C156.189 73.4581 157.077 74.0034 157.574 75.0729C157.888 76.0095 157.986 76.9322 158 77.6732Z" fill="#D33327"/>
<path d="M135.89 82.8109C121.7 90.3532 111.194 90.7656 103.61 87.69C97.5073 85.2085 91.7475 92.4293 89.3918 95.9523C89.0074 96.5185 88.1266 96.2878 88.0637 95.6098L86.5259 78.7706C88.6718 63.5042 91.2232 46.022 91.2232 46.022C91.2232 46.022 96.6755 64.0355 99.0032 74.1012C101.331 84.16 110.194 88.8783 116.611 88.4798C116.611 88.4798 108.475 77.3656 106.979 68.0548C105.483 58.744 109.964 84.4885 124.419 83.8244C129.04 83.6077 132.849 83.2303 135.89 82.8109Z" fill="#B22724"/>
<path d="M51.7742 119.177C51.4358 118.469 51.1325 116.921 50.8948 115.363C50.6446 113.492 50.4027 111.536 50.2126 109.6C49.3933 101.265 49.8924 95.8823 49.0131 92.6955C58.103 88.3826 65.0344 88.7726 74.0971 82.2523L65.3776 65.9346C65.3776 65.9346 40.0518 75.7319 35.6962 79.8644C32.3934 82.9981 29.6072 85.4404 31.0932 91.0996C32.3452 95.8662 35.6613 107.619 37.2781 114.287C37.2823 114.309 39.9064 129.14 41.3708 129.507C42.8359 129.873 50.4551 128.848 52.1663 127.821C53.9313 126.763 52.7262 125.697 52.3893 123.719C52.0531 121.741 52.5801 120.863 51.7742 119.177Z" fill="#0D2B4D"/>
<path d="M108.188 144.235C108.278 142.202 107.974 140.883 106.175 138.63C105.492 137.775 105.066 136.691 104.651 135.355C104.554 134.977 104.457 134.599 104.362 134.216C104.042 132.908 103.547 131.428 102.945 129.862C102.586 128.869 102.159 127.805 101.628 126.659C101.626 126.655 101.624 126.651 101.622 126.646C98.423 119.296 94.6406 112.901 94.4211 111.378C94.1199 109.286 94.0457 93.6272 94.124 89.3675C94.2023 85.1077 92.9343 74.3115 92.9343 74.3115L67.6357 70.771C67.6357 70.771 71.4824 95.2196 73.5703 103.791C75.6583 112.363 75.4227 116.377 81.4748 127.338C85.2124 134.106 88.2216 138.943 90.859 143.716C90.8653 143.729 93.058 148.467 93.7717 150.497C94.4379 152.394 95.2557 154.714 97.9015 154.729C98.063 154.743 98.265 154.731 98.5005 154.698C101.629 154.343 103.459 153.031 103.459 153.031C103.459 153.031 108.498 150.992 108.828 149.508C109.157 148.026 108.099 146.268 108.188 144.235Z" fill="#1C3E60"/>
<path d="M66.5694 27.8842C66.1562 27.8213 59.5401 31.4666 58.2854 31.301C56.902 31.1185 54.9245 29.7499 52.6535 28.9306C50.3824 28.1114 44.5617 22.6906 42.8037 21.0584C41.0457 19.4269 40.3858 18.1393 38.1881 19.7722C35.9905 21.4051 34.6714 23.0058 34.9643 24.0739C35.2572 25.1413 38.5139 30.163 39.979 32.3607C41.4441 34.5584 52.1215 41.4604 56.3435 41.9658C60.5656 42.4712 70.676 41.7519 70.676 41.4157C70.676 41.0794 66.5694 27.8842 66.5694 27.8842Z" fill="#CCC8C9"/>
<path d="M93.5164 74.7234C93.2228 76.5827 89.581 78.7287 84.5831 79.0293C82.6748 79.1481 80.5638 78.9873 78.3689 78.4421C72.6859 77.0301 69.0301 73.5001 67.4014 71.5988C66.7723 70.8578 66.0873 70.1518 65.3883 69.4668C64.172 68.2855 61.9421 67.3977 62.9557 62.6165C63.445 60.3517 63.8085 58.5553 64.0112 57.0105C64.0811 56.5421 64.13 56.0947 64.165 55.6683C64.172 55.5565 64.179 55.4447 64.186 55.3328C64.2419 54.501 64.2349 53.7321 64.158 52.9632C64.0601 51.9426 63.8434 50.936 63.4939 49.8246C63.1514 48.7202 62.8788 47.4829 62.6761 46.1618C61.8582 40.8144 62.1658 34.2227 62.9557 30.7836C63.9483 26.4987 77.6 25.4641 83.0033 28.9312C83.0033 28.9312 87.3512 29.9518 89.2734 36.124C89.8256 37.8855 90.322 39.9336 90.7484 42.1565C90.9161 43.0233 91.0769 43.911 91.2237 44.8267C92.0275 49.8037 92.5238 55.4097 92.6147 60.6453C92.6217 60.9808 92.6287 61.3024 92.6357 61.6169C92.6636 62.5396 92.6986 63.3854 92.7475 64.1753C93.09 70.1588 93.8659 72.5425 93.5164 74.7234Z" fill="#EDB73E"/>
<path d="M85.747 55.8584C85.747 56.6091 85.1389 57.2173 84.3882 57.2173C83.6374 57.2173 83.0293 56.6084 83.0293 55.8584C83.0293 55.1083 83.6381 54.4995 84.3882 54.4995C85.1389 54.4995 85.747 55.1077 85.747 55.8584Z" fill="#F2C56D"/>
<path d="M73.1164 60.1567C73.1164 60.9075 72.5083 61.5156 71.7575 61.5156C71.0068 61.5156 70.3979 60.9075 70.3979 60.1567C70.3979 59.406 71.0068 58.7979 71.7575 58.7979C72.5083 58.7979 73.1164 59.406 73.1164 60.1567Z" fill="#F2C56D"/>
<path d="M75.456 72.7388C75.456 73.4895 74.8472 74.0976 74.0972 74.0976C73.3471 74.0976 72.7383 73.4895 72.7383 72.7388C72.7383 71.988 73.3464 71.3799 74.0972 71.3799C74.8479 71.3799 75.456 71.988 75.456 72.7388Z" fill="#F2C56D"/>
<path d="M87.1071 69.4123C87.1071 70.1631 86.4983 70.7712 85.7475 70.7712C84.9968 70.7712 84.3887 70.1624 84.3887 69.4123C84.3887 68.6616 84.9975 68.0527 85.7475 68.0527C86.4983 68.0534 87.1071 68.6616 87.1071 69.4123Z" fill="#F2C56D"/>
<path d="M92.7474 64.1746C92.1881 64.0068 91.7827 63.4896 91.7827 62.8744C91.7827 62.3012 92.1392 61.8119 92.6355 61.6162C92.6635 62.5389 92.6984 63.3847 92.7474 64.1746Z" fill="#F2C56D"/>
<path d="M91.2237 44.826C91.1258 44.8469 91.021 44.8609 90.9161 44.8609C90.1682 44.8609 89.5601 44.2528 89.5601 43.4979C89.5601 42.8058 90.0773 42.2327 90.7484 42.1558C90.9161 43.0225 91.0769 43.9103 91.2237 44.826Z" fill="#F2C56D"/>
<path d="M65.3954 54.3185C65.3954 55.0245 64.8572 55.6047 64.1652 55.6676C64.1722 55.5557 64.1792 55.4439 64.1862 55.332C64.2421 54.5002 64.2351 53.7313 64.1582 52.9624C64.8572 53.0253 65.3954 53.6055 65.3954 54.3185Z" fill="#F2C56D"/>
<path d="M66.7521 35.5112C66.7521 36.262 66.144 36.8708 65.3933 36.8708C64.6425 36.8708 64.0337 36.262 64.0337 35.5112C64.0337 34.7605 64.6425 34.1523 65.3933 34.1523C66.144 34.1523 66.7521 34.7605 66.7521 35.5112Z" fill="#F2C56D"/>
<path opacity="0.39" d="M84.5829 79.0279C82.6711 79.1453 80.5629 78.9908 78.3673 78.4421C72.6878 77.0301 69.0313 73.5029 67.4033 71.5974C66.7679 70.8572 66.0836 70.1547 65.3867 69.4703C64.1718 68.2862 61.9399 67.3985 62.9569 62.6193C64.3074 56.2989 64.7079 53.672 63.4938 49.8239C63.1484 48.7202 62.8772 47.4809 62.6738 46.1611C63.6175 45.4887 64.6905 45.0511 65.8368 45.1622C69.7212 45.5509 82.5348 46.9755 82.5348 46.9755C82.5348 46.9755 81.7212 50.2559 73.742 52.9569C65.769 55.6579 66.3241 61.5219 70.3692 64.9624C74.4144 68.4029 77.1951 69.3221 79.3907 74.7234C80.4455 77.3139 82.6166 78.4973 84.5829 79.0279Z" fill="#EAA43F"/>
<path d="M18.2318 36.7833L15.6699 34.0991L21.2208 28.6992L23.7826 31.3841L18.2318 36.7833Z" fill="#D39735"/>
<path d="M21.7951 32.8867L20.1517 31.1643C16.5113 27.3484 15.7962 21.5998 18.3909 17.0087C18.9704 15.9839 19.6973 15.05 20.5487 14.2371L34.5576 0.870605L52.7451 19.9326L38.7852 33.2523C37.901 34.0953 36.8937 34.7985 35.7969 35.3367L35.7333 35.3682C31.0444 37.6721 25.4027 36.6669 21.7951 32.8867Z" fill="#EDB73E"/>
<path d="M18.5931 36.9235L15.5475 33.7318C15.2329 33.4026 14.7108 33.39 14.3815 33.7046L13.4868 34.5588L17.6711 38.9437L18.5658 38.0902C18.8951 37.7749 18.9076 37.2528 18.5931 36.9235Z" fill="#EDB73E"/>
<path d="M13.2759 34.3371L6.5332 31.6899L20.2093 46.0238L17.6712 38.9436L13.2759 34.3371Z" fill="#474F54"/>
<path d="M20.2112 46.0244L13.6733 52.2568L9.49535 47.8775L0 37.9243L1.5553 36.4459L5.17827 32.983L6.53156 31.6919L16.0262 41.6374L20.2112 46.0244Z" fill="#2F373D"/>
<path d="M20.2114 46.0242L13.6736 52.2566L9.49561 47.8773L16.0265 41.6372L20.2114 46.0242Z" fill="#1E2326"/>
<path d="M5.18759 32.987L1.5625 36.4453L7.57237 42.7451L11.1975 39.2868L5.18759 32.987Z" fill="#EDB73E"/>
<path d="M52.7459 19.9331C52.202 20.4517 47.6899 16.6051 42.6675 11.3415C37.6452 6.078 34.0145 1.38974 34.5583 0.871075C35.1022 0.35241 39.6143 4.19906 44.6367 9.46261C49.659 14.7269 53.2897 19.4144 52.7459 19.9331Z" fill="#D39735"/>
<path d="M28.0317 30.6678C26.7993 30.6678 26.0039 30.2085 25.502 29.7073C25.0952 29.3012 25.0952 28.642 25.5013 28.2352C25.9074 27.8284 26.5666 27.8277 26.9734 28.2345C27.5033 28.7637 28.7069 28.6889 30.2748 28.0283C34.7688 26.1333 39.7317 20.8194 39.7059 18.6469C39.6954 17.7773 39.4948 17.4782 39.4179 17.4369C39.2403 17.3391 38.6902 17.5131 38.3533 17.7221C37.8668 18.0248 37.2251 17.8787 36.9203 17.3943C36.6155 16.9099 36.756 16.271 37.2391 15.9634C37.4194 15.8488 39.0362 14.8618 40.4077 15.6048C41.3052 16.0899 41.7701 17.1049 41.7882 18.6217C41.8309 22.1126 35.7935 27.9612 31.0843 29.9464C29.8498 30.4679 28.8453 30.6678 28.0317 30.6678Z" fill="#D39735"/>
<path d="M42.596 30.2111L40.0733 27.6939C40.0733 27.6939 38.6885 24.5183 38.0902 23.3216C37.4918 22.1249 36.6369 23.0126 36.6369 23.0126C36.6369 23.0126 35.3444 20.4633 33.8157 22.7897C33.8157 22.7897 32.3024 22.429 32.1975 25.2061C32.1975 25.2061 31.53 25.2005 31.3398 27.0278C31.1504 28.8557 34.9614 31.6461 36.4747 32.206L39.1373 35.0475L42.596 30.2111Z" fill="#F28A5C"/>
<path d="M82.4959 35.883C80.0535 35.0715 72.8887 38.2967 69.7683 38.7895C66.6479 39.2816 63.9875 38.7874 62.2399 39.311C60.4924 39.8345 60.5637 37.5907 58.071 38.3673C55.5784 39.1439 53.2814 36.5114 48.3464 33.6238C43.4114 30.7362 43.6581 29.3214 41.6799 29.3843C39.7017 29.4472 37.4796 34.32 37.1986 35.8033C36.9176 37.2866 48.0374 46.1774 51.9938 48.3625C55.9509 50.5476 59.1517 51.5667 62.2399 51.1221C65.3275 50.6769 73.9784 50.4378 78.3346 49.4956C82.6909 48.5526 84.0469 45.2952 84.358 40.9893C84.6691 36.6841 82.4959 35.883 82.4959 35.883Z" fill="#F7F2F6"/>
<path d="M158 77.6728C157.979 77.7916 157.923 77.8895 157.853 77.9734C157.322 75.7575 154.023 71.9479 136.541 75.5198C112.956 80.336 100.828 48.6988 97.9273 40.6392C95.0194 32.5866 91.2238 28.798 85.7505 31.5032C81.9269 33.3975 83.0314 30.7832 83.0314 30.7832C85.9742 28.4205 88.959 27.8963 91.776 29.0636C91.783 29.0636 91.783 29.0706 91.783 29.0706C95.7184 30.6993 99.3253 35.6413 101.996 43.5052C106.644 57.2197 116.276 66.4677 116.276 66.4677C128.831 78.0922 142.524 68.0544 152.821 70.7735C155.68 71.5215 156.994 73.318 157.574 75.0725C157.888 76.0091 157.986 76.9318 158 77.6728Z" fill="#E84A46"/>
<path d="M83.0309 30.783C83.0309 30.783 83.2203 28.442 82.1984 26.6868L81.9565 25.7725C81.9565 25.7725 89.1682 27.0174 91.5435 28.9732C91.5435 28.9732 87.2313 27.4557 83.0309 30.783Z" fill="#D33327"/>
<path d="M69.9645 27.5739C69.9645 27.5739 68.1086 29.2935 67.4858 28.9503C66.863 28.6078 67.815 27.1126 68.7251 26.2095C69.6345 25.3064 71.2667 24.7129 71.2667 24.7129C71.2667 24.7129 71.8252 25.5867 72.8535 26.0864C72.8535 26.0864 71.2961 26.3549 69.9645 27.5739Z" fill="#D33327"/>
<path d="M83.5788 19.5049C83.5788 19.5049 83.5788 19.5112 83.5725 19.5175C83.5355 19.616 83.1965 20.4919 82.7959 21.9843C82.7896 21.9843 82.7896 21.9906 82.7896 21.9969C82.6044 22.6812 82.401 23.5011 82.2165 24.4322C82.2102 24.4322 82.2102 24.4385 82.2102 24.4385C81.976 25.5793 81.7537 26.8927 81.5936 28.3481C79.1268 31.1413 75.5633 32.5722 71.0064 31.8627C70.9323 30.8393 71.2099 29.7664 71.7586 28.7486C72.1165 28.0762 72.5974 27.4289 73.1706 26.8312L73.5159 23.7667L83.5788 19.5049Z" fill="#F28A5C"/>
<path d="M83.5783 19.5049C83.5783 19.5049 83.5783 19.5112 83.572 19.5175C83.5349 19.616 83.1959 20.4919 82.7954 21.9843C82.7891 21.9843 82.7891 21.9906 82.7891 21.9969C82.6039 22.6812 82.6311 22.4309 82.4459 23.362C81.814 26.6607 77.4179 30.7282 71.7573 28.7493C72.1152 28.0768 72.5961 27.4296 73.1693 26.8319L73.5146 23.7675L83.5783 19.5049Z" fill="#DD5C43"/>
<path d="M71.0059 31.864L73.5698 32.4708C73.5698 32.4708 75.7312 33.5696 75.6941 35.5115C75.6941 35.5115 82.8016 31.6285 82.9841 30.0899C83.1665 28.5514 81.9097 26.0566 81.9097 26.0566L81.5176 28.4976C81.5176 28.4976 75.6578 31.2943 71.0059 31.864Z" fill="#F7F2F6"/>
<path d="M73.2565 26.0566C73.2565 26.0566 71.4817 26.0399 69.5769 27.937C67.6721 29.8341 67.2842 33.0572 67.2842 33.0572L69.7678 31.3482L71.0057 31.8647C71.4132 30.1319 72.1081 28.4494 73.1692 26.8305L73.2565 26.0566Z" fill="#F7F2F6"/>
<path d="M88.7258 15.3618C88.7258 15.3618 88.7258 21.6627 82.2621 24.1917C82.0747 24.2651 81.8846 24.3245 81.6889 24.3874C81.0807 24.5762 80.5076 24.6461 79.9693 24.6181C78.5154 24.5412 77.2921 23.7513 76.2715 22.598C73.133 19.04 71.9587 12.0289 71.9587 12.0289C71.9587 12.0289 69.1207 10.3513 70.9521 7.38752C70.9521 7.38752 70.6725 4.19304 72.7276 2.9488C74.7757 1.69757 76.0898 1.80941 77.2851 0.928657C78.4804 0.0548947 80.6054 0.418382 83.003 3.9344C85.4006 7.45043 88.5532 5.76581 90.2378 9.57542C91.9224 13.385 88.7258 15.3618 88.7258 15.3618Z" fill="#841A1A"/>
<path d="M82.2179 24.1857C82.3905 23.3546 82.5702 22.6206 82.7358 21.9922C82.7358 21.9852 82.7358 21.9782 82.7428 21.9782C83.1434 20.49 83.4754 19.61 83.5096 19.5121C83.5166 19.5051 83.5166 19.4981 83.5166 19.4981L78.7773 21.5309C78.5767 21.0066 78.4453 20.6508 78.4453 20.6298C78.4453 20.539 81.3819 12.2319 81.3819 12.2319C81.3819 12.2319 84.3806 15.1384 88.7263 15.3621C88.7263 15.3621 88.8361 21.7615 82.2179 24.1857Z" fill="#9E4026"/>
<path d="M72.0231 10.1325C72.0231 10.1325 68.3574 22.0366 71.7567 25.3171C74.2109 27.6853 78.4323 26.692 80.1924 25.6966C81.9525 24.7019 83.5434 21.6347 83.5434 21.6347C83.5434 21.6347 85.932 22.305 86.7197 19.3923C87.2091 17.5818 85.0945 16.6158 83.8992 18.7876L82.6725 18.6227C82.6725 18.6227 82.3964 17.3162 83.1121 16.1684C84.2865 14.286 81.6198 14.3321 81.5373 12.881C81.4541 11.4298 80.6076 11.095 77.6676 11.095C74.1515 11.095 72.2796 9.29297 72.2796 9.29297L72.0231 10.1325Z" fill="#F28A5C"/>
<path d="M73.3997 14.5047C73.2522 14.915 72.9188 15.1702 72.6546 15.0758C72.3903 14.9807 72.2953 14.5718 72.4421 14.1615C72.5895 13.7512 72.923 13.4961 73.1872 13.5904C73.4521 13.6855 73.5472 14.0944 73.3997 14.5047Z" fill="#841A1A"/>
<path d="M77.6604 15.9061C77.513 16.3165 77.1795 16.5716 76.9153 16.4772C76.6511 16.3822 76.556 15.9732 76.7028 15.5629C76.8503 15.1526 77.1837 14.8975 77.4479 14.9925C77.7129 15.0862 77.8079 15.4958 77.6604 15.9061Z" fill="#841A1A"/>
<path d="M73.4133 16.9604C73.4133 16.9604 73.0247 17.816 72.1579 18.5227C71.4428 19.1057 71.2031 19.2127 72.5941 20.085" stroke="#DD5C43" stroke-width="0.5" stroke-miterlimit="10" stroke-linecap="round"/>
<path d="M77.3257 13.9836C77.3257 13.9836 79.3004 13.5446 79.6737 15.6214" stroke="#841A1A" stroke-width="0.5" stroke-miterlimit="10" stroke-linecap="round"/>
<path d="M73.6783 12.9062C73.6783 12.9062 72.6263 11.5865 71.3198 12.679" stroke="#841A1A" stroke-width="0.5" stroke-miterlimit="10" stroke-linecap="round"/>
<path d="M72.9028 22.5667C72.9028 22.5667 75.4619 22.3172 76.1679 21.3623C76.1679 21.3623 76.4999 23.1063 75.4619 23.4803C74.4239 23.8536 72.9182 23.6872 72.9028 22.5667Z" fill="white"/>
<path d="M83.5766 19.5015C83.5766 19.5015 83.5766 19.5084 83.5696 19.5154C83.5347 19.6133 83.1992 20.4941 82.7937 21.983C82.7868 21.983 82.7868 21.9899 82.7868 21.9969C82.619 22.626 82.4372 23.36 82.2625 24.1918C82.0738 24.2617 81.885 24.3246 81.6893 24.3875C81.0812 24.5763 80.508 24.6462 79.9697 24.6182C78.5158 24.5413 77.2925 23.7514 76.272 22.5981L83.5766 19.5015Z" fill="#F28A5C"/>
</svg>
