<svg width="98" height="92" viewBox="0 0 98 92" fill="none" xmlns="http://www.w3.org/2000/svg">
<g clip-path="url(#clip0_2049_3257)">
<path d="M95.9034 30.6211C96.6945 31.2885 97.2962 32.153 97.6481 33.1276C97.9999 34.1021 98.0894 35.1524 97.9076 36.1726L88.8221 86.0422C88.4963 87.7674 87.5624 89.3178 86.1908 90.4104C84.8193 91.5029 83.1016 92.0649 81.351 91.9937L29.6507 88.6509C29.5553 88.6472 29.4605 88.6416 29.3669 88.6341C26.4795 88.4074 24.192 86.0875 23.8709 83.2031L23.7693 78.8726L91.0594 27.2844C91.6178 27.2844 93.4715 28.567 95.9034 30.6211Z" fill="#464F7A"/>
<path d="M94.7865 33.1231L85.6892 81.3175C85.3907 82.8988 84.535 84.3199 83.278 85.3215C82.0211 86.3231 80.4467 86.8384 78.8422 86.7734L30.1948 84.8001C29.1664 84.7583 28.1614 84.4793 27.258 83.9848C26.3547 83.4904 25.5773 82.7938 24.9863 81.9492C24.3953 81.1046 24.0066 80.1349 23.8504 79.1152C23.6943 78.0956 23.7749 77.0536 24.0859 76.0703L36.2417 30.5057C36.676 29.1299 37.5414 27.9311 38.7095 27.0873C39.8775 26.2436 41.2859 25.7998 42.7256 25.8218L83.111 26.9454L89.9122 27.1318C90.6469 27.1432 91.3703 27.3154 92.0316 27.6365C92.693 27.9576 93.2763 28.4197 93.7407 28.9905C94.205 29.5613 94.5392 30.2269 94.7199 30.9408C94.9006 31.6546 94.9233 32.3995 94.7865 33.1231Z" fill="#509DFF"/>
<path d="M57.6184 54.1714L52.2619 75.0204C52.0645 75.789 51.6077 76.4654 50.9692 76.9348C50.3307 77.4042 49.5498 77.6377 48.759 77.5956L34.0709 76.8155C33.5634 76.7883 33.0683 76.6485 32.6213 76.4062C32.1743 76.1638 31.7866 75.8249 31.4863 75.414C31.1859 75.0032 30.9805 74.5305 30.8847 74.0303C30.7889 73.5301 30.8053 73.0148 30.9325 72.5217L36.2134 52.0745C36.4076 51.3224 36.8503 50.6585 37.4693 50.1909C38.0883 49.7234 38.8472 49.4798 39.622 49.4999L54.3857 49.8788C54.9013 49.892 55.4073 50.0216 55.866 50.2579C56.3247 50.4942 56.7243 50.8312 57.035 51.2438C57.3457 51.6564 57.5595 52.1339 57.6605 52.6408C57.7615 53.1476 57.7471 53.6708 57.6184 54.1714Z" fill="#1C7DC6"/>
<path d="M84.2856 54.6347L80.2207 76.28C80.0668 77.098 79.6219 77.8322 78.9687 78.3462C78.3155 78.8603 77.4983 79.1192 76.6689 79.075L58.1104 78.0918C57.7829 78.0743 57.4632 77.9842 57.1747 77.8278C56.8861 77.6715 56.6358 77.4528 56.4417 77.1877C56.2477 76.9226 56.1149 76.6177 56.0528 76.2948C55.9907 75.972 56.0009 75.6394 56.0826 75.321L62.2752 51.2253C62.3582 50.9024 62.548 50.6171 62.8137 50.4162C63.0793 50.2153 63.4051 50.1106 63.7378 50.1191L81.0009 50.5632C81.4976 50.5757 81.9857 50.6962 82.4314 50.9164C82.877 51.1365 83.2696 51.4511 83.582 51.8383C83.8944 52.2255 84.1191 52.6761 84.2406 53.1589C84.3621 53.6418 84.3775 54.1453 84.2856 54.6347Z" fill="#1C7DC6"/>
<g opacity="0.6">
<path d="M94.7865 33.1231L85.6891 81.3175C85.3907 82.8988 84.5349 84.3199 83.278 85.3215C82.021 86.3231 80.4467 86.8384 78.8421 86.7734L30.1948 84.8001C29.2219 84.7636 28.2689 84.5134 27.4031 84.0673C26.5372 83.6211 25.7797 82.9899 25.1841 82.2181C31.6338 82.1256 58.1195 82.6746 70.6874 83.9249C74.0533 84.2591 77.5859 84.9479 80.1566 82.7448C82.208 80.9895 82.912 78.1622 83.5033 75.5268C85.591 66.2349 87.6794 56.944 89.7683 47.6541C90.6874 43.5659 91.6028 39.2802 90.5083 35.2367C89.9952 33.3429 88.9806 31.6125 87.65 30.179C86.4668 28.9142 85.0603 27.8798 83.5014 27.128C83.3719 27.0659 83.2405 27.0038 83.1091 26.946L89.9103 27.1324C90.6451 27.1435 91.3687 27.3156 92.0302 27.6365C92.6917 27.9574 93.2752 28.4195 93.7397 28.9902C94.2043 29.5609 94.5387 30.2266 94.7195 30.9405C94.9003 31.6544 94.9232 32.3994 94.7865 33.1231Z" fill="#1C7DC6"/>
</g>
<path d="M76.6062 45.4571L46.5923 44.9552C47.1606 41.0726 49.1531 37.5577 51.9637 34.9328C55.1517 31.9558 59.3914 30.1241 63.796 30.1974C72.0851 30.3366 77.8184 37.1682 76.6062 45.4571Z" fill="white"/>
<path d="M73.1702 45.085C74.3099 43.6807 74.4903 41.7546 73.9573 40.221C73.4243 38.6875 72.2728 37.4987 70.9949 36.5347C65.9439 32.7229 58.435 32.1167 51.9685 34.9328C55.1565 31.9558 59.3962 30.1241 63.8008 30.1974C72.09 30.3366 77.8251 37.1682 76.611 45.4571L72.8925 45.3949C72.988 45.2968 73.0797 45.1925 73.1702 45.085Z" fill="#D6E0FD"/>
<path d="M64.7249 42.2634L59.3479 42.1733L62.7974 37.0193L64.7249 42.2634Z" fill="#464F7A"/>
<path d="M65.8739 45.2778L57.3213 45.1349C57.4837 44.0231 58.0563 43.0163 58.8626 42.2684C59.7712 41.4262 60.9735 40.9094 62.2217 40.9306C64.586 40.9703 66.2197 42.9163 65.8739 45.2778Z" fill="#FF4A60"/>
<path d="M65.8739 45.2778L64.2941 45.2511C64.2941 45.2424 64.2941 45.2324 64.2898 45.2231C64.1885 44.6442 63.956 44.0963 63.6102 43.6215C63.2645 43.1468 62.8147 42.7578 62.2954 42.4846C61.2964 41.9666 60.0358 41.8896 58.8657 42.2684C59.7743 41.4262 60.9766 40.9094 62.2248 40.9306C64.586 40.9703 66.2197 42.9163 65.8739 45.2778Z" fill="#EF2043"/>
<path d="M76.6062 45.9906H76.5975L46.583 45.4882C46.5073 45.4869 46.4328 45.4696 46.3644 45.4372C46.296 45.4048 46.2353 45.3581 46.1863 45.3003C46.1373 45.2425 46.1012 45.1749 46.0804 45.102C46.0595 45.0291 46.0545 44.9526 46.0655 44.8776C47.3149 36.3459 55.2669 29.5217 63.8053 29.6646C67.9458 29.7335 71.6141 31.4087 74.1322 34.3807C76.6806 37.3869 77.7459 41.3484 77.133 45.5347C77.1144 45.6614 77.051 45.7772 76.9542 45.8609C76.8575 45.9446 76.734 45.9907 76.6062 45.9906ZM47.2189 44.4316L76.1402 44.9161C76.5672 41.2099 75.5743 37.7298 73.3209 35.0714C71.003 32.3385 67.6192 30.795 63.7873 30.731C55.9784 30.6012 48.6685 36.695 47.2189 44.4316Z" fill="#464F7A"/>
<path d="M63.5022 32.7422C63.4762 32.7419 63.4504 32.7399 63.4247 32.736C63.3556 32.7258 63.2891 32.7022 63.229 32.6663C63.169 32.6304 63.1167 32.583 63.0749 32.5268C63.0332 32.4706 63.0029 32.4068 62.9858 32.3388C62.9688 32.2709 62.9652 32.2003 62.9754 32.131L63.2698 30.1198C63.2903 29.9798 63.3655 29.8537 63.4789 29.7692C63.5922 29.6848 63.7343 29.6489 63.874 29.6695C64.0138 29.6901 64.1396 29.7655 64.2238 29.879C64.3081 29.9926 64.3439 30.1351 64.3234 30.2751L64.029 32.2856C64.0105 32.4125 63.9471 32.5284 63.8504 32.6122C63.7537 32.696 63.6301 32.7422 63.5022 32.7422Z" fill="#464F7A"/>
<path d="M56.7469 34.3726C56.6427 34.3726 56.5407 34.3419 56.4537 34.2844C56.3667 34.2269 56.2984 34.145 56.2573 34.049L55.5074 32.2925C55.4553 32.1631 55.4559 32.0183 55.509 31.8893C55.5621 31.7603 55.6636 31.6573 55.7916 31.6024C55.9196 31.5475 56.064 31.545 56.1938 31.5955C56.3236 31.646 56.4285 31.7455 56.486 31.8726L57.2365 33.6291C57.2716 33.7104 57.2859 33.7991 57.2783 33.8873C57.2706 33.9755 57.2411 34.0604 57.1926 34.1343C57.144 34.2082 57.0778 34.2689 57 34.3108C56.9222 34.3528 56.8352 34.3746 56.7469 34.3745V34.3726Z" fill="#464F7A"/>
<path d="M51.293 39.0516C51.1905 39.0516 51.0901 39.0218 51.0041 38.9659L49.412 37.9317C49.2935 37.8547 49.2104 37.7337 49.1809 37.5953C49.1514 37.4568 49.1781 37.3123 49.2549 37.1936C49.3317 37.0748 49.4525 36.9915 49.5907 36.9619C49.7288 36.9324 49.873 36.9591 49.9915 37.0361L51.5836 38.0703C51.6801 38.1329 51.7537 38.2251 51.7936 38.3331C51.8334 38.4411 51.8373 38.5592 51.8047 38.6696C51.772 38.78 51.7046 38.8769 51.6125 38.9458C51.5204 39.0146 51.4085 39.0518 51.2936 39.0516H51.293Z" fill="#464F7A"/>
<path d="M73.8081 39.4287C73.6886 39.4289 73.5725 39.3888 73.4785 39.3148C73.3846 39.2409 73.3181 39.1374 73.2899 39.021C73.2617 38.9046 73.2734 38.7821 73.3231 38.6732C73.3728 38.5643 73.4576 38.4753 73.5639 38.4206L75.4504 37.4448C75.5127 37.4117 75.5808 37.3913 75.651 37.3848C75.7211 37.3783 75.7919 37.3859 75.8591 37.407C75.9263 37.4281 75.9887 37.4623 76.0426 37.5078C76.0965 37.5532 76.1409 37.6089 76.1732 37.6717C76.2055 37.7344 76.225 37.803 76.2307 37.8734C76.2363 37.9438 76.2279 38.0146 76.2061 38.0817C76.1842 38.1488 76.1493 38.2109 76.1033 38.2644C76.0573 38.3179 76.0012 38.3617 75.9382 38.3933L74.0517 39.369C73.9764 39.4082 73.8929 39.4286 73.8081 39.4287Z" fill="#464F7A"/>
<path d="M69.7455 34.5901C69.6471 34.5901 69.5507 34.5629 69.4669 34.5113C69.3831 34.4597 69.3152 34.3859 69.2708 34.298C69.2263 34.2101 69.2071 34.1115 69.2152 34.0133C69.2233 33.9151 69.2584 33.8211 69.3166 33.7416L70.5759 32.0186C70.6599 31.9061 70.7849 31.8313 70.9236 31.8105C71.0623 31.7898 71.2036 31.8247 71.3168 31.9078C71.4299 31.9908 71.5058 32.1153 71.5279 32.2541C71.5501 32.3929 71.5166 32.5348 71.4349 32.6491L70.1756 34.3721C70.1262 34.4399 70.0614 34.495 69.9866 34.5329C69.9119 34.5707 69.8292 34.5904 69.7455 34.5901Z" fill="#464F7A"/>
<path d="M47.3714 63.5411C47.3714 63.5411 45.0851 66.1461 45.4111 67.4293C45.4111 67.4293 46.3556 72.5566 42.6538 73.1069C38.6726 73.6982 37.7832 70.9597 38.1607 68.6392C38.5759 66.0871 40.2585 54.4678 45.0957 53.9616C49.9328 53.4554 50.684 56.8883 50.4255 58.451C50.1671 60.0138 47.3714 63.5411 47.3714 63.5411Z" fill="#509DFF"/>
<path d="M72.4768 71.4461C71.4852 73.62 69.0831 75.638 65.7717 73.4697C62.6916 71.4535 66.521 67.3827 66.521 67.3827C67.5622 66.4013 66.9685 63.1827 66.9685 63.1827C66.9685 63.1827 66.4435 58.9516 67.1073 57.4852C67.771 56.0187 70.4446 53.3386 74.592 55.787C78.7394 58.2355 73.5707 69.0535 72.4768 71.4461Z" fill="#509DFF"/>
<path d="M56.7755 2.80127C56.7755 2.80127 63.6844 14.1603 57.3332 22.5814C51.3347 30.5317 41.1707 31.2149 37.4101 35.6081C37.1886 35.8643 36.9888 36.1385 36.8127 36.428C35.5378 38.5218 35.399 42.7485 31.7047 47.6951L24.2385 40.4578C25.1787 37.341 26.267 34.6149 27.429 33.3435C28.8433 31.7988 31.0273 30.7802 33.4741 29.8944C33.9358 29.7274 34.4037 29.5652 34.8821 29.4044L35.3346 29.2528C36.7916 28.7696 38.2932 28.2963 39.7435 27.7621L40.1928 27.5938C41.5302 27.0814 42.8174 26.5081 43.9733 25.8143C44.1108 25.7305 44.2484 25.6447 44.3829 25.5572C45.7544 24.6764 46.9177 23.6025 47.7345 22.2323C47.7965 22.1218 47.8622 22.0106 47.9205 21.8975C47.9359 21.8702 47.9502 21.8416 47.9645 21.8131C48.6061 20.5836 49.021 19.2481 49.1891 17.8708C49.2102 17.7149 49.2263 17.5566 49.2405 17.3982C49.3806 15.8715 49.2504 14.3746 48.987 13.0056C48.9561 12.8479 48.9251 12.6951 48.8904 12.5392C48.1467 9.11617 46.6308 6.59754 46.6308 6.59754L56.7755 2.80127Z" fill="#FFCD3B"/>
<path d="M35.7992 34.1416C36.2643 34.7043 36.8069 35.1978 37.4106 35.6075C37.1891 35.8637 36.9892 36.1379 36.8131 36.4273C35.5383 38.5211 35.3995 42.7478 31.7052 47.6944L24.239 40.4572C25.1792 37.3404 26.2675 34.6143 27.4295 33.3429C28.8438 31.7981 31.0278 30.7795 33.4745 29.8938C33.8049 30.4603 34.0001 31.1621 34.2802 31.7236C34.6998 32.5789 35.1913 33.4056 35.7992 34.1416Z" fill="#F57F35"/>
<path d="M5.49342 25.2349C-1.49738 31.7914 -1.86117 42.7864 4.68216 49.7939C11.2255 56.8013 22.1963 57.1659 29.1871 50.6094C36.1779 44.0529 36.5423 33.0554 30.0002 26.0492C23.4581 19.0429 12.483 18.6765 5.49342 25.2349ZM22.1405 43.061C21.126 44.0125 19.8526 44.6411 18.4816 44.8674C17.1105 45.0936 15.7032 44.9073 14.4378 44.332C13.1724 43.7567 12.1056 42.8183 11.3724 41.6353C10.6392 40.4524 10.2724 39.0781 10.3185 37.6863C10.3646 36.2944 10.8215 34.9476 11.6315 33.816C12.4414 32.6844 13.5679 31.8189 14.8686 31.329C16.1693 30.8391 17.5858 30.7468 18.9389 31.0637C20.292 31.3806 21.5209 32.0925 22.4703 33.1094C23.1004 33.7847 23.5917 34.5778 23.9161 35.4434C24.2404 36.309 24.3914 37.2302 24.3605 38.1543C24.3296 39.0784 24.1174 39.9873 23.7359 40.8292C23.3545 41.6711 22.8113 42.4295 22.1375 43.061H22.1405Z" fill="#FFCD3B"/>
<path d="M11.6054 31.7826C10.3947 32.919 9.54737 34.3897 9.17052 36.0087C8.79366 37.6276 8.90422 39.3222 9.48821 40.8783C10.0722 42.4343 11.1034 43.7818 12.4515 44.7506C13.7995 45.7193 15.4039 46.2657 17.0618 46.3208C18.7197 46.3758 20.3566 45.937 21.7657 45.0598C23.1747 44.1826 24.2927 42.9064 24.9781 41.3925C25.6636 39.8787 25.8858 38.1951 25.6167 36.5547C25.3476 34.9143 24.5992 33.3906 23.4662 32.1764C22.7135 31.3696 21.8095 30.7194 20.8059 30.2629C19.8023 29.8064 18.7188 29.5527 17.6173 29.5161C16.5157 29.4795 15.4178 29.6609 14.3863 30.0498C13.3547 30.4387 12.4098 31.0275 11.6054 31.7826ZM22.1375 43.0609C21.1229 44.0124 19.8496 44.6411 18.4785 44.8673C17.1074 45.0936 15.7002 44.9073 14.4347 44.332C13.1693 43.7567 12.1025 42.8182 11.3693 41.6353C10.6361 40.4523 10.2693 39.078 10.3154 37.6862C10.3616 36.2944 10.8185 34.9475 11.6284 33.8159C12.4383 32.6843 13.5648 31.8189 14.8656 31.3289C16.1663 30.839 17.5827 30.7467 18.9358 31.0636C20.2889 31.3805 21.5178 32.0924 22.4672 33.1093C23.0976 33.7844 23.5891 34.5774 23.9137 35.4429C24.2383 36.3083 24.3896 37.2294 24.359 38.1535C24.3283 39.0776 24.1164 39.9866 23.7352 40.8286C23.3541 41.6707 22.8112 42.4292 22.1375 43.0609Z" fill="#F57F35"/>
<path d="M17.3463 48.1038C17.2317 48.1038 17.1164 48.1038 17.0011 48.0982C15.6669 48.0576 14.354 47.7521 13.1384 47.1995C11.9228 46.6469 10.8286 45.8582 9.91921 44.879C6.09101 40.7796 6.30421 34.32 10.3952 30.4858C14.4862 26.6516 20.9309 26.8628 24.7567 30.9628C28.5849 35.0622 28.3711 41.5218 24.2807 45.356C22.4042 47.1258 19.9231 48.1089 17.3463 48.1038ZM17.3308 28.2709C14.8896 28.2665 12.5391 29.1983 10.7615 30.8752C6.88491 34.5107 6.68225 40.6268 10.3103 44.5144C11.1742 45.4397 12.2115 46.1854 13.363 46.7089C14.5145 47.2324 15.7576 47.5235 17.0214 47.5654C18.2851 47.6074 19.5447 47.3995 20.7283 46.9536C21.9119 46.5077 22.9962 45.8325 23.9194 44.9666C27.7959 41.3312 27.998 35.215 24.3706 31.3274C23.5083 30.3995 22.4709 29.6523 21.3184 29.1289C20.166 28.6055 18.9215 28.3164 17.6568 28.2784C17.5477 28.2734 17.4391 28.2709 17.3308 28.2709Z" fill="#F57F35"/>
<path d="M17.3481 50.7329C17.2039 50.7329 17.0593 50.7304 16.9143 50.7255C14.8132 50.6557 12.7617 50.0676 10.9415 49.0134C9.12128 47.9592 7.58859 46.4714 6.47918 44.6817C5.36977 42.8921 4.71787 40.8558 4.58123 38.7534C4.44459 36.6509 4.82744 34.5472 5.69584 32.6284C6.56425 30.7096 7.89142 29.0351 9.55979 27.7532C11.2282 26.4713 13.1862 25.6215 15.2606 25.2792C17.3349 24.9368 19.4615 25.1124 21.4519 25.7905C23.4423 26.4685 25.2352 27.6281 26.6717 29.1665C31.4884 34.3248 31.2194 42.4484 26.073 47.2751C23.712 49.5021 20.5903 50.7392 17.3481 50.7329ZM17.3339 25.6478C15.3369 25.6486 13.3703 26.1387 11.6056 27.0755C9.84081 28.0123 8.33136 29.3673 7.20869 31.0225C6.08602 32.6777 5.3842 34.5829 5.16435 36.5722C4.9445 38.5614 5.21329 40.5744 5.94732 42.4357C6.68134 44.297 7.85833 45.9502 9.37576 47.2513C10.8932 48.5525 12.705 49.462 14.6535 49.9008C16.6019 50.3395 18.6278 50.2942 20.5548 49.7687C22.4817 49.2432 24.2512 48.2534 25.7092 46.8857C30.6412 42.2602 30.8984 34.4745 26.2831 29.531C25.1373 28.3027 23.7515 27.3239 22.2118 26.6558C20.6721 25.9877 19.0117 25.6446 17.3339 25.6478Z" fill="#F57F35"/>
<path d="M17.3505 53.4571C17.1749 53.4571 16.9993 53.4542 16.8237 53.4484C14.7881 53.3862 12.785 52.9201 10.9303 52.0768C9.07568 51.2336 7.40634 50.0301 6.01892 48.536C0.17839 42.2813 0.503141 32.4304 6.74527 26.577C12.9874 20.7235 22.816 21.049 28.6566 27.3049C34.4971 33.5608 34.1724 43.4111 27.9296 49.2645C25.0668 51.9647 21.2817 53.4648 17.3505 53.4571ZM17.325 22.918C13.5288 22.9104 9.87358 24.3589 7.10907 26.9664C1.08199 32.6186 0.767774 42.1316 6.40751 48.172C9.12034 51.077 12.8735 52.7831 16.8414 52.915C20.8093 53.0468 24.6669 51.5936 27.5658 48.8751C33.5929 43.2229 33.9077 33.7099 28.268 27.6695C26.9281 26.2268 25.3159 25.0647 23.5249 24.2505C21.7339 23.4363 19.7996 22.9861 17.8339 22.926C17.6636 22.9207 17.494 22.918 17.325 22.918Z" fill="#F57F35"/>
<path d="M56.3397 0.526727L58.0638 3.77207C58.1277 3.89155 58.1665 4.02286 58.1779 4.15794C58.1893 4.29301 58.1729 4.42899 58.1299 4.55751C58.0869 4.68602 58.0181 4.80436 57.9278 4.90524C57.8374 5.00612 57.7274 5.08741 57.6046 5.14412L57.2433 5.31244L47.8553 9.67455C47.7356 9.7305 47.606 9.76193 47.474 9.76698C47.342 9.77203 47.2104 9.75062 47.0868 9.70398C46.9632 9.65735 46.8501 9.58644 46.7542 9.49542C46.6583 9.4044 46.5816 9.2951 46.5284 9.17393L45.4128 6.64971L45.3942 6.60685C45.2942 6.38121 45.2816 6.12634 45.3588 5.89188C45.436 5.65741 45.5976 5.46016 45.812 5.33853L54.9694 0.130453C55.0848 0.0639944 55.2123 0.0214914 55.3445 0.00547889C55.4766 -0.0105337 55.6106 0.000271859 55.7384 0.0372494C55.8663 0.0742269 55.9854 0.13662 56.0887 0.220713C56.192 0.304806 56.2774 0.408878 56.3397 0.526727Z" fill="#606C9C"/>
<path d="M51.2719 12.2534L51.3289 12.7242C51.2484 12.7348 49.8967 12.8969 48.9888 13.0019C48.9578 12.8441 48.9268 12.6913 48.8921 12.5354C49.5943 12.4553 50.6293 12.3329 51.2719 12.2534Z" fill="#F57F35"/>
<path d="M51.3458 17.751L51.2689 18.2193C50.2526 18.051 49.6049 17.9405 49.1909 17.8696C49.212 17.7137 49.2281 17.5554 49.2424 17.397C49.8392 17.4995 50.718 17.6473 51.3458 17.751Z" fill="#F57F35"/>
<path d="M49.696 23.1093L49.4122 23.4894L47.7339 22.231C47.7959 22.1205 47.8616 22.0093 47.9198 21.8962C47.9353 21.8689 47.9496 21.8403 47.9638 21.8118L49.696 23.1093Z" fill="#F57F35"/>
<path d="M44.0791 25.2389L43.7368 25.5659L45.3836 27.2972L45.7259 26.9702L44.0791 25.2389Z" fill="#F57F35"/>
<path d="M40.1903 27.595L41.2804 29.4701L40.872 29.7099L39.741 27.7633L40.1903 27.595Z" fill="#F57F35"/>
<path d="M35.3321 29.2527L36.517 31.7775L36.0875 31.9788L34.8796 29.4042L35.3321 29.2527Z" fill="#F57F35"/>
<path d="M56.3396 0.526635L58.0638 3.77198C58.1277 3.89146 58.1665 4.02277 58.1778 4.15785C58.1892 4.29292 58.1729 4.4289 58.1299 4.55741C58.0869 4.68593 58.0181 4.80427 57.9277 4.90515C57.8374 5.00603 57.7274 5.08732 57.6045 5.14403L57.2432 5.31235C57.2494 4.5726 57.066 3.85955 56.5739 3.31918C55.899 2.57384 54.7909 2.36017 53.8017 2.51918C52.8126 2.67819 51.9053 3.15707 51.0209 3.62974C50.1365 4.10241 49.2478 4.57508 48.3628 5.04837L45.9836 6.31856C45.8125 6.41049 45.6198 6.53222 45.4153 6.65086L45.3967 6.608C45.2967 6.38236 45.284 6.12749 45.3612 5.89303C45.4385 5.65857 45.6 5.46131 45.8144 5.33968L54.9718 0.131603C55.087 0.0654962 55.2143 0.0232459 55.3461 0.00735673C55.4779 -0.00853239 55.6116 0.00226383 55.7391 0.0391045C55.8667 0.0759452 55.9856 0.138081 56.0887 0.221827C56.1919 0.305573 56.2772 0.409224 56.3396 0.526635Z" fill="#464F7A"/>
<path d="M30.9461 75.1788C31.4543 81.1111 29.3168 87.3086 22.7654 89.708C11.9371 93.6732 2.62721 82.8509 0.967515 75.9061C0.604961 74.3919 0.606821 73.0627 1.03445 72.1111C4.02041 65.4651 12.3251 68.0788 12.3251 68.0788C12.3251 68.0788 13.3483 68.5006 14.1478 67.4906C14.9472 66.4807 14.2432 62.1422 21.3009 61.9422C26.2286 61.8018 30.3586 68.313 30.9461 75.1788Z" fill="#FF4A60"/>
<path d="M13.3252 69.7291C12.6571 69.8204 11.9871 69.6539 11.3376 69.4893C10.6881 69.3247 10.0182 69.1577 9.35008 69.2477C8.74861 69.3301 8.19289 69.6148 7.77405 70.0552C7.50322 70.3421 7.29437 70.7167 7.32412 71.103C7.35882 71.562 7.7127 71.926 8.06782 72.221C9.87005 73.7061 12.3038 74.4316 14.6626 74.1875C15.6362 74.0869 16.6148 73.8185 17.4168 73.2558C18.3216 72.6235 18.9506 71.6446 19.2308 70.5931C19.5109 69.5415 19.4576 68.4229 19.1688 67.3813C19.0597 66.985 18.9122 66.59 18.6476 66.2751C18.383 65.9601 17.9807 65.7347 17.5624 65.762C17.0536 65.7955 16.6402 66.1775 16.3043 66.5595C15.7602 67.1806 15.3195 67.8533 14.9092 68.562C14.5498 69.1918 14.0782 69.6266 13.3252 69.7291Z" fill="#EF2043"/>
<g opacity="0.1">
<path d="M15.0748 75.4343C13.7492 75.5417 12.4248 75.3368 11.0979 75.2858C10.718 75.2715 10.3313 75.2703 9.96313 75.3697C9.59499 75.4691 9.24174 75.6802 9.04899 76.0051C8.8296 76.3734 8.84634 76.8436 9.01553 77.2324C9.18472 77.6212 9.4884 77.9368 9.8212 78.2026C11.1723 79.2852 13.0668 79.6243 14.7854 79.2473C16.504 78.8703 18.0403 77.8219 19.1509 76.4703C19.4242 76.1374 19.6783 75.7771 19.7998 75.3678C19.9213 74.9585 19.8915 74.4889 19.635 74.1511C19.4292 73.8815 18.9483 73.6442 18.6093 73.825C18.2703 74.0057 18.018 74.4144 17.6846 74.6274C16.9093 75.1219 15.9834 75.3591 15.0748 75.4343Z" fill="white"/>
</g>
<g opacity="0.1">
<path d="M22.1029 76.6957C22.4698 76.7504 22.8695 76.6585 23.1428 76.4069C23.7979 75.8032 23.2265 74.656 22.3415 74.9249C21.5556 75.1635 20.9979 76.5299 22.1029 76.6957Z" fill="white"/>
</g>
<g opacity="0.1">
<path d="M21.3534 70.8249C21.1235 71.1597 20.8812 71.4982 20.7727 71.8864C20.6642 72.2746 20.7157 72.7318 21.0119 73.0044C21.3082 73.2771 21.7395 73.2982 22.1374 73.2696C23.3272 73.1809 24.4595 72.7213 25.3756 71.9554C26.2806 71.1934 26.9191 70.1617 27.1983 69.0106C27.409 68.1193 27.3842 67.1585 26.9993 66.3336C26.6145 65.5088 25.8466 64.8429 24.9343 64.6852C24.0221 64.5274 22.997 64.9516 22.557 65.7603C22.1269 66.551 22.283 67.4821 22.2744 68.3349C22.2651 69.2901 21.8951 70.0355 21.3534 70.8249Z" fill="white"/>
</g>
<path d="M30.9461 75.179C31.4543 81.1113 29.3168 87.3088 22.7654 89.7082C11.9371 93.6734 2.62722 82.851 0.967529 75.9063C2.22686 75.8019 3.21475 76.7572 4.026 77.564C6.14555 79.6703 8.32521 81.7547 10.8767 83.3355C13.4282 84.9162 16.4012 85.9765 19.438 85.8404C22.4748 85.7044 25.5475 84.2373 27.152 81.679C28.073 80.21 28.4733 78.4821 29.3441 76.9833C29.7499 76.2788 30.2951 75.6648 30.9461 75.179Z" fill="#EF2043"/>
<path d="M14.9316 71.2913C14.8658 71.336 14.7913 71.3661 14.713 71.3795C14.6346 71.393 14.5544 71.3895 14.4775 71.3693C14.4006 71.3492 14.3289 71.3128 14.2672 71.2626C14.2055 71.2124 14.1552 71.1495 14.1197 71.0783C13.4046 69.6118 11.4908 65.474 11.4251 62.7149C11.3433 59.2864 12.8505 57.7298 13.9158 58.2056C14.9812 58.6814 14.892 61.7361 13.544 63.7044C12.9143 64.6236 14.5629 69.1926 15.1454 70.6261C15.1924 70.7447 15.1966 70.876 15.1575 70.9973C15.1184 71.1187 15.0383 71.2227 14.931 71.2913H14.9316Z" fill="#358F48"/>
<path d="M84.2769 14.3894C83.571 19.0758 72.6913 23.8571 72.6913 23.8571C72.6913 23.8571 71.3743 22.7162 69.7859 21.0447C67.2276 18.3503 63.9695 14.2789 64.4052 11.3876C64.5789 10.2338 65.0776 9.15378 65.8427 8.27433C66.6078 7.39488 67.6075 6.7526 68.7243 6.42298C69.8411 6.09336 71.0286 6.09009 72.1472 6.41358C73.2658 6.73706 74.269 7.37384 75.0389 8.24907L75.1517 8.18199C76.1479 7.59953 77.2881 7.31136 78.4407 7.35076C79.5933 7.39015 80.7113 7.75551 81.6656 8.40464C82.6198 9.05376 83.3714 9.96017 83.8334 11.0192C84.2955 12.0782 84.4493 13.2466 84.2769 14.3894Z" fill="#FF4A60"/>
<path d="M84.2769 14.3895C83.571 19.0758 72.6913 23.8572 72.6913 23.8572C72.6913 23.8572 71.3743 22.7162 69.7859 21.0448C71.2175 21.0963 72.6876 20.7342 73.9971 20.1249C76.0466 19.169 77.7819 17.6609 79.4862 16.1703C80.3068 15.4535 81.1658 14.6796 81.4732 13.6342C81.9392 12.0491 80.9284 10.3218 79.5135 9.47708C78.5572 8.90565 77.4559 8.65348 76.3602 8.54541C75.9704 8.50628 75.4089 8.42118 75.1517 8.18392C76.1478 7.60146 77.2881 7.31329 78.4407 7.35268C79.5933 7.39208 80.7113 7.75744 81.6655 8.40656C82.6198 9.05569 83.3713 9.96209 83.8334 11.0211C84.2955 12.0801 84.4492 13.2485 84.2769 14.3914V14.3895Z" fill="#EF2043"/>
<g opacity="0.3">
<path d="M66.4366 10.1111C66.3848 10.3191 66.3758 10.5355 66.41 10.7471C66.4281 10.8527 66.4684 10.9532 66.5284 11.0419C66.5884 11.1306 66.6665 11.2054 66.7576 11.2614C67.101 11.4509 67.5274 11.2571 67.8465 11.0279C68.315 10.6913 68.7216 10.2758 69.0482 9.79992C69.5794 9.02601 69.1772 7.8788 68.1099 7.99868C67.1822 8.10054 66.6046 9.31296 66.4366 10.1111Z" fill="white"/>
</g>
<g opacity="0.3">
<path d="M67.2157 12.6328C67.1798 12.7764 67.1735 12.9258 67.1971 13.0719C67.2097 13.145 67.2376 13.2145 67.2791 13.2758C67.3205 13.3372 67.3746 13.389 67.4375 13.4278C67.6749 13.5589 67.9699 13.4278 68.1899 13.2664C68.5138 13.0336 68.795 12.7463 69.021 12.4173C69.3879 11.8825 69.1096 11.09 68.3721 11.1713C67.7307 11.2428 67.3316 12.0806 67.2157 12.6328Z" fill="white"/>
</g>
<path d="M72.8808 18.0876H72.8505C72.7959 18.0812 72.7447 18.0581 72.7037 18.0214C72.6628 17.9847 72.6342 17.9363 72.6218 17.8827L71.7114 13.9485L68.6454 13.4702C68.5758 13.4594 68.5132 13.4212 68.4716 13.3641C68.43 13.307 68.4127 13.2357 68.4236 13.1659C68.4344 13.096 68.4725 13.0334 68.5295 12.9917C68.5864 12.95 68.6576 12.9327 68.7273 12.9435L71.9704 13.4491C72.023 13.4573 72.072 13.4811 72.1109 13.5174C72.1499 13.5537 72.1772 13.6009 72.1892 13.6528L72.9707 17.0305C73.9703 14.9808 75.7596 11.3162 75.8693 11.0678C75.8748 11.0533 75.8817 11.0394 75.8897 11.0261C75.925 10.9669 75.9818 10.9236 76.0482 10.9052C76.1145 10.8868 76.1854 10.8948 76.2461 10.9274C76.3564 10.9895 76.3948 11.0547 76.3843 11.1504L76.8398 15.3056L80.303 15.8143C80.3728 15.8246 80.4358 15.8622 80.478 15.9189C80.5201 15.9756 80.5381 16.0468 80.5279 16.1168C80.5177 16.1868 80.4802 16.2499 80.4236 16.2922C80.367 16.3345 80.296 16.3525 80.2261 16.3423L76.5591 15.8038C76.5008 15.7953 76.447 15.7676 76.4061 15.7251C76.3653 15.6826 76.3397 15.6277 76.3335 15.569L75.9548 12.1162C75.9232 12.182 75.8928 12.2504 75.8556 12.3212C75.5526 12.9423 75.1473 13.7777 74.7401 14.61C73.9294 16.274 73.1182 17.9379 73.1182 17.9379C73.0964 17.9825 73.0626 18.0201 73.0207 18.0465C72.9788 18.0729 72.9303 18.0872 72.8808 18.0876Z" fill="black"/>
</g>
<defs>
<clipPath id="clip0_2049_3257">
<rect width="98" height="92" fill="white"/>
</clipPath>
</defs>
</svg>
