<svg width="123" height="125" viewBox="0 0 123 125" fill="none" xmlns="http://www.w3.org/2000/svg">
<path d="M89.9034 76.7473C88.8409 75.6989 92.1776 59.2896 92.1776 59.2896L75.9881 62.5137C75.9881 62.5137 75.1093 74.4617 73.1064 84.8605C81.0258 88.6425 89.9726 85.473 96.3682 79.6328C93.1282 78.348 90.3221 77.161 89.9034 76.7473Z" fill="#D88971"/>
<path d="M63.9297 47.7608L70.9061 47.1152" stroke="#4073AB" stroke-miterlimit="10"/>
<path d="M98.1983 42.3577C98.1983 42.3577 100.93 31.9373 83.9583 29.1173C72.9578 27.2892 69.0588 42.8889 66.6982 51.3592C64.3375 59.8295 64.952 69.8559 75.1474 71.5277C82.791 72.7802 92.2316 76.5095 98.1983 42.3577Z" fill="#F19C7C"/>
<path d="M96.0403 51.9954C96.0403 51.9954 96.8352 50.4666 99.1272 52.5451C102.034 55.1815 97.8221 63.0125 94.0876 61.6927C90.3526 60.3723 96.0403 51.9954 96.0403 51.9954Z" fill="#F19C7C"/>
<path d="M92.8413 36.6981C92.8413 36.6981 87.7083 45.0248 93.9819 49.8153L91.7007 56.7732L94.0963 57.7994C94.0963 57.7994 95.1231 49.4728 98.4305 51.9821C98.4305 51.9821 102.651 43.9979 103.449 38.7505C104.247 33.5044 92.8413 36.6981 92.8413 36.6981Z" fill="#352C38"/>
<path d="M71.168 36.4149C72.4389 36.4149 81.3349 42.7692 100.822 47.0056L106.113 36.0686C106.113 36.0686 113.953 40.2281 118.614 34.297C123.273 28.3665 123.834 9.18994 103.292 11.8467C103.292 11.8467 91.9256 -7.64129 75.4044 3.37259C58.8833 14.3865 77.5223 23.2825 77.5223 23.2825L71.168 36.4149Z" fill="white"/>
<path opacity="0.1" d="M93.1962 24.9773C86.8775 25.4456 81.7242 25.2639 77.4471 23.439L71.1685 36.4151C72.4393 36.4151 81.3353 42.7693 100.822 47.0057L106.114 36.0687C99.2252 31.6176 93.1962 24.9773 93.1962 24.9773Z" fill="#061B38"/>
<path d="M79.6997 44.5206C79.6997 44.5206 79.8065 44.3839 80.0365 44.2003C80.1502 44.105 80.2945 44.0008 80.4686 43.8915C80.6446 43.7917 80.8435 43.6621 81.0786 43.5738C81.3099 43.4696 81.5679 43.3685 81.8519 43.298C82.1328 43.209 82.4435 43.1792 82.765 43.1315C83.0884 43.1271 83.4284 43.0858 83.7715 43.1423C83.9431 43.1639 84.1178 43.1798 84.2907 43.209L84.8035 43.3444C85.1479 43.4302 85.4669 43.5935 85.7789 43.7447C86.094 43.8915 86.3571 44.119 86.624 44.3051C86.8813 44.5059 87.0853 44.7512 87.2886 44.9622C87.4996 45.1681 87.6203 45.4299 87.7608 45.6383C87.8948 45.8524 88.0143 46.0469 88.0778 46.2464C88.1554 46.4357 88.2068 46.6086 88.2513 46.7471C88.3377 47.0261 88.3657 47.1906 88.3657 47.1906C88.3657 47.1906 88.2094 47.1055 87.973 46.9473C87.8561 46.8672 87.7112 46.7751 87.5644 46.6594C87.4214 46.5393 87.2238 46.4434 87.0415 46.3163C86.8445 46.2051 86.6672 46.0469 86.4403 45.942C86.2192 45.8308 86.0101 45.6859 85.7769 45.5754C85.5355 45.4801 85.3118 45.3403 85.0615 45.2526C84.8086 45.1725 84.5728 45.0448 84.3085 44.9927L83.9259 44.8751C83.7938 44.8542 83.6641 44.8205 83.5339 44.7925C83.2765 44.7188 83.009 44.7125 82.7529 44.6534C82.493 44.6406 82.2376 44.5847 81.9904 44.5809C81.7426 44.5612 81.5031 44.5415 81.2787 44.5364C80.8301 44.5237 80.4368 44.5161 80.1553 44.5186C79.8649 44.5199 79.6997 44.5206 79.6997 44.5206Z" fill="#352C38"/>
<path d="M69.3828 42.9346C69.3828 42.9346 69.5671 42.3996 70.1688 41.834C70.4688 41.5538 70.8773 41.2793 71.3781 41.0785C71.6341 40.9978 71.9029 40.8974 72.1952 40.8758C72.3407 40.8618 72.4875 40.8434 72.6362 40.8364L73.0855 40.8714C73.3879 40.8866 73.6707 41.0048 73.9509 41.0906C74.221 41.2005 74.4624 41.3581 74.6956 41.4954C74.9034 41.6669 75.0934 41.8423 75.265 42.0094C75.4257 42.1867 75.5452 42.3792 75.6615 42.547C75.779 42.7141 75.8648 42.8787 75.9207 43.0369C75.9868 43.1875 76.03 43.326 76.0675 43.4372C76.1406 43.6609 76.1641 43.7943 76.1641 43.7943C76.1641 43.7943 76.0326 43.7346 75.8331 43.6209C75.7339 43.563 75.6126 43.497 75.4887 43.4125C75.3667 43.3248 75.2141 43.2466 75.054 43.1653C74.8945 43.0839 74.7388 42.9785 74.5666 42.892C74.3881 42.8171 74.2095 42.7357 74.0342 42.6442C73.8435 42.5928 73.6612 42.5171 73.4743 42.4599C73.2793 42.439 73.0988 42.3487 72.9006 42.3538L72.6108 42.317C72.5123 42.324 72.4145 42.3189 72.316 42.3182C72.1196 42.3068 71.9213 42.3475 71.7231 42.3545C71.3304 42.4117 70.9415 42.4904 70.5978 42.5819C70.2534 42.6715 69.9503 42.7599 69.7342 42.8279C69.5105 42.8959 69.3828 42.9346 69.3828 42.9346Z" fill="#352C38"/>
<path d="M75.4953 46.6309C75.3993 47.1284 75.276 47.6158 75.1591 48.1063C75.0467 48.5982 74.9151 49.083 74.7849 49.5684C74.5205 50.5381 74.2339 51.5002 73.9334 52.4577C73.7879 52.9381 73.6227 53.4115 73.4683 53.8887C73.3145 54.3666 73.1505 54.8406 72.9821 55.3127C72.6555 56.2614 72.3041 57.2012 71.9426 58.1385L71.7246 57.7013C72.4064 57.9574 73.0851 58.2249 73.7599 58.5026C74.429 58.7974 75.1064 59.0687 75.7666 59.3915C75.0435 59.26 74.3375 59.0764 73.6239 58.9169C72.9154 58.7402 72.2114 58.5528 71.5099 58.3545L71.189 58.2637L71.2913 57.9167C71.5759 56.954 71.8714 55.9945 72.191 55.0439C72.3461 54.5667 72.5049 54.0908 72.6746 53.6187C72.8436 53.1465 73.0012 52.67 73.1791 52.2004C73.5254 51.2587 73.8851 50.3214 74.267 49.3912C74.4595 48.9267 74.6514 48.4622 74.8624 48.004C75.0689 47.5459 75.2684 47.0833 75.4953 46.6309Z" fill="#FC6A5A"/>
<path d="M95.2231 60.136C95.4468 59.9631 95.6578 59.7782 95.8452 59.5781C96.0327 59.3785 96.1852 59.1498 96.278 58.921C96.3212 58.8066 96.3536 58.6891 96.3447 58.5785C96.351 58.5226 96.3415 58.4686 96.3243 58.4165C96.3129 58.3637 96.3053 58.311 96.2716 58.2634C96.2309 58.1617 96.1528 58.0727 96.074 57.985C96.0429 57.9374 95.9818 57.9043 95.9367 57.8637L95.7944 57.7448L95.687 57.6552L95.6927 57.5205C95.7207 56.8438 95.795 56.183 95.9272 55.5183C95.9895 55.186 96.0784 54.8568 96.1877 54.5289C96.2983 54.2023 96.4324 53.8732 96.6567 53.5663C96.7736 53.415 96.914 53.2632 97.1155 53.1583C97.3143 53.0484 97.5819 53.0325 97.7871 53.1062C98.0057 53.1875 98.1232 53.2835 98.27 53.3788C98.427 53.4913 98.5598 53.6215 98.6742 53.7613C98.7841 53.9081 98.8781 54.0644 98.9455 54.2322C99.0065 54.4019 99.0484 54.576 99.0592 54.7507C99.0878 55.0983 99.0344 55.4433 98.8991 55.7483C98.9423 55.4198 98.9321 55.0894 98.8464 54.7876C98.8082 54.6357 98.7383 54.4965 98.6659 54.365C98.5909 54.2341 98.4956 54.1191 98.392 54.0142C98.2789 53.9138 98.1633 53.8281 98.0457 53.7563C97.9104 53.6832 97.749 53.5955 97.6518 53.5764C97.4421 53.5313 97.2768 53.6495 97.1142 53.8897C96.813 54.3752 96.6535 55.0195 96.5175 55.6403C96.3879 56.2687 96.2881 56.9175 96.2144 57.5555L96.1128 57.3318L96.283 57.4945C96.3371 57.5529 96.3987 57.5968 96.4425 57.6699C96.5398 57.8014 96.6325 57.9355 96.6846 58.1032C96.7221 58.1795 96.7323 58.2665 96.7418 58.3529C96.7583 58.4387 96.7571 58.5239 96.7393 58.6084C96.724 58.7787 96.6567 58.9331 96.5811 59.0691C96.4273 59.3455 96.2004 59.5463 95.9691 59.7191C95.7366 59.8901 95.4875 60.0317 95.2231 60.136Z" fill="#FC6A5A"/>
<path d="M80.0859 52.7012C80.0859 52.7012 80.1012 52.5582 80.1406 52.3123C80.1685 52.1903 80.1698 52.0397 80.2365 51.8745C80.3001 51.7074 80.3751 51.5129 80.4723 51.3026C80.5994 51.1196 80.722 50.8978 80.9044 50.7053C81.0982 50.5242 81.2945 50.3088 81.5703 50.1798C81.8219 50.0165 82.1327 49.9237 82.4466 49.8615C82.608 49.8488 82.7719 49.8271 82.9365 49.8271L83.4308 49.897C83.591 49.9422 83.7454 50.0114 83.9004 50.0705C84.0555 50.1309 84.1825 50.2465 84.3204 50.3342C84.4647 50.4168 84.5587 50.556 84.6674 50.6716C84.7811 50.786 84.8644 50.9175 84.9324 51.0554C85.1046 51.3141 85.1573 51.6032 85.2215 51.8643C85.2666 52.1274 85.252 52.3809 85.2507 52.6052C85.2138 52.8283 85.1694 53.0278 85.13 53.2013C85.0893 53.3741 85.0073 53.512 84.9616 53.6289C84.8567 53.8589 84.79 53.9822 84.79 53.9822C84.79 53.9822 84.7875 53.8342 84.7932 53.5902C84.7919 53.4682 84.8123 53.3233 84.8008 53.1587C84.783 52.9929 84.7633 52.8111 84.7532 52.6173C84.7004 52.4292 84.6617 52.2246 84.5949 52.0264C84.5041 51.8351 84.4272 51.6318 84.2868 51.4634C84.2308 51.37 84.1628 51.2842 84.0739 51.2181C83.9875 51.1514 83.9246 51.0567 83.8216 51.011C83.6418 50.8832 83.4353 50.8032 83.2224 50.7371L82.892 50.6837L82.5565 50.6926C82.3392 50.732 82.1079 50.7517 81.9109 50.8597C81.6993 50.9328 81.5226 51.0656 81.3403 51.1793C81.1719 51.309 81.0296 51.4621 80.8777 51.5873C80.7652 51.7379 80.6483 51.8745 80.5415 52.0009C80.4367 52.128 80.3712 52.2723 80.302 52.3727C80.1685 52.5836 80.0859 52.7012 80.0859 52.7012Z" fill="#1F2136"/>
<path d="M68.6328 50.4332C68.6328 50.4332 68.6474 50.2928 68.6862 50.0519C68.7122 49.9325 68.718 49.7844 68.7771 49.6217C68.8381 49.4578 68.9099 49.2678 69.002 49.0613C69.1151 48.8732 69.2422 48.6648 69.4061 48.4646C69.5961 48.2886 69.7728 48.0624 70.0416 47.9302C70.2843 47.7638 70.5823 47.6576 70.8911 47.5865L71.3741 47.542L71.8652 47.603C72.0247 47.6449 72.1772 47.7174 72.3304 47.7771C72.4816 47.8419 72.6081 47.9537 72.7434 48.0427C72.887 48.1247 72.9722 48.2696 73.0789 48.3839C73.1901 48.4983 73.2587 48.6362 73.3261 48.7709C73.49 49.0289 73.5218 49.3174 73.5841 49.5722C73.6089 49.8314 73.6044 50.0786 73.5885 50.2966C73.5498 50.5139 73.504 50.709 73.4633 50.8774C73.4176 51.0451 73.3401 51.1805 73.2937 51.2942C73.1895 51.5191 73.124 51.6399 73.124 51.6399C73.124 51.6399 73.1221 51.495 73.1297 51.2554C73.1304 51.1353 73.1475 50.993 73.1431 50.831C73.1278 50.6677 73.1107 50.4885 73.1031 50.2972C73.0656 50.1091 73.0173 49.9102 72.9683 49.7088C72.8781 49.5214 72.8184 49.3123 72.6837 49.1458C72.5826 48.9558 72.4054 48.8243 72.2465 48.6896C72.1531 48.6394 72.0743 48.5625 71.9733 48.5269C71.8703 48.4964 71.7731 48.45 71.6702 48.4246L71.3505 48.3719L71.0239 48.3909C70.8136 48.4424 70.5906 48.4684 70.3993 48.5809C70.1922 48.6559 70.0269 48.8033 69.8465 48.9139C69.6895 49.0619 69.5408 49.2017 69.4042 49.3307C69.2943 49.4807 69.1799 49.6167 69.0763 49.7425C68.9772 49.8721 68.9111 50.01 68.8438 50.1098C68.7141 50.3182 68.6328 50.4332 68.6328 50.4332Z" fill="#1F2136"/>
<path d="M71.397 61.9067C71.397 61.9067 72.0362 62.3217 73.023 62.8148C73.274 62.931 73.5384 63.0651 73.8281 63.1839C74.1115 63.3161 74.4242 63.4191 74.74 63.5385C75.0551 63.6605 75.3976 63.7311 75.7319 63.8365C76.0769 63.8956 76.4194 64.01 76.774 64.024L77.3001 64.0907C77.4755 64.1047 77.6509 64.0952 77.8243 64.099C77.9978 64.092 78.1719 64.1149 78.3409 64.0964C78.5106 64.0793 78.6783 64.0621 78.8436 64.0449C79.1784 64.0284 79.4885 63.9395 79.791 63.8778C80.0973 63.8251 80.3737 63.7304 80.6298 63.637C80.8827 63.5385 81.1368 63.4864 81.3363 63.3847C81.5416 63.2901 81.7201 63.2068 81.8676 63.1388C82.1726 63.0086 82.3473 62.9336 82.3473 62.9336C82.3473 62.9336 82.212 63.0626 81.9603 63.2805C81.832 63.3879 81.6757 63.5188 81.4965 63.6688C81.3173 63.8219 81.0777 63.9357 80.8286 64.0837C80.7016 64.1555 80.5694 64.2305 80.4328 64.308C80.2936 64.3824 80.1354 64.423 79.9797 64.4853C79.6639 64.5965 79.3335 64.7427 78.9656 64.7852C78.6034 64.8532 78.2266 64.9358 77.8364 64.9212C77.6426 64.9225 77.4456 64.9365 77.2499 64.9263L76.6628 64.8678C76.2675 64.838 75.8945 64.7071 75.5171 64.6289C75.1517 64.5114 74.7933 64.3849 74.4636 64.233C73.7976 63.9382 73.2264 63.5722 72.767 63.2278C71.8437 62.5358 71.397 61.9067 71.397 61.9067Z" fill="#FC6A5A"/>
<path d="M63.9297 47.7609C63.3896 50.4926 65.1663 53.1455 67.8986 53.6856C70.6303 54.2257 73.2832 52.4491 73.8234 49.7167C74.3635 46.985 72.5862 44.3321 69.8545 43.792C67.1228 43.2519 64.4698 45.0292 63.9297 47.7609Z" stroke="#4073AB" stroke-miterlimit="10"/>
<path d="M76.7066 51.631C76.1665 54.3634 77.9431 57.0156 80.6755 57.5557C83.4072 58.0959 86.0601 56.3192 86.6002 53.5869C87.1403 50.8552 85.3637 48.2022 82.6313 47.6621C79.899 47.122 77.2467 48.8993 76.7066 51.631Z" stroke="#4073AB" stroke-miterlimit="10"/>
<path d="M73.4604 50.9286C73.4604 50.9286 75.6431 48.7758 76.7062 51.6314" stroke="#4073AB" stroke-miterlimit="10"/>
<path d="M94.7793 53.9216L86.4526 53.1235" stroke="#4073AB" stroke-miterlimit="10"/>
<path d="M9.80431 77.3895C9.80431 77.3895 -8.71208 48.8454 5.14789 67.0377C5.14789 67.0377 -5.09141 50.141 6.46259 65.493C6.46259 65.493 -4.09505 48.3466 8.45148 64.2711C8.45148 64.2711 -1.14476 48.3942 11.79 65.1384C11.79 65.1384 17.9105 52.2157 13.8272 67.6643L18.103 73.9048L9.80431 77.3895Z" fill="#F19C7C"/>
<path d="M67.9913 90.5326C68.2678 86.8897 68.2163 83.2302 68.4171 79.5829C68.4813 78.4194 68.5461 77.181 68.6439 75.9082C62.1174 76.1554 54.7325 76.5792 51.9925 77.2814C46.6683 78.645 32.15 88.1574 32.15 88.1574L18.4107 70.0254L5.76953 76.2583C5.76953 76.2583 22.5328 102.901 25.8631 105.465C29.1927 108.03 56.7767 97.5185 63.3718 94.5771C64.7742 93.9512 66.3411 92.7305 67.9392 91.2011C67.9564 90.978 67.9742 90.755 67.9913 90.5326Z" fill="#124D5B"/>
<path opacity="0.2" d="M67.9913 90.5326C68.2678 86.8897 68.2163 83.2302 68.4171 79.5829C68.4813 78.4194 68.5461 77.181 68.6439 75.9082C62.1174 76.1554 54.7325 76.5792 51.9925 77.2814C46.6683 78.645 32.15 88.1574 32.15 88.1574L18.4107 70.0254L5.76953 76.2583C5.76953 76.2583 22.5328 102.901 25.8631 105.465C29.1927 108.03 56.7767 97.5185 63.3718 94.5771C64.7742 93.9512 66.3411 92.7305 67.9392 91.2011C67.9564 90.978 67.9742 90.755 67.9913 90.5326Z" fill="#161826"/>
<path d="M6.44851 77.3493C6.01896 76.6605 5.77051 76.2583 5.77051 76.2583L18.4117 70.0254L19.213 71.0827L6.44851 77.3493Z" fill="white"/>
<path d="M82.2324 75.3804C82.2324 75.3804 87.8325 91.8526 93.9923 95.622C100.152 99.3913 126.147 113.378 129.78 111.264C133.414 109.152 153.478 84.8978 153.478 84.8978L141.748 77.0846L125.782 93.2899C125.782 93.2899 112.614 81.9812 107.51 79.9415C102.407 77.9011 82.2324 75.3804 82.2324 75.3804Z" fill="#124D5B"/>
<path d="M141.748 77.0847L125.782 93.29C125.782 93.29 112.614 81.9813 107.511 79.9416C104.347 78.6771 94.4446 76.9398 87.3729 75.8018C86.9396 79.0749 86.3334 82.3257 85.6802 85.5721C88.2632 89.7844 91.3088 93.9801 93.9922 95.622C100.152 99.3914 126.147 113.377 129.78 111.264C133.414 109.152 153.478 84.8979 153.478 84.8979L141.748 77.0847Z" fill="#124D5B"/>
<path d="M100.451 160.482C96.1386 163.26 92.4843 164.01 87.831 164.069C81.0631 164.154 74.1782 163.769 67.4357 163.197C66.1394 163.088 64.852 162.954 63.5717 162.804L64.0501 148.189L61.8668 162.583C56.0234 161.812 53.1347 159.952 47.6421 158.271C50.7112 134.766 51.9357 98.2147 56.8469 76.4798L69.4881 75.1664L69.9158 71.8774L75.6874 72.6577L76.8769 73.8924L76.4251 80.8783L79.0723 82.5317L80.42 74.8741L81.8726 74.076L90.9815 73.8053L90.9796 77.3142L107.353 80.6254C107.351 80.6248 99.9531 135.601 100.451 160.482Z" fill="#124D5B"/>
<path d="M90.9804 73.8052C86.296 73.8694 86.5895 74.1299 81.93 73.9348C81.264 73.9069 80.5708 74.5448 80.5428 75.2101C80.1164 77.3737 79.7345 79.4967 79.3749 81.5911C79.0623 83.411 75.0985 79.334 74.8062 81.1164C74.0983 85.4342 63.9664 139.778 63.5718 162.804" stroke="white" stroke-width="1.085" stroke-miterlimit="10"/>
<path d="M69.9155 71.8765C71.0733 72.0919 72.7286 72.1319 75.4272 72.6638C76.5017 72.8754 76.9243 73.8399 76.8277 74.4989C76.7083 76.6651 76.5704 78.7867 76.4242 80.8773" stroke="white" stroke-width="0.8333" stroke-miterlimit="10"/>
<path d="M78.1913 85.1194C78.1665 85.7154 77.6632 86.1786 77.0666 86.1532C76.4699 86.1278 76.0073 85.6252 76.0327 85.0285C76.0575 84.4325 76.5608 83.9692 77.1574 83.9947C77.7535 84.0201 78.2161 84.5233 78.1913 85.1194Z" fill="white"/>
<path d="M75.4046 100.805C75.3798 101.401 74.8759 101.865 74.2799 101.839C73.6839 101.814 73.2213 101.311 73.2461 100.715C73.2708 100.118 73.7741 99.6553 74.3708 99.6807C74.9662 99.7055 75.4294 100.209 75.4046 100.805Z" fill="white"/>
<path d="M72.2474 119.49C72.2227 120.086 71.7194 120.549 71.1227 120.524C70.5267 120.499 70.0635 119.996 70.0889 119.399C70.1137 118.803 70.6169 118.34 71.2136 118.365C71.8096 118.391 72.2729 118.894 72.2474 119.49Z" fill="white"/>
</svg>
