<svg width="113" height="100" viewBox="0 0 113 100" fill="none" xmlns="http://www.w3.org/2000/svg">
<g clip-path="url(#clip0_17_981)">
<path d="M51.0232 74.9454L48.5192 83.376L36.5322 81.0149L41.3411 68.7988L51.0232 74.9454Z" fill="#FEB5B1"/>
<path d="M69.0906 72.3279L67.6203 78.359L57.3733 79.2251L56.8789 76.062L60.4423 66.8486L69.0906 72.3279Z" fill="#FEB5B1"/>
<path d="M91.883 79.8666C103.546 79.8666 113 70.4188 113 58.7644C113 47.1099 103.546 37.6621 91.883 37.6621C80.2205 37.6621 70.7661 47.1099 70.7661 58.7644C70.7661 70.4188 80.2205 79.8666 91.883 79.8666Z" fill="#3B4051"/>
<path d="M92.4694 79.961C103.984 78.1137 111.821 67.2879 109.972 55.7807C108.124 44.2736 97.2903 36.4427 85.7752 38.29C74.2601 40.1373 66.4238 50.9631 68.2724 62.4703C70.1209 73.9774 80.9543 81.8083 92.4694 79.961Z" fill="#555970"/>
<path d="M95.302 61.4359C96.5802 57.6448 94.541 53.5359 90.7472 52.2586C86.9534 50.9812 82.8417 53.0191 81.5635 56.8103C80.2852 60.6014 82.3245 64.7103 86.1183 65.9876C89.9121 67.265 94.0238 65.2271 95.302 61.4359Z" fill="#3B4051"/>
<path d="M70.2593 59.1173C70.2593 55.3891 71.3656 51.7446 73.4383 48.6447C75.511 45.5448 78.4571 43.1287 81.9039 41.702C85.3507 40.2753 89.1435 39.902 92.8026 40.6293C96.4617 41.3566 99.8229 43.152 102.461 45.7882C105.099 48.4245 106.896 51.7833 107.623 55.4398C108.351 59.0964 107.978 62.8866 106.55 66.331C105.122 69.7755 102.705 72.7195 99.6025 74.7908C96.5004 76.862 92.8534 77.9676 89.1226 77.9676C84.1213 77.9625 79.3263 75.9749 75.7898 72.4409C72.2534 68.9069 70.2644 64.1152 70.2593 59.1173ZM75.768 59.1173C75.7668 61.7571 76.5489 64.3379 78.0156 66.5334C79.4822 68.7288 81.5674 70.4403 84.0076 71.4514C86.4477 72.4624 89.133 72.7276 91.724 72.2134C94.3149 71.6992 96.6951 70.4287 98.5634 68.5626C100.432 66.6965 101.704 64.3186 102.22 61.7297C102.736 59.1408 102.472 56.4571 101.461 54.0182C100.451 51.5793 98.7389 49.4947 96.5426 48.028C94.3463 46.5613 91.7641 45.7785 89.1226 45.7785C85.5818 45.7801 82.1863 47.1856 79.6814 49.6864C77.1764 52.1872 75.7667 55.579 75.7616 59.1173H75.768Z" fill="#9498AA"/>
<path d="M59.9672 39.0608C59.9672 39.0608 79.5046 46.3045 78.8947 53.0605C78.2847 59.8166 71.9092 74.1821 71.9092 74.1821L58.2722 71.4809L62.9399 60.5737C62.9399 60.5737 40.449 50.1284 37.5983 46.0671C34.7476 42.0058 38.4587 35.4935 38.4587 35.4935L41.7845 34.499L59.9672 39.0608Z" fill="#475A84"/>
<path d="M87.7547 58.9438L40.0571 73.6365" stroke="#9498AA" stroke-width="4.78" stroke-linecap="round" stroke-linejoin="round"/>
<path d="M70.625 29.8536C70.625 30.2065 70.7149 31.3742 70.7983 33.0616C70.9011 35.397 71.0552 38.7205 71.2478 42.2943C71.7036 50.9302 72.3457 60.9713 72.9556 61.6578C73.9957 62.8383 75.787 61.5166 76.7437 63.9932C77.4371 65.7704 78.9331 65.4561 80.5639 64.8209C82.1947 64.1857 87.575 62.8255 85.392 58.2509C85.392 58.2509 84.628 56.3838 81.5398 55.8C81.5398 55.8 81.604 48.5691 80.8977 40.7159C80.6794 38.4254 80.3969 36.0707 80.0117 33.8251C78.8689 26.9792 76.8657 21.1856 73.3922 21.1856C68.609 21.1727 70.4709 27.8775 70.625 29.8536Z" fill="#FEB5B1"/>
<path d="M70.7856 33.0679C70.8884 35.4033 71.0425 38.7268 71.2351 42.3005L80.8658 40.7158C80.6475 38.4252 80.365 36.0706 79.9797 33.825L70.7856 33.0679Z" fill="#F67B7A"/>
<path d="M73.604 20.7559C73.604 20.7559 77.925 20.6917 79.5493 28.4551C81.1737 36.2185 81.5397 39.4457 81.5397 39.4457L70.4772 41.3705L70.1177 25.3305C70.1177 25.3305 70.1241 21.2178 73.604 20.7559Z" fill="#8FA699"/>
<path d="M67.4467 16.5595C64.3522 15.3393 60.959 15.0909 57.7197 15.8473C52.2944 17.1048 48.7952 18.9783 44.943 20.8133C41.0907 22.6483 33.6109 24.1625 33.6109 24.1625L32.2305 32.8433L39.4535 40.5425C39.4535 40.5425 55.9155 47.6451 66.0277 41.691C76.14 35.7369 73.835 25.9269 73.3663 21.1726C72.8976 16.4183 67.4467 16.5595 67.4467 16.5595Z" fill="#8FA699"/>
<path d="M33.4763 24.5734C33.137 26.0344 33.3026 27.5671 33.9461 28.922C34.5897 30.2769 35.6732 31.3742 37.0204 32.0353C45.123 36.0709 63.9863 46.266 63.4405 53.253C62.715 62.1392 53.4567 78.3589 53.4567 78.3589L38.0476 75.4268L44.0572 56.8588C44.0572 56.8588 20.9114 48.0304 21.1875 37.9637C21.4636 27.8969 27.6529 26.4148 27.6529 26.4148L33.5661 24.1885C33.5301 24.3153 33.5001 24.4438 33.4763 24.5734Z" fill="#53669B"/>
<path d="M55.768 68.7988L40.0571 73.6365" stroke="#9498AA" stroke-width="4.78" stroke-linecap="round" stroke-linejoin="round"/>
<path d="M82.625 13.1077C82.625 13.1077 84.5511 7.37815 82.3425 4.9529C81.5617 4.0482 80.6094 3.3069 79.5405 2.77173C78.4716 2.23656 77.3073 1.9181 76.1147 1.83472C74.4132 1.67432 72.1468 2.32233 70.4454 5.1133C68.744 7.90427 69.2705 11.4652 69.3924 12.511C69.5144 13.5568 67.4663 16.5595 67.4663 16.5595C67.4663 16.5595 67.691 24.3164 70.4197 24.156C73.1484 23.9956 73.3667 21.1726 73.3667 21.1726L74.8113 18.5292C74.8113 18.5292 76.9814 19.081 78.2655 18.6639C79.5496 18.2469 81.2831 15.8216 81.2831 15.8216C81.2831 15.8216 82.5672 16.4632 82.7984 15.9243C83.0295 15.3853 82.625 13.1077 82.625 13.1077Z" fill="#FEB5B1"/>
<path d="M51.2993 67.7723C52.3009 69.3442 53.6042 67.9712 54.5095 70.0372C55.4148 72.1031 56.3907 72.7768 58.4131 72.3277C60.4356 71.8786 67.4018 70.6275 65.7325 64.8723C65.7325 64.8723 65.1675 62.5497 61.6362 61.2986L63.0937 44.2705L63.4532 39.9782L64.5383 27.1461C64.5383 27.1461 64.8464 18.3883 59.1964 18.215C53.5464 18.0418 52.7246 25.1379 52.532 27.4862C52.4678 28.224 52.2238 32.3303 51.9542 37.662C51.8514 39.7215 51.7359 41.9607 51.6267 44.2512C51.1324 54.9339 50.7214 66.8933 51.2993 67.7723Z" fill="#FEB5B1"/>
<path d="M51.627 44.2706H63.0939L63.4534 39.9783L62.0217 37.6621H51.9544C51.8517 39.7281 51.7361 41.9673 51.627 44.2706Z" fill="#F67B7A"/>
<path d="M64.6025 43.2246L50.4775 42.7049C50.4775 42.7049 49.1742 15.3983 59.4084 16.0399C68.7694 16.6045 64.6025 43.2246 64.6025 43.2246Z" fill="#8FA699"/>
<path d="M50.5611 79.9693C50.5611 79.9693 55.4021 84.5182 57.9575 85.5384C60.5128 86.5585 60.5257 87.0205 60.4037 88.1048C60.2817 89.1891 51.704 89.0159 46.8116 88.5603C41.9192 88.1048 35.8262 87.707 35.8262 85.2048C35.8262 82.7025 38.1054 79.6934 38.1054 79.6934C38.1054 79.6934 39.9931 81.5733 44.5644 81.522C44.5644 81.5155 47.0941 77.6339 50.5611 79.9693Z" fill="#555970"/>
<path d="M56.8789 76.0617C56.8789 76.0617 53.7457 82.5739 55.5049 83.2219C57.2641 83.87 79.3633 85.7563 79.6137 84.0496C79.8641 82.343 69.1227 76.992 69.1227 76.992C69.1227 76.992 68.211 75.0672 66.317 74.9068C64.4229 74.7464 62.5353 77.2551 62.5353 77.2551C62.5353 77.2551 60.0185 78.5383 56.8789 76.0617Z" fill="#555970"/>
<path d="M47.797 86.2905C53.4292 74.5906 48.5038 60.5433 36.7958 54.915C25.0878 49.2868 11.0308 54.2088 5.39862 65.9087C-0.233547 77.6086 4.69189 91.6559 16.3999 97.2841C28.1079 102.912 42.1649 97.9904 47.797 86.2905Z" fill="#3B4051"/>
<path d="M23.5245 100C36.5168 100 47.0491 89.4749 47.0491 76.4917C47.0491 63.5084 36.5168 52.9834 23.5245 52.9834C10.5323 52.9834 0 63.5084 0 76.4917C0 89.4749 10.5323 100 23.5245 100Z" fill="#555970"/>
<path d="M22.7542 84.5631C27.2149 84.5631 30.8311 80.9494 30.8311 76.4918C30.8311 72.0341 27.2149 68.4204 22.7542 68.4204C18.2934 68.4204 14.6772 72.0341 14.6772 76.4918C14.6772 80.9494 18.2934 84.5631 22.7542 84.5631Z" fill="#3B4051"/>
<path d="M2.51026 76.4915C2.5166 72.3395 3.75446 68.2826 6.06738 64.8335C8.38029 61.3843 11.6645 58.6977 15.5049 57.1132C19.3452 55.5288 23.5695 55.1175 27.6437 55.9314C31.7179 56.7452 35.4593 58.7478 38.395 61.6859C41.3306 64.624 43.3288 68.3659 44.1371 72.4385C44.9453 76.5112 44.5273 80.7318 42.9359 84.5671C41.3444 88.4025 38.651 91.6803 35.1959 93.9863C31.7408 96.2924 27.6792 97.5232 23.5244 97.5232C17.9471 97.5181 12.6002 95.2996 8.65945 91.3555C4.71872 87.4115 2.50685 82.0649 2.51026 76.4915ZM8.64821 76.4915C8.64821 79.4317 9.52069 82.3058 11.1553 84.7505C12.7899 87.1952 15.1133 89.1006 17.8315 90.2258C20.5498 91.3509 23.5409 91.6453 26.4266 91.0717C29.3123 90.4981 31.963 89.0823 34.0435 87.0033C36.1239 84.9242 37.5408 82.2754 38.1148 79.3917C38.6888 76.508 38.3942 73.5189 37.2682 70.8025C36.1423 68.0861 34.2356 65.7644 31.7892 64.1309C29.3428 62.4974 26.4666 61.6256 23.5244 61.6256C19.5806 61.6307 15.7997 63.1985 13.011 65.9853C10.2223 68.7721 8.65331 72.5504 8.64821 76.4915Z" fill="#9498AA"/>
<path d="M22.7543 76.5176L16.7319 78.3718" stroke="#9498AA" stroke-width="4.78" stroke-linecap="round" stroke-linejoin="round"/>
<path d="M74.8113 18.5488C74.8113 18.5488 72.4486 17.7853 71.6011 14.5195L73.3667 21.1729L74.8113 18.5488Z" fill="#F67B7A"/>
<path d="M79.8063 65.097C79.8063 65.097 80.0246 63.1081 79.2798 61.9917" stroke="#F67B7A" stroke-width="0.6" stroke-linecap="round" stroke-linejoin="round"/>
<path d="M82.0727 64.2693C82.3122 63.2435 82.2543 62.1708 81.9058 61.1768" stroke="#F67B7A" stroke-width="0.6" stroke-linecap="round" stroke-linejoin="round"/>
<path d="M84.4418 62.9859C84.5405 62.1466 84.4393 61.2958 84.1465 60.5029" stroke="#F67B7A" stroke-width="0.6" stroke-linecap="round" stroke-linejoin="round"/>
<path d="M58.4261 72.3275C58.4261 72.3275 58.3233 69.0746 57.3667 68.0288" stroke="#F67B7A" stroke-width="0.6" stroke-linecap="round" stroke-linejoin="round"/>
<path d="M62.2786 71.2175C62.2786 71.2175 62.2144 68.2597 61.4375 67.1177" stroke="#F67B7A" stroke-width="0.6" stroke-linecap="round" stroke-linejoin="round"/>
<path d="M65.3861 68.7991C65.3861 68.7991 65.5723 66.8742 64.7056 65.9824" stroke="#F67B7A" stroke-width="0.6" stroke-linecap="round" stroke-linejoin="round"/>
<path d="M73.7131 23.9062C73.7131 23.9062 75.0549 29.1096 70.4258 38.0536" stroke="#2A2018" stroke-width="0.6" stroke-linecap="round" stroke-linejoin="round"/>
<path d="M64.6025 43.2246C64.6025 43.2246 66.0664 31.9902 65.2831 25.9014" stroke="#2A2018" stroke-width="0.6" stroke-linecap="round" stroke-linejoin="round"/>
<path d="M50.4968 42.705C50.4968 42.705 50.0794 30.4633 52.2624 23.5981" stroke="#2A2018" stroke-width="0.6" stroke-linecap="round" stroke-linejoin="round"/>
<path d="M51.216 28.3843L50.0347 25.1763" stroke="#2A2018" stroke-width="0.6" stroke-linecap="round" stroke-linejoin="round"/>
<path d="M44.083 56.8585L45.8101 51.2573" stroke="#2A2018" stroke-width="0.6" stroke-linecap="round" stroke-linejoin="round"/>
<path d="M75.4532 9.8293C75.4532 9.8293 86.124 11.8247 86.7403 6.06951C87.3567 0.314345 81.0967 1.80928 81.0967 1.80928C81.0967 1.80928 73.6233 -2.26489 70.3489 1.80928C67.0745 5.88345 67.601 12.2802 69.0648 13.711C69.7366 13.6811 70.3946 13.5096 70.9954 13.2077C71.5962 12.9058 72.1264 12.4804 72.5511 11.9594C72.5511 11.9594 69.9829 9.22619 72.5062 7.88524C74.381 6.85868 75.4532 9.8293 75.4532 9.8293Z" fill="#555970"/>
<path d="M74.6123 9.89989C74.6123 9.89989 74.0473 8.34079 73.1934 8.39854C72.3394 8.45628 71.9093 9.3866 72.5128 10.7083C72.5128 10.7083 73.3539 10.1437 73.4245 10.7981" stroke="#F67B7A" stroke-width="0.6" stroke-linecap="round" stroke-linejoin="round"/>
</g>
<defs>
<clipPath id="clip0_17_981">
<rect width="113" height="100" fill="white"/>
</clipPath>
</defs>
</svg>
