<svg width="120" height="98" viewBox="0 0 120 98" fill="none" xmlns="http://www.w3.org/2000/svg">
<path d="M49.9006 148.831C56.6936 133.953 62.4858 107.687 62.4858 107.687C62.4858 107.687 63.6479 100.274 56.0056 97.8099C48.781 95.4789 44.7102 104.953 44.7111 106.133C44.7111 106.133 38.2491 137.266 39.9987 147.399C39.9987 147.399 45.2864 155.068 49.9006 148.831Z" fill="#E89776"/>
<path d="M41.5139 49.5691C41.5139 49.5691 30.8013 54.6297 19.429 52.5499C14.367 52.3683 12.2866 47.5002 13.0147 46.8404C18.1696 42.1751 26.6515 40.6333 30.781 40.1739C39.7701 39.1759 42.0172 39.5624 42.0172 39.5624C42.0172 39.5624 47.2563 44.6503 41.5139 49.5691Z" fill="#F5A987"/>
<path d="M48.0862 38.1031C41.6264 37.2672 37.9048 39.2691 36.3114 42.5334C34.7158 45.7992 38.567 49.9948 42.1546 50.6907C47.1929 51.6687 51.3861 51.3997 53.6645 47.6778C56.4964 43.0429 51.7114 38.5722 48.0862 38.1031Z" fill="#F5A987"/>
<path d="M55.8758 47.5074C55.8758 47.5074 54.122 53.0517 32.1507 53.5053C32.1507 53.5053 28.5394 47.1057 31.1544 38.9994C31.1544 38.9994 43.1986 35.7548 53.8905 33.8887C53.8905 33.8887 56.5608 43.1755 55.8758 47.5074Z" fill="#0064B0"/>
<path d="M16.1048 51.613C16.1048 51.613 6.85482 47.5528 10.6729 30.7226L13.437 22.4263L16.0335 23.8576L18.8355 42.4449C18.8355 42.4449 20.419 50.2819 16.1048 51.613Z" fill="#F5A987"/>
<path d="M21.8322 16.742L11.1694 16.7676L11.1771 19.9511L21.8399 19.9255L21.8322 16.742Z" fill="#21263D"/>
<path d="M0.0130702 20.9659L2.93086 24.2661L8.14319 24.2536L11.167 20.7977L11.1552 15.4678L8.23735 12.4971L3.02502 12.5092L0 15.2042L0.0130702 20.9659Z" fill="#21263D"/>
<path d="M32.9837 20.8897L30.081 24.2022L24.8675 24.2144L21.8285 20.773L21.8179 15.4428L24.7205 12.4579L29.9328 12.4463L32.9697 15.1274L32.9837 20.8897Z" fill="#21263D"/>
<path d="M15.4945 23.9139C15 24.1592 14.3521 24.2427 13.8664 23.9467C12.7696 23.2796 12.3431 21.5866 12.0466 20.4443C11.6724 18.9884 10.8891 17.0771 11.93 15.7165C12.0901 15.5067 12.3777 15.3746 12.5758 15.1967C12.9913 14.8263 12.8528 14.4303 13.4432 14.4009C13.7786 14.3836 14.4872 13.9072 14.7825 13.9849C15.0723 14.0629 15.8978 13.5644 16.1727 13.6132C17.8421 13.9163 18.86 14.2181 19.0374 15.0145C19.1416 15.4924 19.3014 17.5668 19.9969 18.1865C19.9969 18.1865 20.5649 18.931 19.1282 20.6244L15.4945 23.9139Z" fill="#F5A47F"/>
<path d="M48.557 18.2671C50.6407 22.2723 53.2013 15.3502 53.3808 13.5991C53.5561 11.9149 55.0025 8.66487 53.5734 7.60156C52.8754 7.08327 52.4015 5.15492 51.5492 5.54873C50.0563 6.23797 48.2465 7.06594 47.8289 10.0266C47.5057 12.3178 47.4771 16.1937 48.557 18.2671Z" fill="#451A11"/>
<path d="M79.2307 112.5L43.458 109.843L43.7016 102.863L45.8154 86.9507L79.2523 89.0136C79.2523 89.0136 80.3525 99.319 79.2307 112.5Z" fill="#021334"/>
<path d="M80.4339 137.717L79.8398 104.441C77.6036 89.4946 58.0361 91.6042 58.0361 91.6042L59.0835 110.216L62.0617 139.307C62.0617 139.307 69.9227 143.671 80.4339 137.717Z" fill="#021334"/>
<path d="M56.3807 92.6816C54.3802 92.6816 51.7829 92.6045 47.3885 92.3458C47.2361 92.3367 47.1191 92.2055 47.1279 92.0531C47.1364 91.9004 47.2716 91.7868 47.4211 91.7929C54.7775 92.2256 57.0787 92.1497 59.9902 92.0534C60.8091 92.0261 61.6799 91.9975 62.7251 91.9775C63.2779 91.9681 64.0014 91.9775 64.8714 91.99C68.0164 92.0349 73.2819 92.1117 78.9355 91.2424C79.0913 91.2196 79.2277 91.3226 79.2514 91.4735L79.0199 91.7893C73.3195 92.6658 68.0261 92.5884 64.8629 92.5435C64.0005 92.531 63.2812 92.5198 62.736 92.531C61.6929 92.5511 60.8254 92.5799 60.0087 92.6066C58.8234 92.6458 57.7406 92.6816 56.3807 92.6816Z" fill="#21263D"/>
<path d="M64.5629 24.7251C65.3311 23.6806 66.4422 22.1764 66.5579 21.9502C69.6176 15.9794 69.7731 9.23026 63.9281 5.52325C58.9472 2.36519 58.4029 13.4161 57.8956 15.9038C57.3115 18.7773 56.8419 21.8853 57.8221 24.7035C58.1921 25.7659 59.1832 27.4174 60.3851 27.4086C61.7134 27.3986 63.4724 26.2065 64.5629 24.7251Z" fill="#451A11"/>
<path d="M66.319 18.1895C66.4854 19.792 65.7552 21.6882 64.3704 22.4816C62.4933 23.5604 61.5802 21.8312 61.4226 20.0741C61.2959 18.6589 61.7005 16.163 63.2627 15.5187C64.734 14.9102 66.1838 16.875 66.319 18.1895Z" fill="#F5A987"/>
<path d="M63.6253 21.2055L53.9878 21.623L54.5615 34.8567L64.199 34.4392L63.6253 21.2055Z" fill="#F5A987"/>
<path d="M61.0264 29.1889C61.9058 27.119 62.3939 25.0422 62.1233 22.4966L54.043 22.8464L54.494 33.259C57.0161 32.7605 60.0885 31.3941 61.0264 29.1889Z" fill="#E58861"/>
<path d="M50.314 36.8015L54.5084 33.3854L64.1412 32.9761L69.4802 35.9869L50.314 36.8015Z" fill="#F5A987"/>
<path d="M81.4831 99.7255C79.8917 89.2634 79.2697 65.5639 79.2697 65.5639L80.437 43.3464C80.9877 38.8894 79.9015 35.4684 79.9015 35.4684L64.2946 32.8994C59.0173 37.2374 54.4942 33.2595 54.4942 33.2595L47.6623 36.3802C47.6623 36.3802 44.4188 38.3195 43.9678 44.0189L45.6693 68.8905C45.8112 74.8446 45.5114 76.2185 45.1244 83.9538C45.0054 86.3115 44.1172 93.0545 44.1743 95.4155C51.5201 99.6758 56.2726 100.981 64.7211 101.91C64.7211 101.91 76.498 102.864 81.4831 99.7255Z" fill="#0064B0"/>
<path d="M44.1746 95.6927L44.153 95.6918C44.0005 95.6797 43.8869 95.5467 43.8988 95.3946C44.1497 92.1454 44.3683 89.5804 44.5403 87.5619C44.7793 84.7563 44.9245 83.0627 44.9494 82.0033C45.0166 79.1777 45.1171 76.93 45.2058 74.9473C45.3768 71.1349 45.4989 68.3803 45.2188 64.7908C44.6694 57.7943 44.2408 52.1024 43.739 45.1448C43.7281 44.992 43.8429 44.8597 43.9954 44.8487C44.1436 44.8351 44.2809 44.9523 44.2918 45.1047C44.7927 52.0615 45.221 57.7521 45.7705 64.7474C46.0539 68.3706 45.9305 71.1397 45.7598 74.9718C45.6711 76.9521 45.5703 79.1959 45.5035 82.0161C45.4776 83.0924 45.3328 84.7921 45.0925 87.6083C44.9206 89.6262 44.7019 92.1891 44.451 95.4368L44.1746 95.6927Z" fill="#21263D"/>
<path d="M75.7049 92.2067L75.5187 92.1348C72.2968 89.2114 70.3571 86.6922 68.1124 83.7752C67.0207 82.3573 65.8923 80.8917 64.5078 79.2348L64.5437 78.8452L64.9331 78.8798C66.3245 80.5443 67.4569 82.0151 68.5519 83.4376C70.7805 86.3336 72.7063 88.8349 75.8911 91.7246L75.9096 92.116L75.7049 92.2067Z" fill="#21263D"/>
<path d="M68.0101 94.1005L67.9159 94.086C66.9618 93.7705 67.2862 89.1602 67.4843 88.4485L67.8251 88.2554L68.0177 88.5964C67.7331 89.6199 67.7473 93.2304 68.1182 93.5747L68.2804 93.9175L68.0101 94.1005Z" fill="#21263D"/>
<path d="M79.6827 98.7657L79.4124 98.5495C78.5327 94.6421 77.5875 83.7081 76.7522 74.0609C76.2036 67.7135 75.6845 61.7177 75.2905 59.0655L75.5229 58.751L75.8379 58.9841C76.2349 61.6531 76.7303 67.381 77.3038 74.0132C78.1379 83.6428 79.0813 94.5574 79.9531 98.4281L79.7435 98.7587L79.6827 98.7657Z" fill="#21263D"/>
<path d="M62.6896 22.9063C61.9776 25.3001 60.8905 27.3086 58.8326 28.8401C56.8194 30.3373 54.6783 31.2036 52.4682 29.6897C50.7125 28.4849 49.4757 26.6097 48.7045 24.6789C46.9257 20.2326 47.4062 13.816 49.9841 9.87545C52.8133 5.54812 59.0577 5.8979 61.8434 10.1967C64.1109 13.6966 63.8414 19.0423 62.6896 22.9063Z" fill="#F5A987"/>
<path d="M64.1769 21.0719L63.9172 20.8921C63.2681 19.1766 63.4986 17.4778 64.4636 16.8535L64.8479 16.9358L64.7655 17.3196C64.0417 17.7878 63.8977 19.2707 64.4366 20.6963L64.2753 21.0536L64.1769 21.0719Z" fill="#E58861"/>
<path d="M63.9195 18.7539L63.6978 18.644L63.7518 18.2547C64.3286 17.8181 65.2566 18.0729 65.5284 18.1615L65.7058 18.5119L65.3553 18.6895C64.9194 18.5468 64.3569 18.4937 64.0875 18.6977L63.9195 18.7539Z" fill="#E58861"/>
<path d="M51.2057 18.5749C51.237 19.0859 51.0152 19.5146 50.709 19.5337C50.4029 19.5519 50.1292 19.1548 50.0967 18.6435C50.0654 18.1343 50.2871 17.7053 50.5945 17.6867C50.9004 17.667 51.1741 18.0654 51.2057 18.5749Z" fill="#21263D"/>
<path d="M57.8393 18.1652C57.8718 18.6753 57.65 19.105 57.3429 19.1235C57.0356 19.1426 56.7631 18.7439 56.7318 18.2354C56.6984 17.7238 56.9223 17.2953 57.2285 17.2771C57.5343 17.2568 57.8071 17.6561 57.8393 18.1652Z" fill="#21263D"/>
<path d="M58.998 19.8579C59.0208 20.2195 58.3726 20.5547 57.5516 20.606C56.7315 20.657 56.0468 20.4041 56.025 20.0419C56.0031 19.68 56.6504 19.3444 57.4714 19.2934C58.2918 19.2433 58.9743 19.4966 58.998 19.8579Z" fill="#F2937C"/>
<path d="M51.7225 20.7263C51.7453 21.088 51.0971 21.4235 50.276 21.4736C49.4559 21.5249 48.7722 21.2723 48.7506 20.91C48.7269 20.5481 49.3748 20.2132 50.195 20.1625C51.0169 20.1106 51.6976 20.3632 51.7225 20.7263Z" fill="#F2937C"/>
<path d="M52.3413 15.9215L52.0515 15.8283C51.6751 15.559 50.7359 15.2456 49.6096 15.783C49.3621 15.9018 49.0632 15.7961 48.9453 15.5481C48.8263 15.2997 48.9326 15.0018 49.1801 14.8837C50.6254 14.1936 51.9421 14.5248 52.6323 15.0185C52.8552 15.1782 52.9071 15.4897 52.7471 15.7135C52.6495 15.8495 52.4959 15.9215 52.3413 15.9215Z" fill="#451A11"/>
<path d="M58.4492 15.9217L58.0987 15.7778C57.5805 15.2661 56.466 15.0299 55.8051 15.4911C55.5791 15.6487 55.2686 15.5931 55.1116 15.3675C54.9537 15.1419 55.0086 14.8313 55.2349 14.6738C56.3448 13.9004 57.9741 14.2538 58.7997 15.0694C58.9953 15.2628 58.9965 15.5783 58.803 15.7735L58.4492 15.9217Z" fill="#451A11"/>
<path d="M64.7946 10.1276C62.6189 8.72881 60.3481 10.8694 60.3481 10.8694C59.6686 11.4263 60.571 13.511 60.7712 14.0047C61.5178 15.8526 61.824 17.91 62.0512 19.8359C62.395 19.692 62.7446 19.5626 63.0973 19.4424C63.2109 18.5849 63.1775 16.458 63.5462 16.0645C64.5404 15.0036 65.6536 16.3171 65.9133 17.0085C67.0059 11.8513 64.7946 10.1276 64.7946 10.1276Z" fill="#451A11"/>
<path d="M82.4859 49.3521C82.4859 49.3521 93.1985 54.4127 104.571 52.3329C109.633 52.1513 111.713 47.2829 110.985 46.6234C105.83 41.9581 97.3483 40.4163 93.2188 39.9569C84.2297 38.9586 81.9826 39.3451 81.9826 39.3451C81.9826 39.3451 76.7435 44.433 82.4859 49.3521Z" fill="#F5A987"/>
<path d="M75.9141 37.886C82.3736 37.0498 86.0954 39.0516 87.6889 42.3159C89.2845 45.582 85.4332 49.7776 81.8456 50.4735C76.8077 51.4515 72.6141 51.1825 70.336 47.4603C67.5036 42.8257 72.2885 38.3551 75.9141 37.886Z" fill="#F5A987"/>
<path d="M68.1242 47.2903C68.1242 47.2903 69.8781 52.8346 91.8494 53.2882C91.8494 53.2882 96.1693 44.4608 92.6789 38.3253C92.6789 38.3253 81.8399 34.9268 70.3063 33.8887C70.3063 33.8887 67.4396 42.9584 68.1242 47.2903Z" fill="#0064B0"/>
<path d="M74.9216 61.6427L74.7129 61.5477C72.0341 58.4768 63.681 47.7656 68.6501 38.8644L69.0264 38.7578L69.1336 39.1343C64.3408 47.7203 72.5122 58.1819 75.1302 61.1839L75.1032 61.5747L74.9216 61.6427Z" fill="#21263D"/>
<path d="M54.3408 9.65878C54.3408 9.65878 58.5678 7.83668 60.1406 12.0286C60.1406 12.0286 65.6193 9.69701 63.928 5.52271C63.928 5.52271 53.99 0.180059 48.4736 7.99397L49.9838 9.87527C49.9838 9.87527 51.8297 7.97151 54.3408 9.65878Z" fill="#451A11"/>
<path d="M107.895 51.397C107.895 51.397 117.145 47.3362 113.327 30.5067L110.563 22.21L107.967 23.6413L105.165 42.2289C105.165 42.2289 103.581 50.0656 107.895 51.397Z" fill="#F5A987"/>
<path d="M102.166 16.5217L102.159 19.7056L112.821 19.7301L112.829 16.5462L102.166 16.5217Z" fill="#21263D"/>
<path d="M123.987 20.7491L121.069 24.0487L115.857 24.0362L112.833 20.5809L112.845 15.251L115.763 12.2803L120.975 12.2921L124 14.9868L123.987 20.7491Z" fill="#21263D"/>
<path d="M91.0161 20.6728L93.9187 23.986L99.1323 23.9976L102.171 20.5565L102.182 15.226L99.2793 12.2416L94.067 12.2295L91.0304 14.9109L91.0161 20.6728Z" fill="#21263D"/>
<path d="M108.506 23.6971C109 23.9427 109.648 24.0259 110.134 23.7302C111.231 23.0628 111.657 21.3701 111.954 20.2278C112.328 18.7716 113.111 16.86 112.07 15.4997C111.91 15.2905 111.623 15.1581 111.425 14.9802C111.009 14.61 111.148 14.2141 110.557 14.1841C110.222 14.1671 109.513 13.6904 109.218 13.7684C108.928 13.8461 108.102 13.3476 107.828 13.3964C106.158 13.7001 105.14 14.0019 104.963 14.798C104.859 15.2762 104.699 17.35 104.003 17.9703C104.003 17.9703 103.435 18.7145 104.872 20.4079L108.506 23.6971Z" fill="#F5A47F"/>
<path d="M53.9903 21.8708L53.8703 21.8435C53.6422 21.7345 53.3803 21.6555 53.127 21.5793C52.6349 21.4315 52.1696 21.2912 52.015 20.9183C51.9284 20.7119 51.9564 20.4741 52.0973 20.2112C52.7388 19.0103 52.7388 19.0103 53.124 18.09C53.2625 17.7576 53.4505 17.3073 53.7351 16.6427L54.0996 16.4966L54.2457 16.8613C53.9623 17.5241 53.774 17.9728 53.6355 18.3041C53.2418 19.2484 53.2418 19.2484 52.5936 20.4608L52.5274 20.7049C52.5818 20.8351 52.9733 20.953 53.2871 21.0477C53.5477 21.1263 53.8442 21.2153 54.1103 21.3428L54.24 21.7138L53.9903 21.8708Z" fill="#E58861"/>
<path d="M52.9058 23.4108L56.1385 22.6313C56.1385 22.6313 55.7002 28.2206 52.9058 23.4108Z" fill="white"/>
<path d="M48.5528 10.0084C47.8864 8.37517 45.1751 4.21302 47.4903 3.2162C47.9924 3.00032 48.7475 3.97497 49.3003 3.74633C49.919 3.49007 49.7016 1.82436 50.0943 1.35677C51.412 -0.213907 51.7224 -0.442861 53.1224 0.785017C53.4535 1.07498 54.0354 1.39957 54.6457 1.51859C55.47 1.67921 55.8889 1.29784 56.446 1.28813C57.9735 1.26232 57.9204 1.69287 59.4871 2.58463C62.1616 4.10703 64.5849 3.89086 66.8815 6.45532C68.4589 8.21606 69.8556 11.1777 67.8985 13.3298C65.8497 15.5815 62.7782 13.7579 61.3339 11.6237C59.7426 9.27117 58.7126 7.39564 55.5645 7.23563C52.3393 7.07227 51.049 8.57314 48.7381 9.82319L48.5528 10.0084Z" fill="#451A11"/>
</svg>
