<svg width="101" height="95" viewBox="0 0 101 95" fill="none" xmlns="http://www.w3.org/2000/svg">
<path d="M32.7591 18.1463C33.4728 14.1011 34.7053 10.0302 37.2571 6.81194C42.8394 -0.227495 53.4351 -1.37477 61.9853 1.3837C64.1661 2.08747 66.3153 3.02408 68.0484 4.52323C71.2288 7.2747 72.6171 11.5498 73.3932 15.6826C74.1694 19.8153 74.4956 24.0957 76.157 27.9588C78.1661 32.6296 81.9528 36.2833 85.8312 39.571C89.71 42.8588 93.8288 45.9703 96.8627 50.0505C99.8966 54.1307 101.741 59.4638 100.342 64.3523C99.4362 67.5175 97.2472 70.2106 94.6107 72.1819C88.016 77.1123 78.3529 77.4858 71.3969 73.0782C66.0912 69.7163 62.4878 64.0255 56.9399 61.0791C52.2078 58.5663 46.4551 58.2775 41.9915 55.3142C37.2431 52.1624 35.4242 46.0747 33.6869 40.9249C31.309 33.8773 31.4829 25.383 32.7591 18.1463Z" fill="#2D3063"/>
<path d="M67.9553 36.249C67.7768 38.1129 67.4652 40.0083 67.8322 41.8418C68.0983 43.1712 68.7146 44.4223 68.8225 45.7756C68.9953 47.9342 67.8439 49.9813 66.4469 51.5884C63.9335 54.4805 60.4742 56.4681 56.7814 57.1427C55.6026 52.8074 54.6993 48.3958 53.9208 43.9642C53.1184 39.395 52.452 34.6676 53.4417 30.1386C54.3071 26.1781 58.968 19.8669 63.6394 21.2867C68.466 22.7537 68.3358 32.2733 67.9553 36.249Z" fill="#272C59"/>
<path d="M85.4791 91.7107C82.1097 94.9687 76.5997 94.3367 72.2102 92.6934C67.8102 91.0472 63.7183 88.5986 60.1627 85.5268C59.5097 84.9613 58.8777 84.3772 58.2615 83.7714C59.2121 89.9904 60.8 96.1084 62.9906 102.006C58.9839 102.829 54.916 103.347 50.8317 103.57C38.0751 104.265 25.1541 102.059 13.3855 97.08C16.1393 86.7721 17.4803 75.7651 21.2244 65.7705C13.6277 62.7436 6.89576 55.5314 5.32133 47.3611C2.60487 33.2874 15.8498 29.3525 26.7553 32.8177C33.1441 34.8461 39.5014 37.0024 45.76 39.4031C53.4396 42.3477 60.9675 45.6647 68.2059 49.5628C69.2201 50.1096 70.2291 50.6675 71.2065 51.2703C72.1437 51.8463 73.0517 52.4654 73.9095 53.1505C78.7793 57.0434 81.6819 62.8451 84.1591 68.5675C86.1082 73.0737 87.9085 77.7445 88.2137 82.6434C88.4185 85.8956 87.8239 89.4459 85.4791 91.7107Z" fill="#FD7EA3"/>
<path d="M39.9364 40.417C39.0442 41.0362 37.8041 40.9819 36.7099 40.7741C36.4415 40.7228 36.176 40.6639 35.9134 40.5909C35.422 40.4538 34.947 40.2705 34.5222 40.0062C33.1572 39.1595 32.5171 37.6259 32.1034 36.1582C31.5776 34.2938 31.2881 32.3733 31.2403 30.4481C31.1953 28.6228 31.413 26.6877 32.5573 25.2031C32.5731 25.1839 32.5865 25.164 32.6023 25.1442C33.5529 23.9456 35.226 23.226 36.8325 23.4659C38.3777 23.6958 38.6065 24.5151 39.0097 25.8118C40.1062 29.3324 40.7621 32.9796 41.0621 36.6297C41.1741 37.9947 41.1234 39.5924 39.9364 40.417Z" fill="#A980F8"/>
<path d="M35.9134 40.5904C35.422 40.4533 34.947 40.27 34.5222 40.0057C33.1572 39.159 32.5171 37.6254 32.1034 36.1577C31.5776 34.2933 31.2881 32.3728 31.2403 30.4476C31.1953 28.6223 31.413 26.6872 32.5573 25.2026C32.9267 29.0115 32.7114 32.926 34.1796 36.4903C34.7451 37.8629 35.5551 39.1595 35.9134 40.5904Z" fill="#8B63EA"/>
<path d="M87.3444 61.7639C86.0017 58.028 84.0899 54.5634 81.6542 51.4262C80.4503 49.8763 79.1472 48.411 77.7169 47.0671C76.4786 45.9035 75.0466 44.6092 73.3292 44.2736C72.9691 44.2036 72.7392 44.6763 73.0736 44.8805C76.1968 46.7858 78.7148 49.8355 80.8518 52.7714C82.9911 55.7101 84.7558 58.9133 86.1995 62.2471C86.479 62.8931 87.5843 62.4315 87.3444 61.7639Z" fill="#383E72"/>
<path d="M91.3625 54.2025C89.8306 50.6784 87.207 47.7974 83.7932 46.024C83.3841 45.8115 83.0929 46.3589 83.4413 46.6256C86.3165 48.8274 88.6717 51.5841 90.3447 54.7971C90.7025 55.4834 91.6572 54.8806 91.3625 54.2025Z" fill="#383E72"/>
<path d="M71.2064 51.269C67.2394 54.2802 62.8604 56.7469 58.2322 58.574C55.8717 59.5059 53.3863 60.2815 50.8473 60.2045C48.3112 60.1303 45.6933 59.0758 44.2537 56.9832C42.6763 54.6893 42.7826 51.6484 43.2342 48.9004C43.6299 46.5055 44.2327 42.0255 45.7593 39.4019C53.4389 42.3465 60.9667 45.6634 68.2052 49.5616C69.22 50.1089 70.2289 50.6662 71.2064 51.269Z" fill="#FEB59C"/>
<path d="M62.5179 50.9427C62.2606 51.3833 61.8568 51.7154 61.4477 52.0206C57.8256 54.7318 53.1921 56.057 48.6836 55.669C49.0314 53.951 49.3208 52.2225 49.5519 50.4858C49.7165 49.2726 49.8519 48.0565 49.9581 46.8374C50.1892 44.2301 50.2901 41.6117 50.2633 38.9933C50.2499 37.703 50.2049 36.4122 50.1302 35.1243C50.0666 34.0196 49.7025 32.6413 49.9149 31.5553C50.223 29.975 52.7002 29.0034 53.9589 28.3235C54.4847 28.0423 60.5444 25.498 60.584 25.732C61.237 29.4282 61.2079 33.2067 61.4075 36.959C61.4816 38.321 61.5854 39.6807 61.7208 41.0375C61.949 43.353 62.2676 45.6604 62.6743 47.952C62.8523 48.9563 63.0303 50.061 62.5179 50.9427Z" fill="#FEB59C"/>
<path d="M61.7208 41.038C60.7276 42.5168 59.5967 43.9086 58.3882 45.2175C56.3381 47.4373 53.9298 49.4979 51.0062 50.26C50.5761 50.3714 50.0824 50.4485 49.5508 50.4858C49.7153 49.2726 49.8507 48.0565 49.9569 46.8374C50.188 44.2301 50.289 41.6117 50.2621 38.9933C50.2487 37.703 50.2038 36.4122 50.1291 35.1243C50.0655 34.0196 49.7013 32.6413 49.9138 31.5553C50.2219 29.975 52.6991 29.0034 53.9578 28.3235C54.4836 28.0423 60.5432 25.498 60.5829 25.732C61.2359 29.4282 61.2067 33.2067 61.4063 36.959C61.4822 38.3216 61.5855 39.6813 61.7208 41.038Z" fill="#FF9578"/>
<path d="M43.8792 9.08098C43.8792 9.08098 34.851 12.2672 36.7096 27.9339C36.7808 30.3107 37.0901 32.7074 37.5488 35.0375C38.605 40.4045 40.6294 46.1397 47.1202 45.7271C53.1151 45.3461 60.329 40.9192 61.4045 34.5719C61.4051 34.5672 64.0591 18.904 59.5459 10.6735C59.5459 10.6735 54.5011 5.09763 43.8792 9.08098Z" fill="#FEB59C"/>
<path d="M46.4857 13.3839C50.9131 18.2975 57.516 21.1756 64.1295 21.0729C64.147 17.8954 64.1581 14.6701 63.3061 11.6087C62.4541 8.54799 60.6101 5.61855 57.7751 4.18417C56.2147 3.39462 54.4535 3.09933 52.7128 2.93068C49.1671 2.58755 45.4685 2.75679 42.2351 4.25186C38.048 6.18751 35.0637 10.21 33.6474 14.5995C32.8252 17.1479 30.1811 28.9876 36.0213 25.7851C40.475 23.3429 44.2331 17.7775 46.4857 13.3839Z" fill="#2D3063"/>
<path d="M56.3066 23.8623C54.0196 22.219 50.6899 23.742 49.3558 25.9315C49.1516 26.2671 49.6319 26.6493 49.905 26.3552C50.1174 26.1265 50.3286 25.9129 50.5416 25.7121C50.5521 25.7536 50.5772 25.7886 50.6105 25.8107C50.4874 26.5396 50.5889 27.3659 50.771 27.9051C51.0493 28.7291 52.1493 30.3432 53.0422 29.1551C53.8475 28.0831 53.3748 25.8802 52.7311 24.8456C52.6051 24.6425 52.4539 24.5112 52.2911 24.4347C53.4116 23.8646 54.6569 23.7041 56.2167 24.077C56.3509 24.1097 56.4128 23.9387 56.3066 23.8623Z" fill="#2D3063"/>
<path d="M43.4718 26.7627C42.2504 24.6292 39.3985 24.7622 37.9128 26.4376C37.7903 26.5759 37.9776 26.7638 38.1153 26.6401C39.0251 25.8255 40.0533 25.658 41.0086 25.9282C40.0638 26.8309 40.1052 29.8117 41.5338 30.2722C42.7762 30.6725 43.0072 29.1156 43.0259 28.2723C43.0323 27.9875 43.0323 27.6036 42.9886 27.2161C43.2547 27.4168 43.6492 27.0731 43.4718 26.7627Z" fill="#2D3063"/>
<path d="M47.4736 31.3831C46.6175 31.8383 45.8227 32.1767 44.9322 31.7863C45.7451 30.031 46.0071 28.1432 45.1487 26.3324C45.1049 26.239 44.9619 26.3062 44.9865 26.4007C45.4574 28.2313 45.4334 30.1518 44.3562 31.7741C44.2733 31.8984 44.3387 32.0583 44.4508 32.1347C45.5397 32.877 46.8118 32.5998 47.7823 31.7834C48.0122 31.5908 47.7192 31.2524 47.4736 31.3831Z" fill="#FF9578"/>
<path d="M43.0386 34.0383C43.0386 34.0383 46.2178 32.8152 50.3756 32.3262C50.3756 32.3262 51.5982 38.1956 47.4409 39.4187C47.4409 39.4187 43.7721 40.1522 43.0386 34.0383Z" fill="white"/>
<path d="M53.692 43.8933C50.5804 45.3428 46.9227 46.0472 43.5568 45.058C43.4115 45.0154 43.2982 45.208 43.4085 45.3131C44.5622 46.4142 46.9075 46.3232 48.3769 46.196C50.3651 46.0244 52.2949 45.4624 54.0188 44.4523C54.3841 44.2381 54.0643 43.7199 53.692 43.8933Z" fill="#FF9578"/>
<path d="M62.9905 102.005C58.9838 102.829 54.9159 103.346 50.8316 103.569C50.1996 98.0565 50.1278 92.4806 50.611 86.9549C50.9559 83.0089 51.5855 79.0868 52.4964 75.2342C52.8495 73.7391 52.7964 71.5274 54.613 71.8834C55.7918 72.1145 57.396 74.2042 57.9533 75.1811C58.9652 76.9574 59.0976 79.0822 59.3608 81.1106C59.5546 82.6004 59.8282 84.0686 60.1626 85.5263C59.5096 84.9609 58.8776 84.3767 58.2614 83.771C59.212 89.9894 60.7999 96.1074 62.9905 102.005Z" fill="#F46796"/>
<path d="M36.4447 60.5946C36.4447 60.5946 45.3976 62.8325 54.6388 69.7156C55.3011 70.2092 55.6612 71.0081 55.5941 71.8315C55.4464 73.6505 54.5355 76.8384 50.2901 79.046C49.776 79.3133 49.1732 79.3542 48.6317 79.147C48.1269 78.9538 47.429 78.672 46.6447 78.3131C45.5581 77.8159 45.1408 76.4848 45.7495 75.4566C46.1609 74.7616 46.6353 73.9849 47.0654 73.3389C47.0654 73.3389 41.2234 71.7457 36.4441 68.5589C36.4441 68.5589 36.1296 69.6064 35.7642 70.7806C35.417 71.8951 34.1589 72.4326 33.1097 71.9214C32.3493 71.5508 31.4821 71.0863 30.7165 70.5716C30.1329 70.1795 29.8132 69.4961 29.8896 68.7965C30.1715 66.2107 31.3777 59.9614 36.4447 60.5946Z" fill="#2D3063"/>
<path opacity="0.14" d="M40.0293 62.5864C40.0293 62.5864 38.9672 63.914 38.7017 64.7106C38.7017 64.7106 44.5436 68.1623 48.7919 69.4905C48.7919 69.4905 49.5885 68.4284 49.854 67.6318C49.854 67.6318 45.8712 64.4451 40.0293 62.5864Z" fill="#8B63EA"/>
<path d="M33.8559 63.6603C34.3362 63.8792 35.3142 64.3577 36.6436 65.1689C36.8437 65.2908 36.9336 65.5353 36.8531 65.7565C36.7346 66.0815 36.5228 66.5799 36.182 67.1109C36.0396 67.3327 35.7443 67.3969 35.5185 67.2609C34.8591 66.8635 33.5332 66.0605 32.7851 65.5843C32.5879 65.4583 32.5038 65.212 32.5884 64.9938C32.7092 64.6822 32.9252 64.2252 33.2706 63.7969C33.4113 63.6236 33.6534 63.5681 33.8559 63.6603Z" fill="#A980F8"/>
<path d="M49.2569 70.5644C49.7372 70.7833 50.7152 71.2618 52.0445 72.0729C52.2447 72.1955 52.3346 72.44 52.254 72.6605C52.1356 72.9856 51.9237 73.4839 51.5829 74.015C51.4405 74.2367 51.1453 74.3009 50.9194 74.1649C50.26 73.7675 48.9342 72.9646 48.1861 72.4878C47.9882 72.3623 47.9048 72.1161 47.9894 71.8978C48.1102 71.5862 48.3261 71.1293 48.6716 70.701C48.8122 70.5276 49.0544 70.4716 49.2569 70.5644Z" fill="#A980F8"/>
<path d="M39.0887 62.9722C38.7549 63.5062 37.9513 63.3865 37.3631 63.1619C36.3057 62.758 35.2967 62.2276 34.3648 61.5851C33.1423 62.4108 32.7221 64.1142 33.116 65.5358C33.5099 66.9573 34.5772 68.1098 35.7922 68.9461C36.4399 69.3919 37.2406 69.9883 37.0608 70.7539C36.8898 71.4799 35.9101 71.6975 35.2069 71.4489C35.2827 72.1626 34.3012 72.462 33.5881 72.3774C31.2504 72.0996 29.1268 70.4522 28.2771 68.2569C27.9655 67.4522 27.815 66.5891 27.4643 65.8001C26.9355 64.6102 25.9458 63.6328 24.7495 63.1187C24.3224 62.9349 23.8223 62.7645 23.642 62.3361C23.541 62.0969 23.5655 61.8261 23.5959 61.5682C23.897 59.0005 24.5797 56.4772 25.6132 54.1074C27.6347 55.1963 29.6561 56.2858 31.6775 57.3753C32.2366 57.6764 32.8236 57.9851 33.4585 57.991C33.9061 57.9951 34.3409 57.8468 34.7867 57.806C35.9766 57.6974 36.5391 58.8196 37.1309 59.6635C37.3952 60.0393 39.3198 62.6022 39.0887 62.9722Z" fill="#FEB59C"/>
<path d="M25.2331 51.7701C23.6202 50.0935 22.1969 48.2541 20.9854 46.2683C19.75 44.2439 18.968 42.0282 17.8482 39.9548C17.7192 39.7161 17.4111 39.8953 17.4444 40.1252C17.9988 43.9959 20.6143 47.8736 23.0774 50.799C23.4101 51.1947 23.7538 51.5804 24.1063 51.9585C24.3945 52.2672 25.0691 52.7335 25.2045 53.1274C25.5295 54.0693 24.5801 55.9897 24.3047 56.9439C23.5705 59.4852 22.8359 62.0266 22.1017 64.568C21.9325 65.1539 22.8452 65.4042 23.0138 64.8195C23.797 62.1089 24.5807 59.3977 25.3638 56.6871C25.6468 55.7079 26.1347 54.6184 26.217 53.5942C26.2823 52.7761 25.7577 52.3151 25.2331 51.7701Z" fill="#F46796"/>
<path d="M50.4463 68.5886C50.1849 69.1616 50.7288 69.7662 51.2406 70.1327C52.1608 70.7915 53.1599 71.3406 54.2097 71.7637C54.1951 73.2389 53.0064 74.5292 51.6035 74.9843C50.2007 75.4401 48.6502 75.1857 47.2823 74.6336C46.5529 74.3395 45.6139 74.0005 45.0747 74.5729C44.5635 75.1156 44.9224 76.0534 45.5176 76.5027C44.8804 76.833 45.1722 77.8169 45.6361 78.3649C47.1574 80.1611 49.7029 81.0235 52.0027 80.5211C52.8459 80.3373 53.6489 79.9866 54.5003 79.8436C55.7841 79.6283 57.1456 79.9148 58.2345 80.6285C58.6231 80.8835 59.0415 81.2062 59.4985 81.121C59.7535 81.0732 59.9665 80.9033 60.1643 80.7359C62.1396 79.0681 63.8675 77.1073 65.2739 74.9371C63.2501 73.8522 61.227 72.7668 59.2032 71.682C58.6441 71.382 58.0623 71.0623 57.7075 70.5365C57.4572 70.1653 57.341 69.7212 57.1292 69.3268C56.5632 68.2746 55.3167 68.4246 54.2867 68.396C53.8269 68.3831 50.6272 68.1923 50.4463 68.5886Z" fill="#FEB59C"/>
<path d="M80.9069 80.232C78.7932 79.1332 76.4234 78.4936 74.196 77.6632C71.6062 76.6974 69.0957 75.5379 66.5193 74.5476C65.9416 74.3258 65.5757 74.1677 65.0365 74.5219C64.1688 75.0921 63.4201 76.2236 62.7466 77.0073C61.2627 78.7352 59.5272 80.6358 58.5141 82.6859C58.2935 83.1323 58.8794 83.6767 59.247 83.2513C60.7042 81.5672 61.8509 79.6047 63.2934 77.8925C63.8606 77.2191 64.474 76.2259 65.2063 75.7375C65.4351 75.3051 65.7875 75.2216 66.2631 75.4865C66.5748 75.6219 66.887 75.7556 67.1998 75.8886C67.5505 76.0374 67.9018 76.1851 68.2542 76.3315C70.2938 77.1771 72.3549 77.9614 74.4405 78.6856C76.5121 79.4045 78.6579 80.204 80.8497 80.4404C80.9623 80.4526 81.0014 80.281 80.9069 80.232Z" fill="#F46796"/>
<path d="M63.7299 31.335C63.6476 31.1401 63.3267 31.0788 63.2701 31.335C62.8324 33.301 63.2286 35.501 63.0565 37.516C62.8867 39.5071 62.4554 41.4422 61.4803 43.2027C59.3375 47.0729 55.1306 47.9832 51.0247 48.3328C50.0998 48.4116 50.0934 49.8669 51.0247 49.7847C55.3395 49.4042 59.7967 48.4582 62.2961 44.5928C63.3757 42.9232 63.9715 40.9911 64.2323 39.0315C64.5445 36.6868 64.6665 33.5589 63.7299 31.335Z" fill="#684CC1"/>
<path d="M51.5494 47.1213C50.4809 47.063 49.3692 47.1202 48.3077 47.3518C47.3028 47.4429 46.3043 47.5993 45.3123 47.8187C43.9135 48.1286 43.9135 50.1366 44.9692 50.7114C46.0178 51.2827 47.3063 50.9816 48.432 50.8923C49.6429 50.7966 51.8336 50.9465 52.7293 50.0024C53.7272 48.942 52.9674 47.1989 51.5494 47.1213Z" fill="#A980F8"/>
<path d="M66.4507 25.2786C66.4507 25.2786 67.7783 3.50437 46.0041 6.16013C46.0041 6.16013 32.727 8.28426 32.7667 22.2382C32.7673 22.4851 33.1682 22.4536 33.1746 22.2062C33.2785 18.0962 35.0221 9.02188 48.2344 7.89212C48.2344 7.89212 64.0359 7.03779 63.3847 25.7174L66.4507 25.2786Z" fill="#A980F8"/>
<path d="M67.3376 35.1245C67.2553 36.0541 67.1386 37.0205 66.6367 37.8088C66.2037 38.4834 65.556 38.9293 64.8125 39.2164C64.0026 39.5298 63.0811 39.6465 62.2105 39.6517C61.0077 39.6599 59.6802 39.4475 58.907 38.5284C58.2563 37.7528 58.1553 36.6721 58.0836 35.6631C57.9003 33.0476 57.7171 30.4321 57.5339 27.819C57.3267 24.9059 57.9616 21.4751 61.3019 20.947C62.4754 20.7609 63.4581 20.8303 64.2681 21.1145C66.2808 21.8153 67.229 23.8362 67.4146 26.5421C67.6083 29.3998 67.5844 32.2703 67.3376 35.1245Z" fill="#A980F8"/>
<path d="M67.3375 35.1242C67.2552 36.0538 67.1385 37.0201 66.6367 37.8085C66.2037 38.4831 65.5559 38.929 64.8125 39.2161C64.0107 37.4899 63.7212 35.5624 63.5327 33.6635C63.1692 29.9988 63.1423 26.2786 63.7533 22.6466C63.8356 22.1552 64.0054 21.5979 64.2686 21.1147C66.2813 21.8156 67.2296 23.8364 67.4151 26.5424C67.6083 29.3995 67.5844 32.27 67.3375 35.1242Z" fill="#8B63EA"/>
<path d="M16.2976 23.0273C15.197 20.4264 13.8781 17.9294 12.3527 15.538C12.2273 15.3413 12.0557 15.2345 11.8736 15.1931C11.5019 14.8844 10.8366 15.1289 10.6791 15.58C9.72087 18.3204 9.18693 21.244 8.78428 24.104C8.66932 24.921 8.54268 25.8389 9.47579 26.2276C10.4206 26.6209 11.8911 26.2515 12.8762 26.0741C13.9003 25.8897 15.3353 25.693 16.1768 25.0663C16.9307 24.5055 16.5969 23.7346 16.2976 23.0273ZM14.7832 23.8957C14.5533 23.9756 14.3216 24.0486 14.087 24.1145C13.6196 24.2517 13.1469 24.3678 12.6684 24.4629C12.1841 24.5592 11.695 24.635 11.2031 24.6817C11.0024 24.701 10.4124 24.6146 10.3377 24.7191C10.326 24.4039 10.5659 23.2946 10.5985 23.0892C10.675 22.6095 10.7584 22.1316 10.846 21.6537C11.0852 20.3465 11.3922 19.058 11.6968 17.7672C12.7303 19.6561 13.6511 21.6274 14.7815 23.4504C14.8258 23.6068 14.8532 23.7568 14.855 23.8945C14.9939 24.1875 14.97 24.1875 14.7832 23.8957Z" fill="#FDC044"/>
<path d="M9.12943 74.1548C8.8394 71.4973 5.51547 69.753 2.85913 70.8455C-0.317168 72.152 -0.0300544 76.5369 2.60061 78.263C5.19043 79.9623 9.06757 78.1691 9.18253 74.9741C9.19362 74.6911 9.17378 74.4174 9.12943 74.1548ZM4.02857 76.5112C2.83111 75.8407 2.25398 73.6599 3.84067 73.0892C5.23245 72.5885 7.00238 73.5491 7.21713 74.9904C6.90201 76.311 5.2552 77.1986 4.02857 76.5112Z" fill="#FDC044"/>
<path d="M77.3266 63.6476C76.8288 62.8616 75.6763 62.8914 74.8558 62.7729C73.7167 62.6078 72.5782 62.4403 71.4391 62.2763C70.7622 62.1788 70.017 62.0014 69.4655 62.5494C68.9222 63.0898 68.8487 64.09 68.7518 64.893C68.5342 65.6557 68.4169 66.437 68.3305 66.964C68.2657 67.3561 68.2138 67.7267 68.191 68.0728L68.0451 68.8769C67.9238 69.5433 68.3422 70.3492 69.1276 70.2978C69.2 70.2932 69.2718 70.2885 69.3441 70.2838C69.5233 70.3539 69.7246 70.4128 69.9569 70.4572C71.0487 70.6661 72.1557 70.8166 73.2569 70.9695C74.0155 71.0746 74.9089 71.3366 75.6314 70.9433C76.3567 70.5482 76.5184 69.7446 76.6707 69.0082C76.8988 67.9047 77.1089 66.7971 77.3277 65.6918C77.4561 65.0423 77.7182 64.2651 77.3266 63.6476ZM74.7163 66.8554C74.6288 67.2797 74.5407 67.7039 74.4532 68.1282C74.4006 68.3814 74.1748 68.8063 74.3592 68.8179C73.8089 68.9049 72.7031 68.5256 72.2321 68.4538C71.9725 68.4141 71.5663 68.3914 71.1584 68.3459C71.0102 68.1509 70.7873 68.0156 70.4873 67.9887C70.5673 67.5604 70.6466 67.1326 70.7266 66.7043C70.7838 66.3968 70.8229 66.0537 70.866 65.7029C70.9285 65.4759 70.9938 65.2501 71.0551 65.0231C71.201 64.4839 71.0714 64.5428 71.6223 64.481C72.1464 64.5848 72.7025 64.7535 73.0281 64.8037C73.6735 64.9029 74.5092 64.9128 75.2065 65.068C75.1056 65.6708 74.791 66.4942 74.7163 66.8554Z" fill="#FDC044"/>
</svg>
