<svg width="102" height="128" viewBox="0 0 102 128" fill="none" xmlns="http://www.w3.org/2000/svg">
<g clip-path="url(#clip0_75_588)">
<rect width="102" height="128" rx="10" fill="#DCDBFF"/>
<path d="M80.6022 82.9077L118.23 106.078L119 107.432L118.995 108.494C118.993 109.025 118.708 109.493 118.214 109.779L68.3674 138.602C68.0078 138.81 67.5475 138.912 67.0718 138.891C66.5958 138.869 66.1371 138.726 65.7792 138.486L29 113.805L29.0046 112.742L80.6022 82.9077Z" fill="#263238"/>
<path d="M67.0764 137.829C67.5523 137.851 68.0124 137.748 68.3719 137.54L118.219 108.717C118.713 108.431 118.998 107.963 119 107.433C119.002 106.902 118.722 106.409 118.23 106.079L82.2663 81.9453L29.0044 112.743L65.7838 137.424C66.1414 137.664 66.6004 137.808 67.0764 137.829Z" fill="#BA68C8"/>
<path d="M82.2807 78.8271L117.836 102.687L118.2 103.257L118.182 107.396C118.181 107.596 118.058 107.79 117.813 107.932L67.9661 136.755C67.4764 137.039 66.6836 137.003 66.1959 136.676L30.6399 112.816L30.6577 108.677L82.2807 78.8271Z" fill="#EBEBEB"/>
<path d="M30.6563 108.678L31.1009 108.977L36.8869 112.859L37.9631 113.584L66.2116 132.537C66.7015 132.864 67.4946 132.9 67.9821 132.616L117.833 103.792C118.32 103.508 118.322 103.013 117.837 102.686L117.364 102.369L82.2809 78.8276L31.0989 108.42L30.9926 108.486L30.6563 108.678Z" fill="#F0F0F0"/>
<path d="M67.0979 132.807L67.0801 136.946C67.3991 136.96 67.7223 136.899 67.964 136.755L117.814 107.931C118.056 107.792 118.18 107.598 118.18 107.395L118.198 103.256C118.197 103.455 118.074 103.649 117.832 103.793L67.9819 132.617C67.7402 132.761 67.4168 132.822 67.0979 132.807Z" fill="#E0E0E0"/>
<path d="M30.6586 108.126L37.0603 112.42L38.0634 113.093L66.2139 131.985C66.7038 132.312 67.4969 132.347 67.9844 132.064L112.624 106.253C113.026 106.032 113.399 105.815 113.747 105.604C115.564 104.492 116.659 103.474 117.364 102.369C117.393 102.322 117.421 102.279 117.45 102.231C117.508 102.141 117.545 102.045 117.562 101.949C117.645 101.528 117.385 101.109 116.944 100.948C116.083 100.631 114.781 100.077 113.594 99.2852C113.578 99.2758 113.566 99.2664 113.549 99.2571L82.2828 78.2754L30.6586 108.126Z" fill="white"/>
<path d="M82.2743 78.5316L31.0698 108.14L37.1812 112.239L38.1843 112.912L66.3346 131.803C66.5571 131.952 66.8688 132.037 67.1898 132.037C67.452 132.037 67.6952 131.979 67.8752 131.875L112.519 106.062C112.884 105.861 113.249 105.65 113.633 105.418C115.344 104.37 116.471 103.364 117.178 102.254C117.192 102.232 117.205 102.211 117.219 102.19C117.234 102.166 117.248 102.143 117.266 102.113C117.308 102.049 117.335 101.981 117.348 101.906C117.41 101.594 117.209 101.277 116.869 101.152C115.985 100.827 114.681 100.271 113.478 99.4697C113.469 99.464 113.46 99.4584 113.451 99.4527L113.439 99.4449L113.433 99.4416L113.428 99.4379L82.2743 78.5316ZM82.2828 78.2749L113.549 99.2568C113.566 99.2662 113.578 99.2755 113.594 99.2849C114.781 100.077 116.083 100.63 116.944 100.948C117.385 101.109 117.645 101.528 117.562 101.948C117.545 102.045 117.508 102.141 117.45 102.231C117.421 102.278 117.392 102.322 117.364 102.369C116.659 103.474 115.564 104.491 113.747 105.604C113.399 105.814 113.026 106.032 112.624 106.253L67.9844 132.064C67.7634 132.192 67.4796 132.255 67.19 132.255C66.8404 132.255 66.4817 132.163 66.2139 131.984L38.0632 113.093L37.0601 112.42L30.6583 108.126L82.2828 78.2749Z" fill="#E0E0E0"/>
<path opacity="0.1" d="M37.3049 107.938C37.7582 108.244 37.756 108.709 37.3008 108.975C36.8451 109.241 36.105 109.207 35.6478 108.901C35.1901 108.594 35.1923 108.13 35.6521 107.864C36.112 107.598 36.8521 107.631 37.3049 107.938Z" fill="black"/>
<path d="M32.0082 104.347C32.6393 103.981 33.4278 104.079 34.232 104.615C35.4753 105.453 36.5466 107.244 37.0093 109.091C36.8208 109.149 36.6081 109.166 36.3995 109.144C35.9732 107.498 35.0233 105.919 33.9225 105.176C33.5636 104.939 33.2203 104.808 32.9096 104.795C32.6934 104.785 32.4925 104.833 32.312 104.936C31.7792 105.243 31.4691 106.039 31.4645 107.114C31.4636 107.291 31.471 107.468 31.4908 107.646L30.9088 107.982C30.8693 107.68 30.8497 107.378 30.8508 107.086C30.8567 105.768 31.2781 104.769 32.0082 104.347Z" fill="#263238"/>
<path d="M30.9644 108.33C30.9679 108.378 30.9801 108.432 30.9923 108.486L31.0986 108.42L30.9644 108.33Z" fill="#263238"/>
<path opacity="0.1" d="M42.3003 105.048C42.7532 105.355 42.7512 105.82 42.2958 106.085C41.8403 106.352 41.1008 106.318 40.643 106.011C40.1853 105.704 40.1875 105.24 40.6473 104.974C41.1074 104.708 41.8475 104.741 42.3003 105.048Z" fill="black"/>
<path d="M37.0026 101.457C37.634 101.092 38.4229 101.189 39.2264 101.725C40.4697 102.563 41.5417 104.354 42.0039 106.202C41.8156 106.26 41.6029 106.277 41.3944 106.254C40.9679 104.607 40.0177 103.03 38.9171 102.286C38.5582 102.049 38.215 101.919 37.9044 101.905C37.6878 101.895 37.4873 101.943 37.3071 102.046C36.774 102.354 36.4639 103.15 36.4591 104.224C36.4582 104.401 36.4656 104.578 36.4855 104.756L35.9032 105.093C35.8637 104.79 35.8441 104.488 35.8454 104.196C35.8511 102.879 36.2732 101.88 37.0026 101.457Z" fill="#263238"/>
<path opacity="0.1" d="M47.2969 102.16C47.7498 102.466 47.7478 102.93 47.2923 103.197C46.8369 103.462 46.0968 103.429 45.6393 103.123C45.1819 102.816 45.1839 102.351 45.6439 102.086C46.1035 101.819 46.8441 101.853 47.2969 102.16Z" fill="black"/>
<path d="M41.9992 98.5681C42.6308 98.2026 43.4197 98.3 44.2227 98.8355C45.4667 99.6743 46.5385 101.465 47.0005 103.313C46.8122 103.37 46.5993 103.388 46.3912 103.365C45.9649 101.718 45.0147 100.141 43.9137 99.3969C43.555 99.16 43.2118 99.0292 42.9012 99.0153C42.6844 99.0057 42.4837 99.0543 42.3032 99.1567C41.7704 99.4646 41.4603 100.261 41.4557 101.335C41.455 101.512 41.4627 101.689 41.4825 101.867L40.9002 102.204C40.8605 101.901 40.8416 101.6 40.8429 101.307C40.8485 99.9896 41.2698 98.9909 41.9992 98.5681Z" fill="#263238"/>
<path opacity="0.1" d="M52.2925 99.2708C52.7454 99.5778 52.7434 100.042 52.2879 100.309C51.8322 100.574 51.0924 100.542 50.6349 100.235C50.1777 99.9274 50.1797 99.463 50.6389 99.1969C51.0996 98.9314 51.8394 98.9646 52.2925 99.2708Z" fill="black"/>
<path d="M46.995 95.6807C47.6261 95.3153 48.415 95.4131 49.2179 95.9483C50.4614 96.7869 51.5334 98.5775 51.9956 100.426C51.8073 100.483 51.5948 100.5 51.3863 100.478C50.96 98.8305 50.0098 97.2535 48.9091 96.5093C48.5501 96.2724 48.2075 96.1421 47.8965 96.1281C47.6797 96.1185 47.4792 96.1671 47.2988 96.2691C46.7657 96.5773 46.4558 97.373 46.4512 98.4476C46.4504 98.6243 46.458 98.8019 46.4778 98.9795L45.8953 99.316C45.8559 99.0133 45.8371 98.7124 45.8384 98.4201C45.8439 97.1021 46.2649 96.1037 46.995 95.6807Z" fill="#263238"/>
<path opacity="0.1" d="M57.2881 96.3826C57.7408 96.6892 57.7392 97.1534 57.2835 97.4199C56.8281 97.6858 56.088 97.6527 55.6308 97.346C55.1735 97.0385 55.1755 96.5743 55.6349 96.3087C56.095 96.0426 56.835 96.0757 57.2881 96.3826Z" fill="black"/>
<path d="M51.9901 92.7924C52.6213 92.4267 53.41 92.5239 54.2135 93.06C55.457 93.899 56.529 95.6889 56.9912 97.5367C56.8031 97.5945 56.5898 97.6115 56.3814 97.5893C55.9552 95.9421 55.0054 94.365 53.9042 93.6212C53.5453 93.3841 53.2027 93.2533 52.8919 93.2394C52.6751 93.2298 52.4744 93.2784 52.2942 93.381C51.7613 93.6887 51.451 94.4842 51.4462 95.5588C51.4455 95.7358 51.453 95.9132 51.4728 96.0912L50.8905 96.4279C50.8508 96.1252 50.8321 95.824 50.8334 95.5316C50.839 94.2135 51.2605 93.2152 51.9901 92.7924Z" fill="#263238"/>
<path opacity="0.1" d="M62.2852 93.4941C62.7381 93.8005 62.7361 94.2647 62.2806 94.5308C61.8254 94.7973 61.0851 94.7637 60.6276 94.4569C60.1704 94.1496 60.1724 93.6858 60.6315 93.4197C61.092 93.1539 61.8323 93.1872 62.2852 93.4941Z" fill="black"/>
<path d="M56.987 89.9032C57.6186 89.5381 58.4073 89.6355 59.2105 90.1712C60.4543 91.0098 61.5261 92.8003 61.9883 94.6482C61.8 94.7059 61.5871 94.7229 61.3787 94.7005C60.9522 93.0536 60.0023 91.4762 58.9019 90.7324C58.543 90.4955 58.1996 90.365 57.8886 90.351C57.6724 90.3414 57.4717 90.3902 57.2912 90.4927C56.7584 90.7999 56.4483 91.5958 56.4437 92.6704C56.443 92.847 56.4505 93.0248 56.4701 93.2026L55.8878 93.5393C55.8483 93.2362 55.8291 92.935 55.8304 92.643C55.8359 91.3249 56.2571 90.3259 56.987 89.9032Z" fill="#263238"/>
<path opacity="0.1" d="M67.2803 90.6051C67.7331 90.9119 67.7312 91.3761 67.2759 91.6422C66.8202 91.9083 66.0806 91.8752 65.6229 91.5683C65.1655 91.2615 65.1674 90.7968 65.6275 90.5312C66.0876 90.2653 66.8272 90.2984 67.2803 90.6051Z" fill="black"/>
<path d="M61.983 87.0139C62.614 86.6486 63.4026 86.7454 64.2061 87.2813C65.4497 88.1201 66.5212 89.9108 66.9839 91.7587C66.7954 91.8164 66.5833 91.8336 66.3741 91.8108C65.9481 90.1641 64.9977 88.5863 63.8969 87.8427C63.538 87.6054 63.1947 87.4755 62.8844 87.4615C62.668 87.4519 62.4675 87.5001 62.2871 87.6025C61.754 87.9105 61.4439 88.7061 61.4393 89.781C61.4384 89.9577 61.4458 90.1347 61.465 90.3125L60.8834 90.6492C60.8435 90.3471 60.8245 90.0449 60.8256 89.7533C60.8315 88.4357 61.253 87.4369 61.983 87.0139Z" fill="#263238"/>
<path opacity="0.1" d="M72.2766 87.7167C72.7299 88.0233 72.7277 88.4877 72.2726 88.754C71.817 89.0199 71.0766 88.9868 70.6194 88.6801C70.1622 88.3731 70.164 87.9087 70.6238 87.6426C71.0834 87.3765 71.8239 87.4098 72.2766 87.7167Z" fill="black"/>
<path d="M66.9794 84.1262C67.6107 83.7608 68.3992 83.8579 69.2025 84.3938C70.4462 85.2329 71.5185 87.0234 71.9805 88.871C71.7924 88.9288 71.5793 88.9458 71.3714 88.9235C70.9449 87.2766 69.9949 85.699 68.8935 84.9552C68.5346 84.7177 68.192 84.5876 67.8814 84.5739C67.665 84.5643 67.4641 84.6129 67.2836 84.7151C66.7508 85.023 66.4405 85.8187 66.4357 86.8935C66.435 87.07 66.4424 87.2476 66.462 87.4253L65.8797 87.7622C65.8405 87.4597 65.8213 87.1578 65.8224 86.866C65.8281 85.5478 66.2496 84.5494 66.9794 84.1262Z" fill="#263238"/>
<path opacity="0.1" d="M77.2719 84.8275C77.725 85.1341 77.7228 85.5988 77.2675 85.8649C76.8125 86.1307 76.072 86.0978 75.6145 85.791C75.1575 85.4839 75.1591 85.0193 75.6189 84.7534C76.0787 84.4875 76.8193 84.5204 77.2719 84.8275Z" fill="black"/>
<path d="M71.974 81.2366C72.6053 80.8711 73.3938 80.9683 74.1969 81.504C75.4408 82.3428 76.5126 84.1331 76.9746 85.9811C76.7863 86.0391 76.5736 86.0561 76.3655 86.033C75.939 84.3863 74.9888 82.8085 73.8881 82.0647C73.5293 81.8278 73.1861 81.6977 72.8753 81.6838C72.6585 81.674 72.4578 81.7224 72.278 81.8248C71.7449 82.1323 71.4348 82.9284 71.4302 84.003C71.4294 84.18 71.4368 84.3571 71.4564 84.535L70.8741 84.8717C70.8344 84.569 70.8157 84.2673 70.817 83.9755C70.8231 82.6575 71.2443 81.6589 71.974 81.2366Z" fill="#263238"/>
<path opacity="0.1" d="M82.2682 81.9392C82.7215 82.2459 82.7196 82.7103 82.2639 82.9759C81.8084 83.2422 81.0685 83.2091 80.6109 82.902C80.1537 82.5952 80.1556 82.131 80.6152 81.8647C81.0755 81.5995 81.8154 81.6324 82.2682 81.9392Z" fill="black"/>
<path d="M76.9706 78.3478C77.602 77.9826 78.3906 78.0795 79.1939 78.6154C80.4374 79.454 81.5094 81.2448 81.9717 83.0926C81.7832 83.1508 81.5709 83.1671 81.3619 83.1447C80.9361 81.4976 79.9859 79.9202 78.8849 79.1766C78.5262 78.9393 78.183 78.8087 77.8724 78.7948C77.6558 78.7852 77.4551 78.8336 77.2746 78.936C76.742 79.2442 76.4319 80.04 76.4273 81.1147C76.4264 81.2918 76.4339 81.4686 76.4535 81.6464L75.8714 81.9835C75.8321 81.6808 75.813 81.3792 75.8141 81.0874C75.8195 79.7691 76.241 78.7708 76.9706 78.3478Z" fill="#263238"/>
<path d="M72.1073 126.7C72.3006 126.708 72.4902 126.607 72.5948 126.417C72.7502 126.132 72.6601 125.757 72.3934 125.578L45.0399 107.222C44.7751 107.045 44.4271 107.124 44.2717 107.409C44.1161 107.693 44.2063 108.069 44.473 108.248L71.8266 126.605C71.9144 126.664 72.012 126.695 72.1073 126.7Z" fill="#EBEBEB"/>
<path d="M75.437 124.776C75.6303 124.784 75.8201 124.683 75.9243 124.493C76.0799 124.208 75.9896 123.833 75.7229 123.654L48.3694 105.298C48.1063 105.121 47.7568 105.203 47.6012 105.485C47.4456 105.769 47.5358 106.145 47.8023 106.324L75.1563 124.681C75.2437 124.739 75.3411 124.771 75.437 124.776Z" fill="#EBEBEB"/>
<path d="M78.7686 122.849C78.9619 122.857 79.1517 122.756 79.2559 122.566C79.4113 122.282 79.3213 121.906 79.0545 121.727L51.701 103.37C51.4382 103.194 51.0902 103.275 50.9328 103.558C50.7774 103.842 50.8676 104.218 51.1344 104.397L78.4877 122.754C78.5755 122.812 78.6732 122.844 78.7686 122.849Z" fill="#EBEBEB"/>
<path d="M82.1 120.923C82.2933 120.932 82.4832 120.83 82.5876 120.641C82.7429 120.356 82.6525 119.98 82.3858 119.802L55.0324 101.445C54.7696 101.266 54.4198 101.348 54.2642 101.632C54.1086 101.917 54.1989 102.293 54.4656 102.471L81.8191 120.828C81.9072 120.887 82.0042 120.919 82.1 120.923Z" fill="#EBEBEB"/>
<path d="M85.4317 118.996C85.625 119.005 85.8146 118.903 85.919 118.714C86.0744 118.429 85.9844 118.053 85.7176 117.875L58.3619 99.5176C58.0973 99.3413 57.7495 99.4228 57.5941 99.7053C57.4385 99.9895 57.5288 100.365 57.7955 100.544L85.1508 118.901C85.2386 118.96 85.3362 118.992 85.4317 118.996Z" fill="#EBEBEB"/>
<path d="M88.7613 117.071C88.9544 117.08 89.1442 116.979 89.2486 116.789C89.404 116.505 89.314 116.129 89.0472 115.95L61.6935 97.5936C61.4287 97.4147 61.0809 97.4964 60.9253 97.781C60.7701 98.0654 60.8599 98.4409 61.1266 98.6201L88.4804 116.976C88.5682 117.035 88.6656 117.067 88.7613 117.071Z" fill="#EBEBEB"/>
<path d="M92.0924 115.144C92.2857 115.153 92.4759 115.052 92.5801 114.862C92.7355 114.578 92.6455 114.202 92.3788 114.023L65.0252 95.6662C64.7607 95.4875 64.4126 95.5692 64.257 95.8536C64.1014 96.1383 64.1917 96.514 64.4584 96.6927L91.8119 115.05C91.8997 115.108 91.9972 115.14 92.0924 115.144Z" fill="#EBEBEB"/>
<path d="M95.424 113.219C95.6171 113.228 95.8071 113.127 95.9111 112.937C96.0667 112.653 95.9765 112.277 95.7097 112.098L68.3547 93.7414C68.0897 93.5627 67.7418 93.6444 67.5865 93.929C67.4309 94.2132 67.5211 94.5892 67.7878 94.7679L95.1431 113.125C95.2309 113.183 95.3281 113.215 95.424 113.219Z" fill="#EBEBEB"/>
<path d="M98.753 111.292C98.9463 111.301 99.1359 111.2 99.2403 111.01C99.3957 110.726 99.3057 110.35 99.0389 110.171L71.6854 91.8143C71.4206 91.6354 71.0728 91.7171 70.9172 92.0017C70.7618 92.2864 70.852 92.6619 71.1188 92.841L98.4721 111.197C98.5599 111.256 98.6573 111.288 98.753 111.292Z" fill="#EBEBEB"/>
<path d="M102.085 109.367C102.278 109.376 102.468 109.275 102.572 109.085C102.728 108.801 102.638 108.425 102.371 108.246L75.0175 89.8894C74.7525 89.7107 74.4047 89.7944 74.2493 90.0768C74.0937 90.3614 74.1839 90.7369 74.4506 90.9158L101.804 109.272C101.892 109.331 101.989 109.363 102.085 109.367Z" fill="#EBEBEB"/>
<path d="M105.416 107.442C105.609 107.451 105.799 107.349 105.903 107.16C106.059 106.875 105.969 106.5 105.702 106.321L78.3469 87.9619C78.0839 87.7836 77.7361 87.8651 77.5787 88.1493C77.4231 88.4339 77.5134 88.8098 77.7801 88.9885L105.136 107.347C105.223 107.406 105.321 107.438 105.416 107.442Z" fill="#EBEBEB"/>
<path d="M108.748 105.515C108.941 105.523 109.131 105.422 109.235 105.233C109.391 104.948 109.301 104.572 109.034 104.394L81.6786 86.0367C81.4156 85.8604 81.066 85.9399 80.9104 86.2241C80.755 86.5087 80.845 86.8844 81.1118 87.0631L108.467 105.42C108.555 105.479 108.652 105.511 108.748 105.515Z" fill="#EBEBEB"/>
<path d="M112.077 103.59C112.27 103.599 112.46 103.497 112.564 103.308C112.72 103.023 112.63 102.647 112.363 102.468L85.0094 84.11C84.7466 83.9335 84.3987 84.0152 84.2414 84.2975C84.0858 84.5816 84.176 84.9576 84.4428 85.1365L111.796 103.495C111.884 103.554 111.982 103.586 112.077 103.59Z" fill="#EBEBEB"/>
<path d="M68.7254 128.625C68.9187 128.634 69.1085 128.532 69.2129 128.343C69.3685 128.06 69.2802 127.684 69.0117 127.504L40.0791 108.054C39.8145 107.875 39.4665 107.957 39.3111 108.242C39.1555 108.524 39.2457 108.899 39.5125 109.081L68.4447 128.53C68.5323 128.589 68.6297 128.621 68.7254 128.625Z" fill="#BA68C8"/>
<path d="M57.1709 86.1595C58.155 84.3794 59.3164 82.4202 60.5385 79.5518C61.7518 76.7039 62.8009 76.6564 65.5575 75.6722C67.8396 74.8574 74.0561 72.2389 76.5394 71.1818C79.7354 69.8212 80.6173 69.6661 83.3388 66.5765C86.3016 63.2129 96.2456 52.1743 96.2456 52.1743L108.89 75.5691C104.66 77.9967 101.127 80.0249 98.558 81.6603C96.3125 83.0897 94.9375 84.3284 93.6818 88.7445C92.8286 91.7448 92.7284 93.0458 90.3795 95.729C88.5605 97.8067 88.0298 98.3962 85.9209 100.703L77.6485 97.2434C77.8841 96.8115 78.1057 96.3523 78.1246 95.8604C78.1933 94.0899 75.6952 94.3654 74.5502 94.4864C71.8707 94.7695 63.2701 98.5732 63.2701 98.5732L58.1877 94.5583C57.3648 93.6966 56.5585 92.6241 57.4001 90.2097C56.8422 89.5505 56.1867 87.9395 57.1709 86.1595Z" fill="#FFA8A7"/>
<path d="M63.4584 79.4162C63.6753 79.1204 63.9627 78.9047 64.2628 78.6998C64.4269 78.5878 64.5901 78.4743 64.7571 78.3666C64.9512 78.2415 65.1448 78.0975 65.354 77.9987C65.393 77.9804 65.3871 78.0478 65.3705 78.0643C64.8159 78.6218 64.0684 78.945 63.6132 79.6047C63.4229 79.8803 63.2852 80.1896 63.1446 80.4925C62.9657 80.8785 62.7822 81.2566 62.588 81.6351C62.5734 81.6634 62.5529 81.6332 62.5584 81.6125C62.7597 80.851 62.9855 80.061 63.4584 79.4162Z" fill="#F28F8F"/>
<path d="M57.4002 90.2101C57.2777 90.0654 57.1513 89.8725 57.0378 89.6444C57.6183 88.4248 58.9955 86.2508 60.1025 83.5308C59.3276 85.6998 58.6742 86.7842 57.4002 90.2101Z" fill="#F28F8F"/>
<path d="M61.6151 79.3534C61.6428 79.1799 61.6814 79.0145 61.7461 78.8511C61.8607 78.5606 62.0102 78.2836 62.2225 78.0524C62.4616 77.7924 62.7649 77.6233 63.0766 77.4646C63.4172 77.2911 63.7711 77.1353 64.1462 77.0538C64.1529 77.0523 64.1551 77.0673 64.1501 77.0702C63.8371 77.2508 63.5131 77.4121 63.198 77.5891C62.9096 77.751 62.6163 77.9262 62.4005 78.182C62.0129 78.6421 61.8701 79.251 61.6108 79.7817C61.5955 79.8128 61.5637 79.8065 61.5637 79.7712C61.5633 79.6278 61.5927 79.4942 61.6151 79.3534Z" fill="#F28F8F"/>
<path d="M57.543 93.7663C57.6385 92.4959 58.3012 91.6754 58.992 90.0961C59.8592 88.114 61.7855 84.3244 62.4336 82.1055C62.2109 84.0978 60.8832 90.9975 59.913 95.9209L58.1879 94.558C57.9595 94.3187 57.7339 94.062 57.543 93.7663Z" fill="#F28F8F"/>
<path d="M77.83 96.9774C77.9113 96.7193 78.0638 96.4774 78.1878 96.2379C78.3118 95.9986 78.4214 95.75 78.5265 95.502C78.7244 95.0356 78.9015 94.5649 79.0338 94.0754C79.1674 93.5807 79.2583 93.074 79.2775 92.5612C79.2868 92.3115 79.281 92.0602 79.2609 91.8111C79.2502 91.6799 79.233 91.55 79.2138 91.4199C79.199 91.3205 79.1711 91.212 79.1644 91.1142C79.1589 91.0366 79.1624 90.9625 79.1515 90.8853C79.1452 90.8404 79.2293 90.7367 79.2607 90.8058C79.3141 90.9228 79.3749 91.0322 79.4087 91.1567C79.4387 91.2672 79.4629 91.3783 79.4817 91.4912C79.5183 91.7109 79.5427 91.9334 79.5492 92.1561C79.5614 92.5719 79.529 92.9897 79.4605 93.3998C79.3243 94.2147 79.0338 94.9968 78.6551 95.7288C78.5457 95.9407 78.4236 96.1462 78.3049 96.353C78.1754 96.5781 78.0394 96.8224 77.8592 97.0109C77.8367 97.0349 77.8241 96.9955 77.83 96.9774Z" fill="#F28F8F"/>
<path d="M62.0788 95.3938L67.2852 85.5527C67.2852 85.5527 72.6051 87.0776 75.1257 88.476C77.6463 89.8743 78.8362 94.7082 77.86 97.0115L77.7594 97.0342C77.9496 96.6637 78.1091 96.2736 78.125 95.8604C78.1937 94.0899 75.6956 94.3654 74.5506 94.4864C71.8711 94.7694 63.2705 98.5732 63.2705 98.5732L62.0063 97.5746L62.0788 95.3938Z" fill="#F28F8F"/>
<path d="M96.1334 66.3781C93.2178 59.5269 93.9964 52.6358 97.8724 50.9863C101.748 49.3369 107.254 53.5537 110.17 60.4049C113.085 67.2561 112.307 74.1472 108.431 75.7967C104.555 77.4461 99.049 73.2293 96.1334 66.3781Z" fill="#FFA8A7"/>
<path d="M66.1666 77.6666C63.1468 78.9968 62.7913 80.6559 62.2585 82.8019C61.7256 84.9479 59.6827 89.522 58.8832 91.5871C58.0838 93.6522 57.9062 94.1818 58.7055 96.9813C59.5049 99.7809 61.7729 105.259 61.7729 105.259C61.7729 105.259 68.5647 83.7567 69.0089 81.5543C69.453 79.3523 69.1865 76.8694 66.1666 77.6666Z" fill="#FFA8A7"/>
<path d="M59.3801 95.5427C59.3878 95.5553 59.3915 95.5643 59.3852 95.5791C59.2906 95.6103 59.1446 95.5457 59.048 95.5263C58.9264 95.5019 58.8044 95.4804 58.6819 95.4616C58.5651 95.4435 58.442 95.4346 58.3169 95.4272C58.3012 95.3466 58.2874 95.269 58.2746 95.1929C58.5821 95.2304 58.8885 95.2967 59.1775 95.4058C59.2551 95.4353 59.3368 95.4716 59.3801 95.5427ZM59.3932 94.0832C59.0864 93.9788 58.7854 93.8784 58.4624 93.8356C58.3792 93.8245 58.2953 93.8191 58.2114 93.8158C58.2203 93.7334 58.2317 93.6513 58.2456 93.5693C58.3369 93.5754 58.4278 93.5844 58.5178 93.5968C58.8538 93.643 59.2038 93.7389 59.4956 93.9163C59.5933 93.9753 59.4839 94.1139 59.3932 94.0832ZM58.3816 94.4038C58.5742 94.4114 58.7673 94.4317 58.9574 94.4642C59.3379 94.5293 59.7402 94.6402 60.0721 94.8429C60.156 94.8941 60.0446 95.0046 59.9718 94.9793C59.6414 94.8654 59.3198 94.7464 58.9746 94.6821C58.809 94.6514 58.6422 94.6302 58.474 94.6206C58.3877 94.6156 58.2949 94.6195 58.2022 94.6204C58.1963 94.5454 58.1924 94.472 58.19 94.4003C58.2554 94.3992 58.3206 94.4014 58.3816 94.4038Z" fill="#F28F8F"/>
<path d="M61.3548 91.0989C62.2296 89.4585 63.8107 85.9032 64.5684 83.6445L67.2845 82.8022L68.1841 84.5337C66.2689 91.0258 61.7732 105.26 61.7732 105.26C61.7732 105.26 61.4367 104.447 60.978 103.289C60.9778 103.287 60.3706 98.2609 60.0973 96.009C59.8238 93.7567 60.48 92.739 61.3548 91.0989Z" fill="#F28F8F"/>
<path d="M71.1413 103.447C71.31 103.333 71.4778 103.22 71.6423 103.099C73.8896 101.449 76.2838 99.7467 77.6485 97.2432L85.9209 100.703C83.812 103.01 82.7622 103.881 81.4202 105.097C80.0782 106.312 76.0046 107.982 73.3459 109.313C70.717 110.63 69.5844 111.306 68.9184 110.93C68.1666 110.506 67.2111 106.118 71.1413 103.447Z" fill="#FFA8A7"/>
<path d="M80.6917 105.642C80.6636 105.547 80.634 105.452 80.5995 105.359C80.5278 105.165 80.4437 104.974 80.3502 104.789C80.2578 104.606 80.1201 104.425 80.0671 104.227C80.0547 104.18 80.1207 104.098 80.1691 104.137C80.3485 104.279 80.469 104.499 80.5779 104.696C80.6956 104.91 80.7941 105.133 80.8763 105.362C80.8913 105.404 80.9033 105.447 80.9175 105.49C80.8456 105.54 80.7702 105.59 80.6917 105.642Z" fill="#F28F8F"/>
<path d="M79.8262 106.079C79.7379 105.752 79.6222 105.435 79.4729 105.131C79.3465 104.874 79.1905 104.632 79.0098 104.409C78.8836 104.254 78.7422 104.11 78.5877 103.983C78.463 103.88 78.3294 103.789 78.2141 103.676C78.1832 103.645 78.2268 103.565 78.2695 103.575C78.5938 103.654 78.8734 103.88 79.1072 104.111C79.353 104.353 79.5568 104.633 79.7237 104.934C79.905 105.262 80.0369 105.617 80.1376 105.977C80.138 105.978 80.1382 105.98 80.1387 105.981C80.043 106.037 79.9441 106.094 79.8429 106.15C79.8364 106.127 79.8325 106.102 79.8262 106.079Z" fill="#F28F8F"/>
<path d="M78.9201 106.007C78.8282 105.759 78.722 105.511 78.5948 105.279C78.5403 105.179 78.4804 105.082 78.4169 104.988C78.3542 104.895 78.2622 104.805 78.2389 104.693C78.2291 104.645 78.2951 104.569 78.3459 104.597C78.5717 104.718 78.7327 104.998 78.865 105.211C79.0053 105.437 79.1189 105.675 79.2174 105.922C79.2802 106.079 79.334 106.239 79.3848 106.4C79.2915 106.45 79.1967 106.5 79.1004 106.55C79.0448 106.367 78.9862 106.186 78.9201 106.007Z" fill="#F28F8F"/>
<path d="M74.4751 108.765C74.2275 107.301 73.3384 106.603 73.3384 106.603C73.3384 106.603 71.4406 107.397 70.6286 108.132C69.8166 108.867 69.1927 110.473 69.6983 110.99C70.8612 110.99 72.427 109.845 74.4751 108.765Z" fill="#FFC4C3"/>
<path opacity="0.3" d="M74.4751 108.765C74.2358 108.891 74.0039 109.018 73.7777 109.144C73.5862 108.455 73.3384 107.411 73.3384 106.603C73.3384 106.603 74.2275 107.301 74.4751 108.765Z" fill="white"/>
<path d="M70.9851 90.1256C69.6547 92.2966 67.61 96.2259 67.5861 96.7324C67.4507 99.5943 67.6144 102.584 67.6144 105.679C67.6144 108.775 67.6414 111.033 66.2842 113.081C65.0548 114.935 62.8042 115.445 62.4767 113.419C62.1966 111.687 62.0223 108.16 61.773 105.259C61.5237 102.359 60.8581 98.1581 60.6918 95.8095C60.5256 93.4608 62.06 91.1593 63.0993 88.1233C64.0029 85.4844 64.7667 82.1509 66.1804 80.7372C67.5941 79.3235 72.9487 76.6717 74.897 75.6431L70.9851 90.1256Z" fill="#FFA8A7"/>
<path d="M60.8391 95.9985C61.0061 96.0109 61.1734 96.0107 61.3406 96.0013C61.6969 95.9813 62.0286 95.8885 62.3749 95.8139C62.4616 95.7952 62.4403 95.92 62.3878 95.9475C62.063 96.1166 61.6638 96.1766 61.3027 96.2001C61.1157 96.2123 60.9267 96.2082 60.74 96.1918C60.7347 96.1914 60.7282 96.1909 60.7225 96.1905C60.7164 96.1195 60.7114 96.0515 60.706 95.9832C60.7509 95.9894 60.7953 95.9952 60.8391 95.9985Z" fill="#F28F8F"/>
<path d="M62.8323 93.8958C62.8894 93.9245 62.8156 94.0259 62.7644 94.0137C62.3546 93.9156 61.9397 93.8714 61.5215 93.9441C61.3378 93.9762 61.1584 94.0294 60.9856 94.0991C60.9309 94.1211 60.8788 94.1483 60.8259 94.1745C60.8457 94.0812 60.8673 93.9875 60.8908 93.8936C61.0763 93.8193 61.2691 93.763 61.4666 93.7321C61.9175 93.6613 62.4196 93.6879 62.8323 93.8958Z" fill="#F28F8F"/>
<path d="M62.0395 94.6528C62.3682 94.6441 62.7012 94.6637 63.0228 94.7352C63.2966 94.796 63.6954 94.8644 63.8743 95.1013C63.8824 95.112 63.8787 95.1392 63.8625 95.1401C63.7122 95.1488 63.5611 95.095 63.4158 95.0599C63.2591 95.0222 63.103 94.9856 62.9433 94.9621C62.6465 94.918 62.346 94.8993 62.0461 94.9198C61.7532 94.9398 61.4618 94.9873 61.1789 95.0667C61.007 95.1148 60.8462 95.1806 60.6869 95.251C60.6912 95.1388 60.696 95.0266 60.7071 94.9141C60.8276 94.8707 60.9492 94.832 61.0676 94.7993C61.3847 94.7119 61.7109 94.6615 62.0395 94.6528Z" fill="#F28F8F"/>
<path d="M61.9417 106.916C62.057 106.88 62.173 106.846 62.2895 106.815C62.5282 106.75 62.769 106.694 63.0122 106.648C63.0641 106.638 63.1236 106.669 63.1277 106.725C63.1321 106.785 63.0717 106.827 63.0203 106.836C62.7967 106.878 62.5746 106.928 62.3547 106.987C62.2473 107.016 62.1405 107.047 62.0344 107.08C61.9964 107.092 61.9583 107.104 61.9197 107.117C61.9151 107.054 61.9103 106.99 61.9058 106.927C61.9178 106.924 61.9302 106.92 61.9417 106.916Z" fill="#F28F8F"/>
<path d="M62.6692 106.124C62.4227 106.197 62.1797 106.283 61.9443 106.387C61.9184 106.398 61.8933 106.411 61.8674 106.423C61.8606 106.336 61.8539 106.25 61.8471 106.164C61.8558 106.16 61.8641 106.156 61.8726 106.153C62.1235 106.051 62.38 105.966 62.6417 105.898C62.9017 105.831 63.1632 105.781 63.4295 105.746C63.6993 105.71 64.0094 105.67 64.2777 105.731C64.3283 105.742 64.3041 105.825 64.2622 105.833C63.9857 105.888 63.7024 105.903 63.4245 105.951C63.1702 105.994 62.9167 106.051 62.6692 106.124Z" fill="#F28F8F"/>
<path d="M63.0754 105.438C62.7324 105.515 62.3907 105.608 62.0583 105.724C61.9777 105.752 61.8995 105.786 61.8199 105.817C61.814 105.746 61.8081 105.677 61.8023 105.606C61.8583 105.586 61.9127 105.563 61.9692 105.544C62.3349 105.424 62.7051 105.343 63.0863 105.29C63.1846 105.277 63.1475 105.421 63.0754 105.438Z" fill="#F28F8F"/>
<path d="M62.0784 109.299C63.3551 108.066 64.6993 108.505 64.6993 108.505C64.6993 108.505 64.9695 110.183 64.8773 111.655C64.7851 113.127 63.8127 113.849 63.0691 113.975C62.3256 114.1 62.222 112.649 62.0784 109.299Z" fill="#FFC4C3"/>
<path opacity="0.3" d="M62.1021 109.841C62.0943 109.666 62.0865 109.486 62.0784 109.299C63.355 108.066 64.6992 108.505 64.6992 108.505C64.4381 108.957 63.0251 109.754 62.1021 109.841Z" fill="white"/>
<path d="M65.4595 81.1319C66.0507 80.3267 66.9366 79.8514 67.8066 79.4074C68.2939 79.1588 68.7845 78.9108 69.2369 78.6017C69.2637 78.5834 69.2707 78.6401 69.2548 78.6543C68.5635 79.2653 67.738 79.6899 66.9741 80.1996C66.6089 80.4435 66.2647 80.7209 65.9723 81.05C65.6223 81.4438 65.3582 81.9123 65.1468 82.3926C64.916 82.9168 64.7235 83.4581 64.515 83.9918C64.4991 84.0326 64.466 84.0066 64.4701 83.9724C64.5906 82.9828 64.8613 81.9468 65.4595 81.1319Z" fill="#F28F8F"/>
<path d="M80.4033 55.4592C80.3634 55.5176 80.3336 55.5823 80.3126 55.6468L80.4292 55.2258C80.4355 55.2003 80.4451 55.1752 80.453 55.1517L80.4593 55.136C80.4671 55.1094 80.4783 55.0854 80.4896 55.0619L80.5086 55.027C80.5181 55.008 80.5275 54.9891 80.5404 54.9703L80.602 54.8838C80.6243 54.8555 80.6493 54.8272 80.6764 54.8004L80.6812 54.7956C80.8553 54.6223 81.1053 54.4844 81.4321 54.3985C82.5488 54.1034 84.1166 54.5275 84.9319 55.3474C85.0485 55.4646 85.1426 55.5819 85.215 55.7019C85.2305 55.7239 85.2448 55.7477 85.2573 55.7732C85.2666 55.7858 85.2732 55.7985 85.2793 55.814C85.2934 55.841 85.3061 55.8693 85.3185 55.8981C85.3623 55.999 85.3904 56.0966 85.4028 56.1949C85.4072 56.2184 85.4299 56.3398 85.3828 56.5545L85.249 57.0374C85.2712 56.9585 85.2825 56.8746 85.2797 56.7894C85.1195 57.0463 84.819 57.2536 84.3847 57.3678C83.2662 57.6644 81.6987 57.2401 80.8834 56.4202C80.5637 56.0988 80.4085 55.7654 80.4033 55.4592Z" fill="#BA68C8"/>
<path d="M65.0685 111.971L70.0177 113.32L70.1487 112.838L85.2491 57.0374C85.2713 56.9585 85.2827 56.8746 85.2798 56.7894C85.2729 56.4847 85.1175 56.1515 84.7978 55.83C83.9827 55.0102 82.4147 54.5861 81.2967 54.8827C80.9716 54.9668 80.7201 55.1067 80.5477 55.2782C80.4906 55.3349 80.4433 55.3946 80.4034 55.4593C80.3636 55.5177 80.3337 55.5825 80.3128 55.647C80.308 55.6579 80.3047 55.6707 80.3017 55.6799L80.2984 55.6925C80.2984 55.6956 80.2984 55.6956 80.2966 55.6973L65.0685 111.971Z" fill="#F0F0F0"/>
<path d="M66.0678 111.156C64.9498 111.452 64.7048 112.357 65.5201 113.177C66.3354 113.997 67.9027 114.422 69.0207 114.126C70.1385 113.83 70.3839 112.925 69.5684 112.105C68.7529 111.285 67.1855 110.86 66.0678 111.156Z" fill="#BA68C8"/>
<path d="M65.2033 115.816C65.2 115.794 65.1987 115.77 65.1987 115.748L65.046 112.312C65.0444 112.31 65.0444 112.307 65.0444 112.304L65.0433 112.277C65.0416 112.256 65.0414 112.236 65.0412 112.215L65.0399 112.179L65.0418 112.18C65.0525 111.721 65.406 111.332 66.0678 111.156C67.1856 110.86 68.753 111.285 69.5682 112.105C70.0416 112.581 70.1551 113.085 69.9505 113.482L69.9527 113.483L69.937 113.506C69.9158 113.545 69.8914 113.583 69.8637 113.619L69.8481 113.643C69.8465 113.645 69.8433 113.648 69.843 113.651L67.9804 116.536C67.8882 116.681 67.7178 116.794 67.4761 116.858C66.8365 117.028 65.9404 116.786 65.4746 116.317C65.3079 116.149 65.2201 115.979 65.2033 115.816Z" fill="#E0E0E0"/>
<path d="M75.836 78.5142C75.8345 78.5096 75.836 78.5046 75.839 78.5015L75.8567 78.434C75.9012 78.3204 76.0167 78.2276 76.1982 78.1792C76.5946 78.0744 77.1545 78.2261 77.4441 78.5174C77.5716 78.6456 77.6267 78.7798 77.6119 78.8984C77.6134 78.8999 77.6119 78.9016 77.6119 78.9016L77.5882 78.9882L68.0075 114.395L65.9842 114.93L75.836 78.5142Z" fill="#455A64"/>
<path d="M68.7798 111.542L68.0068 114.394L65.9835 114.929L67.0298 111.068C67.6261 111.098 68.25 111.267 68.7798 111.542Z" fill="#37474F"/>
<path d="M65.4094 117.317L65.4092 117.317H65.4064L65.2675 114.2C65.2647 114.171 65.2621 114.143 65.2634 114.116C65.2645 113.786 65.5166 113.507 65.9913 113.381C66.7802 113.171 67.8888 113.471 68.4655 114.051C68.7982 114.386 68.881 114.74 68.7409 115.021C68.7368 115.028 68.7339 115.033 68.7311 115.039L68.684 115.111L66.9746 117.757H66.9728C66.921 117.838 66.8251 117.904 66.6876 117.94C66.328 118.035 65.8237 117.899 65.5613 117.635C65.4552 117.529 65.4077 117.418 65.4094 117.317Z" fill="#BA68C8"/>
<path opacity="0.1" d="M65.4094 117.317L65.4092 117.317H65.4064L65.2675 114.2C65.2647 114.171 65.2621 114.143 65.2634 114.116C65.2645 113.786 65.5166 113.507 65.9913 113.381C66.7802 113.171 67.8888 113.471 68.4655 114.051C68.7982 114.386 68.881 114.74 68.7409 115.021C68.7368 115.028 68.7339 115.033 68.7311 115.039L68.684 115.111L66.9746 117.757H66.9728C66.921 117.838 66.8251 117.904 66.6876 117.94C66.328 118.035 65.8237 117.899 65.5613 117.635C65.4552 117.529 65.4077 117.418 65.4094 117.317Z" fill="black"/>
<path d="M65.5617 117.635C65.8239 117.899 66.3279 118.035 66.6891 117.94C66.8253 117.903 66.9222 117.838 66.9724 117.757H66.975L67.8382 116.42C67.9751 116.21 67.9262 115.933 67.6656 115.671C67.2463 115.249 66.4386 115.03 65.8642 115.181C65.5229 115.271 65.3407 115.473 65.3357 115.71L65.3385 115.772L65.4065 117.317H65.4094C65.4076 117.417 65.4556 117.529 65.5617 117.635Z" fill="#BA68C8"/>
<path opacity="0.1" d="M65.738 116.984C65.3784 117.08 65.2993 117.371 65.5617 117.635C65.824 117.899 66.3283 118.035 66.6879 117.94C67.0477 117.844 67.1264 117.553 66.8642 117.29C66.6018 117.026 66.0975 116.889 65.738 116.984Z" fill="black"/>
<path d="M80.4748 61.3659C80.5085 61.2347 80.6304 61.1296 80.8291 61.0762C81.226 60.9716 81.781 61.1218 82.0674 61.4129C82.2138 61.56 82.2653 61.7135 82.2271 61.8427L77.6116 78.8984C77.6262 78.7798 77.5713 78.6456 77.4438 78.5174C77.1542 78.2263 76.5943 78.0746 76.1979 78.1792C76.0163 78.2276 75.9008 78.3204 75.8564 78.434L80.4748 61.3659Z" fill="#FAFAFA"/>
<path d="M80.6354 61.7919C80.9236 62.0815 81.4786 62.2314 81.8753 62.1268C82.0712 62.0737 82.1915 61.9699 82.2248 61.842C82.263 61.7128 82.2146 61.5596 82.0683 61.4125C81.782 61.1213 81.2269 60.9711 80.8301 61.0758C80.6313 61.1291 80.5095 61.2344 80.4757 61.3654C80.4406 61.4946 80.4923 61.648 80.6354 61.7919Z" fill="#F5F5F5"/>
<path d="M79.7167 58.8326L79.7147 58.8324L79.721 58.8093C79.7237 58.7986 79.7265 58.7881 79.7298 58.7777L80.5389 55.7973C80.5442 55.7735 80.5505 55.7506 80.5579 55.7277L80.5623 55.711L80.5638 55.7116C80.6697 55.4054 80.9676 55.1552 81.4444 55.0293C82.4506 54.7625 83.8611 55.145 84.5948 55.8829C84.9638 56.254 85.0911 56.6441 84.9991 56.9743L84.181 59.9922C84.1795 59.9977 84.1779 60.0031 84.1766 60.0083L84.1718 60.0262L84.1703 60.0258C84.0722 60.3435 83.7704 60.6033 83.2807 60.7332C82.2745 60.9997 80.8639 60.6172 80.1303 59.8793C79.7775 59.525 79.6472 59.1534 79.7167 58.8326Z" fill="#BA68C8"/>
<path opacity="0.05" d="M79.7167 58.8326L79.7147 58.8324L79.721 58.8093C79.7237 58.7986 79.7265 58.7881 79.7298 58.7777L80.5389 55.7973C80.5442 55.7735 80.5505 55.7506 80.5579 55.7277L80.5623 55.711L80.5638 55.7116C80.6697 55.4054 80.9676 55.1552 81.4444 55.0293C82.4506 54.7625 83.8611 55.145 84.5948 55.8829C84.9638 56.254 85.0911 56.6441 84.9991 56.9743L84.181 59.9922C84.1795 59.9977 84.1779 60.0031 84.1766 60.0083L84.1718 60.0262L84.1703 60.0258C84.0722 60.3435 83.7704 60.6033 83.2807 60.7332C82.2745 60.9997 80.8639 60.6172 80.1303 59.8793C79.7775 59.525 79.6472 59.1534 79.7167 58.8326Z" fill="black"/>
<path opacity="0.1" d="M80.6233 58.061C79.6172 58.3275 79.3966 59.1419 80.1304 59.8798C80.8642 60.6177 82.2746 61.0002 83.2808 60.7337C84.2868 60.4671 84.5077 59.6527 83.7737 58.9146C83.0402 58.1765 81.6295 57.7944 80.6233 58.061Z" fill="black"/>
<path d="M65.4865 118.61L65.8031 117.359L65.8042 117.359C65.8182 117.295 65.874 117.243 65.9696 117.218C66.154 117.169 66.4125 117.239 66.5469 117.374C66.6143 117.442 66.6378 117.513 66.6215 117.573L66.3094 118.824C66.29 118.891 66.254 118.953 66.2013 119.006C66.0348 119.171 65.7657 119.171 65.6 119.004C65.4932 118.897 65.4555 118.747 65.4865 118.61Z" fill="#455A64"/>
<path d="M65.4768 118.692V118.689C65.4784 118.665 65.481 118.638 65.4858 118.615C65.4875 118.613 65.4858 118.611 65.4873 118.61C65.5097 118.559 65.5653 118.52 65.6475 118.498C65.8325 118.45 66.0894 118.518 66.2248 118.654C66.2908 118.721 66.3143 118.789 66.2984 118.849C66.2967 118.857 66.2934 118.866 66.2904 118.872C66.2886 118.88 66.2821 118.895 66.2821 118.895C66.2649 118.937 66.2365 118.973 66.2017 119.008C66.0354 119.173 65.7656 119.171 65.6004 119.004C65.5132 118.917 65.4716 118.804 65.4768 118.692Z" fill="#263238"/>
<path d="M66.1666 77.6666C63.1468 78.9968 62.7913 80.6559 62.2585 82.8019C61.7256 84.9479 59.6827 89.522 58.8832 91.5871C58.0838 93.6522 57.9062 94.1818 58.7055 96.9813C59.5049 99.7809 61.7729 105.259 61.7729 105.259C61.7729 105.259 68.5647 83.7567 69.0089 81.5543C69.453 79.3523 69.1865 76.8694 66.1666 77.6666Z" fill="#FFA8A7"/>
<path d="M59.3801 95.5427C59.3878 95.5553 59.3915 95.5643 59.3852 95.5791C59.2906 95.6103 59.1446 95.5457 59.048 95.5263C58.9264 95.5019 58.8044 95.4804 58.6819 95.4616C58.5651 95.4435 58.442 95.4346 58.3169 95.4272C58.3012 95.3466 58.2874 95.269 58.2746 95.1929C58.5821 95.2304 58.8885 95.2967 59.1775 95.4058C59.2551 95.4353 59.3368 95.4716 59.3801 95.5427ZM59.3932 94.0832C59.0864 93.9788 58.7854 93.8784 58.4624 93.8356C58.3792 93.8245 58.2953 93.8191 58.2114 93.8158C58.2203 93.7334 58.2317 93.6513 58.2456 93.5693C58.3369 93.5754 58.4278 93.5844 58.5178 93.5968C58.8538 93.643 59.2038 93.7389 59.4956 93.9163C59.5933 93.9753 59.4839 94.1139 59.3932 94.0832ZM58.3816 94.4038C58.5742 94.4114 58.7673 94.4317 58.9574 94.4642C59.3379 94.5293 59.7402 94.6402 60.0721 94.8429C60.156 94.8941 60.0446 95.0046 59.9718 94.9793C59.6414 94.8654 59.3198 94.7464 58.9746 94.6821C58.809 94.6514 58.6422 94.6302 58.474 94.6206C58.3877 94.6156 58.2949 94.6195 58.2022 94.6204C58.1963 94.5454 58.1924 94.472 58.19 94.4003C58.2554 94.3992 58.3206 94.4014 58.3816 94.4038Z" fill="#F28F8F"/>
<path d="M61.3548 91.0989C62.2296 89.4585 63.8107 85.9032 64.5684 83.6445L67.2845 82.8022L68.1841 84.5337C66.2689 91.0258 61.7732 105.26 61.7732 105.26C61.7732 105.26 61.4367 104.447 60.978 103.289C60.9778 103.287 60.3706 98.2609 60.0973 96.009C59.8238 93.7567 60.48 92.739 61.3548 91.0989Z" fill="#F28F8F"/>
<path d="M71.1413 103.447C71.31 103.333 71.4778 103.22 71.6423 103.099C73.8896 101.449 76.2838 99.7467 77.6485 97.2432L85.9209 100.703C83.812 103.01 82.7622 103.881 81.4202 105.097C80.0782 106.312 76.0046 107.982 73.3459 109.313C70.717 110.63 69.5844 111.306 68.9184 110.93C68.1666 110.506 67.2111 106.118 71.1413 103.447Z" fill="#FFA8A7"/>
<path d="M80.6917 105.642C80.6636 105.547 80.634 105.452 80.5995 105.359C80.5278 105.165 80.4437 104.974 80.3502 104.789C80.2578 104.606 80.1201 104.425 80.0671 104.227C80.0547 104.18 80.1207 104.098 80.1691 104.137C80.3485 104.279 80.469 104.499 80.5779 104.696C80.6956 104.91 80.7941 105.133 80.8763 105.362C80.8913 105.404 80.9033 105.447 80.9175 105.49C80.8456 105.54 80.7702 105.59 80.6917 105.642Z" fill="#F28F8F"/>
<path d="M79.8262 106.079C79.7379 105.752 79.6222 105.435 79.4729 105.131C79.3465 104.874 79.1905 104.632 79.0098 104.409C78.8836 104.254 78.7422 104.11 78.5877 103.983C78.463 103.88 78.3294 103.789 78.2141 103.676C78.1832 103.645 78.2268 103.565 78.2695 103.575C78.5938 103.654 78.8734 103.88 79.1072 104.111C79.353 104.353 79.5568 104.633 79.7237 104.934C79.905 105.262 80.0369 105.617 80.1376 105.977C80.138 105.978 80.1382 105.98 80.1387 105.981C80.043 106.037 79.9441 106.094 79.8429 106.15C79.8364 106.127 79.8325 106.102 79.8262 106.079Z" fill="#F28F8F"/>
<path d="M78.9201 106.007C78.8282 105.759 78.722 105.511 78.5948 105.279C78.5403 105.179 78.4804 105.082 78.4169 104.988C78.3542 104.895 78.2622 104.805 78.2389 104.693C78.2291 104.645 78.2951 104.569 78.3459 104.597C78.5717 104.718 78.7327 104.998 78.865 105.211C79.0053 105.437 79.1189 105.675 79.2174 105.922C79.2802 106.079 79.334 106.239 79.3848 106.4C79.2915 106.45 79.1967 106.5 79.1004 106.55C79.0448 106.367 78.9862 106.186 78.9201 106.007Z" fill="#F28F8F"/>
<path d="M74.4751 108.765C74.2275 107.301 73.3384 106.603 73.3384 106.603C73.3384 106.603 71.4406 107.397 70.6286 108.132C69.8166 108.867 69.1927 110.473 69.6983 110.99C70.8612 110.99 72.427 109.845 74.4751 108.765Z" fill="#FFC4C3"/>
<path opacity="0.3" d="M74.4751 108.765C74.2358 108.891 74.0039 109.018 73.7777 109.144C73.5862 108.455 73.3384 107.411 73.3384 106.603C73.3384 106.603 74.2275 107.301 74.4751 108.765Z" fill="white"/>
<path d="M70.9851 90.1256C69.6547 92.2966 67.61 96.2259 67.5861 96.7324C67.4507 99.5943 67.6144 102.584 67.6144 105.679C67.6144 108.775 67.6414 111.033 66.2842 113.081C65.0548 114.935 62.8042 115.445 62.4767 113.419C62.1966 111.687 62.0223 108.16 61.773 105.259C61.5237 102.359 60.8581 98.1581 60.6918 95.8095C60.5256 93.4608 62.06 91.1593 63.0993 88.1233C64.0029 85.4844 64.7667 82.1509 66.1804 80.7372C67.5941 79.3235 72.9487 76.6717 74.897 75.6431L70.9851 90.1256Z" fill="#FFA8A7"/>
<path d="M60.8391 95.9985C61.0061 96.0109 61.1734 96.0107 61.3406 96.0013C61.6969 95.9813 62.0286 95.8885 62.3749 95.8139C62.4616 95.7952 62.4403 95.92 62.3878 95.9475C62.063 96.1166 61.6638 96.1766 61.3027 96.2001C61.1157 96.2123 60.9267 96.2082 60.74 96.1918C60.7347 96.1914 60.7282 96.1909 60.7225 96.1905C60.7164 96.1195 60.7114 96.0515 60.706 95.9832C60.7509 95.9894 60.7953 95.9952 60.8391 95.9985Z" fill="#F28F8F"/>
<path d="M62.8323 93.8958C62.8894 93.9245 62.8156 94.0259 62.7644 94.0137C62.3546 93.9156 61.9397 93.8714 61.5215 93.9441C61.3378 93.9762 61.1584 94.0294 60.9856 94.0991C60.9309 94.1211 60.8788 94.1483 60.8259 94.1745C60.8457 94.0812 60.8673 93.9875 60.8908 93.8936C61.0763 93.8193 61.2691 93.763 61.4666 93.7321C61.9175 93.6613 62.4196 93.6879 62.8323 93.8958Z" fill="#F28F8F"/>
<path d="M62.0395 94.6528C62.3682 94.6441 62.7012 94.6637 63.0228 94.7352C63.2966 94.796 63.6954 94.8644 63.8743 95.1013C63.8824 95.112 63.8787 95.1392 63.8625 95.1401C63.7122 95.1488 63.5611 95.095 63.4158 95.0599C63.2591 95.0222 63.103 94.9856 62.9433 94.9621C62.6465 94.918 62.346 94.8993 62.0461 94.9198C61.7532 94.9398 61.4618 94.9873 61.1789 95.0667C61.007 95.1148 60.8462 95.1806 60.6869 95.251C60.6912 95.1388 60.696 95.0266 60.7071 94.9141C60.8276 94.8707 60.9492 94.832 61.0676 94.7993C61.3847 94.7119 61.7109 94.6615 62.0395 94.6528Z" fill="#F28F8F"/>
<path d="M61.9417 106.916C62.057 106.88 62.173 106.846 62.2895 106.815C62.5282 106.75 62.769 106.694 63.0122 106.648C63.0641 106.638 63.1236 106.669 63.1277 106.725C63.1321 106.785 63.0717 106.827 63.0203 106.836C62.7967 106.878 62.5746 106.928 62.3547 106.987C62.2473 107.016 62.1405 107.047 62.0344 107.08C61.9964 107.092 61.9583 107.104 61.9197 107.117C61.9151 107.054 61.9103 106.99 61.9058 106.927C61.9178 106.924 61.9302 106.92 61.9417 106.916Z" fill="#F28F8F"/>
<path d="M62.6692 106.124C62.4227 106.197 62.1797 106.283 61.9443 106.387C61.9184 106.398 61.8933 106.411 61.8674 106.423C61.8606 106.336 61.8539 106.25 61.8471 106.164C61.8558 106.16 61.8641 106.156 61.8726 106.153C62.1235 106.051 62.38 105.966 62.6417 105.898C62.9017 105.831 63.1632 105.781 63.4295 105.746C63.6993 105.71 64.0094 105.67 64.2777 105.731C64.3283 105.742 64.3041 105.825 64.2622 105.833C63.9857 105.888 63.7024 105.903 63.4245 105.951C63.1702 105.994 62.9167 106.051 62.6692 106.124Z" fill="#F28F8F"/>
<path d="M63.0754 105.438C62.7324 105.515 62.3907 105.608 62.0583 105.724C61.9777 105.752 61.8995 105.786 61.8199 105.817C61.814 105.746 61.8081 105.677 61.8023 105.606C61.8583 105.586 61.9127 105.563 61.9692 105.544C62.3349 105.424 62.7051 105.343 63.0863 105.29C63.1846 105.277 63.1475 105.421 63.0754 105.438Z" fill="#F28F8F"/>
<path d="M62.0784 109.299C63.3551 108.066 64.6993 108.505 64.6993 108.505C64.6993 108.505 64.9695 110.183 64.8773 111.655C64.7851 113.127 63.8127 113.849 63.0691 113.975C62.3256 114.1 62.222 112.649 62.0784 109.299Z" fill="#FFC4C3"/>
<path opacity="0.3" d="M62.1021 109.841C62.0943 109.666 62.0865 109.486 62.0784 109.299C63.355 108.066 64.6992 108.505 64.6992 108.505C64.4381 108.957 63.0251 109.754 62.1021 109.841Z" fill="white"/>
<path d="M65.4595 81.1319C66.0507 80.3267 66.9366 79.8514 67.8066 79.4074C68.2939 79.1588 68.7845 78.9108 69.2369 78.6017C69.2637 78.5834 69.2707 78.6401 69.2548 78.6543C68.5635 79.2653 67.738 79.6899 66.9741 80.1996C66.6089 80.4435 66.2647 80.7209 65.9723 81.05C65.6223 81.4438 65.3582 81.9123 65.1468 82.3926C64.916 82.9168 64.7235 83.4581 64.515 83.9918C64.4991 84.0326 64.466 84.0066 64.4701 83.9724C64.5906 82.9828 64.8613 81.9468 65.4595 81.1319Z" fill="#F28F8F"/>
<path d="M12.624 29V27H13.312C13.824 27 14.2293 26.856 14.528 26.568C14.8373 26.2693 14.992 25.8747 14.992 25.384V17.08H17.184V25.304C17.184 26.04 17.024 26.6853 16.704 27.24C16.3947 27.7947 15.9467 28.2267 15.36 28.536C14.784 28.8453 14.1013 29 13.312 29H12.624ZM23.5133 29.192C22.6599 29.192 21.8813 28.9947 21.1773 28.6C20.4839 28.2053 19.9293 27.6667 19.5133 26.984C19.1079 26.3013 18.9053 25.5227 18.9053 24.648C18.9053 23.7733 19.1079 22.9947 19.5133 22.312C19.9293 21.6293 20.4839 21.0907 21.1773 20.696C21.8706 20.3013 22.6493 20.104 23.5133 20.104C24.3666 20.104 25.1399 20.3013 25.8333 20.696C26.5266 21.0907 27.0759 21.6293 27.4813 22.312C27.8973 22.984 28.1053 23.7627 28.1053 24.648C28.1053 25.5227 27.8973 26.3013 27.4813 26.984C27.0653 27.6667 26.5106 28.2053 25.8173 28.6C25.1239 28.9947 24.3559 29.192 23.5133 29.192ZM23.5133 27.272C23.9826 27.272 24.3933 27.16 24.7453 26.936C25.1079 26.712 25.3906 26.4027 25.5933 26.008C25.8066 25.6027 25.9133 25.1493 25.9133 24.648C25.9133 24.136 25.8066 23.688 25.5933 23.304C25.3906 22.9093 25.1079 22.6 24.7453 22.376C24.3933 22.1413 23.9826 22.024 23.5133 22.024C23.0333 22.024 22.6119 22.1413 22.2493 22.376C21.8866 22.6 21.5986 22.9093 21.3853 23.304C21.1826 23.688 21.0813 24.136 21.0813 24.648C21.0813 25.1493 21.1826 25.6027 21.3853 26.008C21.5986 26.4027 21.8866 26.712 22.2493 26.936C22.6119 27.16 23.0333 27.272 23.5133 27.272ZM32.7988 29.192C32.1268 29.192 31.5401 29.0427 31.0388 28.744C30.5481 28.4453 30.1694 28.0293 29.9028 27.496C29.6468 26.9627 29.5188 26.3387 29.5188 25.624V20.296H31.6148V25.448C31.6148 25.8107 31.6841 26.1307 31.8228 26.408C31.9721 26.6747 32.1801 26.888 32.4468 27.048C32.7241 27.1973 33.0334 27.272 33.3748 27.272C33.7161 27.272 34.0201 27.1973 34.2868 27.048C34.5534 26.888 34.7614 26.6693 34.9108 26.392C35.0601 26.1147 35.1348 25.784 35.1348 25.4V20.296H37.2308V29H35.2468V27.288L35.4228 27.592C35.2201 28.1253 34.8841 28.5253 34.4148 28.792C33.9561 29.0587 33.4174 29.192 32.7988 29.192ZM39.1791 29V20.296H41.1471V22.232L40.9871 21.944C41.1898 21.2933 41.5045 20.84 41.9311 20.584C42.3685 20.328 42.8911 20.2 43.4991 20.2H44.0111V22.056H43.2591C42.6618 22.056 42.1818 22.2427 41.8191 22.616C41.4565 22.9787 41.2751 23.4907 41.2751 24.152V29H39.1791ZM45.1635 29V20.296H47.1315V22.008L46.9715 21.704C47.1742 21.1813 47.5048 20.7867 47.9635 20.52C48.4328 20.2427 48.9768 20.104 49.5955 20.104C50.2355 20.104 50.8008 20.2427 51.2915 20.52C51.7928 20.7973 52.1822 21.1867 52.4595 21.688C52.7368 22.1787 52.8755 22.7493 52.8755 23.4V29H50.7795V23.896C50.7795 23.512 50.7048 23.1813 50.5555 22.904C50.4062 22.6267 50.1982 22.4133 49.9315 22.264C49.6755 22.104 49.3715 22.024 49.0195 22.024C48.6782 22.024 48.3742 22.104 48.1075 22.264C47.8408 22.4133 47.6328 22.6267 47.4835 22.904C47.3342 23.1813 47.2595 23.512 47.2595 23.896V29H45.1635ZM57.2879 29.192C56.6799 29.192 56.1519 29.0907 55.7039 28.888C55.2559 28.6853 54.9092 28.3973 54.6639 28.024C54.4185 27.64 54.2959 27.1973 54.2959 26.696C54.2959 26.216 54.4025 25.7893 54.6159 25.416C54.8292 25.032 55.1599 24.712 55.6079 24.456C56.0559 24.2 56.6212 24.0187 57.3039 23.912L60.1519 23.448V25.048L57.7039 25.464C57.2879 25.5387 56.9785 25.672 56.7759 25.864C56.5732 26.056 56.4719 26.3067 56.4719 26.616C56.4719 26.9147 56.5839 27.1547 56.8079 27.336C57.0425 27.5067 57.3305 27.592 57.6719 27.592C58.1092 27.592 58.4932 27.5013 58.8239 27.32C59.1652 27.128 59.4265 26.8667 59.6079 26.536C59.7999 26.2053 59.8959 25.8427 59.8959 25.448V23.208C59.8959 22.8347 59.7465 22.5253 59.4479 22.28C59.1599 22.024 58.7759 21.896 58.2959 21.896C57.8479 21.896 57.4479 22.0187 57.0959 22.264C56.7545 22.4987 56.5039 22.8133 56.3439 23.208L54.6319 22.376C54.8025 21.9173 55.0692 21.5227 55.4319 21.192C55.8052 20.8507 56.2425 20.584 56.7439 20.392C57.2452 20.2 57.7892 20.104 58.3759 20.104C59.0905 20.104 59.7199 20.2373 60.2639 20.504C60.8079 20.76 61.2292 21.1227 61.5279 21.592C61.8372 22.0507 61.9919 22.5893 61.9919 23.208V29H60.0079V27.512L60.4559 27.48C60.2319 27.8533 59.9652 28.168 59.6559 28.424C59.3465 28.6693 58.9945 28.8613 58.5999 29C58.2052 29.128 57.7679 29.192 57.2879 29.192ZM63.9291 29V16.888H66.0251V29H63.9291Z" fill="#3E3E3E"/>
</g>
<defs>
<clipPath id="clip0_75_588">
<rect width="102" height="128" rx="10" fill="white"/>
</clipPath>
</defs>
</svg>
