<svg width="119" height="119" viewBox="0 0 119 119" fill="none" xmlns="http://www.w3.org/2000/svg">
<g filter="url(#filter0_d_91_3000)">
<circle cx="59.5" cy="59.5" r="46.5" fill="#FC786D"/>
<path d="M63.4752 34.5844C65.0415 34.5844 66.3112 33.3101 66.3112 31.7381C66.3112 30.1661 65.0415 28.8917 63.4752 28.8917C61.909 28.8917 60.6393 30.1661 60.6393 31.7381C60.6393 33.3101 61.909 34.5844 63.4752 34.5844ZM54.122 47.7174L53.2476 49.7644H49.2956C48.2516 49.7644 47.405 50.6141 47.405 51.6619C47.405 52.7098 48.2516 53.5595 49.2956 53.5595H53.8715C55.0088 53.5595 56.0327 52.8811 56.4776 51.8345L56.9969 50.6177L56.3665 50.2441C55.3432 49.6375 54.5905 48.7397 54.122 47.7174ZM70.0924 42.1741H67.491L65.9513 39.0164C65.2128 37.5013 63.8569 36.3936 62.3013 35.9957L58.1017 34.7422C56.4297 34.3389 54.6886 34.7095 53.3256 35.7585L50.9818 37.5618C50.1529 38.1993 49.9957 39.39 50.632 40.222C51.2683 41.0539 52.4541 41.2099 53.2824 40.573L55.6274 38.7697C56.0806 38.4205 56.6578 38.2954 57.1204 38.4057L57.9889 38.6648L55.7757 43.8469C55.0301 45.5951 55.6983 47.6427 57.3295 48.6092L62.3503 51.5843L60.7273 56.7866C60.4154 57.7863 60.9702 58.8508 61.9663 59.1639C62.1547 59.2232 62.345 59.2516 62.5323 59.2516C63.3364 59.2516 64.082 58.7316 64.3355 57.9204L66.2048 51.9276C66.554 50.696 66.0341 49.373 64.9263 48.7023L61.3081 46.5593L63.158 41.9173L64.3555 44.3741C64.8282 45.343 65.8279 45.9686 66.9026 45.9686H70.0924C71.1364 45.9686 71.983 45.1189 71.983 44.0711C71.983 43.0233 71.1364 42.1741 70.0924 42.1741Z" fill="#FEFEFE"/>
<path d="M49.7127 74.144V70.184L46.7007 65.204H48.5607L50.8647 69.092H50.2047L52.4967 65.204H54.3567L51.3567 70.172V74.144H49.7127ZM57.313 74.288C56.673 74.288 56.089 74.14 55.561 73.844C55.041 73.548 54.625 73.144 54.313 72.632C54.009 72.12 53.857 71.536 53.857 70.88C53.857 70.224 54.009 69.64 54.313 69.128C54.625 68.616 55.041 68.212 55.561 67.916C56.081 67.62 56.665 67.472 57.313 67.472C57.953 67.472 58.533 67.62 59.053 67.916C59.573 68.212 59.985 68.616 60.289 69.128C60.601 69.632 60.757 70.216 60.757 70.88C60.757 71.536 60.601 72.12 60.289 72.632C59.977 73.144 59.561 73.548 59.041 73.844C58.521 74.14 57.945 74.288 57.313 74.288ZM57.313 72.848C57.665 72.848 57.973 72.764 58.237 72.596C58.509 72.428 58.721 72.196 58.873 71.9C59.033 71.596 59.113 71.256 59.113 70.88C59.113 70.496 59.033 70.16 58.873 69.872C58.721 69.576 58.509 69.344 58.237 69.176C57.973 69 57.665 68.912 57.313 68.912C56.953 68.912 56.637 69 56.365 69.176C56.093 69.344 55.877 69.576 55.717 69.872C55.565 70.16 55.489 70.496 55.489 70.88C55.489 71.256 55.565 71.596 55.717 71.9C55.877 72.196 56.093 72.428 56.365 72.596C56.637 72.764 56.953 72.848 57.313 72.848ZM64.2771 74.288C63.7731 74.288 63.3331 74.176 62.9571 73.952C62.5891 73.728 62.3051 73.416 62.1051 73.016C61.9131 72.616 61.8171 72.148 61.8171 71.612V67.616H63.3891V71.48C63.3891 71.752 63.4411 71.992 63.5451 72.2C63.6571 72.4 63.8131 72.56 64.0131 72.68C64.2211 72.792 64.4531 72.848 64.7091 72.848C64.9651 72.848 65.1931 72.792 65.3931 72.68C65.5931 72.56 65.7491 72.396 65.8611 72.188C65.9731 71.98 66.0291 71.732 66.0291 71.444V67.616H67.6011V74.144H66.1131V72.86L66.2451 73.088C66.0931 73.488 65.8411 73.788 65.4891 73.988C65.1451 74.188 64.7411 74.288 64.2771 74.288ZM69.0624 74.144V67.616H70.5384V69.068L70.4184 68.852C70.5704 68.364 70.8064 68.024 71.1264 67.832C71.4544 67.64 71.8464 67.544 72.3024 67.544H72.6864V68.936H72.1224C71.6744 68.936 71.3144 69.076 71.0424 69.356C70.7704 69.628 70.6344 70.012 70.6344 70.508V74.144H69.0624ZM39.546 89.144V80.204H45.51V81.644H41.178V84.116H44.97V85.556H41.178V89.144H39.546ZM46.4452 89.144V82.616H48.0172V89.144H46.4452ZM46.4452 81.884V80.204H48.0172V81.884H46.4452ZM52.4447 89.216C51.7087 89.216 51.1367 89.016 50.7287 88.616C50.3287 88.208 50.1287 87.636 50.1287 86.9V84.02H49.0007V82.616H49.1207C49.4407 82.616 49.6887 82.532 49.8647 82.364C50.0407 82.196 50.1287 81.952 50.1287 81.632V81.128H51.7007V82.616H53.2007V84.02H51.7007V86.816C51.7007 87.032 51.7367 87.216 51.8087 87.368C51.8887 87.52 52.0087 87.636 52.1687 87.716C52.3367 87.796 52.5487 87.836 52.8047 87.836C52.8607 87.836 52.9247 87.832 52.9967 87.824C53.0767 87.816 53.1527 87.808 53.2247 87.8V89.144C53.1127 89.16 52.9847 89.176 52.8407 89.192C52.6967 89.208 52.5647 89.216 52.4447 89.216ZM56.6905 89.144V80.204H60.0265C60.6345 80.204 61.1705 80.316 61.6345 80.54C62.1065 80.756 62.4745 81.076 62.7385 81.5C63.0025 81.916 63.1345 82.424 63.1345 83.024C63.1345 83.616 62.9985 84.124 62.7265 84.548C62.4625 84.964 62.0985 85.284 61.6345 85.508C61.1705 85.732 60.6345 85.844 60.0265 85.844H58.3225V89.144H56.6905ZM58.3225 84.404H60.0505C60.3465 84.404 60.6025 84.348 60.8185 84.236C61.0345 84.116 61.2025 83.952 61.3225 83.744C61.4425 83.536 61.5025 83.296 61.5025 83.024C61.5025 82.744 61.4425 82.504 61.3225 82.304C61.2025 82.096 61.0345 81.936 60.8185 81.824C60.6025 81.704 60.3465 81.644 60.0505 81.644H58.3225V84.404ZM64.3398 89.144V80.06H65.9118V89.144H64.3398ZM69.3432 89.288C68.8872 89.288 68.4912 89.212 68.1552 89.06C67.8192 88.908 67.5592 88.692 67.3752 88.412C67.1912 88.124 67.0992 87.792 67.0992 87.416C67.0992 87.056 67.1792 86.736 67.3392 86.456C67.4992 86.168 67.7472 85.928 68.0832 85.736C68.4192 85.544 68.8432 85.408 69.3552 85.328L71.4912 84.98V86.18L69.6552 86.492C69.3432 86.548 69.1112 86.648 68.9592 86.792C68.8072 86.936 68.7312 87.124 68.7312 87.356C68.7312 87.58 68.8152 87.76 68.9832 87.896C69.1592 88.024 69.3752 88.088 69.6312 88.088C69.9592 88.088 70.2472 88.02 70.4952 87.884C70.7512 87.74 70.9472 87.544 71.0832 87.296C71.2272 87.048 71.2992 86.776 71.2992 86.48V84.8C71.2992 84.52 71.1872 84.288 70.9632 84.104C70.7472 83.912 70.4592 83.816 70.0992 83.816C69.7632 83.816 69.4632 83.908 69.1992 84.092C68.9432 84.268 68.7552 84.504 68.6352 84.8L67.3512 84.176C67.4792 83.832 67.6792 83.536 67.9512 83.288C68.2312 83.032 68.5592 82.832 68.9352 82.688C69.3112 82.544 69.7192 82.472 70.1592 82.472C70.6952 82.472 71.1672 82.572 71.5752 82.772C71.9832 82.964 72.2992 83.236 72.5232 83.588C72.7552 83.932 72.8712 84.336 72.8712 84.8V89.144H71.3832V88.028L71.7192 88.004C71.5512 88.284 71.3512 88.52 71.1192 88.712C70.8872 88.896 70.6232 89.04 70.3272 89.144C70.0312 89.24 69.7032 89.288 69.3432 89.288ZM74.3241 89.144V82.616H75.8001V83.9L75.6801 83.672C75.8321 83.28 76.0801 82.984 76.4241 82.784C76.7761 82.576 77.1841 82.472 77.6481 82.472C78.1281 82.472 78.5521 82.576 78.9201 82.784C79.2961 82.992 79.5881 83.284 79.7961 83.66C80.0041 84.028 80.1081 84.456 80.1081 84.944V89.144H78.5361V85.316C78.5361 85.028 78.4801 84.78 78.3681 84.572C78.2561 84.364 78.1001 84.204 77.9001 84.092C77.7081 83.972 77.4801 83.912 77.2161 83.912C76.9601 83.912 76.7321 83.972 76.5321 84.092C76.3321 84.204 76.1761 84.364 76.0641 84.572C75.9521 84.78 75.8961 85.028 75.8961 85.316V89.144H74.3241Z" fill="#FEFEFE"/>
</g>
<defs>
<filter id="filter0_d_91_3000" x="0.9" y="0.9" width="117.2" height="117.2" filterUnits="userSpaceOnUse" color-interpolation-filters="sRGB">
<feFlood flood-opacity="0" result="BackgroundImageFix"/>
<feColorMatrix in="SourceAlpha" type="matrix" values="0 0 0 0 0 0 0 0 0 0 0 0 0 0 0 0 0 0 127 0" result="hardAlpha"/>
<feOffset/>
<feGaussianBlur stdDeviation="6.05"/>
<feComposite in2="hardAlpha" operator="out"/>
<feColorMatrix type="matrix" values="0 0 0 0 0 0 0 0 0 0 0 0 0 0 0 0 0 0 0.25 0"/>
<feBlend mode="normal" in2="BackgroundImageFix" result="effect1_dropShadow_91_3000"/>
<feBlend mode="normal" in="SourceGraphic" in2="effect1_dropShadow_91_3000" result="shape"/>
</filter>
</defs>
</svg>
