<svg width="65" height="64" viewBox="0 0 65 64" fill="none" xmlns="http://www.w3.org/2000/svg">
<path d="M40.5 7.99996H24.5V2.66663H40.5V7.99996ZM35.1667 50.6666C35.1667 53.4133 35.86 56 37.06 58.2133C35.5933 58.5066 34.0733 58.6666 32.5 58.6666C26.1348 58.6666 20.0303 56.1381 15.5294 51.6372C11.0286 47.1363 8.5 41.0318 8.5 34.6666C8.5 28.3014 11.0286 22.1969 15.5294 17.6961C20.0303 13.1952 26.1348 10.6666 32.5 10.6666C38.1533 10.6666 43.3533 12.64 47.4867 16L51.2733 12.16C52.6333 13.3333 53.8333 14.56 55.0333 15.92L51.2467 19.7066C54.6495 23.95 56.5027 29.2274 56.5 34.6666V35.6C54.7933 35.0133 53.0333 34.6666 51.1667 34.6666C42.34 34.6666 35.1667 41.84 35.1667 50.6666ZM35.1667 18.6666H29.8333V37.3333H35.1667V18.6666ZM57.4067 42.24L47.8333 51.8133L43.5933 47.5733L40.5 50.6666L47.8333 58.6666L60.5 46L57.4067 42.24Z" fill="#FFD144"/>
</svg>
