<svg width="31" height="30" viewBox="0 0 31 30" fill="none" xmlns="http://www.w3.org/2000/svg">
<circle cx="15.5" cy="15" r="15" fill="#FC786D"/>
<path d="M15.3342 12.0255C15.3344 12.1406 15.3118 12.2547 15.2676 12.3611C15.2234 12.4675 15.1586 12.564 15.0769 12.6452L12.6257 15.0961C12.4717 15.251 12.2884 15.3739 12.0867 15.4575C11.8849 15.5412 11.6685 15.584 11.45 15.5836C11.2895 15.5833 11.1333 15.5314 11.0045 15.4356C10.8756 15.3398 10.7811 15.2051 10.7347 15.0514C10.6883 14.8977 10.6926 14.7331 10.7468 14.582C10.8011 14.431 10.9026 14.3013 11.0362 14.2123L13.6768 12.4519C13.7153 12.4262 13.7462 12.3905 13.7662 12.3487C13.7862 12.3069 13.7945 12.2604 13.7902 12.2142C13.786 12.1681 13.7694 12.1239 13.7421 12.0864C13.7148 12.049 13.6779 12.0195 13.6353 12.0013L10.4067 10.6182C10.3299 10.5851 10.2669 10.5266 10.2283 10.4526C10.1896 10.3785 10.1777 10.2934 10.1945 10.2116C10.2113 10.1297 10.2559 10.0562 10.3206 10.0033C10.3853 9.9505 10.4662 9.92158 10.5498 9.92147C10.793 9.92144 11.0347 9.96064 11.2655 10.0375L14.7348 11.1942C14.9094 11.2521 15.0613 11.3636 15.169 11.5129C15.2766 11.6621 15.3344 11.8415 15.3342 12.0255ZM9.91766 12.279L10.6452 11.3692C10.6622 11.3475 10.6756 11.3233 10.6849 11.2974L11.9586 11.8432C11.8158 12.0438 11.6274 12.2076 11.4088 12.3209C11.1902 12.4343 10.9478 12.494 10.7016 12.4951C10.4256 12.495 10.1547 12.4203 9.91766 12.279ZM9.15739 10.9509V9.92147C9.16324 9.52466 9.32163 9.14535 9.5997 8.86221C9.87777 8.57908 10.2542 8.41387 10.6508 8.40086C11.0474 8.38784 11.4339 8.52803 11.7299 8.79233C12.0259 9.05663 12.2088 9.42476 12.2407 9.82032L11.4284 9.54957C11.1451 9.45493 10.8484 9.4067 10.5498 9.40673C10.3493 9.40654 10.1548 9.47504 9.99874 9.60082C9.84265 9.7266 9.73438 9.90206 9.69194 10.098C9.64951 10.2939 9.67548 10.4984 9.76554 10.6775C9.8556 10.8566 10.0043 10.9994 10.1869 11.0822V11.118L9.52363 11.9472C9.28707 11.6692 9.15724 11.316 9.15739 10.9509ZM9.31464 17.0799C9.04281 16.5615 8.90055 15.9849 8.90002 15.3995V15.3687C8.89997 14.7139 9.07789 14.0714 9.41476 13.5099C9.54488 13.2932 9.71266 13.1015 9.91019 12.9437L9.98895 12.8809C10.4558 13.0581 10.9721 13.0537 11.4359 12.8686C11.5167 12.9672 11.5945 13.0682 11.6693 13.1715L10.7495 13.7848C10.5242 13.9353 10.3533 14.1542 10.262 14.4093C10.1706 14.6643 10.1637 14.942 10.2422 15.2012C10.3208 15.4605 10.4805 15.6877 10.698 15.8492C10.9155 16.0107 11.1791 16.098 11.45 16.0983C11.9401 16.0991 12.4159 15.9334 12.7994 15.6283L13.7669 18.3922C13.2186 19.4486 12.4163 20.3521 11.4323 21.0215C11.2307 20.6915 11.0388 20.3557 10.8594 20.0149L9.31464 17.0799ZM17.5808 17.7233C17.553 17.694 17.5187 17.6715 17.4807 17.6579C17.4427 17.6442 17.402 17.6397 17.3619 17.6448C17.3218 17.6498 17.2834 17.6642 17.2499 17.6867C17.2164 17.7093 17.1887 17.7395 17.169 17.7748L14.8674 21.9586C14.7366 22.1963 14.5476 22.397 14.3182 22.5419C14.0888 22.6868 13.8263 22.7711 13.5555 22.7871C13.2846 22.803 13.0141 22.75 12.7693 22.633C12.5244 22.516 12.3133 22.3389 12.1555 22.1181C12.0011 21.9017 11.8528 21.6806 11.7074 21.4564C12.7908 20.724 13.6696 19.7275 14.2607 18.5611L16.2682 16.1521C16.4225 15.9668 16.6171 15.8192 16.8373 15.7208C17.0574 15.6223 17.2971 15.5756 17.5381 15.5841C17.7791 15.5926 18.0149 15.6562 18.2275 15.7699C18.4401 15.8837 18.6239 16.0446 18.7647 16.2404L22.5995 21.5656L21.3512 21.7439L17.5808 17.7233ZM21.5111 22.7899V22.2412L23.0666 22.0178C23.2695 22.0203 23.4633 22.1028 23.6058 22.2474C23.7482 22.3919 23.8279 22.5869 23.8274 22.7899H21.5111Z" fill="#FEFEFE"/>
</svg>
