<svg width="31" height="30" viewBox="0 0 31 30" fill="none" xmlns="http://www.w3.org/2000/svg">
<circle cx="15.5" cy="15" r="15" fill="#FC786D"/>
<path fill-rule="evenodd" clip-rule="evenodd" d="M17.1099 11.6805C17.1099 11.1932 16.9508 10.7421 16.6821 10.3762L19.7393 9.55082C20.1838 9.43083 20.6497 9.70048 20.7688 10.1452C20.8885 10.5918 20.6208 11.0543 20.1744 11.1748L17.1099 12.0022V11.6805ZM13.1401 17.3521V19.933L11.279 21.9611C10.9256 22.3462 10.9516 22.9505 11.3367 23.3038C11.7223 23.6577 12.3255 23.6318 12.6793 23.2461L14.7037 21.0401C14.961 20.7597 15.0885 20.4323 15.0885 20.0516V18.476C14.2857 18.4038 13.5831 17.9762 13.1401 17.3521ZM21.3728 20.2603L19.6085 17.1945C19.2064 16.4956 18.5142 16.0953 17.7079 16.0953H16.6186V11.6805C16.6186 10.7344 15.847 9.96276 14.9008 9.96276C14.2033 9.96276 13.5989 10.3401 13.3131 10.9172C13.1512 11.2442 12.9273 11.4828 12.6113 11.6653L9.60081 13.4033C9.20042 13.6345 9.06196 14.1513 9.29311 14.5516C9.52397 14.9515 10.0416 15.0902 10.4414 14.8594L13.7393 12.9553C13.8725 12.8782 14.043 12.9236 14.1201 13.0567C14.1972 13.1899 14.1518 13.3604 14.0186 13.4375L13.1373 13.9463V15.8029C13.1373 17.0107 14.1225 17.9958 15.3303 17.9958H17.1609C17.5535 17.9958 17.8909 18.1848 18.0959 18.5196L19.758 21.2333C19.9055 21.4742 20.1304 21.6217 20.4102 21.661C20.69 21.7002 20.9468 21.6203 21.155 21.4293L21.1986 21.3892C21.5174 21.0967 21.5886 20.6353 21.3728 20.2603ZM14.9009 9.64382C15.7812 9.64382 16.4993 8.92577 16.4993 8.04536C16.4993 7.16494 15.7812 6.4469 14.9009 6.4469C14.0205 6.4469 13.3024 7.16494 13.3024 8.04536C13.3024 8.92577 14.0204 9.64382 14.9009 9.64382Z" fill="#FEFEFE"/>
</svg>
