<svg width="31" height="30" viewBox="0 0 31 30" fill="none" xmlns="http://www.w3.org/2000/svg">
<circle cx="15.5" cy="15" r="15" fill="#FC786D"/>
<g clip-path="url(#clip0_91_559)">
<path d="M21.6319 15.945H21.1621C21.012 15.945 20.871 15.8732 20.7827 15.7518L18.1506 12.1341C17.9402 11.8588 17.6136 11.6974 17.2672 11.6974H16.6885C16.5635 11.6974 16.4621 11.596 16.4621 11.471V10.9348C16.4621 10.8289 16.5163 10.731 16.6047 10.6728C17.155 10.3113 17.5163 9.68562 17.508 8.9761C17.4952 7.88346 16.5914 6.99501 15.4987 7.00002C14.3985 7.00508 13.5081 7.89856 13.5081 9.00001C13.5081 9.69935 13.867 10.3149 14.4107 10.6724C14.4995 10.7307 14.5541 10.8286 14.5541 10.9348V11.471C14.5541 11.596 14.4527 11.6974 14.3277 11.6974H13.5955C13.2491 11.6974 12.9224 11.8588 12.7121 12.1341L10.0841 15.7808C9.99597 15.9032 9.85433 15.9757 9.70348 15.9757H9.37991C8.89396 15.9757 8.5 16.3696 8.5 16.8556C8.5 17.3416 8.89394 17.7355 9.37991 17.7355H10.2443C9.711 18.0335 9.35017 18.6032 9.35017 19.2575C9.35017 20.2198 10.1303 21 11.0927 21H18.4748L12.6756 17.7868C12.2146 17.608 11.7235 17.515 11.2265 17.515H11.1923C11.2604 17.4605 11.3221 17.3973 11.375 17.3255L13.0459 14.8375V17.0305C13.054 17.0344 13.0621 17.038 13.0701 17.0424L15.5256 18.4033L17.8168 17.0288V14.8375L19.492 17.2948C19.5472 17.3698 19.6121 17.4356 19.6839 17.4916C19.0504 17.5011 18.3814 17.6751 17.8168 17.9887V17.9859L16.3549 18.863L20.107 20.9425C20.908 20.7855 21.5125 20.0799 21.5125 19.2329V19.2245C21.5125 18.5672 21.1485 17.9991 20.6112 17.7048H21.6319C22.1179 17.7048 22.5119 17.3109 22.5119 16.8249C22.5119 16.3389 22.1179 15.945 21.6319 15.945Z" fill="#FEFEFE"/>
</g>
<defs>
<clipPath id="clip0_91_559">
<rect width="14.0119" height="14" fill="white" transform="translate(8.5 7)"/>
</clipPath>
</defs>
</svg>
