<svg width="32" height="33" viewBox="0 0 32 33" fill="none" xmlns="http://www.w3.org/2000/svg">
<g clip-path="url(#clip0_1_24)">
<path d="M16 0.5C12.8355 0.5 9.74207 1.43838 7.11088 3.19649C4.4797 4.95459 2.42894 7.45345 1.21793 10.3771C0.00693258 13.3007 -0.309921 16.5177 0.307443 19.6214C0.924806 22.7251 2.44866 25.5761 4.6863 27.8137C6.92394 30.0514 9.77487 31.5752 12.8786 32.1926C15.9823 32.8099 19.1993 32.4931 22.1229 31.2821C25.0466 30.0711 27.5454 28.0203 29.3035 25.3891C31.0616 22.7579 32 19.6645 32 16.5C31.9954 12.2579 30.3082 8.19095 27.3087 5.19136C24.3091 2.19177 20.2421 0.504588 16 0.5ZM20.296 9.83333H11.704C12.8357 7.59903 14.2825 5.53888 16 3.716C17.7182 5.53836 19.165 7.59861 20.296 9.83333ZM21.3627 12.5C21.7725 13.7942 21.9864 15.1425 21.9973 16.5C21.9864 17.8575 21.7725 19.2058 21.3627 20.5H10.6347C10.2249 19.2058 10.011 17.8575 10 16.5C10.011 15.1425 10.2249 13.7942 10.6347 12.5H21.3627ZM12.5333 3.64133C10.9969 5.52105 9.72879 7.60493 8.76534 9.83333H4.47067C6.23848 6.78858 9.13555 4.56367 12.5333 3.64133ZM2.66667 16.5C2.66655 15.1431 2.87383 13.7942 3.28134 12.5H7.86667C7.52102 13.8055 7.34182 15.1495 7.33334 16.5C7.34182 17.8505 7.52102 19.1945 7.86667 20.5H3.28134C2.87383 19.2058 2.66655 17.8569 2.66667 16.5ZM4.47067 23.1667H8.76534C9.72879 25.3951 10.9969 27.479 12.5333 29.3587C9.13555 28.4363 6.23848 26.2114 4.47067 23.1667ZM11.704 23.1667H20.296C19.1643 25.401 17.7175 27.4611 16 29.284C14.2818 27.4616 12.835 25.4014 11.704 23.1667ZM19.4733 29.3587C21.0075 27.4786 22.2733 25.3947 23.2347 23.1667H27.5293C25.7631 26.21 22.8687 28.4348 19.4733 29.3587ZM29.3333 16.5C29.3335 17.8569 29.1262 19.2058 28.7187 20.5H24.1333C24.479 19.1945 24.6582 17.8505 24.6667 16.5C24.6582 15.1495 24.479 13.8055 24.1333 12.5H28.716C29.1244 13.7941 29.3326 15.143 29.3333 16.5ZM23.2347 9.83333C22.2733 7.60531 21.0075 5.52145 19.4733 3.64133C22.8687 4.56524 25.7631 6.78996 27.5293 9.83333H23.2347Z" fill="#2D383E"/>
</g>
<defs>
<clipPath id="clip0_1_24">
<rect width="32" height="32" fill="white" transform="translate(0 0.5)"/>
</clipPath>
</defs>
</svg>
