<svg width="32" height="33" viewBox="0 0 32 33" fill="none" xmlns="http://www.w3.org/2000/svg">
<g clip-path="url(#clip0_1_12)">
<path d="M17.3334 1.83333C17.3334 1.4797 17.4738 1.14057 17.7239 0.890517C17.9739 0.640469 18.3131 0.499993 18.6667 0.499993C22.2017 0.503875 25.5908 1.90988 28.0905 4.40952C30.5901 6.90917 31.9961 10.2983 32 13.8333C32 14.187 31.8595 14.5261 31.6095 14.7761C31.3594 15.0262 31.0203 15.1667 30.6667 15.1667C30.3131 15.1667 29.9739 15.0262 29.7239 14.7761C29.4738 14.5261 29.3334 14.187 29.3334 13.8333C29.3302 11.0053 28.2054 8.29406 26.2057 6.29436C24.206 4.29466 21.4947 3.16984 18.6667 3.16666C18.3131 3.16666 17.9739 3.02618 17.7239 2.77614C17.4738 2.52609 17.3334 2.18695 17.3334 1.83333ZM18.6667 8.49999C20.0812 8.49999 21.4377 9.0619 22.4379 10.0621C23.4381 11.0623 24 12.4188 24 13.8333C24 14.187 24.1405 14.5261 24.3905 14.7761C24.6406 15.0262 24.9797 15.1667 25.3334 15.1667C25.687 15.1667 26.0261 15.0262 26.2762 14.7761C26.5262 14.5261 26.6667 14.187 26.6667 13.8333C26.6646 11.7122 25.821 9.67864 24.3212 8.17881C22.8214 6.67898 20.7878 5.83544 18.6667 5.83333C18.3131 5.83333 17.9739 5.9738 17.7239 6.22385C17.4738 6.4739 17.3334 6.81304 17.3334 7.16666C17.3334 7.52028 17.4738 7.85942 17.7239 8.10947C17.9739 8.35952 18.3131 8.49999 18.6667 8.49999ZM30.7907 22.8187C31.5634 23.5935 31.9973 24.6431 31.9973 25.7373C31.9973 26.8316 31.5634 27.8812 30.7907 28.656L29.5774 30.0547C18.6574 40.5093 -7.91598 13.9427 2.37735 2.98799L3.91069 1.65466C4.68638 0.903563 5.7266 0.488058 6.80629 0.49804C7.88599 0.508021 8.91835 0.942684 9.68002 1.70799C9.72136 1.74933 12.192 4.95866 12.192 4.95866C12.9251 5.72883 13.3332 6.7519 13.3315 7.8152C13.3298 8.8785 12.9183 9.90022 12.1827 10.668L10.6387 12.6093C11.4932 14.6855 12.7494 16.5723 14.3354 18.1615C15.9213 19.7506 17.8056 21.0107 19.88 21.8693L21.8334 20.316C22.6012 19.5809 23.6228 19.17 24.6858 19.1685C25.7487 19.167 26.7714 19.5751 27.5414 20.308C27.5414 20.308 30.7494 22.7773 30.7907 22.8187ZM28.956 24.7573C28.956 24.7573 25.7654 22.3027 25.724 22.2613C25.4493 21.989 25.0782 21.8362 24.6914 21.8362C24.3045 21.8362 23.9334 21.989 23.6587 22.2613C23.6227 22.2987 20.9334 24.4413 20.9334 24.4413C20.7521 24.5856 20.5364 24.6801 20.3076 24.7157C20.0787 24.7512 19.8445 24.7265 19.628 24.644C16.9406 23.6434 14.4997 22.077 12.4705 20.0508C10.4413 18.0246 8.87122 15.5859 7.86669 12.9C7.77762 12.6806 7.74858 12.4414 7.78256 12.2071C7.81654 11.9728 7.91231 11.7517 8.06002 11.5667C8.06002 11.5667 10.2027 8.87599 10.2387 8.84133C10.511 8.56664 10.6639 8.19548 10.6639 7.80866C10.6639 7.42184 10.511 7.05068 10.2387 6.77599C10.1974 6.73599 7.74269 3.54266 7.74269 3.54266C7.46389 3.29267 7.10003 3.15879 6.72569 3.16846C6.35134 3.17812 5.99488 3.33061 5.72935 3.59466L4.19602 4.92799C-3.32665 13.9733 19.7014 35.724 27.628 28.2333L28.8427 26.8333C29.1273 26.5697 29.2983 26.2057 29.3194 25.8183C29.3406 25.4309 29.2103 25.0504 28.956 24.7573Z" fill="#2D383E"/>
</g>
<defs>
<clipPath id="clip0_1_12">
<rect width="32" height="32" fill="white" transform="translate(0 0.5)"/>
</clipPath>
</defs>
</svg>
