<svg width="31" height="30" viewBox="0 0 31 30" fill="none" xmlns="http://www.w3.org/2000/svg">
<circle cx="15.5" cy="15" r="15" fill="#FC786D"/>
<path fill-rule="evenodd" clip-rule="evenodd" d="M10.0138 14.2187C9.9326 14.2187 9.85493 14.1855 9.79687 14.1256C9.67488 13.9998 9.67358 13.7931 9.79343 13.6652C9.8854 13.567 9.98231 13.4738 10.0835 13.3863C10.2152 13.2723 10.4105 13.2923 10.5187 13.431C10.6269 13.5696 10.608 13.775 10.4762 13.8888C10.3917 13.9619 10.3107 14.04 10.2339 14.122C10.1757 14.1841 10.0967 14.2187 10.0138 14.2187ZM9.24104 15.4894C9.20359 15.4894 9.16643 15.482 9.13146 15.468C8.97261 15.404 8.89169 15.2169 8.95175 15.0492C8.99797 14.9201 9.05101 14.7935 9.10976 14.6702C9.18629 14.5097 9.37199 14.4451 9.52457 14.5255C9.67716 14.6059 9.73867 14.8017 9.66217 14.9621C9.61304 15.0651 9.56897 15.171 9.53031 15.2789C9.48488 15.4056 9.36943 15.4894 9.24104 15.4894ZM9.02401 16.9804C8.86029 16.9802 8.72525 16.8455 8.71589 16.6735C8.71179 16.5983 8.70971 16.523 8.70972 16.4478C8.70973 16.385 8.71105 16.3222 8.71394 16.2596C8.7222 16.0804 8.86663 15.9426 9.03682 15.9502C9.20715 15.9578 9.33976 16.1118 9.3316 16.2907C9.32922 16.343 9.32798 16.3954 9.32799 16.4478C9.328 16.5108 9.32976 16.5738 9.33312 16.6367C9.34273 16.8163 9.21045 16.9749 9.03815 16.9801C9.03342 16.9802 9.02876 16.9804 9.02401 16.9804ZM9.40053 18.4355C9.28487 18.4355 9.17845 18.3674 9.1254 18.2589C9.06546 18.1363 9.01175 18.0101 8.96441 17.8815C8.9029 17.7145 8.98185 17.5256 9.14062 17.4608C9.29919 17.3961 9.47926 17.4793 9.54082 17.6462C9.58044 17.7535 9.62537 17.8589 9.67541 17.9613C9.75343 18.1211 9.69358 18.3177 9.54159 18.3996C9.49789 18.4231 9.44964 18.4355 9.40053 18.4355ZM10.305 19.6054C10.2342 19.6054 10.1659 19.58 10.1108 19.5332C10.0088 19.4467 9.91099 19.3543 9.81828 19.2569C9.69754 19.1301 9.69697 18.9242 9.81737 18.7969C9.93787 18.6695 10.1339 18.6693 10.2548 18.7962C10.3323 18.8776 10.414 18.9547 10.4992 19.0271C10.6318 19.1398 10.6524 19.3448 10.5455 19.4844C10.4868 19.5611 10.3985 19.6054 10.305 19.6054ZM11.5829 20.2889C11.5555 20.2889 11.5283 20.2851 11.5019 20.2775C11.3759 20.2412 11.251 20.1995 11.1289 20.1504C10.9696 20.0862 10.8902 19.8979 10.951 19.7304C11.0118 19.5629 11.1908 19.4787 11.35 19.5428C11.4524 19.584 11.557 19.6197 11.663 19.6496C11.827 19.6959 11.9253 19.8752 11.8814 20.0478C11.8453 20.1898 11.7226 20.2889 11.5829 20.2889ZM20.664 14.2187C20.5811 14.2187 20.5019 14.1841 20.4438 14.1218C20.3671 14.0398 20.2861 13.9619 20.2016 13.8889C20.0698 13.775 20.0509 13.5696 20.159 13.431C20.2673 13.2923 20.4627 13.2723 20.5944 13.3863C20.6954 13.4738 20.7921 13.5671 20.884 13.6652C21.0041 13.7932 21.0027 13.9995 20.8807 14.1255C20.8228 14.1853 20.7451 14.2187 20.664 14.2187ZM21.4364 15.4894C21.3082 15.4894 21.1924 15.4054 21.1471 15.2787C21.1086 15.1709 21.0647 15.065 21.0156 14.9621C20.9391 14.8017 21.0006 14.6059 21.1532 14.5255C21.3058 14.4451 21.4915 14.5097 21.568 14.6702C21.6268 14.7934 21.6793 14.9201 21.7256 15.049C21.786 15.2167 21.7053 15.404 21.5463 15.468C21.5112 15.4821 21.474 15.4894 21.4364 15.4894ZM21.6536 16.9804C21.6489 16.9804 21.6443 16.9802 21.6396 16.9801C21.4673 16.9749 21.335 16.8163 21.3447 16.6367C21.348 16.5738 21.3498 16.5107 21.3498 16.4478C21.3498 16.3954 21.3486 16.343 21.3462 16.2907C21.338 16.1116 21.4706 15.9575 21.6412 15.9502C21.8109 15.9429 21.9556 16.0807 21.9638 16.2596C21.9667 16.3222 21.9681 16.385 21.9681 16.4478C21.9681 16.523 21.966 16.5983 21.9619 16.6735C21.9525 16.8455 21.8174 16.9804 21.6536 16.9804ZM21.2772 18.4355C21.2281 18.4355 21.1799 18.4231 21.1362 18.3995C20.9841 18.3176 20.9243 18.1211 21.0024 17.9613C21.0525 17.8589 21.0974 17.7535 21.137 17.6462C21.1986 17.4791 21.3781 17.396 21.5368 17.4608C21.6955 17.5255 21.775 17.7148 21.7133 17.8817C21.6658 18.0102 21.612 18.1363 21.5521 18.2589C21.499 18.3674 21.3929 18.4355 21.2772 18.4355ZM20.3728 19.6054C20.2793 19.6054 20.1909 19.5612 20.132 19.4845C20.025 19.3449 20.046 19.1399 20.1785 19.0272C20.2636 18.9547 20.3455 18.8776 20.423 18.7962C20.5438 18.6694 20.7397 18.6696 20.8601 18.7969C20.9806 18.9242 20.9804 19.13 20.8595 19.2569C20.7668 19.3543 20.669 19.4467 20.567 19.5332C20.5119 19.5799 20.4436 19.6054 20.3728 19.6054ZM19.0948 20.2889C18.9551 20.2888 18.8325 20.1898 18.7964 20.0478C18.7525 19.8752 18.8508 19.696 19.0148 19.6496C19.1206 19.6197 19.2252 19.584 19.3275 19.5428C19.4869 19.4786 19.6659 19.5626 19.7268 19.7303C19.7876 19.8978 19.7077 20.0863 19.5485 20.1504C19.4265 20.1995 19.3016 20.2412 19.1755 20.2775C19.1492 20.2851 19.1221 20.2889 19.0948 20.2889Z" fill="#FEFEFE"/>
<path fill-rule="evenodd" clip-rule="evenodd" d="M13.535 8.79806C13.535 9.84476 14.3446 10.6962 15.339 10.6962C16.3339 10.6961 17.143 9.84476 17.143 8.79806C17.1431 7.75136 16.3339 6.89996 15.3391 6.89996C14.3446 6.89996 13.535 7.75137 13.535 8.79806Z" fill="#FEFEFE"/>
<path fill-rule="evenodd" clip-rule="evenodd" d="M9.69661 11.0442L13.423 13.3078C13.4791 13.3418 13.5132 13.4044 13.5132 13.4723L13.5132 15.7046L17.1638 15.7045L17.1638 13.4723C17.1638 13.4044 17.1979 13.3418 17.254 13.3078L20.9804 11.0442C21.1484 10.942 21.2687 10.7765 21.3195 10.5777C21.3702 10.3789 21.3445 10.1718 21.2477 9.99506C21.1506 9.81832 20.9933 9.6917 20.8043 9.63863C20.6153 9.5852 20.4185 9.61225 20.2505 9.71414L17.4126 11.4379C17.3853 11.4547 17.354 11.4637 17.3224 11.4637L13.3547 11.4636C13.3227 11.4636 13.2917 11.4547 13.2644 11.4379L10.4262 9.71413C10.2585 9.61225 10.0617 9.58521 9.87273 9.63863C9.68379 9.6917 9.52645 9.81832 9.42931 9.99506C9.22812 10.3617 9.34783 10.8326 9.69661 11.0442Z" fill="#FEFEFE"/>
<path fill-rule="evenodd" clip-rule="evenodd" d="M17.164 16.0844H13.5135L13.5135 17.4801C13.5135 17.497 13.5116 17.5134 13.5075 17.5293L12.4298 21.761C12.3258 22.1701 12.557 22.5919 12.9459 22.7013C13.1334 22.7544 13.3298 22.7267 13.4991 22.6238C13.6686 22.521 13.7896 22.3558 13.8397 22.1586L15.0437 17.431C15.0647 17.3479 15.1362 17.2902 15.218 17.2902H15.4596C15.541 17.2902 15.6128 17.3479 15.6338 17.431L16.8378 22.1586C16.9419 22.5675 17.3426 22.8111 17.7315 22.7017C18.1202 22.5919 18.3517 22.1701 18.2477 21.761L17.17 17.5293C17.1659 17.5134 17.164 17.497 17.164 17.4801L17.164 16.0844Z" fill="#FEFEFE"/>
</svg>
