<svg width="50" height="50" viewBox="0 0 50 50" fill="none" xmlns="http://www.w3.org/2000/svg">
<path fill-rule="evenodd" clip-rule="evenodd" d="M27.9919 12.0479C27.0741 11.5476 26.0455 11.2854 25.0002 11.2854C23.9549 11.2854 22.9263 11.5476 22.0085 12.0479L12.0189 17.4938C11.0333 18.0316 10.2108 18.825 9.63776 19.7906C9.06477 20.7563 8.76249 21.8584 8.7627 22.9813V33.2688C8.76249 34.3916 9.06477 35.4937 9.63776 36.4594C10.2108 37.425 11.0333 38.2184 12.0189 38.7563L22.0085 44.2021C22.9263 44.7024 23.9549 44.9646 25.0002 44.9646C26.0455 44.9646 27.0741 44.7024 27.9919 44.2021L37.9794 38.7563C38.9654 38.2187 39.7884 37.4254 40.3617 36.4597C40.9351 35.4941 41.2377 34.3918 41.2377 33.2688V22.9792C41.2377 21.8561 40.9351 20.7538 40.3617 19.7882C39.7884 18.8225 38.9654 18.0292 37.9794 17.4917L27.9919 12.0479ZM25.0002 21.875C24.4085 21.875 24.0127 22.5833 23.221 24.0063L23.0169 24.3729C22.7919 24.7771 22.6794 24.9771 22.5044 25.1104C22.3273 25.2438 22.1085 25.2938 21.671 25.3917L21.2752 25.4833C19.7377 25.8313 18.9689 26.0042 18.7856 26.5917C18.6023 27.1792 19.1273 27.7938 20.1752 29.0188L20.446 29.3354C20.7439 29.6833 20.8939 29.8563 20.9606 30.0729C21.0273 30.2896 21.0044 30.5208 20.9606 30.9854L20.9189 31.4083C20.7606 33.0438 20.6814 33.8625 21.1585 34.225C21.6377 34.5875 22.3585 34.2563 23.7981 33.5938L24.1689 33.4229C24.5794 33.2354 24.7835 33.1417 25.0002 33.1417C25.2169 33.1417 25.421 33.2354 25.8314 33.4229L26.2023 33.5938C27.6419 34.2583 28.3627 34.5875 28.8419 34.225C29.321 33.8625 29.2398 33.0438 29.0814 31.4083L29.0398 30.9854C28.996 30.5208 28.9731 30.2896 29.0398 30.0729C29.1064 29.8563 29.2564 29.6833 29.5544 29.3354L29.8252 29.0188C30.8731 27.7938 31.3981 27.1813 31.2148 26.5917C31.0314 26.0042 30.2627 25.8313 28.7252 25.4833L28.3294 25.3917C27.8919 25.2938 27.6731 25.2458 27.496 25.1104C27.321 24.9771 27.2085 24.7771 26.9835 24.3729L26.7794 24.0063C25.9877 22.5854 25.5919 21.875 25.0002 21.875Z" fill="#FFD144"/>
<path d="M22.9166 4.16663H27.0833C31.0124 4.16663 32.9749 4.16663 34.1958 5.38746C35.4166 6.60829 35.4166 8.57079 35.4166 12.5V12.5375L29.4874 9.30413C28.1108 8.5536 26.5679 8.16035 24.9999 8.16035C23.432 8.16035 21.8891 8.5536 20.5124 9.30413L14.5833 12.5375V12.5C14.5833 8.57079 14.5833 6.60829 15.8041 5.38746C17.0249 4.16663 18.9874 4.16663 22.9166 4.16663Z" fill="#FFD144"/>
</svg>
