<svg width="147" height="130" viewBox="0 0 147 130" fill="none" xmlns="http://www.w3.org/2000/svg">
<circle cx="89" cy="65" r="56" fill="#E7F6F1"/>
<path d="M17.4365 95.9998V97.354C17.4365 97.354 121.966 72.667 124.466 70.792C126.966 68.9171 124.778 69.0732 124.778 69.0732L120.403 68.6045L17.749 93.4478L17.4365 95.9998Z" fill="#7390D9"/>
<path d="M2.14765 26.042L0 27.4482C0 27.4482 13.7043 91.2734 17.336 97.4096L19.8435 94.1658L4.37508 29.3231L2.14765 26.042Z" fill="#7390D9"/>
<path d="M2.14772 26.0412C2.14772 26.0412 109.854 1.24988 111.104 1.45834C112.354 1.66663 126.521 68.5405 126.104 69.1655C125.687 69.7905 19.6474 96.0401 18.8141 95.6233C17.9807 95.2067 1.52285 27.7079 2.14772 26.0412Z" fill="#809DE8"/>
<path d="M68.813 13.9583L65.688 2.2919L70.6879 1.04199L74.0212 14.5833L68.813 13.9583Z" fill="#92D162"/>
<path d="M77.9797 12.7088L76.5215 5.20898L81.313 5.83385L82.7713 12.7088H77.9797Z" fill="#F0CE70"/>
<path d="M85.4797 9.99991L83.188 1.04178L86.313 0L88.813 10.4165L85.4797 9.99991Z" fill="#92D162"/>
<path d="M71.5218 76.8744L117.979 65.2078V62.083L106.729 56.458L68.1885 73.5411L71.5218 76.8744Z" fill="#E6D4BE"/>
<path d="M71.5221 76.8738L68.6053 77.0814L39.3351 84.8L26.7298 88.1238L22.3563 74.9985L10.6895 28.3326C10.6895 28.3326 27.7189 24.5036 40.6807 21.6343C48.445 19.9144 54.7509 18.541 55.0632 18.541C55.897 18.541 57.9799 20.4163 57.9799 20.4163L71.5172 76.8542L71.5221 76.8738Z" fill="#FFF9E8"/>
<path d="M117.979 62.0821C117.771 62.7066 76.5218 71.8737 74.0219 72.7059C73.7914 72.7827 73.5822 72.8808 73.3925 72.9953C71.5221 74.1266 71.5221 76.8733 71.5221 76.8733L57.98 20.4158C57.98 20.4158 59.3419 16.1356 60.1855 15.2838L60.1921 15.2772L60.2722 15.2069C61.1043 14.5824 102.98 6.66602 102.98 6.66602C102.98 6.66602 118.188 61.4559 117.979 62.0821Z" fill="#FFF9E8"/>
<path d="M73.3958 72.9163L73.3925 72.9964C71.5221 74.1278 71.5221 76.8744 71.5221 76.8744L57.98 20.4169C57.98 20.4169 59.3419 16.1367 60.1855 15.2848L60.1921 15.2783L60.2722 15.208L73.3958 72.9163Z" fill="#EDE3C9"/>
<path d="M71.522 76.8741C71.522 76.8741 71.5204 76.8676 71.5171 76.8545L71.522 76.8741Z" fill="#F5ECD5"/>
<path d="M71.5222 76.8738L68.6055 77.0814L39.3352 84.8L39.126 84.4681C39.126 84.4681 55.974 63.4837 55.0633 18.541C55.8971 18.541 57.98 20.4163 57.98 20.4163L71.5173 76.8542L71.5222 76.8738Z" fill="#FCF1DC"/>
<path d="M20.6155 33.7685C25.2729 32.7762 29.9303 31.784 34.5879 30.7917C35.9016 30.5118 37.2153 30.2321 38.5289 29.9522C38.906 29.8719 39.1602 29.4099 39.0428 29.0471C38.9141 28.6495 38.5417 28.4472 38.1379 28.5332C33.4804 29.5255 28.823 30.5177 24.1654 31.51C22.8517 31.7899 21.538 32.0698 20.2244 32.3495C19.8474 32.4298 19.5931 32.8918 19.7105 33.2546C19.839 33.6522 20.2115 33.8545 20.6155 33.7685Z" fill="#F0DBC5"/>
<path d="M42.483 28.9685C45.7204 28.0935 48.9776 27.2936 52.2519 26.5693C52.6281 26.4861 52.8838 26.0289 52.7658 25.6642C52.6379 25.269 52.2639 25.0612 51.8607 25.1503C48.5864 25.8746 45.3291 26.6746 42.0918 27.5496C41.7203 27.65 41.456 28.0777 41.5779 28.4545C41.7014 28.8356 42.0849 29.0761 42.483 28.9685Z" fill="#F0DBC5"/>
<path d="M20.5349 38.4447C24.9072 37.4381 29.2797 36.4315 33.652 35.425C37.9978 34.4244 42.3438 33.424 46.6896 32.4236C49.1541 31.8563 51.6184 31.289 54.0829 30.7215C54.4583 30.635 54.7155 30.1834 54.5968 29.8165C54.4697 29.424 54.094 29.2101 53.6917 29.3027C49.3192 30.3093 44.9469 31.3159 40.5746 32.3224C36.2288 33.323 31.8828 34.3234 27.537 35.3238C25.0725 35.8911 22.6082 36.4585 20.1437 37.0259C19.7683 37.1124 19.5111 37.564 19.6298 37.9309C19.7568 38.3234 20.1325 38.5374 20.5349 38.4447Z" fill="#F0DBC5"/>
<path d="M21.6711 42.7625C23.9003 42.2854 26.1296 41.8081 28.359 41.3311C28.7358 41.2505 28.9902 40.7889 28.8728 40.4261C28.7443 40.0289 28.3716 39.8258 27.9679 39.9123C25.7387 40.3894 23.5094 40.8666 21.28 41.3437C20.9032 41.4243 20.6488 41.8858 20.7662 42.2486C20.8947 42.6459 21.2673 42.8488 21.6711 42.7625Z" fill="#F0DBC5"/>
<path d="M31.4475 40.2132C34.4727 39.4311 37.5019 38.6639 40.5349 37.912C43.5669 37.1605 46.6028 36.4242 49.6423 35.7032C51.3524 35.2976 53.0637 34.8969 54.7762 34.5009C55.1514 34.4141 55.4089 33.9632 55.29 33.596C55.1631 33.2038 54.7871 32.9891 54.3849 33.0821C51.342 33.7858 48.3025 34.5047 45.2667 35.2389C42.23 35.9733 39.197 36.7231 36.168 37.4881C34.4629 37.9187 32.759 38.3543 31.0564 38.7944C30.6838 38.8907 30.4215 39.3254 30.5425 39.6995C30.6668 40.0837 31.048 40.3165 31.4475 40.2132Z" fill="#F0DBC5"/>
<path d="M22.2379 47.6761C23.1451 47.902 24.0435 47.6344 24.9238 47.4158C25.7775 47.2039 26.6313 46.992 27.4851 46.7802C29.1793 46.3596 30.8738 45.9391 32.5681 45.5185C33.527 45.2804 34.4857 45.0425 35.4446 44.8045C35.8183 44.7118 36.0786 44.2709 35.9584 43.8996C35.833 43.5122 35.4537 43.2863 35.0533 43.3857C31.7434 44.2073 28.4335 45.0288 25.1236 45.8502C24.6578 45.9658 24.193 46.0876 23.7252 46.1953C23.6263 46.2181 23.5271 46.2396 23.4272 46.2583C23.3775 46.2676 23.3276 46.2763 23.2776 46.2839C23.395 46.2658 23.2329 46.2872 23.2112 46.289C23.0995 46.2982 22.9874 46.3021 22.8754 46.297C22.8268 46.2949 22.7755 46.2928 22.7271 46.2857C22.8543 46.3037 22.6498 46.2622 22.629 46.257C22.2562 46.1641 21.8136 46.3768 21.7241 46.7708C21.6372 47.1518 21.8383 47.5765 22.2379 47.6761Z" fill="#F0DBC5"/>
<path d="M39.8348 43.3457C44.0674 42.455 48.2782 41.4603 52.4617 40.3612C53.6581 40.0468 54.8523 39.7239 56.0443 39.3928C56.4149 39.2898 56.6806 38.8665 56.5582 38.4877C56.4355 38.109 56.0504 37.8635 55.6531 37.9738C51.4837 39.132 47.286 40.1882 43.0642 41.1386C41.8591 41.4098 40.6522 41.6724 39.4435 41.9268C39.0663 42.0061 38.8126 42.4697 38.9297 42.8317C39.0588 43.2303 39.4308 43.4307 39.8348 43.3457Z" fill="#F0DBC5"/>
<path d="M24.0457 52.1393C28.5207 51.0567 32.9955 49.974 37.4705 48.8913C41.9172 47.8156 46.3678 46.7543 50.8108 45.6627C53.1431 45.0896 55.4713 44.4321 57.6032 43.3005C57.9436 43.1199 58.0764 42.6184 57.8671 42.2939C57.644 41.9478 57.2246 41.8366 56.8605 42.03C56.6285 42.1531 56.3941 42.2717 56.1567 42.3843C56.044 42.4378 55.9307 42.4901 55.8171 42.5411C55.7602 42.5666 55.7033 42.5919 55.6462 42.6168C55.6353 42.6215 55.4368 42.707 55.5473 42.6603C55.0666 42.8638 54.576 43.0448 54.0818 43.2127C53.0923 43.5487 52.0837 43.8253 51.0709 44.0815C48.9013 44.6304 46.7211 45.1397 44.546 45.6658C40.0975 46.7421 35.6492 47.8183 31.2007 48.8946C28.6852 49.5031 26.1697 50.1118 23.6542 50.7203C23.2799 50.8109 23.0206 51.2555 23.1403 51.6254C23.2667 52.0146 23.6447 52.2364 24.0457 52.1393Z" fill="#F0DBC5"/>
<path d="M25.307 57.1809C27.5001 56.7002 29.6708 56.1221 31.8127 55.4492C32.1794 55.3341 32.452 54.9317 32.3266 54.5442C32.2074 54.176 31.8147 53.9069 31.4215 54.0304C29.2795 54.7033 27.1088 55.2814 24.9159 55.7621C24.5395 55.8446 24.2842 56.3029 24.402 56.6672C24.5301 57.0628 24.9038 57.2693 25.307 57.1809Z" fill="#F0DBC5"/>
<path d="M35.8222 54.5182C38.776 53.7408 41.7261 52.9485 44.6718 52.1409C47.6055 51.3365 50.5351 50.517 53.4604 49.6824C55.112 49.2112 56.7623 48.7351 58.4111 48.2545C58.7803 48.1469 59.0486 47.7314 58.925 47.3495C58.8036 46.9748 58.4157 46.7202 58.0199 46.8357C55.0858 47.6911 52.1475 48.5314 49.2048 49.3566C46.2761 50.1776 43.3434 50.9838 40.4066 51.7748C38.7494 52.2211 37.0908 52.6626 35.431 53.0994C35.0589 53.1973 34.7958 53.6293 34.9171 54.0045C35.041 54.3873 35.4233 54.6232 35.8222 54.5182Z" fill="#F0DBC5"/>
<path d="M26.1426 62.7846C30.3839 61.4647 34.6365 60.1766 38.8663 58.8206C40.0331 58.4465 41.1923 58.0471 42.3224 57.5723C42.6757 57.4238 42.9695 57.0792 42.8362 56.6672C42.7263 56.328 42.3111 55.9938 41.9313 56.1533C39.9148 57.0002 37.8093 57.6133 35.7234 58.2626C33.6023 58.9226 31.4811 59.5828 29.3599 60.2428C28.1571 60.617 26.9541 60.9914 25.7513 61.3658C25.3843 61.48 25.1122 61.8841 25.2375 62.2708C25.357 62.6399 25.749 62.9072 26.1426 62.7846Z" fill="#F0DBC5"/>
<path d="M48.3656 55.5061C51.045 54.789 53.7241 54.0718 56.4035 53.3547C57.1652 53.1508 57.9269 52.947 58.6888 52.7431C59.0604 52.6437 59.3244 52.2144 59.2026 51.8382C59.0792 51.4566 58.696 51.2177 58.2977 51.3243C55.6184 52.0414 52.9392 52.7586 50.2599 53.4757C49.4982 53.6796 48.7363 53.8835 47.9746 54.0873C47.6028 54.1869 47.3389 54.6161 47.4607 54.9924C47.5842 55.3739 47.9674 55.6127 48.3656 55.5061Z" fill="#F0DBC5"/>
<path d="M34.8312 65.4524C38.1145 64.5035 41.4069 63.5867 44.7084 62.7031C48.0227 61.816 51.346 60.9619 54.6774 60.141C56.5456 59.6807 58.4165 59.231 60.2896 58.7915C60.6646 58.7035 60.9226 58.2546 60.8035 57.8864C60.6769 57.4952 60.3002 57.2782 59.8984 57.3725C56.5711 58.1532 53.2515 58.9664 49.9403 59.8128C46.6162 60.6627 43.3005 61.5455 39.9939 62.4614C38.1395 62.9751 36.2883 63.4993 34.4398 64.0334C34.0703 64.1402 33.8025 64.5569 33.926 64.9383C34.0476 65.3141 34.4351 65.5668 34.8312 65.4524Z" fill="#F0DBC5"/>
<path d="M35.2969 70.4007C37.9633 69.6318 40.6295 68.8629 43.296 68.094C44.0634 67.8726 44.8307 67.6514 45.5981 67.4301C45.9676 67.3235 46.2354 66.9064 46.112 66.525C45.9905 66.1494 45.603 65.8968 45.2069 66.0111C42.5405 66.78 39.8742 67.5489 37.2078 68.3178C36.4404 68.5392 35.6731 68.7604 34.9056 68.9818C34.5362 69.0884 34.2683 69.5054 34.3918 69.8869C34.5134 70.2624 34.9007 70.515 35.2969 70.4007Z" fill="#F0DBC5"/>
<path d="M48.7038 66.3529C50.3049 65.7308 51.9903 65.3644 53.6558 64.9617C55.4026 64.5394 57.1492 64.1171 58.8959 63.6948C59.8751 63.4581 60.8544 63.2213 61.8336 62.9846C62.2078 62.8942 62.4671 62.4495 62.3475 62.0795C62.2216 61.6904 61.8434 61.4687 61.4424 61.5657C57.9743 62.4042 54.4934 63.2021 51.0372 64.0875C50.1152 64.3238 49.2003 64.5891 48.3127 64.9341C47.9551 65.0731 47.6679 65.4342 47.7988 65.8392C47.9113 66.1868 48.3197 66.5022 48.7038 66.3529Z" fill="#F0DBC5"/>
<path d="M36.0636 74.7481C39.4861 73.7442 42.9085 72.7402 46.3311 71.7364C49.7537 70.7325 53.1761 69.7285 56.5987 68.7247C58.532 68.1575 60.4653 67.5905 62.3986 67.0234C62.7676 66.9151 63.0362 66.5008 62.9124 66.1183C62.7913 65.744 62.403 65.4883 62.0073 65.6044C58.5848 66.6083 55.1624 67.6123 51.7398 68.6161C48.3172 69.62 44.8948 70.624 41.4723 71.6278C39.5389 72.195 37.6056 72.762 35.6723 73.3291C35.3033 73.4374 35.0347 73.8517 35.1585 74.2342C35.2796 74.6085 35.6679 74.8642 36.0636 74.7481Z" fill="#F0DBC5"/>
<path d="M108.84 53.9407C104.43 54.7325 100.02 55.5241 95.6106 56.3159C94.3545 56.5415 93.0984 56.767 91.8423 56.9925C91.4625 57.0606 91.2138 57.5433 91.3284 57.8976C91.4603 58.3052 91.8266 58.4845 92.2335 58.4114C96.6432 57.6196 101.053 56.828 105.463 56.0362C106.719 55.8106 107.975 55.5851 109.231 55.3597C109.611 55.2915 109.859 54.8088 109.745 54.4546C109.613 54.047 109.247 53.8678 108.84 53.9407Z" fill="#F0DBC5"/>
<path d="M88.0864 57.7985C85.0089 58.5245 81.915 59.1795 78.8073 59.7625C78.4281 59.8336 78.1782 60.3113 78.2934 60.6674C78.4245 61.0727 78.7922 61.2575 79.1985 61.1813C82.3062 60.5983 85.4002 59.9433 88.4776 59.2174C88.8525 59.129 89.1106 58.6808 88.9915 58.3123C88.8649 57.9214 88.4881 57.7036 88.0864 57.7985Z" fill="#F0DBC5"/>
<path d="M109.058 49.5363C104.91 50.3513 100.762 51.1665 96.6145 51.9815C92.4799 52.7939 88.3453 53.6065 84.2106 54.4189C81.8766 54.8775 79.5425 55.3361 77.2083 55.7948C76.83 55.8692 76.5786 56.3414 76.6945 56.6999C76.8248 57.1025 77.1941 57.2934 77.5994 57.2138C81.7474 56.3988 85.8954 55.5836 90.0434 54.7686C94.178 53.9562 98.3127 53.1436 102.447 52.3312C104.781 51.8726 107.115 51.414 109.45 50.9553C109.828 50.8809 110.079 50.4087 109.963 50.0503C109.833 49.6477 109.464 49.4567 109.058 49.5363Z" fill="#F0DBC5"/>
<path d="M108.118 45.4311C106.003 45.813 103.887 46.1949 101.772 46.5767C101.392 46.6452 101.143 47.1273 101.258 47.4818C101.39 47.8892 101.756 48.069 102.163 47.9956C104.278 47.6137 106.394 47.2318 108.509 46.85C108.889 46.7815 109.138 46.2994 109.023 45.9451C108.891 45.5375 108.525 45.3577 108.118 45.4311Z" fill="#F0DBC5"/>
<path d="M98.8276 47.5374C95.9493 48.1834 93.0677 48.815 90.183 49.432C87.3126 50.0459 84.4389 50.6454 81.5624 51.2306C79.9323 51.5621 78.3012 51.889 76.6693 52.2114C76.291 52.2861 76.0394 52.7576 76.1555 53.1165C76.2856 53.5187 76.6553 53.7104 77.0606 53.6303C79.9531 53.0589 82.8428 52.4733 85.7296 51.8728C88.604 51.2749 91.4753 50.6628 94.3435 50.0361C95.9696 49.6808 97.5947 49.3208 99.2188 48.9564C99.5947 48.872 99.8509 48.4168 99.7327 48.0513C99.605 47.6571 99.2304 47.447 98.8276 47.5374Z" fill="#F0DBC5"/>
<path d="M107.756 40.772C106.92 40.5356 106.069 40.7603 105.244 40.9368C104.437 41.1098 103.63 41.2826 102.823 41.4556C101.208 41.8014 99.5938 42.1473 97.9793 42.4931C97.053 42.6916 96.1266 42.8901 95.2004 43.0884C94.8236 43.1692 94.5692 43.6305 94.6866 43.9935C94.8151 44.3908 95.1879 44.5938 95.5917 44.5074C98.7412 43.8326 101.891 43.1579 105.04 42.4833C105.481 42.3888 105.922 42.2879 106.365 42.2015C106.463 42.1823 106.561 42.1635 106.66 42.1499C106.626 42.1545 106.537 42.1609 106.686 42.149C106.735 42.145 106.785 42.1406 106.834 42.1383C106.945 42.1331 107.053 42.1416 107.164 42.1431C107.249 42.1442 107.168 42.1431 107.15 42.1397C107.223 42.1537 107.293 42.1707 107.365 42.191C107.735 42.2956 108.182 42.0628 108.27 41.6771C108.359 41.2861 108.153 40.884 107.756 40.772Z" fill="#F0DBC5"/>
<path d="M91.0188 44.3301C86.9939 45.0425 82.9869 45.8537 79.0024 46.7649C77.8741 47.0229 76.7477 47.289 75.623 47.5626C75.2488 47.6536 74.9893 48.0973 75.1091 48.4675C75.2349 48.8563 75.6132 49.079 76.0142 48.9814C79.9874 48.0146 83.9842 47.1452 88.0004 46.3766C89.1355 46.1593 90.2722 45.9503 91.4101 45.7489C91.79 45.6817 92.0384 45.1975 91.9239 44.844C91.7917 44.4356 91.4259 44.258 91.0188 44.3301Z" fill="#F0DBC5"/>
<path d="M106.166 36.5239C101.933 37.4045 97.7012 38.2849 93.4688 39.1655C89.2451 40.0442 85.0187 40.9106 80.7978 41.8026C78.5579 42.2759 76.3306 42.8306 74.2647 43.8428C73.9183 44.0125 73.7963 44.5324 74.0009 44.8495C74.2297 45.2046 74.6368 45.295 75.0075 45.1133C75.2344 45.0022 75.464 44.8977 75.6948 44.795C75.7074 44.7895 75.8235 44.7396 75.7275 44.7803C75.7854 44.7558 75.8438 44.7321 75.902 44.7084C76.0301 44.6564 76.1588 44.6059 76.288 44.5568C76.7574 44.3784 77.2338 44.2194 77.7144 44.0745C78.6645 43.7884 79.6304 43.5587 80.5996 43.3476C82.6601 42.899 84.7283 42.484 86.7929 42.0545C91.0118 41.1767 95.2306 40.299 99.4496 39.4213C101.819 38.9284 104.187 38.4356 106.556 37.9427C106.934 37.8642 107.187 37.3991 107.07 37.0376C106.941 36.6387 106.57 36.4399 106.166 36.5239Z" fill="#F0DBC5"/>
<path d="M105.13 31.7334C103.049 32.1198 100.986 32.5986 98.9469 33.1676C98.5765 33.2709 98.3105 33.6936 98.4331 34.0725C98.5555 34.4509 98.9409 34.6972 99.3382 34.5864C101.377 34.0174 103.44 33.5386 105.522 33.1522C105.901 33.0818 106.151 32.6029 106.036 32.2471C105.904 31.8413 105.537 31.6579 105.13 31.7334Z" fill="#F0DBC5"/>
<path d="M95.1406 33.9227C92.3425 34.5633 89.5478 35.2181 86.7565 35.8874C83.9642 36.5569 81.1753 37.2408 78.3902 37.9391C76.8131 38.3344 75.2374 38.7345 73.6628 39.1388C73.29 39.2346 73.0281 39.6703 73.1489 40.0437C73.2735 40.4284 73.6544 40.6603 74.054 40.5576C76.8357 39.8431 79.621 39.1427 82.4098 38.4569C85.1977 37.7712 87.9892 37.0999 90.784 36.443C92.3654 36.0712 93.9482 35.7041 95.5318 35.3417C95.9074 35.2557 96.1644 34.8033 96.0457 34.4366C95.9185 34.0435 95.5429 33.8305 95.1406 33.9227Z" fill="#F0DBC5"/>
<path d="M104.513 26.4268C100.466 27.5442 96.4097 28.6306 92.373 29.7839C91.2719 30.0985 90.1771 30.4376 89.1071 30.847C88.7487 30.984 88.4626 31.3486 88.5932 31.7521C88.7062 32.1014 89.1135 32.4131 89.4983 32.2659C91.4125 31.5338 93.4022 31.0222 95.3751 30.4773C97.3965 29.9191 99.4178 29.3608 101.439 28.8026C102.594 28.4837 103.749 28.1647 104.904 27.8457C105.275 27.7434 105.541 27.3189 105.418 26.9406C105.296 26.5615 104.911 26.3171 104.513 26.4268Z" fill="#F0DBC5"/>
<path d="M83.3497 32.6107C80.0788 33.374 76.8082 34.1374 73.5373 34.9007C73.1623 34.9882 72.9044 35.438 73.0235 35.8057C73.1502 36.1972 73.5265 36.4134 73.9286 36.3195C77.1992 35.5562 80.4701 34.7928 83.7408 34.0295C84.1158 33.942 84.3737 33.4922 84.2546 33.1244C84.1279 32.733 83.7516 32.5168 83.3497 32.6107Z" fill="#F0DBC5"/>
<path d="M96.4069 23.649C93.2736 24.4461 90.1322 25.2124 86.9837 25.9471C83.8482 26.6787 80.7054 27.3791 77.556 28.0483C75.777 28.4263 73.9959 28.7942 72.2129 29.1522C71.8349 29.2281 71.5826 29.6976 71.699 30.0572C71.8288 30.4584 72.1991 30.6525 72.6041 30.571C75.7741 29.9344 78.9377 29.2665 82.0942 28.5669C85.2377 27.8703 88.3742 27.1424 91.5033 26.3835C93.2707 25.9548 95.0357 25.516 96.7982 25.0677C97.1713 24.9729 97.4327 24.5357 97.312 24.1627C97.1871 23.7776 96.8067 23.5474 96.4069 23.649Z" fill="#F0DBC5"/>
<path d="M96.1185 18.9723C92.8525 19.801 89.5866 20.6298 86.3205 21.4585C85.9474 21.5532 85.6859 21.9907 85.8066 22.3636C85.9313 22.7493 86.3118 22.9788 86.7115 22.8775C89.9775 22.0487 93.2436 21.22 96.5095 20.3911C96.8826 20.2964 97.1441 19.8589 97.0234 19.4861C96.8987 19.1004 96.5182 18.8707 96.1185 18.9723Z" fill="#F0DBC5"/>
<path d="M83.3606 22.379C81.8169 22.9218 80.2001 23.2175 78.6018 23.5498C76.9577 23.8916 75.3134 24.2333 73.6693 24.5752C72.7412 24.7681 71.813 24.961 70.8849 25.1541C70.5075 25.2326 70.2541 25.6977 70.371 26.0592C70.5002 26.4583 70.8716 26.6571 71.2759 26.5731C74.5509 25.8923 77.8353 25.2463 81.1016 24.5255C81.9969 24.3278 82.8863 24.1024 83.7518 23.798C84.1139 23.6706 84.3938 23.2893 84.2657 22.893C84.1499 22.5351 83.7494 22.2423 83.3606 22.379Z" fill="#F0DBC5"/>
<path d="M95.5278 14.8516C92.2643 15.6946 88.9747 16.4303 85.6803 17.1412C82.3838 17.8526 79.0818 18.5397 75.7935 19.2885C73.9498 19.7084 72.1105 20.148 70.2795 20.621C69.9069 20.7173 69.6447 21.152 69.7657 21.5261C69.8901 21.9105 70.2713 22.1431 70.6708 22.0399C73.9343 21.197 77.2239 20.4613 80.5183 19.7504C83.8148 19.039 87.1167 18.3517 90.4051 17.6031C92.2488 17.1832 94.0881 16.7436 95.919 16.2706C96.2916 16.1743 96.5539 15.7396 96.4329 15.3655C96.3085 14.9811 95.9272 14.7485 95.5278 14.8516Z" fill="#F0DBC5"/>
<path d="M130.369 19.7865C130.369 19.7865 134.219 16.9775 134.494 17.012C134.77 17.0464 136.372 17.6662 135.451 18.8809C134.53 20.0957 131.601 21.6899 131.248 22.2757C130.895 22.8613 130.369 19.7865 130.369 19.7865Z" fill="#7A8583"/>
<path d="M129.793 22.4443C129.793 22.4443 130.453 26.4107 130.362 27.1341C130.272 27.8578 119.37 36.1552 118.75 36.0777C118.129 36.0004 117.69 34.476 118.62 33.7522C119.55 33.0284 127.843 27.1348 128.204 26.7601C128.566 26.3853 127.803 24.0856 127.803 24.0856L129.793 22.4443Z" fill="#7A8583"/>
<path d="M132.351 22.9733C132.2 23.1278 130.434 24.3562 127.723 26.2045C127.165 26.5854 126.568 26.9923 125.936 27.4202C114.838 34.9548 93.2093 49.3715 92.7456 49.3136C92.4901 49.2827 91.1246 49.6767 89.6071 50.0959C87.427 50.6992 84.9334 51.3538 84.9943 50.8656C85.0443 50.4605 86.3686 48.7499 87.7004 47.1131C88.2172 46.478 88.7383 45.8544 89.1875 45.3222C89.9419 44.424 90.4948 43.7841 90.4948 43.7841L95.7654 40.2433C95.7654 40.2433 113.117 29.2409 122.869 22.992C126.438 20.7041 128.99 19.0539 129.3 18.8126C130.463 17.9077 133.073 22.2226 132.351 22.9733Z" fill="#B2C2BF"/>
<path d="M127.723 26.2054C127.165 26.5863 126.568 26.9933 125.936 27.4211C114.838 34.9557 93.2093 49.3724 92.7456 49.3145C92.4901 49.2836 91.1246 49.6776 89.6071 50.0968C87.427 50.7001 84.9334 51.3547 84.9943 50.8666C85.0443 50.4614 86.3686 48.7508 87.7004 47.1141C88.2172 46.4789 88.7383 45.8553 89.1875 45.3232C90.3699 45.2833 95.8124 44.9713 100.373 42.6469C105.522 40.025 126.719 25.0479 126.719 25.0479L127.723 26.2054Z" fill="#909E9B"/>
<path d="M132.35 22.9737C132.169 23.1602 129.639 24.9075 125.935 27.421L125.917 27.4187C125.092 25.5529 123.393 23.5779 122.869 22.9936C126.438 20.7054 128.99 19.0549 129.3 18.8134C130.463 17.9091 133.073 22.2236 132.35 22.9737Z" fill="#8A9694"/>
<path d="M89.6076 50.097C87.4265 50.7015 84.9328 51.3559 84.9938 50.8676C85.0443 50.4619 86.3681 48.7521 87.7011 47.1143C88.1227 48.0797 89.0025 49.3082 89.6076 50.097Z" fill="#8A9694"/>
<path d="M139.845 73.6984L127.401 80.2251C123.322 76.3503 113.53 72.4738 111.083 70.6378C108.635 68.8018 104.148 58.3987 104.148 58.3987C104.148 58.3987 100.271 54.3195 99.6597 53.5037C99.0466 52.6879 95.3761 50.2387 93.9472 48.2C92.5199 46.1596 92.927 43.7121 94.3559 43.5077C95.7832 43.3034 100.68 45.5481 101.087 45.7508C101.496 45.9552 107.002 51.2589 108.431 51.4633C109.858 51.6677 113.53 49.0158 113.735 46.3639C113.939 43.7121 107.82 35.5521 106.391 35.1434C104.963 34.7363 100.488 36.1298 100.488 36.1298C100.488 36.1298 98.9578 36.8818 97.7332 38.7179C96.5103 40.5523 94.1952 40.9961 93.175 40.7934C92.1565 40.589 95.9876 34.5319 96.3947 33.9205C96.8034 33.3074 107.615 28.208 108.431 28.208C108.737 28.208 111.255 29.9312 114.281 32.1269C115.126 32.74 116.009 33.3891 116.897 34.0496C121.3 37.3244 125.77 40.8379 125.77 41.263C125.77 41.9562 125.917 53.8045 126.584 59.499C126.585 59.5006 126.584 59.5023 126.584 59.5023C126.69 60.4129 126.811 61.1634 126.945 61.6898C126.961 61.7519 126.978 61.8108 126.994 61.8664C128.014 65.3341 139.845 73.6984 139.845 73.6984Z" fill="#FFD1A3"/>
<path d="M146.822 77.1231C146.822 77.1231 142.668 81.5947 138.836 84.5408C137.67 85.4384 136.532 86.1937 135.553 86.6401L123.781 78.3755L133.798 68.1064L134.793 68.7948L146.822 77.1231Z" fill="#7B99E3"/>
<path d="M53.5575 67.9113C53.5575 67.9113 53.5575 77.9073 53.5575 78.3144C53.5575 78.7232 49.0696 95.2458 48.2538 96.4704C47.5377 97.5445 42.4219 104.903 40.4895 107.653C40.2213 108.036 40.0137 108.33 39.8894 108.505C39.7766 108.664 39.6654 108.868 39.5575 109.105C38.6992 111.003 38.0534 115.033 38.0534 115.033C35.4015 115.645 23.1624 113.604 23.1624 113.604C23.1624 113.604 24.9985 106.262 24.9985 104.629C24.9985 102.997 20.3078 88.7175 20.3078 88.7175C20.3078 88.7175 15.0041 80.5592 16.227 78.3144C17.0183 76.8642 19.0898 73.9622 20.4533 72.0935C20.455 72.0935 20.455 72.0919 20.455 72.0919C21.2005 71.0717 21.7351 70.3588 21.7351 70.3588C21.7351 70.3588 22.2599 68.7811 22.5003 68.0634C22.5183 68.0078 22.5362 67.9555 22.551 67.9113C22.6605 67.5811 23.9554 66.5413 25.35 65.4589C25.35 65.4573 25.3516 65.4573 25.3516 65.4573C26.0644 64.9063 26.8051 64.3406 27.4231 63.8583L27.4247 63.8567C27.84 63.5297 28.2013 63.242 28.4662 63.0147C29.3081 62.2937 30.3627 62.2103 31.0853 62.2643C31.5905 62.3003 31.9338 62.4032 31.9338 62.4032C32.0205 62.2725 32.6892 61.8016 33.6898 61.1378C37.3847 58.6887 45.6019 53.6318 45.6019 53.6318C45.6019 53.6318 46.4733 56.7513 44.8024 58.7541C44.0978 59.5977 36.8239 64.6447 36.6261 65.2595C34.7901 70.9703 40.2982 86.8815 42.3386 87.6989C44.3773 88.5148 47.2336 81.375 47.2336 81.375C47.2336 81.375 47.845 74.6424 49.0696 71.7878C50.2942 68.9315 53.5575 67.9113 53.5575 67.9113Z" fill="#FFD1A3"/>
<path d="M38.8756 113.188L36.1208 129.718C36.1208 129.718 34.6673 129.718 32.4324 129.449C28.9483 129.03 23.5678 127.956 18.8379 125.209L22.6015 111.929L23.0969 110.183L38.8756 113.188Z" fill="#7B99E3"/>
<path d="M33.5574 61.2634C32.6827 61.8683 31.9372 62.658 31.3486 63.5408C28.7556 67.4336 29.2052 72.3172 30.0047 76.6923C30.0521 76.9538 29.936 77.2203 29.663 77.2955C29.4227 77.3609 29.1071 77.2138 29.0581 76.9522C28.79 75.4791 28.5578 73.9962 28.4499 72.5019C28.2799 70.1378 28.4433 67.705 29.2821 65.4684C29.717 64.3093 30.3153 63.2171 31.0854 62.264C31.8834 61.7812 33.6081 61.2274 33.5574 61.2634Z" fill="#FAC48E"/>
<path d="M26.0189 66.4334C24.6717 70.1137 25.2799 74.0833 25.8799 77.8485C25.9225 78.1101 25.8162 78.375 25.5382 78.4518C25.3028 78.5156 24.9758 78.3701 24.935 78.1085C24.742 76.9035 24.5507 75.697 24.4134 74.4838C24.075 71.4886 24.1289 68.2449 25.3502 65.459C25.3502 65.4574 25.3519 65.4574 25.3519 65.4574C26.0647 64.9064 26.8053 64.3407 27.4233 63.8584C26.8298 64.6399 26.3573 65.5113 26.0189 66.4334Z" fill="#FAC48E"/>
<path d="M20.813 74.4257C20.5972 75.2448 20.4778 76.0622 20.5105 76.9108C20.5694 78.5081 21.1334 80.0547 22.0899 81.3333C22.2501 81.5458 22.1226 81.881 21.9133 82.0036C21.6664 82.1491 21.4016 82.0395 21.243 81.8286C20.6609 81.0504 20.2211 80.1725 19.9301 79.2471C19.6718 78.4296 19.5345 77.5664 19.523 76.7097C19.5116 75.781 19.6734 74.8704 19.9187 73.9777C20.092 73.3482 20.2718 72.7204 20.4533 72.0926C20.4549 72.0926 20.4549 72.091 20.4549 72.091C21.0788 70.1917 22.1224 68.6751 22.5002 68.0625C22.5705 68.1639 22.6 68.2963 22.5542 68.4516C22.2436 69.5111 21.9346 70.5705 21.6239 71.6299C21.3509 72.5602 21.0615 73.4872 20.813 74.4257Z" fill="#FAC48E"/>
<path d="M40.4897 107.653C40.2216 108.036 40.0139 108.33 39.8897 108.505C39.7769 108.664 39.6657 108.868 39.5578 109.105C38.2645 109.601 36.9272 109.981 35.5685 110.243C35.307 110.292 35.0388 110.173 34.9653 109.9C34.8982 109.659 35.047 109.347 35.307 109.296C36.0018 109.162 36.6917 109.001 37.3719 108.804C38.4395 108.499 39.4809 108.113 40.4897 107.653Z" fill="#FAC48E"/>
<path d="M126.945 61.6905C126.492 63.1472 126.016 64.5974 125.514 66.0394C125.428 66.2895 125.181 66.4563 124.911 66.3811C124.667 66.3141 124.481 66.028 124.569 65.7778C125.29 63.7031 125.962 61.6104 126.583 59.5029C126.69 60.4136 126.811 61.164 126.945 61.6905Z" fill="#FAC48E"/>
<path d="M121.485 40.3745C121.307 40.5544 120.967 40.574 120.792 40.3745C120.166 39.6617 119.551 38.9407 118.945 38.2099C117.315 36.2431 115.758 34.2125 114.28 32.1279C115.126 32.741 116.008 33.3901 116.896 34.0506C118.358 35.9831 119.888 37.86 121.485 39.6813C121.66 39.8808 121.683 40.1767 121.485 40.3745Z" fill="#FAC48E"/>
<path d="M130.369 19.7865C130.369 19.7865 134.219 16.9775 134.494 17.012C134.77 17.0464 136.372 17.6662 135.451 18.8809C134.53 20.0957 131.601 21.6899 131.248 22.2757C130.895 22.8613 130.369 19.7865 130.369 19.7865Z" fill="#4B5250"/>
<path d="M130.795 21.7764C130.795 21.7764 131.454 25.7427 131.364 26.4662C131.274 27.1898 120.372 35.4872 119.751 35.4099C119.131 35.3326 118.692 33.8082 119.622 33.0844C120.552 32.3606 128.845 26.467 129.207 26.0921C129.568 25.7174 128.805 23.4177 128.805 23.4177L130.795 21.7764Z" fill="#4B5250"/>
<path d="M129.3 18.8137C128.99 19.055 126.438 20.7052 122.869 22.9931C117.18 26.6382 108.907 31.9 102.999 35.6529C104.699 36.8243 106.304 38.1321 107.835 39.568C114.105 35.4012 121.043 30.7425 125.936 27.421C126.568 26.9929 127.165 26.5862 127.722 26.2052C130.434 24.3569 132.2 23.1286 132.35 22.9741C133.073 22.2232 130.462 17.9083 129.3 18.8137Z" fill="#B2C2BF"/>
<path d="M126.719 25.0479C126.719 25.0479 114.978 33.3437 106.85 38.668C107.182 38.9616 107.509 39.2629 107.835 39.5682C114.105 35.4014 121.043 30.7427 125.936 27.4211C126.568 26.9931 127.165 26.5863 127.723 26.2054L126.719 25.0479Z" fill="#909E9B"/>
<path d="M132.35 22.9737C132.169 23.1602 129.639 24.9075 125.935 27.421L125.917 27.4187C125.092 25.5529 123.393 23.5779 122.869 22.9936C126.438 20.7054 128.99 19.0549 129.3 18.8134C130.463 17.9091 133.073 22.2236 132.35 22.9737Z" fill="#5B6362"/>
<path d="M89.6076 50.097C87.4265 50.7015 84.9328 51.3559 84.9938 50.8676C85.0443 50.4619 86.3681 48.7521 87.7011 47.1143C88.1227 48.0797 89.0025 49.3082 89.6076 50.097Z" fill="#464D4C"/>
<path d="M38.8757 113.188L36.1208 129.718C36.1208 129.718 34.6674 129.718 32.4324 129.449C33.2482 126.728 35.238 119.33 33.6161 116.695C32.0466 114.144 25.4055 112.516 22.6016 111.929L23.0969 110.183L38.8757 113.188Z" fill="#6581C7"/>
<path d="M138.836 84.5408C137.67 85.4384 136.532 86.1937 135.553 86.6401L123.781 78.3755L133.798 68.1064L134.793 68.7948C133.055 70.4264 129 74.602 129.791 77.3732C130.617 80.2622 136.717 83.4928 138.836 84.5408Z" fill="#6581C7"/>
</svg>
