<svg width="243" height="243" viewBox="0 0 243 243" fill="none" xmlns="http://www.w3.org/2000/svg">
<g clip-path="url(#clip0_346_3302)">
<g style="mix-blend-mode:multiply">
<path d="M243 243H0V0H243V243Z" fill="white"/>
</g>
<path d="M73.6537 181.308H48.4412C44.9599 181.308 42.1431 178.491 42.1431 175.01V159.19C42.1431 155.708 44.9599 152.892 48.4412 152.892H73.6537C77.1351 152.892 79.9618 155.708 79.9618 159.19V175.01C79.9618 178.491 77.1351 181.308 73.6537 181.308Z" fill="#99CFFF"/>
<path fill-rule="evenodd" clip-rule="evenodd" d="M73.6538 181.724H48.4413C44.7417 181.724 41.7266 178.709 41.7266 175.009V159.189C41.7266 155.49 44.7417 152.475 48.4413 152.475H73.6538C77.3633 152.475 80.3784 155.49 80.3784 159.189V175.009C80.3784 178.709 77.3633 181.724 73.6538 181.724ZM48.4413 153.298C45.198 153.298 42.5498 155.946 42.5498 159.189V175.009C42.5498 178.252 45.198 180.901 48.4413 180.901H73.6538C76.907 180.901 79.5453 178.252 79.5453 175.009V159.189C79.5453 155.946 76.907 153.298 73.6538 153.298H48.4413Z" fill="#3C3F54"/>
<path d="M188.429 73.0876H63.1205C53.6187 73.0876 45.9121 65.3811 45.9121 55.8793C45.9121 46.3775 53.6187 38.6709 63.1205 38.6709H188.429C197.931 38.6709 205.637 46.3775 205.637 55.8793C205.637 65.3811 197.931 73.0876 188.429 73.0876Z" fill="#99CFFF"/>
<path fill-rule="evenodd" clip-rule="evenodd" d="M188.429 73.4947H63.1205C53.4005 73.4947 45.4956 65.5898 45.4956 55.8797C45.4956 46.1597 53.4005 38.2646 63.1205 38.2646H188.429C198.149 38.2646 206.054 46.1597 206.054 55.8797C206.054 65.5898 198.149 73.4947 188.429 73.4947ZM63.1205 39.0879C53.8568 39.0879 46.3287 46.6159 46.3287 55.8797C46.3287 65.1335 53.8568 72.6715 63.1205 72.6715H188.429C197.693 72.6715 205.221 65.1335 205.221 55.8797C205.221 46.6159 197.693 39.0879 188.429 39.0879H63.1205Z" fill="#3C3F54"/>
<path d="M187.388 67.5935H94.4921C88.2237 67.5935 83.1455 62.5153 83.1455 56.2468C83.1455 49.9884 88.2237 44.9102 94.4921 44.9102H187.388C193.656 44.9102 198.734 49.9884 198.734 56.2468C198.734 62.5153 193.656 67.5935 187.388 67.5935Z" fill="white"/>
<path fill-rule="evenodd" clip-rule="evenodd" d="M187.388 68.0096H94.4922C88.0056 68.0096 82.729 62.733 82.729 56.2464C82.729 49.7697 88.0056 44.4932 94.4922 44.4932H187.388C193.874 44.4932 199.151 49.7697 199.151 56.2464C199.151 62.733 193.874 68.0096 187.388 68.0096ZM94.4922 45.3164C88.4618 45.3164 83.5621 50.226 83.5621 56.2464C83.5621 62.2768 88.4618 67.1765 94.4922 67.1765H187.388C193.418 67.1765 198.318 62.2768 198.318 56.2464C198.318 50.226 193.418 45.3164 187.388 45.3164H94.4922Z" fill="#3C3F54"/>
<path d="M87.8667 114.199H165.25V139.144H150.729V178.232H102.447V139.144H87.9758L87.8667 114.199Z" fill="#FF758E"/>
<path d="M87.8669 114.2H77.5518L97.8348 62.7531C98.0828 62.1084 97.6563 61.4142 96.9719 61.3348C92.7963 60.829 89.9795 66.0659 88.2735 70.1126C85.6749 69.458 83.0069 71.1937 81.9952 73.0881H67.2267L49.6712 116.203C45.6345 127.361 53.8965 139.144 65.7588 139.144H87.976L87.8669 114.2Z" fill="white"/>
<path fill-rule="evenodd" clip-rule="evenodd" d="M87.9758 139.551H65.7587C59.9664 139.551 54.7394 136.833 51.4167 132.092C48.0842 127.351 47.3105 121.509 49.2843 116.064L66.8398 72.9291C66.9092 72.7704 67.058 72.6713 67.2266 72.6713H81.757C82.8877 70.7868 85.4863 69.1899 88.0254 69.6362C89.1561 66.988 92.1614 60.3427 97.0214 60.9279C97.4876 60.9775 97.8843 61.2354 98.1124 61.6321C98.3505 62.0189 98.3802 62.4752 98.2215 62.9017L78.1567 113.783H87.8667C88.0949 113.783 88.2833 113.971 88.2833 114.199L88.3924 139.134C88.3924 139.243 88.3527 139.352 88.2734 139.432C88.194 139.511 88.0849 139.551 87.9758 139.551ZM67.5043 73.4945L50.0579 116.362C48.1834 121.529 48.9173 127.103 52.0912 131.616C55.2551 136.139 60.2441 138.728 65.7587 138.728H87.5593L87.4601 114.606H77.5516C77.4128 114.606 77.2838 114.547 77.2045 114.428C77.1251 114.318 77.1152 114.17 77.1648 114.041L97.4479 62.5942C97.5272 62.4157 97.5074 62.2173 97.4082 62.0586C97.2991 61.8801 97.1305 61.771 96.9222 61.7412C93.9368 61.3841 91.2291 64.1712 88.6503 70.271C88.5709 70.4595 88.3726 70.5586 88.1742 70.509C85.8136 69.9139 83.3142 71.491 82.3521 73.2763C82.2827 73.4151 82.1438 73.4945 81.9951 73.4945H67.5043Z" fill="#3C3F54"/>
<path d="M165.19 114.2H175.505L154.3 61.643C153.973 60.8495 154.498 59.9568 155.351 59.8576C159.428 59.4113 162.473 63.6068 164.784 70.1132C167.392 69.2503 170.06 71.1943 171.072 73.0888H185.84L203.386 116.204C207.423 127.362 199.161 139.145 187.298 139.145H165.081L165.19 114.2Z" fill="white"/>
<path fill-rule="evenodd" clip-rule="evenodd" d="M187.299 139.551H165.081C164.962 139.551 164.863 139.512 164.784 139.432C164.705 139.353 164.665 139.244 164.665 139.135L164.774 114.2C164.774 113.972 164.962 113.783 165.191 113.783H174.891L153.913 61.8012C153.705 61.2953 153.755 60.7399 154.032 60.2737C154.31 59.8076 154.776 59.51 155.302 59.4505C159.16 59.024 162.433 62.4459 165.042 69.6069C167.511 69.0416 170.12 70.6682 171.31 72.6717H185.841C186.009 72.6717 186.158 72.7709 186.227 72.9296L203.763 116.045C205.747 121.51 204.963 127.352 201.641 132.093C198.318 136.834 193.091 139.551 187.299 139.551ZM165.488 138.728H187.299C192.813 138.728 197.792 136.139 200.966 131.617C204.13 127.104 204.874 121.53 202.999 116.342L185.563 73.4949H171.072C170.923 73.4949 170.784 73.4156 170.705 73.2767C169.852 71.6799 167.412 69.6863 164.913 70.5095C164.695 70.5789 164.466 70.4599 164.397 70.2516C161.908 63.2492 158.882 59.8869 155.391 60.2737C155.123 60.3035 154.885 60.4523 154.746 60.6903C154.598 60.9383 154.568 61.2259 154.677 61.4937L175.892 114.041C175.942 114.17 175.922 114.319 175.853 114.428C175.773 114.537 175.644 114.607 175.506 114.607H165.597L165.488 138.728Z" fill="#3C3F54"/>
<path d="M102.447 178.232L97.686 212.629L167.779 212.619L150.729 178.232H102.447Z" fill="#3C3F54"/>
<path d="M129.345 85.1982C133.104 81.0622 125.933 72.0266 118.574 77.6304C112.643 75.3492 104.192 82.1334 105.858 88.6497C101.108 90.5045 106.84 101.316 112.97 101.99C112.95 102.01 128.383 89.4531 128.383 89.4531L129.345 85.1982Z" fill="#3C3F54"/>
<path d="M115.033 114.348L116.749 112.325C117.632 111.293 117.959 109.895 117.632 108.576L116.927 105.769C113.476 107.029 110.421 102.555 114.914 99.4509C114.914 99.4509 116.233 94.3926 108.199 92.0221C115.698 92.3692 125.725 88.9275 129.345 85.1982C134.027 93.4404 136.784 102.664 130.476 104.777L131.904 108.923C132.231 109.875 132.886 110.669 133.739 111.174L138.827 114.2C140.226 119.853 136.189 126.528 129.296 128.224C122.521 129.9 114.656 122.035 115.033 114.348Z" fill="white"/>
<path fill-rule="evenodd" clip-rule="evenodd" d="M127.411 128.869C125.011 128.869 122.472 127.877 120.21 126.002C116.61 123.047 114.418 118.464 114.626 114.318C114.626 114.229 114.656 114.15 114.716 114.08L116.441 112.057C117.235 111.125 117.523 109.855 117.225 108.675L116.63 106.285C115.013 106.681 113.377 105.987 112.623 104.539C111.929 103.2 112.028 101.018 114.537 99.2128C114.676 98.3994 114.964 94.4519 108.08 92.4187C107.882 92.3592 107.763 92.1608 107.793 91.9624C107.832 91.7541 107.991 91.6054 108.219 91.6153C115.271 91.9426 125.388 88.6794 129.048 84.9105C129.137 84.8212 129.266 84.7716 129.395 84.7915C129.524 84.8113 129.643 84.8807 129.702 84.9997C132.132 89.2646 135.921 97.1398 134.086 101.92C133.531 103.378 132.489 104.42 131.002 105.025L132.301 108.794C132.589 109.647 133.174 110.361 133.947 110.827L139.035 113.842C139.135 113.902 139.204 113.991 139.234 114.1C139.938 116.967 139.313 120.18 137.518 122.918C135.653 125.764 132.767 127.797 129.395 128.631C128.75 128.789 128.086 128.869 127.411 128.869ZM115.44 114.507C115.301 118.355 117.374 122.6 120.736 125.367C123.434 127.589 126.518 128.492 129.196 127.827C132.36 127.044 135.068 125.139 136.824 122.471C138.46 119.972 139.055 117.066 138.47 114.467L133.531 111.531C132.589 110.976 131.874 110.093 131.517 109.062L130.089 104.906C130.049 104.807 130.059 104.688 130.109 104.589C130.159 104.489 130.238 104.42 130.347 104.38C131.805 103.894 132.807 102.972 133.313 101.633C134.542 98.4391 133.055 92.7063 129.246 85.8725C125.556 89.2745 117.314 92.1112 110.5 92.4286C116.392 95.0966 115.331 99.5103 115.311 99.5599C115.291 99.6492 115.231 99.7384 115.152 99.788C112.95 101.315 112.782 103.041 113.357 104.162C113.892 105.194 115.241 105.947 116.779 105.382C116.898 105.342 117.017 105.352 117.116 105.402C117.225 105.461 117.294 105.551 117.324 105.67L118.028 108.467C118.395 109.915 118.028 111.462 117.066 112.593L115.44 114.507Z" fill="#3C3F54"/>
<path d="M126.34 106.007C125.616 106.007 124.931 105.947 124.277 105.868C124.049 105.838 123.89 105.63 123.92 105.401C123.939 105.173 124.148 105.015 124.376 105.044C126.588 105.322 128.561 105.273 131.061 104.092C131.269 103.993 131.517 104.082 131.616 104.291C131.706 104.499 131.616 104.737 131.418 104.836C129.504 105.739 127.837 106.007 126.34 106.007Z" fill="#3C3F54"/>
<path d="M132.291 95.682C132.265 95.682 132.238 95.682 132.212 95.682C131.994 95.6423 131.835 95.4241 131.884 95.196L132.172 93.5694C132.212 93.3413 132.073 93.1231 131.865 93.0834C130.179 92.7263 128.968 91.7543 128.532 90.4153C128.116 89.0863 128.492 87.5985 129.564 86.4381C129.712 86.2695 129.98 86.2595 130.149 86.4083C130.317 86.567 130.327 86.8249 130.169 86.9935C129.306 87.9357 128.988 89.116 129.326 90.1575C129.663 91.2286 130.625 91.9725 132.033 92.2701C132.678 92.4089 133.104 93.0536 132.985 93.7082L132.698 95.3448C132.658 95.5431 132.48 95.682 132.291 95.682Z" fill="#3C3F54"/>
<path d="M131.725 99.5993C131.438 99.5993 131.16 99.5497 130.882 99.4406C130.674 99.3513 130.575 99.1133 130.654 98.905C130.743 98.6868 130.982 98.5876 131.2 98.6769C131.547 98.8157 131.934 98.8058 132.251 98.667C132.509 98.5479 132.697 98.3496 132.777 98.1214C132.856 97.9032 133.084 97.7941 133.302 97.8636C133.521 97.9429 133.63 98.181 133.56 98.3892C133.412 98.8356 133.054 99.2025 132.598 99.4108C132.321 99.5398 132.023 99.5993 131.725 99.5993Z" fill="#3C3F54"/>
<path d="M120.795 94.1846C120.749 94.1846 120.706 94.178 120.666 94.1647C120.448 94.0854 120.329 93.8573 120.399 93.6391C120.815 92.3893 121.906 90.3164 124.535 90.3164C124.548 90.3164 124.561 90.3164 124.574 90.3164C124.802 90.3164 124.981 90.5049 124.981 90.733C124.981 90.9512 124.793 91.1396 124.574 91.1396C124.564 91.1396 124.545 91.1396 124.535 91.1396C122.531 91.1396 121.609 92.6373 121.182 93.8969C121.123 94.0755 120.964 94.1846 120.795 94.1846Z" fill="#3C3F54"/>
<path d="M124.832 93.4897C125.08 94.0749 124.892 94.6998 124.416 94.9081C123.94 95.1064 123.364 94.799 123.116 94.2237C122.868 93.6484 123.057 93.0137 123.523 92.8153C123.999 92.6169 124.584 92.9145 124.832 93.4897Z" fill="#3C3F54"/>
<path d="M131.746 89.9292C131.994 90.5144 131.805 91.1392 131.339 91.3475C130.863 91.5459 130.278 91.2384 130.03 90.6631C129.782 90.0879 129.97 89.4531 130.446 89.2547C130.912 89.0564 131.498 89.3539 131.746 89.9292Z" fill="#3C3F54"/>
<path d="M130.377 213.036C130.149 213.036 129.96 212.848 129.96 212.619V200.39C129.96 200.281 130.01 200.172 130.079 200.093L138.897 191.285C139.056 191.126 139.313 191.126 139.472 191.285C139.641 191.444 139.641 191.712 139.472 191.87L130.794 200.559V212.619C130.794 212.848 130.605 213.036 130.377 213.036Z" fill="white"/>
<path d="M53.4204 56.2468C53.4204 49.9884 58.4986 44.9102 64.767 44.9102C71.0255 44.9102 76.1037 49.9884 76.1037 56.2468C76.1037 62.5153 71.0255 67.5935 64.767 67.5935C58.4986 67.5935 53.4204 62.5153 53.4204 56.2468Z" fill="white"/>
<path fill-rule="evenodd" clip-rule="evenodd" d="M64.7671 68.0096C58.2805 68.0096 53.0039 62.733 53.0039 56.2464C53.0039 49.7697 58.2805 44.4932 64.7671 44.4932C71.2438 44.4932 76.5204 49.7697 76.5204 56.2464C76.5204 62.733 71.2438 68.0096 64.7671 68.0096ZM64.7671 45.3164C58.7367 45.3164 53.837 50.226 53.837 56.2464C53.837 62.2768 58.7367 67.1765 64.7671 67.1765C70.7875 67.1765 75.6971 62.2768 75.6971 56.2464C75.6971 50.226 70.7875 45.3164 64.7671 45.3164Z" fill="#3C3F54"/>
<path fill-rule="evenodd" clip-rule="evenodd" d="M66.6119 58.4786C64.1026 58.4786 62.0693 56.4454 62.0693 53.9459C62.0693 51.4366 64.1026 49.4033 66.6119 49.4033C69.1114 49.4033 71.1546 51.4366 71.1546 53.9459C71.1546 56.4454 69.1114 58.4786 66.6119 58.4786ZM66.6119 50.2265C64.5588 50.2265 62.8926 51.8928 62.8926 53.9459C62.8926 55.9891 64.5588 57.6554 66.6119 57.6554C68.6551 57.6554 70.3214 55.9891 70.3214 53.9459C70.3214 51.8928 68.6551 50.2265 66.6119 50.2265Z" fill="#3C3F54"/>
<path d="M58.6376 62.3572C58.5384 62.3572 58.4293 62.3175 58.35 62.2381C58.1913 62.0795 58.1913 61.8117 58.35 61.653L63.3687 56.6343C63.5373 56.4657 63.7952 56.4657 63.9539 56.6343C64.1225 56.793 64.1225 57.0508 63.9539 57.2095L58.9352 62.2381C58.8558 62.3175 58.7467 62.3572 58.6376 62.3572Z" fill="#3C3F54"/>
<path d="M75.0821 120.537C75.0358 120.537 74.9862 120.527 74.9333 120.507C74.725 120.418 74.6159 120.18 74.7052 119.972L79.7636 107.445C79.8528 107.237 80.0909 107.137 80.2991 107.217C80.5174 107.306 80.6165 107.544 80.5273 107.752L75.4689 120.279C75.4094 120.438 75.2507 120.537 75.0821 120.537Z" fill="#3C3F54"/>
<path d="M178.441 121.916C178.283 121.916 178.124 121.817 178.065 121.658L171.766 106.046C171.687 105.828 171.786 105.59 172.004 105.501C172.213 105.422 172.451 105.521 172.54 105.729L178.828 121.341C178.908 121.559 178.808 121.797 178.6 121.886C178.547 121.906 178.494 121.916 178.441 121.916Z" fill="#3C3F54"/>
<path d="M80.5968 79.0296C80.3885 79.0296 80.2199 78.8808 80.1902 78.6825C80.0116 77.522 80.3984 74.3283 82.0846 72.1859C82.2234 72.0074 82.4813 71.9776 82.6598 72.1165C82.8483 72.2554 82.878 72.5132 82.7293 72.6918C81.301 74.5267 80.8448 77.4823 81.0035 78.5535C81.0332 78.7816 80.8844 78.9899 80.6563 79.0296C80.6365 79.0296 80.6166 79.0296 80.5968 79.0296Z" fill="#3C3F54"/>
<path d="M171.538 78.1759C171.492 78.1759 171.449 78.1693 171.409 78.1561C171.191 78.0767 171.072 77.8486 171.151 77.6304C171.885 75.4186 171.389 74.1392 170.139 72.4332C170.001 72.2547 170.04 71.9968 170.229 71.8579C170.417 71.729 170.675 71.7687 170.804 71.9472C172.153 73.8019 172.778 75.3591 171.935 77.8883C171.875 78.0668 171.707 78.1759 171.538 78.1759Z" fill="#3C3F54"/>
<path d="M150.779 150.282C150.551 150.282 150.373 150.094 150.373 149.866V134.135C150.373 133.907 150.551 133.719 150.779 133.719C151.007 133.719 151.196 133.907 151.196 134.135V149.866C151.196 150.094 151.007 150.282 150.779 150.282Z" fill="#3C3F54"/>
<path d="M102.665 150.282C102.437 150.282 102.258 150.094 102.258 149.866V134.135C102.258 133.907 102.437 133.719 102.665 133.719C102.893 133.719 103.082 133.907 103.082 134.135V149.866C103.082 150.094 102.893 150.282 102.665 150.282Z" fill="#3C3F54"/>
<path d="M64.3602 165.299L58.0422 162.541C57.467 162.283 56.8223 162.71 56.8223 163.335V170.079C56.8223 170.704 57.467 171.121 58.0422 170.873L64.3602 168.115C65.5901 167.58 65.5901 165.834 64.3602 165.299Z" fill="white"/>
<path fill-rule="evenodd" clip-rule="evenodd" d="M57.6852 171.359C57.4472 171.359 57.1992 171.29 56.9909 171.151C56.624 170.913 56.4058 170.506 56.4058 170.08V163.335C56.4058 162.899 56.624 162.502 56.9909 162.264C57.348 162.026 57.8042 161.986 58.201 162.155L64.5289 164.922C65.2529 165.239 65.6993 165.924 65.6993 166.707C65.6993 167.491 65.2529 168.175 64.5289 168.493L58.201 171.25C58.0423 171.329 57.8638 171.359 57.6852 171.359ZM57.6852 162.879C57.6059 162.879 57.5166 162.899 57.4373 162.948C57.3083 163.038 57.229 163.176 57.229 163.335V170.08C57.229 170.228 57.3083 170.377 57.4373 170.456C57.5761 170.546 57.7348 170.556 57.8737 170.496L64.2016 167.729C64.6182 167.55 64.8661 167.164 64.8661 166.707C64.8661 166.251 64.6182 165.864 64.2016 165.676L57.8737 162.919C57.8142 162.892 57.7513 162.879 57.6852 162.879Z" fill="#3C3F54"/>
<path d="M178.917 173.938C178.917 166.687 184.799 160.796 192.059 160.796C199.32 160.796 205.211 166.687 205.211 173.938C205.211 181.198 199.32 187.089 192.059 187.089C184.799 187.089 178.917 181.198 178.917 173.938Z" fill="white"/>
<path fill-rule="evenodd" clip-rule="evenodd" d="M192.059 187.497C184.591 187.497 178.511 181.417 178.511 173.938C178.511 166.47 184.591 160.39 192.059 160.39C199.538 160.39 205.618 166.47 205.618 173.938C205.618 181.417 199.538 187.497 192.059 187.497ZM192.059 161.213C185.047 161.213 179.334 166.926 179.334 173.938C179.334 180.96 185.047 186.673 192.059 186.673C199.081 186.673 204.794 180.96 204.794 173.938C204.794 166.926 199.081 161.213 192.059 161.213Z" fill="#3C3F54"/>
<path d="M198.734 172.5C198.734 173.264 198.437 174.037 197.852 174.633L196.314 176.16L193.855 178.63C192.853 179.621 191.246 179.621 190.254 178.63L187.784 176.16L186.326 174.702C185.196 173.571 185.057 171.746 186.098 170.536C186.693 169.832 187.537 169.485 188.38 169.485C189.153 169.485 189.927 169.773 190.512 170.368L192.049 171.905L193.587 170.368C194.767 169.187 196.671 169.187 197.852 170.368C198.437 170.953 198.734 171.726 198.734 172.5Z" fill="#FF758E"/>
<path fill-rule="evenodd" clip-rule="evenodd" d="M192.049 179.79C191.266 179.79 190.522 179.483 189.966 178.927L186.029 174.99C184.729 173.69 184.62 171.617 185.781 170.268C186.435 169.505 187.378 169.068 188.379 169.068C189.292 169.068 190.155 169.425 190.8 170.07L192.049 171.32L193.299 170.07C193.944 169.425 194.807 169.068 195.719 169.068C196.632 169.068 197.494 169.425 198.139 170.07C198.794 170.715 199.151 171.578 199.151 172.5C199.151 173.413 198.794 174.276 198.139 174.92L194.142 178.927C193.587 179.483 192.843 179.79 192.049 179.79ZM188.379 169.892C187.626 169.892 186.902 170.229 186.406 170.804C185.523 171.826 185.622 173.413 186.614 174.404L190.552 178.342C190.948 178.739 191.484 178.967 192.049 178.967C192.625 178.967 193.16 178.739 193.557 178.342L197.554 174.335C198.05 173.839 198.318 173.194 198.318 172.5C198.318 171.806 198.05 171.151 197.564 170.655C197.068 170.169 196.413 169.892 195.719 169.892C195.025 169.892 194.37 170.169 193.884 170.655L192.347 172.193C192.267 172.272 192.158 172.312 192.049 172.312C191.94 172.312 191.841 172.272 191.762 172.193L190.224 170.655C189.728 170.169 189.074 169.892 188.379 169.892Z" fill="#3C3F54"/>
<path d="M110.649 197.157C110.501 197.157 110.362 197.088 110.292 196.949C110.173 196.75 110.243 196.503 110.441 196.393L117.265 192.505C118.525 191.781 119.308 190.433 119.308 188.984V184.759C119.308 184.531 119.487 184.353 119.715 184.353C119.943 184.353 120.131 184.531 120.131 184.759V188.984C120.131 190.73 119.189 192.357 117.672 193.22L110.848 197.108C110.788 197.147 110.719 197.157 110.649 197.157Z" fill="white"/>
<path fill-rule="evenodd" clip-rule="evenodd" d="M104.976 58.5473C103.707 58.5473 102.685 57.5158 102.685 56.2462C102.685 54.9866 103.707 53.9551 104.976 53.9551C106.246 53.9551 107.267 54.9866 107.267 56.2462C107.267 57.5158 106.246 58.5473 104.976 58.5473ZM104.976 54.7783C104.163 54.7783 103.508 55.4428 103.508 56.2462C103.508 57.0595 104.163 57.7141 104.976 57.7141C105.79 57.7141 106.444 57.0595 106.444 56.2462C106.444 55.4428 105.79 54.7783 104.976 54.7783Z" fill="#3C3F54"/>
<path fill-rule="evenodd" clip-rule="evenodd" d="M112.276 58.5473C111.016 58.5473 109.985 57.5158 109.985 56.2462C109.985 54.9866 111.016 53.9551 112.276 53.9551C113.546 53.9551 114.577 54.9866 114.577 56.2462C114.577 57.5158 113.546 58.5473 112.276 58.5473ZM112.276 54.7783C111.473 54.7783 110.808 55.4428 110.808 56.2462C110.808 57.0595 111.473 57.7141 112.276 57.7141C113.089 57.7141 113.744 57.0595 113.744 56.2462C113.744 55.4428 113.089 54.7783 112.276 54.7783Z" fill="#3C3F54"/>
<path fill-rule="evenodd" clip-rule="evenodd" d="M119.615 58.5473C118.356 58.5473 117.324 57.5158 117.324 56.2462C117.324 54.9866 118.356 53.9551 119.615 53.9551C120.885 53.9551 121.916 54.9866 121.916 56.2462C121.916 57.5158 120.885 58.5473 119.615 58.5473ZM119.615 54.7783C118.812 54.7783 118.147 55.4428 118.147 56.2462C118.147 57.0595 118.812 57.7141 119.615 57.7141C120.429 57.7141 121.083 57.0595 121.083 56.2462C121.083 55.4428 120.429 54.7783 119.615 54.7783Z" fill="#3C3F54"/>
</g>
<defs>
<clipPath id="clip0_346_3302">
<rect width="243" height="243" fill="white"/>
</clipPath>
</defs>
</svg>
