<svg width="225" height="269" viewBox="0 0 225 269" fill="none" xmlns="http://www.w3.org/2000/svg">
<path d="M163.136 56.9464C151.939 36.1392 130 22 104.765 22C74.0187 22 48.1655 42.9905 40.6745 71.4567C17.2078 80.263 0.5 102.948 0.5 129.549C0.5 142.086 4.21416 153.752 10.5943 163.507C10.5214 164.676 10.4801 165.853 10.4801 167.041C10.4801 197.795 35.3468 222.727 66.0218 222.727C78.2162 222.727 89.4901 218.784 98.651 212.105C110.894 219.038 125.034 223 140.098 223C186.712 223 224.5 185.113 224.5 138.377C224.5 99.6492 198.552 66.9987 163.136 56.9464Z" fill="#FFE3E1"/>
<path opacity="0.49" d="M116.632 268.135C140.324 268.135 159.529 266.344 159.529 264.135C159.529 261.926 140.324 260.135 116.632 260.135C92.941 260.135 73.7354 261.926 73.7354 264.135C73.7354 266.344 92.941 268.135 116.632 268.135Z" fill="#F1CFC7"/>
<path d="M92.7124 79.2051C90.5034 81.2991 89.1925 84.2151 88.8615 87.2351C97.0075 90.5551 116.157 95.8201 146.945 89.8761C147.118 86.2601 145.857 82.5551 143.297 79.9801C142.198 78.8751 140.859 77.9141 140.25 76.4791C139.038 73.6251 141.199 70.5661 141.913 67.5481C142.727 64.1091 141.46 60.2611 138.762 57.9781C136.517 56.0791 133.316 55.0971 132.011 52.4621C131.32 51.0671 131.305 49.4501 131.054 47.9131C130.565 44.9191 128.228 41.5091 125.766 39.7371C123.78 38.3081 120.907 37.7261 118.45 38.2731C116.027 37.6791 113.183 38.2671 111.147 39.6421C108.634 41.3401 106.472 44.5341 105.894 47.5121C105.598 49.0401 105.535 50.6561 104.803 52.0301C103.421 54.6251 100.192 55.5121 97.8924 57.3441C95.1284 59.5461 93.7484 63.3551 94.4604 66.8171C95.0854 69.8541 97.1555 72.9751 95.8595 75.7931C95.2105 77.2121 93.8434 78.1331 92.7124 79.2051Z" fill="#6E2501"/>
<path d="M133.238 70.969C132.602 70.329 131.827 69.7731 131.474 68.9421C130.772 67.2901 132.023 65.519 132.437 63.773C132.908 61.782 132.175 59.555 130.613 58.234C129.314 57.135 127.461 56.5671 126.705 55.0411C126.305 54.2331 126.296 53.297 126.151 52.408C125.868 50.675 124.515 48.701 123.09 47.676C121.94 46.849 120.277 46.512 118.855 46.829C117.453 46.485 115.806 46.825 114.628 47.622C113.173 48.605 111.922 50.454 111.587 52.178C111.415 53.063 111.379 53.998 110.956 54.793C110.156 56.295 108.287 56.809 106.956 57.869C105.356 59.144 104.557 61.348 104.97 63.352C105.332 65.11 106.53 66.917 105.78 68.547C105.403 69.367 104.612 69.9 103.957 70.521C101.536 72.816 100.956 76.816 102.626 79.704C103.888 81.887 106.157 83.288 108.45 84.337C109.708 84.912 111.04 85.417 112.424 85.422C113.583 85.426 114.715 85.0771 115.792 84.6491C116.696 84.2901 117.61 83.83 118.402 83.247C119.182 83.86 120.09 84.352 120.992 84.742C122.056 85.202 123.177 85.584 124.336 85.614C125.719 85.651 127.065 85.1851 128.34 84.6471C130.663 83.6671 132.973 82.333 134.298 80.189C136.051 77.35 135.59 73.334 133.238 70.969Z" fill="#3F1303"/>
<path d="M97.6384 82.4701C97.4514 82.2481 97.2864 82.0091 97.1404 81.7601C96.9424 81.9681 96.7514 82.1801 96.5784 82.4011C95.4794 83.8051 94.6454 85.8891 95.8014 87.5071C96.1184 87.9501 96.8584 87.5241 96.5384 87.0761C95.4704 85.5821 96.5434 83.6491 97.6244 82.4841C97.6294 82.4791 97.6344 82.4751 97.6384 82.4701Z" fill="#2D0C02"/>
<path d="M114.983 40.8681C111.743 41.6981 109.038 44.1221 107.738 47.1901C107.039 48.8391 106.897 50.5251 106.916 52.2981C106.936 54.2701 106.923 56.2381 105.426 57.7131C104.775 58.3551 104.01 58.8661 103.303 59.4421C102.555 60.0521 101.924 60.7611 101.381 61.5591C101.048 62.0491 100.75 62.5621 100.463 63.0811C100.683 63.2861 100.872 63.5221 101.046 63.7731C101.176 63.5451 101.306 63.3191 101.434 63.0961C101.938 62.2171 102.496 61.3641 103.222 60.6511C103.837 60.0471 104.55 59.5581 105.221 59.0211C106.629 57.8961 107.484 56.5631 107.696 54.7531C107.91 52.9281 107.583 51.0731 107.97 49.2631C108.744 45.6441 111.622 42.6101 115.209 41.6911C115.742 41.5551 115.516 40.7311 114.983 40.8681Z" fill="#2D0C02"/>
<path d="M107.376 61.8931C108.222 64.3471 107.926 67.0781 106.562 69.2881C106.272 69.7571 107.01 70.1861 107.299 69.7191C108.775 67.3301 109.116 64.3221 108.2 61.6661C108.021 61.1501 107.196 61.3721 107.376 61.8931Z" fill="#2D0C02"/>
<path d="M129.908 71.6711C129.905 71.6841 129.908 71.6941 129.906 71.7061C129.992 71.5891 130.067 71.4671 130.163 71.3561C130.231 71.2321 130.287 71.1021 130.359 70.9811C130.547 70.6631 130.768 70.3781 131.005 70.1091C131.087 68.4451 130.691 66.7661 129.825 65.3261C129.232 64.3391 128.354 63.5681 127.744 62.5961C127.194 61.7211 126.893 60.4361 127.768 59.6611C128.18 59.2961 127.574 58.6941 127.165 59.0571C126.406 59.7291 126.244 60.7721 126.452 61.7281C126.699 62.8621 127.518 63.7391 128.241 64.6011C129.903 66.5821 130.581 69.1461 129.908 71.6711Z" fill="#2D0C02"/>
<path d="M112.04 60.505C114.134 64 113.69 68.831 110.992 71.885C109.966 73.047 108.567 74.168 108.579 75.718C108.584 76.433 108.905 77.102 109.22 77.744C109.717 78.76 110.22 79.785 110.914 80.679C113.213 83.639 117.505 84.706 121.07 83.551C124.635 82.396 127.387 79.267 128.509 75.692C128.561 75.525 128.61 75.342 128.547 75.179C128.484 75.017 128.326 74.915 128.179 74.821C123.722 71.962 121.837 65.693 123.979 60.851" fill="#FF9670"/>
<path d="M113.338 66.018C115.171 68.551 119.352 67.751 121.977 64.772C121.986 64.762 123.022 63.299 123.032 63.289C123.214 63.105 123.287 63.007 123.782 61.765L112.202 61.412C112.989 62.879 112.92 61.596 112.979 63.303C113.422 63.427 113.338 66.018 113.338 66.018Z" fill="#FC7F51"/>
<path d="M117.19 42.1111C114.467 43.0901 111.768 44.6431 110.393 47.1881C109.871 48.1541 109.564 49.2211 109.326 50.2941C108.831 52.5261 108.621 54.8461 108.981 57.1051C109.34 59.3631 110.297 61.5621 111.902 63.1911C112.584 63.8831 113.371 64.4631 114.164 65.0251C114.89 65.5391 115.664 66.0571 116.549 66.1521C117.45 66.2491 118.333 65.8921 119.162 65.5251C120.093 65.1131 121.021 64.6741 121.842 64.0701C124.688 61.9771 125.816 58.1971 125.812 54.6641C125.809 52.1351 125.296 49.5551 123.962 47.4071C122.627 45.2591 120.398 43.5921 117.886 43.3021" fill="#FF9670"/>
<path d="M125.537 55.5571C125.954 54.6061 126.411 53.6051 127.269 53.0211C127.429 52.9121 127.606 52.8181 127.799 52.8001C128.331 52.7491 128.742 53.2751 128.906 53.7841C129.156 54.5601 129.089 55.4331 128.722 56.1621C128.355 56.8901 127.694 57.4651 126.921 57.7261C126.596 57.8361 126.225 57.8881 125.922 57.7291C125.627 57.5741 125.456 57.2461 125.407 56.9161C125.358 56.5871 125.413 56.2521 125.468 55.9231" fill="#FF9670"/>
<path d="M126.281 55.525C126.432 55.181 126.597 54.82 126.907 54.609C126.965 54.57 127.029 54.536 127.098 54.529C127.29 54.511 127.439 54.701 127.498 54.885C127.588 55.165 127.564 55.481 127.432 55.744C127.3 56.007 127.061 56.215 126.781 56.309C126.664 56.349 126.53 56.367 126.42 56.31C126.313 56.254 126.252 56.135 126.234 56.016C126.216 55.897 126.236 55.776 126.256 55.657" fill="#FC7F51"/>
<path d="M120.559 54.3541C121.028 54.8361 121.741 55.0881 122.408 54.9801C123.055 54.8761 123.611 54.4911 123.947 53.9311C124.027 53.7971 123.954 53.6101 123.822 53.5421C123.675 53.4671 123.514 53.5341 123.433 53.6681C123.2 54.0571 122.778 54.3461 122.327 54.4101C121.811 54.4831 121.304 54.2951 120.943 53.9241C120.834 53.8121 120.636 53.8351 120.536 53.9461C120.427 54.0691 120.45 54.2421 120.559 54.3541Z" fill="#AD5E45"/>
<path d="M114.005 51.1061C112.825 50.7551 111.29 50.4251 110.501 50.9521C110.109 51.2141 109.753 51.0471 110.126 50.7511C111.285 49.8321 112.499 50.0111 114.253 50.3871C114.444 50.4281 114.547 50.6711 114.474 50.8831C114.414 51.0581 114.183 51.2041 114.005 51.1061Z" fill="#6E2501"/>
<path d="M120.576 51.1921C121.766 50.8761 123.311 50.5911 124.084 51.1421C124.468 51.4161 124.829 51.2591 124.464 50.9521C123.333 49.9991 122.113 50.1421 120.349 50.4661C120.157 50.5011 120.048 50.7421 120.115 50.9551C120.17 51.1321 120.396 51.2851 120.576 51.1921Z" fill="#6E2501"/>
<path d="M114.073 53.912C113.585 54.374 112.861 54.596 112.199 54.461C111.557 54.33 111.017 53.922 110.704 53.349C110.629 53.212 110.711 53.028 110.846 52.966C110.996 52.897 111.154 52.971 111.229 53.108C111.446 53.506 111.854 53.813 112.302 53.895C112.815 53.989 113.329 53.823 113.705 53.467C113.818 53.36 114.017 53.391 114.111 53.506C114.217 53.632 114.187 53.804 114.073 53.912Z" fill="#AD5E45"/>
<path d="M117.249 57.188C116.966 57.118 116.718 56.983 116.489 56.814C117.31 56.011 117.757 54.84 117.649 53.693C117.634 53.538 117.533 53.402 117.365 53.4C117.222 53.398 117.057 53.5281 117.072 53.6841C117.177 54.8101 116.717 55.9141 115.839 56.6271C115.72 56.7241 115.73 56.933 115.834 57.035C116.183 57.379 116.611 57.6241 117.088 57.7411C117.449 57.8311 117.61 57.277 117.249 57.188Z" fill="#AD5E45"/>
<path d="M113.441 57.0761C113.43 57.8221 112.642 58.4161 111.68 58.4021C110.719 58.3881 109.948 57.7711 109.959 57.0251C109.97 56.2791 110.758 55.6851 111.72 55.6991C112.681 55.7131 113.452 56.3301 113.441 57.0761Z" fill="#FC7F51"/>
<path d="M125.182 57.2901C125.171 58.0361 124.383 58.6301 123.421 58.6161C122.46 58.6021 121.689 57.9851 121.7 57.2391C121.711 56.4931 122.499 55.8991 123.461 55.9131C124.423 55.9271 125.193 56.5441 125.182 57.2901Z" fill="#FC7F51"/>
<path d="M115.753 59.827C115.753 59.827 117.371 60.495 119.132 59.572C119.132 59.572 116.82 62.149 115.753 59.827Z" fill="#E53E3E"/>
<path d="M113.492 42.204C112.714 43.878 113.404 45.976 114.756 47.236C116.109 48.496 117.981 49.045 119.815 49.247C121.222 49.402 122.695 49.39 123.969 50.013C125.068 50.551 125.903 51.512 126.603 52.518C126.718 52.684 126.896 52.874 127.084 52.802C127.16 52.773 127.214 52.705 127.262 52.639C128.119 51.466 128.327 49.904 128.069 48.471C127.812 47.038 127.13 45.714 126.339 44.491C125.623 43.384 124.799 42.326 123.75 41.528C122.701 40.73 121.405 40.207 120.092 40.267" fill="#6E2501"/>
<path d="M136.267 63.057C136.33 62.953 136.375 62.836 136.447 62.739C136.548 62.568 136.662 62.408 136.777 62.251C136.589 61.922 136.374 61.602 136.116 61.296C134.854 59.799 133.089 58.872 131.714 57.496C130.204 55.984 129.865 54.054 129.595 52.019C129.345 50.133 128.967 48.343 127.919 46.722C125.435 42.884 120.986 41.159 116.637 40.513C116.1 40.433 115.868 41.256 116.41 41.336C120.252 41.907 124.194 43.271 126.671 46.432C127.869 47.961 128.419 49.703 128.686 51.604C128.945 53.444 129.097 55.384 130.17 56.968C131.655 59.164 135.121 60.595 136.267 63.057Z" fill="#2D0C02"/>
<path d="M139.114 82.9251C139.055 82.9661 138.993 82.9971 138.933 83.0351C139.974 84.4691 140.77 86.1301 140.244 87.9111C140.088 88.4391 140.912 88.6641 141.067 88.1381C141.706 85.9731 140.844 84.2031 139.621 82.5491C139.455 82.6751 139.29 82.8011 139.114 82.9251Z" fill="#2D0C02"/>
<path d="M116.72 44.292C117.91 46.92 120.959 47.757 123.617 47.595C124.163 47.562 124.166 46.708 123.617 46.741C121.235 46.887 118.529 46.229 117.457 43.861C117.231 43.361 116.495 43.795 116.72 44.292Z" fill="#2D0C02"/>
<path d="M122.836 40.637C124.455 40.924 126.154 41.271 127.179 42.683C128.08 43.924 128.392 45.494 128.681 46.969C128.786 47.508 129.609 47.28 129.504 46.742C129.188 45.128 128.818 43.426 127.797 42.093C126.635 40.577 124.857 40.13 123.063 39.813C122.525 39.719 122.295 40.541 122.836 40.637Z" fill="#2D0C02"/>
<path d="M127.333 75.459L127.53 76.588C129.247 72.953 131.519 69.431 134.038 66.162C131.682 69.092 129.428 72.137 127.333 75.459Z" fill="#FC7F51"/>
<path d="M126.906 76.423C132.559 67.459 138.677 59.532 145.549 51.464C145.776 51.197 146.012 50.915 146.083 50.573C146.224 49.892 145.685 49.277 145.189 48.79C137.594 41.343 129.999 33.897 122.404 26.45C120.949 25.024 119.45 23.53 118.754 21.616C118.121 19.877 118.216 17.97 118.32 16.122C118.602 11.1 117.963 5.02298 118.245 0.000976562C119.685 0.0969766 121.476 2.66997 121.948 4.03397C123.054 7.22997 123.437 10.674 123.06 14.036C122.901 15.447 122.615 16.905 123.033 18.262C123.599 20.096 125.3 21.303 126.879 22.396C137.025 29.42 146.454 37.478 154.975 46.404C156.18 47.666 157.444 49.138 157.398 50.882C157.374 51.824 156.96 52.708 156.543 53.554C149.485 67.84 138.324 82.319 131.01 96.476" fill="#FF9670"/>
<path d="M109.272 76.078C103.705 67.114 97.6294 59.532 90.8624 51.463C90.6384 51.196 90.4064 50.914 90.3364 50.572C90.1974 49.891 90.7284 49.276 91.2174 48.789C98.6964 41.342 106.176 33.896 113.655 26.449C115.088 25.023 116.564 23.529 117.25 21.615C117.873 19.876 117.78 17.969 117.677 16.121C117.4 11.099 118.028 5.022 117.751 0C116.333 0.096 114.569 2.669 114.104 4.033C113.015 7.229 112.638 10.673 113.01 14.035C113.166 15.446 113.449 16.904 113.037 18.261C112.48 20.095 110.804 21.302 109.25 22.395C99.2594 29.419 89.9734 37.477 81.5814 46.403C80.3954 47.665 79.1504 49.137 79.1944 50.881C79.2184 51.823 79.6254 52.707 80.0364 53.553C86.9874 67.839 98.4604 82.318 105.663 96.475" fill="#FF9670"/>
<path d="M106.773 101.968C108.087 105.137 107.786 108.768 106.832 112.064C105.878 115.36 104.311 118.44 103.089 121.646C103.007 121.86 102.927 122.098 103.005 122.313C103.134 122.669 103.594 122.749 103.972 122.771C113.189 123.308 122.411 123.763 131.637 124.135C130.968 121.984 130.299 119.833 129.63 117.682C128.278 113.336 126.938 108.562 128.657 104.348" fill="#FF9670"/>
<path d="M117.791 108.928C121.906 109.249 126.26 110.342 128.173 114.417C130.206 118.748 126.563 122.708 123.02 122.902C123.02 123.184 122.997 123.465 122.96 123.745C125.852 123.878 128.745 124.017 131.638 124.134C130.969 121.983 130.3 119.832 129.631 117.681C128.279 113.335 126.939 108.561 128.658 104.347L106.775 101.967C107.11 102.774 107.337 103.612 107.478 104.466C110.676 107.224 113.439 108.588 117.791 108.928Z" fill="#FC7F51"/>
<path d="M118.52 18.911C118.697 15.899 119.887 13.092 119.782 10.021C119.686 7.23496 118.841 4.43496 118.187 1.68396C118.095 6.34096 118.571 11.648 118.32 16.122C118.216 17.969 118.121 19.877 118.754 21.616C118.863 21.915 118.997 22.201 119.142 22.481C118.693 21.346 118.447 20.16 118.52 18.911Z" fill="#FC7F51"/>
<path d="M117.479 18.911C117.305 15.899 116.132 13.092 116.237 10.021C116.332 7.23496 117.164 4.43496 117.808 1.68396C117.898 6.34096 117.43 11.648 117.677 16.122C117.779 17.969 117.873 19.877 117.25 21.616C117.143 21.915 117.01 22.201 116.868 22.481C117.309 21.346 117.552 20.16 117.479 18.911Z" fill="#FC7F51"/>
<path d="M133.925 215.583C133.23 226.656 132.535 237.73 131.841 248.803C131.703 250.998 131.64 253.435 133.058 255.116C133.769 255.959 134.768 256.496 135.743 257.013C138.841 258.656 141.958 260.307 145.291 261.395C146.445 261.771 148.539 262 150.1 262.51C150.858 262.758 150.92 263.823 150.206 264.178C147.044 265.747 142.126 265.637 138.915 264.916C135.178 264.077 131.386 262.729 127.616 263.399C126.839 263.537 126.039 263.76 125.274 263.567C124.048 263.258 123.303 261.944 123.202 260.684C123.101 259.424 123.494 258.185 123.801 256.959C127.2 243.38 120.263 229.098 122.219 215.237" fill="#FF9670"/>
<path d="M89.4124 193.452C93.5204 194.006 97.5854 194.879 101.558 196.063C102.725 196.411 103.906 196.796 104.895 197.506C106.297 198.514 107.18 200.073 108.018 201.582C110.829 206.641 113.688 211.835 114.573 217.555C115.325 217.664 116.044 217.091 116.35 216.395C116.657 215.7 116.646 214.911 116.619 214.151C116.512 211.077 116.244 208.009 115.816 204.964C115.516 202.826 115.135 200.672 115.32 198.52C115.463 196.86 115.941 195.212 115.78 193.554C115.62 191.895 114.553 190.139 112.899 189.941C111.682 189.795 110.533 190.517 109.315 190.662C108.043 190.813 106.79 190.327 105.608 189.833C100.84 187.837 96.1994 185.539 91.7224 182.957" fill="#FF9670"/>
<path d="M104.385 118.484C104.385 118.484 120.01 120.711 129.63 117.682C129.63 117.682 139.149 130.661 139.831 148.851C140.513 167.041 138.557 235.12 138.557 235.12L116.8 234.799L115.125 148.46L88.4634 174.095L102.115 180.302L93.1894 202.015C93.1894 202.015 64.3844 182.506 64.4704 176.671C64.6814 162.382 104.385 118.484 104.385 118.484Z" fill="#FEB405"/>
<path d="M108.682 154.653C106.375 155.698 104.12 156.857 101.912 158.102C96.8604 160.952 91.4984 163.696 86.7074 166.965C84.7714 168.286 81.4514 170.26 81.2624 172.921C81.0774 175.541 84.4084 179.238 85.8064 181.285C89.6924 186.975 92.8244 192.733 94.1494 199.557C94.1554 199.587 94.1564 199.616 94.1624 199.646L102.115 180.3L88.4634 174.093L108.682 154.653Z" fill="#F79719"/>
<path d="M119.98 120.594C124.172 122.231 127.423 125.659 129.934 129.313C135.634 137.609 136.731 148.459 137.558 158.221C138.123 164.886 137.859 171.549 138.091 178.222C138.265 183.231 139.04 188.184 139.562 193.162C139.907 175.461 140.137 157.068 139.829 148.851C139.148 130.661 129.628 117.682 129.628 117.682C125.09 119.111 119.218 119.37 114.279 119.245C116.236 119.49 118.155 119.881 119.98 120.594Z" fill="#F79719"/>
<path d="M121.547 193.425C121.554 190.823 121.523 188.219 121.445 185.615C120.99 179.25 119.952 173.037 118.962 166.71C118.226 162.005 117.902 156.648 115.434 152.476C115.364 152.358 115.309 152.241 115.248 152.124C115.23 152.13 115.212 152.135 115.195 152.14L116.799 234.797L127.147 234.95C124.421 229.646 121.976 224.636 121.49 218.483C120.835 210.188 121.524 201.737 121.547 193.425Z" fill="#F79719"/>
<path d="M127.144 118.879C127.442 119.277 127.667 119.742 127.886 120.185C128.608 121.643 129.15 123.137 129.673 124.768C130.626 127.738 131.34 130.783 131.94 133.841C132.882 138.638 133.532 143.49 134.027 148.352C134.742 155.378 135.129 162.435 135.327 169.493C135.506 175.851 135.509 182.209 135.438 188.568C135.406 191.495 135.373 194.422 135.341 197.349C135.288 202.15 135.235 206.952 135.182 211.753C135.13 216.473 135.078 221.193 135.026 225.913C134.996 228.601 134.967 231.29 134.937 233.978C134.936 234.104 134.934 234.231 134.933 234.357C134.927 234.904 135.78 234.905 135.786 234.357C135.807 232.442 135.828 230.526 135.85 228.611C135.899 224.18 135.948 219.748 135.997 215.317C136.052 210.36 136.106 205.402 136.161 200.445C136.2 196.899 136.239 193.352 136.279 189.806C136.332 184.979 136.368 180.152 136.302 175.325C136.199 167.699 135.9 160.071 135.262 152.47C134.814 147.126 134.203 141.789 133.294 136.502C132.7 133.048 131.983 129.607 131.012 126.238C130.455 124.305 129.816 122.387 128.995 120.548C128.69 119.866 128.376 119.127 127.93 118.52C127.914 118.497 127.899 118.474 127.882 118.451C127.557 118.016 126.816 118.44 127.144 118.879Z" fill="white"/>
<path d="M104.016 118.69C103.409 119.545 102.808 120.405 102.209 121.265C100.638 123.52 99.0824 125.785 97.5384 128.058C95.3754 131.244 93.2384 134.448 91.1314 137.672C88.7464 141.322 86.4004 144.996 84.1154 148.709C81.8734 152.351 79.6854 156.028 77.6174 159.771C75.8704 162.931 74.1854 166.14 72.7634 169.46C72.6074 169.825 72.4534 170.192 72.3044 170.561C72.1994 170.821 72.0304 171.117 72.0034 171.397C72.0004 171.43 72.0054 171.463 72.0064 171.496C72.0144 171.759 72.0864 172.034 72.1624 172.284C72.5454 173.531 73.3144 174.649 74.1144 175.663C75.8324 177.839 77.9724 179.675 80.1624 181.362C84.1194 184.409 88.4244 186.999 92.8044 189.39C94.2504 190.179 95.7084 190.944 97.1764 191.692C97.6644 191.941 98.0974 191.207 97.6074 190.958C92.5854 188.401 87.6354 185.644 83.0174 182.408C80.4094 180.58 77.8604 178.587 75.7104 176.228C75.0864 175.544 74.4984 174.826 73.9894 174.052C73.8024 173.768 73.6264 173.477 73.4664 173.177C73.4024 173.057 73.3404 172.935 73.2814 172.812C73.2594 172.765 73.2374 172.718 73.2154 172.671C73.1744 172.583 73.1534 172.529 73.1664 172.56C73.0374 172.247 72.9404 171.93 72.8704 171.599C72.8394 171.451 72.8634 171.599 72.8644 171.567C72.8654 171.537 72.8474 171.496 72.8554 171.466C72.8904 171.347 72.8504 171.438 72.9314 171.271C73.2554 170.602 73.4964 169.882 73.7974 169.201C74.1184 168.475 74.4534 167.754 74.7964 167.038C75.5904 165.381 76.4324 163.747 77.3014 162.128C79.2544 158.487 81.3394 154.916 83.4794 151.382C87.7874 144.269 92.3314 137.296 96.9794 130.399C98.6584 127.907 100.354 125.426 102.066 122.956C102.918 121.727 103.812 120.521 104.639 119.276C104.675 119.223 104.713 119.171 104.75 119.119C105.071 118.671 104.331 118.246 104.016 118.69Z" fill="white"/>
<path d="M107.038 72.6119L110.489 72.4299C110.489 72.4299 109.969 82.5599 117.913 82.0009C125.857 81.4409 125.944 72.8739 125.944 72.8739L128.821 73.1839C128.821 73.1839 126.229 87.9899 134.682 89.9499L128.122 106.09C128.122 106.09 112.43 107.666 107.588 105.328L102.309 90.3469C102.309 90.3469 109.588 86.6949 107.038 72.6119Z" fill="#F7524C"/>
<path d="M106.764 84.0459C115.267 85.8759 127.312 84.4519 127.079 74.0989C127.07 73.7119 127.1 73.3499 127.154 73.0049L125.943 72.8749C125.943 72.8749 125.857 81.4419 117.913 82.0019C109.969 82.5619 110.489 72.4309 110.489 72.4309L107.038 72.6129C107.954 77.6729 107.594 81.3689 106.764 84.0459Z" fill="#E13027"/>
<path d="M134.459 89.8849C134.2 91.2069 133.462 92.4709 132.086 93.4249C127.272 96.7649 123.336 100.169 117.125 98.9499C112.816 98.1039 108.461 98.7349 104.672 97.0569L107.587 105.328C112.429 107.666 128.121 106.09 128.121 106.09L134.681 89.9499C134.604 89.9309 134.535 89.9049 134.459 89.8849Z" fill="#E13027"/>
<g opacity="0.66">
<path d="M111.316 86.8049C111.865 86.8049 111.866 85.9509 111.316 85.9509C110.767 85.9509 110.766 86.8049 111.316 86.8049Z" fill="white"/>
<path d="M117.064 93.2419C117.613 93.2419 117.614 92.3879 117.064 92.3879C116.515 92.3889 116.514 93.2419 117.064 93.2419Z" fill="white"/>
<path d="M107.523 97.61C108.072 97.61 108.073 96.756 107.523 96.756C106.974 96.757 106.973 97.61 107.523 97.61Z" fill="white"/>
<path d="M120.857 86.115C121.406 86.115 121.407 85.261 120.857 85.261C120.308 85.262 120.307 86.115 120.857 86.115Z" fill="white"/>
<path d="M126.03 94.7369C126.579 94.7369 126.58 93.8829 126.03 93.8829C125.481 93.8829 125.48 94.7369 126.03 94.7369Z" fill="white"/>
<path d="M119.248 100.944C119.797 100.944 119.798 100.09 119.248 100.09C118.699 100.091 118.698 100.944 119.248 100.944Z" fill="white"/>
<path d="M111.661 103.588C112.21 103.588 112.211 102.734 111.661 102.734C111.112 102.735 111.111 103.588 111.661 103.588Z" fill="white"/>
<path d="M125.57 103.818C126.119 103.818 126.12 102.964 125.57 102.964C125.021 102.964 125.02 103.818 125.57 103.818Z" fill="white"/>
<path d="M132.353 91.9779C132.902 91.9779 132.903 91.1239 132.353 91.1239C131.803 91.1239 131.803 91.9779 132.353 91.9779Z" fill="white"/>
<path d="M126.145 80.8269C126.694 80.8269 126.695 79.9729 126.145 79.9729C125.596 79.9739 125.595 80.8269 126.145 80.8269Z" fill="white"/>
<path d="M109.707 78.6429C110.256 78.6429 110.257 77.7889 109.707 77.7889C109.158 77.7899 109.157 78.6429 109.707 78.6429Z" fill="white"/>
<path d="M104.534 91.173C105.083 91.173 105.084 90.319 104.534 90.319C103.985 90.32 103.984 91.173 104.534 91.173Z" fill="white"/>
<path d="M128.329 86.8049C128.878 86.8049 128.879 85.9509 128.329 85.9509C127.78 85.9509 127.779 86.8049 128.329 86.8049Z" fill="white"/>
</g>
<path d="M109.851 55.326C109.462 54.363 109.035 53.349 108.194 52.74C108.037 52.626 107.863 52.527 107.671 52.503C107.14 52.436 106.715 52.95 106.535 53.454C106.262 54.222 106.304 55.097 106.649 55.836C106.994 56.575 107.638 57.168 108.403 57.452C108.724 57.571 109.094 57.634 109.402 57.484C109.701 57.338 109.882 57.015 109.941 56.687C110 56.359 109.954 56.023 109.909 55.693" fill="#FF9670"/>
<path d="M108.794 55.141C108.65 54.784 108.491 54.407 108.179 54.181C108.121 54.139 108.056 54.102 107.985 54.093C107.788 54.068 107.63 54.259 107.563 54.446C107.462 54.731 107.477 55.056 107.605 55.33C107.733 55.604 107.972 55.825 108.256 55.93C108.375 55.974 108.513 55.998 108.627 55.942C108.738 55.888 108.805 55.768 108.827 55.646C108.849 55.524 108.832 55.4 108.815 55.277" fill="#FC7F51"/>
</svg>
