<?xml version="1.0" encoding="UTF-8" standalone="no"?>
<!-- Created with Inkscape (http://www.inkscape.org/) -->

<svg
   version="1.1"
   id="svg1287"
   xml:space="preserve"
   width="682.66669"
   height="682.66669"
   viewBox="0 0 682.66669 682.66669"
   xmlns="http://www.w3.org/2000/svg"
   xmlns:svg="http://www.w3.org/2000/svg"><defs
     id="defs1291"><clipPath
       clipPathUnits="userSpaceOnUse"
       id="clipPath1301"><path
         d="M 0,512 H 512 V 0 H 0 Z"
         id="path1299" /></clipPath></defs><g
     id="g1293"
     transform="matrix(1.3333333,0,0,-1.3333333,0,682.66667)"><g
       id="g1295"><g
         id="g1297"
         clip-path="url(#clipPath1301)"><g
           id="g1303"
           transform="translate(333.272,392.9761)"><path
             d="m 0,0 c 5.31,1.565 10.882,-1.471 12.447,-6.78 1.566,-5.309 -1.47,-10.883 -6.78,-12.448 -5.309,-1.565 -10.882,1.471 -12.447,6.78 C -8.345,-7.138 -5.31,-1.565 0,0"
             style="fill:#000000;fill-opacity:1;fill-rule:nonzero;stroke:none"
             id="path1305" /></g><g
           id="g1307"
           transform="translate(220.417,297.1362)"><path
             d="M 0,0 -109.118,-30.984 -133.906,56.31 -24.788,87.295 Z"
             style="fill:none;stroke:#000000;stroke-width:20;stroke-linecap:round;stroke-linejoin:round;stroke-miterlimit:10;stroke-dasharray:none;stroke-opacity:1"
             id="path1309" /></g><g
           id="g1311"
           transform="translate(90.3486,333.5391)"><path
             d="m 0,0 -46.754,-13.276 13.753,-48.434 46.754,13.276"
             style="fill:none;stroke:#000000;stroke-width:20;stroke-linecap:round;stroke-linejoin:round;stroke-miterlimit:10;stroke-dasharray:none;stroke-opacity:1"
             id="path1313" /></g><g
           id="g1315"
           transform="translate(324.1851,426.2515)"><path
             d="M 0,0 -15.287,53.836 -128.556,-41.82"
             style="fill:none;stroke:#000000;stroke-width:20;stroke-linecap:round;stroke-linejoin:round;stroke-miterlimit:10;stroke-dasharray:none;stroke-opacity:1"
             id="path1317" /></g><g
           id="g1319"
           transform="translate(220.417,297.1362)"><path
             d="M 0,0 146.637,-21.855 128.179,43.148"
             style="fill:none;stroke:#000000;stroke-width:20;stroke-linecap:round;stroke-linejoin:round;stroke-miterlimit:10;stroke-dasharray:none;stroke-opacity:1"
             id="path1321" /></g><g
           id="g1323"
           transform="translate(171.6675,283.5664)"><path
             d="m 0,0 -43.509,-12.627 23.441,-39.713 c 5.094,-8.63 15.389,-12.713 25.013,-9.919 13.761,3.993 20.065,19.889 12.782,32.229 z"
             style="fill:none;stroke:#000000;stroke-width:20;stroke-linecap:round;stroke-linejoin:round;stroke-miterlimit:10;stroke-dasharray:none;stroke-opacity:1"
             id="path1325" /></g><g
           id="g1327"
           transform="translate(455.1064,410.894)"><path
             d="M 0,0 -23.715,-6.694"
             style="fill:none;stroke:#000000;stroke-width:20;stroke-linecap:round;stroke-linejoin:round;stroke-miterlimit:10;stroke-dasharray:none;stroke-opacity:1"
             id="path1329" /></g><g
           id="g1331"
           transform="translate(397.6938,501.5)"><path
             d="M 0,0 -17.191,-17.655"
             style="fill:none;stroke:#000000;stroke-width:20;stroke-linecap:round;stroke-linejoin:round;stroke-miterlimit:10;stroke-dasharray:none;stroke-opacity:1"
             id="path1333" /></g><g
           id="g1335"
           transform="translate(453.5415,303.6411)"><path
             d="M 0,0 -23.885,6.061"
             style="fill:none;stroke:#000000;stroke-width:20;stroke-linecap:round;stroke-linejoin:round;stroke-miterlimit:10;stroke-dasharray:none;stroke-opacity:1"
             id="path1337" /></g><g
           id="g1339"
           transform="translate(348.9937,110.6206)"><path
             d="M 0,0 V 63.588 L 42.991,1.333 c 0.798,-1.151 1.651,-0.587 1.651,0.813 l -0.595,61.561"
             style="fill:none;stroke:#000000;stroke-width:20;stroke-linecap:round;stroke-linejoin:round;stroke-miterlimit:10;stroke-dasharray:none;stroke-opacity:1"
             id="path1341" /></g><g
           id="g1343"
           transform="translate(203.3125,111.1177)"><path
             d="m 0,0 11.197,62.039 c 0.28,1.453 2.306,1.588 2.778,0.186 L 32.19,0.483 c 0.442,-1.315 2.305,-1.305 2.733,0.015 l 17.594,61.717 c 0.457,1.407 2.483,1.292 2.779,-0.157 L 67.156,0"
             style="fill:none;stroke:#000000;stroke-width:20;stroke-linecap:round;stroke-linejoin:round;stroke-miterlimit:10;stroke-dasharray:none;stroke-opacity:1"
             id="path1345" /></g><g
           id="g1347"
           transform="translate(310.8823,174.3276)"><path
             d="M 0,0 V -63.707"
             style="fill:none;stroke:#000000;stroke-width:20;stroke-linecap:round;stroke-linejoin:round;stroke-miterlimit:10;stroke-dasharray:none;stroke-opacity:1"
             id="path1349" /></g><g
           id="g1351"
           transform="translate(472.0815,168.8872)"><path
             d="m 0,0 c -5.083,3.435 -11.212,5.44 -17.81,5.44 -17.591,0 -31.853,-14.261 -31.853,-31.853 0,-17.592 14.262,-31.854 31.853,-31.854 17.593,0 27.498,14.262 27.498,31.854 H -9.37"
             style="fill:none;stroke:#000000;stroke-width:20;stroke-linecap:round;stroke-linejoin:round;stroke-miterlimit:10;stroke-dasharray:none;stroke-opacity:1"
             id="path1353" /></g><g
           id="g1355"
           transform="translate(79.8936,168.8872)"><path
             d="m 0,0 c -5.084,3.435 -11.212,5.44 -17.81,5.44 -17.592,0 -31.853,-14.261 -31.853,-31.853 0,-17.592 14.261,-31.854 31.853,-31.854 7.145,0 13.022,2.352 17.482,6.325 0.923,0.822 1.786,1.713 2.586,2.668"
             style="fill:none;stroke:#000000;stroke-width:20;stroke-linecap:round;stroke-linejoin:round;stroke-miterlimit:10;stroke-dasharray:none;stroke-opacity:1"
             id="path1357" /></g><g
           id="g1359"
           transform="translate(174.5854,142.4741)"><path
             d="m 0,0 c 0,-17.592 -14.261,-31.854 -31.854,-31.854 -17.592,0 -31.853,14.262 -31.853,31.854 0,17.592 14.261,31.854 31.853,31.854 C -14.261,31.854 0,17.592 0,0 Z"
             style="fill:none;stroke:#000000;stroke-width:20;stroke-linecap:round;stroke-linejoin:round;stroke-miterlimit:10;stroke-dasharray:none;stroke-opacity:1"
             id="path1361" /></g><g
           id="g1363"
           transform="translate(366.1299,10.5)"><path
             d="M 0,0 V 63.587 L 42.991,1.333 c 0.798,-1.151 1.651,-0.587 1.651,0.814 l -0.595,61.56"
             style="fill:none;stroke:#000000;stroke-width:20;stroke-linecap:round;stroke-linejoin:round;stroke-miterlimit:10;stroke-dasharray:none;stroke-opacity:1"
             id="path1365" /></g><g
           id="g1367"
           transform="translate(142.5,67.125)"><path
             d="m 0,0 c 0,0 -12.923,10.142 -26.403,6.081 -12.378,-3.729 -14.11,-18.001 -5.155,-23.84 0,0 8.787,-3.92 18.534,-7.515 23.461,-8.654 13.355,-31.351 -5.532,-31.351 -9.458,0 -17.396,4.142 -22.2,9.443"
             style="fill:none;stroke:#000000;stroke-width:20;stroke-linecap:round;stroke-linejoin:round;stroke-miterlimit:10;stroke-dasharray:none;stroke-opacity:1"
             id="path1369" /></g><g
           id="g1371"
           transform="translate(240.4355,42.3535)"><path
             d="m 0,0 c 0,-17.592 -14.261,-31.854 -31.854,-31.854 -17.591,0 -31.853,14.262 -31.853,31.854 0,17.592 14.262,31.853 31.853,31.853 C -14.261,31.853 0,17.592 0,0 Z"
             style="fill:none;stroke:#000000;stroke-width:20;stroke-linecap:round;stroke-linejoin:round;stroke-miterlimit:10;stroke-dasharray:none;stroke-opacity:1"
             id="path1373" /></g><g
           id="g1375"
           transform="translate(333.6597,42.3535)"><path
             d="m 0,0 c 0,-17.592 -14.261,-31.854 -31.854,-31.854 -17.592,0 -31.853,14.262 -31.853,31.854 0,17.592 14.261,31.853 31.853,31.853 C -14.261,31.853 0,17.592 0,0 Z"
             style="fill:none;stroke:#000000;stroke-width:20;stroke-linecap:round;stroke-linejoin:round;stroke-miterlimit:10;stroke-dasharray:none;stroke-opacity:1"
             id="path1377" /></g></g></g></g></svg>
