<svg width="219" height="128" viewBox="0 0 219 128" fill="none" xmlns="http://www.w3.org/2000/svg">
<g clip-path="url(#clip0_73_514)">
<rect width="219" height="128" rx="10" fill="#FFDFDF"/>
<path d="M16.1822 125.687C18.9482 121.331 17.6593 115.557 13.3034 112.791C8.94748 110.025 3.17407 111.314 0.408114 115.67C-2.35785 120.026 -1.06894 125.799 3.28695 128.565C7.64285 131.331 13.4163 130.042 16.1822 125.687Z" fill="#41282E"/>
<path d="M66.0441 45.0895L-22.2627 57.6387L-13.5148 119.196L74.792 106.647L66.0441 45.0895Z" fill="#E0C2C9"/>
<path d="M61.5334 41.0588L-24.6348 64.0884L-8.5811 124.155L77.587 101.126L61.5334 41.0588Z" fill="white"/>
<path d="M4.51951 63.3134L60.0539 48.4724" stroke="#E0E0E0" stroke-width="0.606236" stroke-miterlimit="10"/>
<path d="M-20.6178 64.6686L-19.3685 66.4939L-19.3405 66.4864L-19.1684 64.2812L-18.8644 64.2L-19.1037 66.8288L-19.4029 66.9088L-20.9217 64.7499L-20.6178 64.6686ZM-18.2017 64.0229L-17.5619 66.4168L-17.8518 66.4943L-18.4916 64.1004L-18.2017 64.0229ZM-16.1514 64.1161C-16.197 64.0014 -16.2785 63.9247 -16.3957 63.8859C-16.513 63.8471 -16.6441 63.8471 -16.789 63.8858C-16.895 63.9141 -16.9831 63.956 -17.0535 64.0116C-17.123 64.0669 -17.172 64.1305 -17.2003 64.2024C-17.2279 64.274 -17.2315 64.3481 -17.2111 64.4244C-17.1941 64.4883 -17.1642 64.5392 -17.1215 64.5771C-17.0782 64.6139 -17.0284 64.6411 -16.972 64.6586C-16.9157 64.6753 -16.8585 64.6863 -16.8003 64.6916C-16.7423 64.6961 -16.6896 64.6983 -16.642 64.6981L-16.3814 64.6986C-16.3147 64.6983 -16.2393 64.7024 -16.1552 64.7108C-16.0704 64.719 -15.9862 64.7387 -15.9028 64.7698C-15.8187 64.8 -15.7434 64.8475 -15.6768 64.9123C-15.6102 64.9772 -15.5619 65.0657 -15.5319 65.1779C-15.4974 65.3073 -15.5 65.4332 -15.5399 65.5558C-15.579 65.6781 -15.655 65.7873 -15.7679 65.8835C-15.8801 65.9794 -16.0281 66.0519 -16.212 66.1011C-16.3834 66.1469 -16.5392 66.1589 -16.6795 66.1371C-16.819 66.1151 -16.9378 66.0642 -17.0359 65.9844C-17.1333 65.9044 -17.2041 65.8002 -17.2485 65.6718L-16.9492 65.5918C-16.9173 65.6801 -16.8669 65.7468 -16.7981 65.7918C-16.7287 65.8359 -16.6492 65.8614 -16.5597 65.8684C-16.4696 65.8744 -16.377 65.8647 -16.2819 65.8392C-16.1713 65.8097 -16.0767 65.7652 -15.9983 65.7058C-15.92 65.6457 -15.8638 65.5764 -15.8296 65.4979C-15.7957 65.4187 -15.7904 65.3355 -15.8137 65.2482C-15.835 65.1687 -15.8745 65.11 -15.9322 65.072C-15.9899 65.034 -16.0592 65.0091 -16.14 64.9973C-16.2208 64.9855 -16.3064 64.9791 -16.3968 64.9783L-16.7139 64.9728C-16.9153 64.969 -17.0839 64.9319 -17.2196 64.8613C-17.3554 64.7907 -17.4448 64.6747 -17.4879 64.5134C-17.5237 64.3794 -17.5187 64.2528 -17.4729 64.1337C-17.4265 64.0136 -17.3492 63.9094 -17.2408 63.8212C-17.1319 63.732 -17.0011 63.667 -16.8484 63.6261C-16.6941 63.5849 -16.5495 63.5759 -16.4148 63.5992C-16.2802 63.6216 -16.1651 63.671 -16.0696 63.7474C-15.9732 63.8235 -15.907 63.9214 -15.8708 64.0412L-16.1514 64.1161ZM-15.2315 63.2291L-14.5917 65.623L-14.8816 65.7004L-15.5214 63.3066L-15.2315 63.2291ZM-12.3106 63.7309C-12.2431 63.9833 -12.2304 64.2137 -12.2724 64.422C-12.3144 64.6303 -12.4016 64.8055 -12.5339 64.9477C-12.6662 65.09 -12.8344 65.1884 -13.0386 65.2429C-13.2428 65.2975 -13.4377 65.2962 -13.6233 65.2389C-13.8089 65.1816 -13.9719 65.0732 -14.1122 64.9137C-14.2525 64.7542 -14.3564 64.5482 -14.4239 64.2957C-14.4914 64.0432 -14.5041 63.8128 -14.4621 63.6045C-14.4201 63.3963 -14.3329 63.221 -14.2006 63.0788C-14.0683 62.9366 -13.9001 62.8382 -13.6959 62.7836C-13.4917 62.729 -13.2968 62.7304 -13.1112 62.7876C-12.9256 62.8449 -12.7626 62.9533 -12.6223 63.1128C-12.4819 63.2724 -12.378 63.4784 -12.3106 63.7309ZM-12.5911 63.8058C-12.6465 63.5985 -12.7279 63.4329 -12.8354 63.3088C-12.9421 63.1845 -13.0641 63.1015 -13.2013 63.0597C-13.3378 63.0177 -13.4785 63.016 -13.6234 63.0548C-13.7684 63.0935 -13.8899 63.1652 -13.988 63.2699C-14.0853 63.3744 -14.1496 63.5072 -14.1808 63.6684C-14.2113 63.8293 -14.1988 64.0134 -14.1434 64.2207C-14.088 64.428 -14.0069 64.5938 -13.9003 64.718C-13.7928 64.8421 -13.6708 64.9251 -13.5344 64.9672C-13.3971 65.009 -13.256 65.0105 -13.1111 64.9718C-12.9661 64.933 -12.845 64.8614 -12.7477 64.7569C-12.6496 64.6522 -12.5853 64.5194 -12.5549 64.3585C-12.5236 64.1973 -12.5357 64.0131 -12.5911 63.8058ZM-10.2448 61.8963L-9.60497 64.2902L-9.8855 64.3652L-11.6923 62.8342L-11.7157 62.8405L-11.2134 64.72L-11.5032 64.7975L-12.143 62.4036L-11.8625 62.3287L-10.0498 63.863L-10.0264 63.8568L-10.53 61.9725L-10.2448 61.8963ZM-8.09915 63.8877L-8.73894 61.4938L-7.90202 61.2702C-7.73526 61.2256 -7.59001 61.2177 -7.46628 61.2464C-7.34276 61.2743 -7.2416 61.3295 -7.16278 61.412C-7.08417 61.4937 -7.02925 61.593 -6.99801 61.7099C-6.97052 61.8127 -6.96613 61.9026 -6.98485 61.9794C-7.00278 62.056 -7.03615 62.1216 -7.08496 62.1764C-7.13299 62.231 -7.1888 62.2768 -7.25237 62.3139L-7.24613 62.3372C-7.17163 62.3223 -7.09111 62.3284 -7.00459 62.3553C-6.91806 62.3823 -6.8382 62.4328 -6.765 62.5067C-6.6918 62.5807 -6.63833 62.6808 -6.60459 62.807C-6.57252 62.927 -6.57095 63.0422 -6.59988 63.1526C-6.62881 63.2631 -6.69461 63.3621 -6.79729 63.4496C-6.89996 63.5372 -7.04559 63.6062 -7.23417 63.6566L-8.09915 63.8877ZM-7.87799 63.5531L-7.3029 63.3994C-7.11354 63.3488 -6.9889 63.2762 -6.929 63.1817C-6.86852 63.0863 -6.85234 62.9859 -6.88045 62.8807C-6.90211 62.7997 -6.94276 62.7304 -7.00238 62.6729C-7.06222 62.6145 -7.13584 62.5749 -7.22325 62.554C-7.31086 62.5324 -7.40688 62.5355 -7.5113 62.5634L-8.10042 62.7209L-7.87799 63.5531ZM-8.1679 62.4684L-7.63021 62.3247C-7.54293 62.3013 -7.46881 62.2632 -7.40784 62.2101C-7.34609 62.1569 -7.3029 62.0936 -7.27826 62.0202C-7.25284 61.9466 -7.25138 61.8677 -7.27387 61.7836C-7.30198 61.6784 -7.36246 61.5989 -7.45528 61.5453C-7.54832 61.4908 -7.67432 61.4848 -7.83329 61.5273L-8.38033 61.6735L-8.1679 62.4684ZM-4.25839 61.5788C-4.19091 61.8313 -4.17818 62.0617 -4.2202 62.2699C-4.26222 62.4782 -4.34939 62.6534 -4.4817 62.7957C-4.61401 62.9379 -4.78225 63.0363 -4.98641 63.0909C-5.19058 63.1454 -5.38548 63.1441 -5.5711 63.0868C-5.75673 63.0296 -5.91971 62.9212 -6.06003 62.7616C-6.20036 62.6021 -6.30426 62.3961 -6.37174 62.1436C-6.43922 61.8911 -6.45194 61.6608 -6.40992 61.4525C-6.3679 61.2442 -6.28073 61.069 -6.14842 60.9267C-6.01611 60.7845 -5.84787 60.6861 -5.64371 60.6315C-5.43954 60.577 -5.24464 60.5783 -5.05902 60.6356C-4.87339 60.6928 -4.71041 60.8012 -4.57009 60.9608C-4.42977 61.1203 -4.32586 61.3263 -4.25839 61.5788ZM-4.53892 61.6538C-4.59432 61.4465 -4.67575 61.2808 -4.78322 61.1567C-4.88991 61.0325 -5.01187 60.9494 -5.14912 60.9076C-5.28558 60.8656 -5.42629 60.864 -5.57123 60.9027C-5.71617 60.9415 -5.83769 61.0132 -5.93578 61.1179C-6.03309 61.2224 -6.09737 61.3552 -6.12861 61.5163C-6.15907 61.6773 -6.1466 61.8614 -6.0912 62.0686C-6.0358 62.2759 -5.95476 62.4417 -5.84807 62.566C-5.74061 62.6901 -5.61864 62.7731 -5.48217 62.8151C-5.34493 62.8569 -5.20383 62.8584 -5.05889 62.8197C-4.91395 62.781 -4.79282 62.7093 -4.69551 62.6049C-4.59742 62.5002 -4.53314 62.3673 -4.50268 62.2064C-4.47144 62.0453 -4.48352 61.8611 -4.53892 61.6538ZM-3.46538 62.6493L-3.76929 62.7305L-3.53008 60.1017L-3.23085 60.0217L-1.71204 62.1807L-2.01596 62.2619L-3.2699 60.4379L-3.2886 60.4429L-3.46538 62.6493ZM-3.60309 61.6842L-2.37809 61.3568L-2.30936 61.614L-3.53436 61.9413L-3.60309 61.6842ZM-1.33917 62.081L-1.97897 59.6872L-1.1701 59.471C-0.983073 59.421 -0.82102 59.4119 -0.683936 59.4437C-0.547061 59.4748 -0.435003 59.5379 -0.347764 59.6332C-0.260525 59.7284 -0.198057 59.8466 -0.16036 59.9876C-0.122664 60.1286 -0.11807 60.2614 -0.146577 60.3859C-0.175085 60.5104 -0.240622 60.6198 -0.343187 60.714C-0.44596 60.8074 -0.590079 60.8789 -0.775543 60.9285L-1.43012 61.1034L-1.5001 60.8416L-0.854872 60.6692C-0.727073 60.635 -0.629209 60.5888 -0.56128 60.5306C-0.492572 60.4721 -0.449848 60.4039 -0.433109 60.326C-0.415799 60.2471 -0.419953 60.1597 -0.445569 60.0638C-0.471186 59.968 -0.511498 59.889 -0.566505 59.8269C-0.621511 59.7648 -0.693574 59.7248 -0.782692 59.7068C-0.872019 59.6881 -0.981361 59.6961 -1.11072 59.7306L-1.62035 59.8668L-1.04928 62.0036L-1.33917 62.081ZM-0.499769 60.7045L0.376761 61.6224L0.0401208 61.7124L-0.827058 60.792L-0.499769 60.7045ZM1.50503 61.3209L0.766292 61.5183L0.126494 59.1244L0.89796 58.9183C1.13018 58.8562 1.3417 58.851 1.53252 58.9027C1.72313 58.9536 1.88631 59.0565 2.02206 59.2115C2.1576 59.3656 2.25849 59.5666 2.32472 59.8144C2.39136 60.0637 2.40432 60.2903 2.3636 60.494C2.32266 60.697 2.23017 60.8695 2.08612 61.0115C1.94185 61.1528 1.74816 61.2559 1.50503 61.3209ZM0.987448 61.1837L1.4176 61.0687C1.61553 61.0158 1.76936 60.9338 1.87909 60.8227C1.98881 60.7115 2.05678 60.5769 2.08298 60.4187C2.10918 60.2606 2.09625 60.0842 2.04418 59.8893C1.99253 59.6961 1.91651 59.5381 1.81611 59.4155C1.7155 59.2921 1.59247 59.2098 1.44701 59.1685C1.30135 59.1265 1.13501 59.1304 0.947986 59.1804L0.485106 59.3041L0.987448 61.1837Z" fill="#515151"/>
<path d="M5.46886 66.4754L-18.7993 72.9614L-14.5842 88.7327L9.68395 82.2467L5.46886 66.4754Z" stroke="#E0E0E0" stroke-width="0.606236" stroke-miterlimit="10"/>
<path d="M-14.044 90.7547L10.2254 84.269" stroke="#E0E0E0" stroke-width="0.606236" stroke-miterlimit="10"/>
<path d="M-13.5044 92.775L10.7649 86.289" stroke="#E0E0E0" stroke-width="0.606236" stroke-miterlimit="10"/>
<path d="M-12.9644 94.794L11.305 88.3086" stroke="#E0E0E0" stroke-width="0.606236" stroke-miterlimit="10"/>
<path d="M33.1857 59.0677L8.91748 65.5537L13.1326 81.325L37.4007 74.839L33.1857 59.0677Z" stroke="#E0E0E0" stroke-width="0.606236" stroke-miterlimit="10"/>
<path d="M13.6743 83.3475L37.9434 76.8619" stroke="#E0E0E0" stroke-width="0.606236" stroke-miterlimit="10"/>
<path d="M14.2138 85.367L38.4832 78.8813" stroke="#E0E0E0" stroke-width="0.606236" stroke-miterlimit="10"/>
<path d="M14.7529 87.387L39.0223 80.9014" stroke="#E0E0E0" stroke-width="0.606236" stroke-miterlimit="10"/>
<path d="M60.903 51.66L36.6348 58.146L40.8498 73.9173L65.118 67.4313L60.903 51.66Z" stroke="#E0E0E0" stroke-width="0.606236" stroke-miterlimit="10"/>
<path d="M41.3925 75.9402L65.6619 69.4546" stroke="#E0E0E0" stroke-width="0.606236" stroke-miterlimit="10"/>
<path d="M41.9321 77.9598L66.2012 71.4742" stroke="#E0E0E0" stroke-width="0.606236" stroke-miterlimit="10"/>
<path d="M42.4717 79.9793L66.741 73.4936" stroke="#E0E0E0" stroke-width="0.606236" stroke-miterlimit="10"/>
<path d="M12.1075 91.3153L-12.1606 97.8013L-7.94556 113.573L16.3226 107.087L12.1075 91.3153Z" stroke="#E0E0E0" stroke-width="0.606236" stroke-miterlimit="10"/>
<path d="M-7.40579 115.596L16.8636 109.11" stroke="#E0E0E0" stroke-width="0.606236" stroke-miterlimit="10"/>
<path d="M-6.86624 117.616L17.4031 111.13" stroke="#E0E0E0" stroke-width="0.606236" stroke-miterlimit="10"/>
<path d="M-6.32669 119.635L17.9427 113.149" stroke="#E0E0E0" stroke-width="0.606236" stroke-miterlimit="10"/>
<path d="M39.8253 83.9071L15.5571 90.3931L19.7722 106.164L44.0404 99.6783L39.8253 83.9071Z" stroke="#E0E0E0" stroke-width="0.606236" stroke-miterlimit="10"/>
<path d="M20.313 108.188L44.5821 101.703" stroke="#E0E0E0" stroke-width="0.606236" stroke-miterlimit="10"/>
<path d="M20.8525 110.208L45.1219 103.722" stroke="#E0E0E0" stroke-width="0.606236" stroke-miterlimit="10"/>
<path d="M21.3925 112.227L45.6619 105.742" stroke="#E0E0E0" stroke-width="0.606236" stroke-miterlimit="10"/>
<path d="M67.5411 76.4989L43.2729 82.9849L47.488 98.7561L71.7562 92.2701L67.5411 76.4989Z" stroke="#E0E0E0" stroke-width="0.606236" stroke-miterlimit="10"/>
<path d="M48.0298 100.781L72.2991 94.2949" stroke="#E0E0E0" stroke-width="0.606236" stroke-miterlimit="10"/>
<path d="M48.5698 102.801L72.8389 96.315" stroke="#E0E0E0" stroke-width="0.606236" stroke-miterlimit="10"/>
<path d="M49.1098 104.82L73.3792 98.3345" stroke="#E0E0E0" stroke-width="0.606236" stroke-miterlimit="10"/>
<path d="M48.3909 39.2627L22.4037 42.408L15.9069 43.1944L12.6697 43.5882C11.6745 43.7198 10.6974 43.979 9.77096 44.3572C9.30727 44.5454 8.85603 44.7629 8.4213 45.0095L7.01788 45.8221L4.18805 47.465L-1.47137 50.7507C-2.04646 51.0846 -2.78359 50.8892 -3.11755 50.3139C-3.45145 49.7388 -3.25599 49.0019 -2.68071 48.6677C-2.67479 48.6643 -2.66363 48.658 -2.65747 48.6546L3.07312 45.4946L5.93854 43.9145L7.38489 43.1196C7.90558 42.8396 8.44404 42.5945 8.99581 42.3848C10.0983 41.9632 11.254 41.6844 12.4243 41.556L15.6914 41.2318L22.2042 40.5891L48.2545 38.0185C48.5987 37.9845 48.905 38.2361 48.9389 38.58C48.9723 38.9189 48.7274 39.2217 48.3909 39.2627Z" fill="#5E1D5C"/>
<path d="M2.55325 40.2503L28.7302 40.2708L35.2744 40.2759L38.5574 40.2803C39.7346 40.2941 40.9121 40.4589 42.0504 40.7711C42.62 40.9261 43.1799 41.1175 43.7252 41.3454L45.2421 41.9959L48.2476 43.2892L54.259 45.876C54.8698 46.1389 55.1522 46.8474 54.8891 47.4582C54.6262 48.0691 53.9177 48.3514 53.3068 48.0883C53.3006 48.0856 53.2886 48.0803 53.2826 48.0775L47.33 45.3586L44.3536 43.9992L42.8776 43.3273C42.4211 43.1244 41.9507 42.9516 41.4707 42.8096C40.5117 42.5234 39.5142 42.3607 38.5109 42.3268L35.2506 42.2504L28.708 42.1008L2.53848 41.5024C2.19288 41.4943 1.91904 41.2078 1.92683 40.8623C1.93461 40.5214 2.21407 40.2504 2.55325 40.2503Z" fill="#81487C"/>
<path d="M20.1473 46.5425C23.5641 42.6765 23.2 36.7728 19.3341 33.3559C15.4682 29.9391 9.56441 30.3032 6.1476 34.1691C2.7308 38.035 3.09487 43.9388 6.96077 47.3556C10.8267 50.7724 16.7305 50.4084 20.1473 46.5425Z" fill="white" fill-opacity="0.39" stroke="#81487C" stroke-width="4.25907" stroke-miterlimit="10"/>
<path d="M44.8862 45.3557C48.3135 41.4991 47.9655 35.5942 44.1089 32.1669C40.2522 28.7396 34.3474 29.0876 30.9201 32.9442C27.4928 36.8008 27.8408 42.7056 31.6974 46.133C35.554 49.5603 41.4588 49.2123 44.8862 45.3557Z" fill="white" fill-opacity="0.39" stroke="#81487C" stroke-width="4.25907" stroke-miterlimit="10"/>
<path d="M22.4789 39.9029C22.4789 39.9029 25.2113 37.11 28.5707 39.6054" stroke="#81487C" stroke-width="4.25907" stroke-miterlimit="10"/>
<path d="M3.60113 42.1086L2.89657 42.143C2.18922 42.1775 1.58768 41.6321 1.55312 40.9245C1.51862 40.2172 2.06398 39.6156 2.77158 39.5811L3.47614 39.5467L3.60113 42.1086Z" fill="#81487C"/>
<path d="M47.4807 37.3977L48.1852 37.3633C48.8926 37.3288 49.4941 37.8742 49.5287 38.5818C49.5632 39.2891 49.0178 39.8906 48.3102 39.9252L47.6059 39.9595L47.4807 37.3977Z" fill="#81487C"/>
<path d="M24.5492 131C30.2493 122.023 27.5931 110.125 18.6164 104.425C9.63972 98.7252 -2.25819 101.381 -7.95831 110.358C-13.6584 119.335 -11.0023 131.233 -2.02556 136.933C6.95113 142.633 18.849 139.977 24.5492 131Z" fill="#81487C"/>
<path d="M13.0098 133.695C19.357 132.278 23.3538 125.984 21.9368 119.637C20.5198 113.289 14.2256 109.293 7.8784 110.71C1.53118 112.127 -2.46555 118.421 -1.04855 124.768C0.368456 131.115 6.6626 135.112 13.0098 133.695Z" fill="#5E1D5C"/>
<path d="M19.8164 123.135C21.171 116.774 17.1126 110.52 10.7517 109.165C4.39076 107.81 -1.86395 111.869 -3.21859 118.23C-4.57323 124.591 -0.514832 130.845 5.8461 132.2C12.207 133.555 18.4617 129.496 19.8164 123.135Z" fill="white"/>
<path d="M17.4386 122.612C18.5034 117.563 15.2737 112.607 10.2249 111.542C5.17603 110.477 0.219916 113.707 -0.844911 118.756C-1.90974 123.805 1.31995 128.761 6.3688 129.825C11.4176 130.89 16.3738 127.661 17.4386 122.612Z" fill="#41282E"/>
<path opacity="0.31" d="M2.70412 124.195C0.761969 121.106 1.69165 117.028 4.78051 115.086" stroke="white" stroke-width="5.96269" stroke-miterlimit="10" stroke-linecap="round" stroke-linejoin="round"/>
<path d="M0.0803762 127.842L-4.65972 130.822C-5.45011 131.319 -6.49357 131.081 -6.99043 130.291C-7.48728 129.501 -7.24943 128.457 -6.45933 127.96L-1.71924 124.98L0.0803762 127.842Z" fill="white"/>
<path d="M80.0271 93.203L76.2876 89.7656L52.7745 115.346L56.514 118.783L80.0271 93.203Z" fill="#BE5E7A"/>
<path d="M56.512 118.783L52.7725 115.345L50.447 117.875L54.1865 121.313L56.512 118.783Z" fill="white"/>
<path d="M54.213 121.278L50.4738 117.841L49.8669 118.501C48.9177 119.534 48.9852 121.14 50.0178 122.089C51.0505 123.039 52.657 122.971 53.6061 121.939L54.213 121.278Z" fill="#81487C"/>
<path d="M76.2835 89.7639L80.0227 93.2013L80.8746 88.5219L76.2835 89.7639Z" fill="white"/>
<path d="M79.8062 88.8113L80.6759 89.6109L80.8741 88.5224L79.8062 88.8113Z" fill="#41282E"/>
<path opacity="0.08" d="M80.0225 93.2013L56.509 118.78L54.2128 121.278L54.1835 121.31L53.6059 121.939C52.7946 122.821 51.5039 122.996 50.5009 122.436L78.5876 91.8824L80.8742 88.5219L80.0225 93.2013Z" fill="#5E1D5C"/>
<path opacity="0.26" d="M75.1105 93.3257C74.9469 93.1754 74.6927 93.186 74.5422 93.3497L52.3333 117.509C52.183 117.673 52.1936 117.927 52.3572 118.078C52.5209 118.228 52.7751 118.217 52.9256 118.054L75.1343 93.894C75.2848 93.7304 75.2739 93.476 75.1105 93.3257Z" fill="white"/>
<path d="M75.1677 116.156C79.5309 112.766 82.84 113.549 84.8446 116.129C86.8492 118.709 86.7905 122.109 82.4273 125.499C78.0641 128.889 71.0486 130.986 69.0437 128.406C67.0392 125.826 70.8045 119.546 75.1677 116.156Z" fill="#D3774F"/>
<path d="M71.6936 125.913L87.6288 113.025C87.9478 112.767 88.4156 112.816 88.6735 113.135C88.9315 113.454 88.882 113.922 88.5632 114.18C88.5565 114.185 88.5473 114.193 88.5402 114.198L72.1141 126.454C71.9623 126.567 71.7478 126.536 71.6346 126.385C71.5241 126.237 71.5518 126.028 71.6936 125.913Z" fill="#5E1D5C"/>
<path d="M129.902 57L124.182 40.61H127.438L131.926 54.184H131.288L135.776 40.61H139.032L133.334 57H129.902ZM140.622 57V45.032H143.504V57H140.622ZM140.622 43.69V40.61H143.504V43.69H140.622ZM150.719 57.264C149.443 57.264 148.329 56.9633 147.375 56.362C146.437 55.746 145.791 54.9173 145.439 53.876L147.595 52.842C147.903 53.5167 148.329 54.0447 148.871 54.426C149.429 54.8073 150.045 54.998 150.719 54.998C151.247 54.998 151.665 54.8807 151.973 54.646C152.281 54.4113 152.435 54.1033 152.435 53.722C152.435 53.4873 152.369 53.2967 152.237 53.15C152.12 52.9887 151.951 52.8567 151.731 52.754C151.526 52.6367 151.299 52.5413 151.049 52.468L149.091 51.918C148.079 51.6247 147.309 51.1773 146.781 50.576C146.268 49.9747 146.011 49.2633 146.011 48.442C146.011 47.7087 146.195 47.0707 146.561 46.528C146.943 45.9707 147.463 45.538 148.123 45.23C148.798 44.922 149.568 44.768 150.433 44.768C151.563 44.768 152.56 45.0393 153.425 45.582C154.291 46.1247 154.907 46.8873 155.273 47.87L153.073 48.904C152.868 48.3613 152.523 47.9287 152.039 47.606C151.555 47.2833 151.013 47.122 150.411 47.122C149.927 47.122 149.546 47.232 149.267 47.452C148.989 47.672 148.849 47.958 148.849 48.31C148.849 48.53 148.908 48.7207 149.025 48.882C149.143 49.0433 149.304 49.1753 149.509 49.278C149.729 49.3807 149.979 49.476 150.257 49.564L152.171 50.136C153.154 50.4293 153.909 50.8693 154.437 51.456C154.98 52.0427 155.251 52.7613 155.251 53.612C155.251 54.3307 155.061 54.9687 154.679 55.526C154.298 56.0687 153.77 56.494 153.095 56.802C152.421 57.11 151.629 57.264 150.719 57.264ZM157.466 57V45.032H160.348V57H157.466ZM157.466 43.69V40.61H160.348V43.69H157.466ZM168.861 57.264C167.688 57.264 166.617 56.9927 165.649 56.45C164.696 55.9073 163.933 55.1667 163.361 54.228C162.804 53.2893 162.525 52.2187 162.525 51.016C162.525 49.8133 162.804 48.7427 163.361 47.804C163.933 46.8653 164.696 46.1247 165.649 45.582C166.602 45.0393 167.673 44.768 168.861 44.768C170.034 44.768 171.098 45.0393 172.051 45.582C173.004 46.1247 173.76 46.8653 174.317 47.804C174.889 48.728 175.175 49.7987 175.175 51.016C175.175 52.2187 174.889 53.2893 174.317 54.228C173.745 55.1667 172.982 55.9073 172.029 56.45C171.076 56.9927 170.02 57.264 168.861 57.264ZM168.861 54.624C169.506 54.624 170.071 54.47 170.555 54.162C171.054 53.854 171.442 53.4287 171.721 52.886C172.014 52.3287 172.161 51.7053 172.161 51.016C172.161 50.312 172.014 49.696 171.721 49.168C171.442 48.6253 171.054 48.2 170.555 47.892C170.071 47.5693 169.506 47.408 168.861 47.408C168.201 47.408 167.622 47.5693 167.123 47.892C166.624 48.2 166.228 48.6253 165.935 49.168C165.656 49.696 165.517 50.312 165.517 51.016C165.517 51.7053 165.656 52.3287 165.935 52.886C166.228 53.4287 166.624 53.854 167.123 54.162C167.622 54.47 168.201 54.624 168.861 54.624ZM177.361 57V45.032H180.067V47.386L179.847 46.968C180.125 46.2493 180.58 45.7067 181.211 45.34C181.856 44.9587 182.604 44.768 183.455 44.768C184.335 44.768 185.112 44.9587 185.787 45.34C186.476 45.7213 187.011 46.2567 187.393 46.946C187.774 47.6207 187.965 48.4053 187.965 49.3V57H185.083V49.982C185.083 49.454 184.98 48.9993 184.775 48.618C184.569 48.2367 184.283 47.9433 183.917 47.738C183.565 47.518 183.147 47.408 182.663 47.408C182.193 47.408 181.775 47.518 181.409 47.738C181.042 47.9433 180.756 48.2367 180.551 48.618C180.345 48.9993 180.243 49.454 180.243 49.982V57H177.361ZM125.417 85V68.61H132.325C133.41 68.61 134.334 68.8007 135.097 69.182C135.874 69.5487 136.468 70.0767 136.879 70.766C137.304 71.4407 137.517 72.262 137.517 73.23C137.517 73.978 137.312 74.682 136.901 75.342C136.505 75.9873 135.867 76.5227 134.987 76.948V75.562C135.794 75.87 136.432 76.2513 136.901 76.706C137.37 77.1607 137.7 77.6667 137.891 78.224C138.082 78.7813 138.177 79.368 138.177 79.984C138.177 81.5533 137.656 82.7853 136.615 83.68C135.588 84.56 134.158 85 132.325 85H125.417ZM128.409 82.36H132.633C133.41 82.36 134.026 82.1473 134.481 81.722C134.95 81.282 135.185 80.7027 135.185 79.984C135.185 79.2653 134.95 78.686 134.481 78.246C134.026 77.806 133.41 77.586 132.633 77.586H128.409V82.36ZM128.409 74.968H132.479C133.095 74.968 133.586 74.792 133.953 74.44C134.32 74.0733 134.503 73.604 134.503 73.032C134.503 72.46 134.32 72.0053 133.953 71.668C133.586 71.3307 133.095 71.162 132.479 71.162H128.409V74.968ZM146.238 85.264C145.065 85.264 143.994 84.9927 143.026 84.45C142.073 83.9073 141.31 83.1667 140.738 82.228C140.181 81.2893 139.902 80.2187 139.902 79.016C139.902 77.8133 140.181 76.7427 140.738 75.804C141.31 74.8653 142.073 74.1247 143.026 73.582C143.979 73.0393 145.05 72.768 146.238 72.768C147.411 72.768 148.475 73.0393 149.428 73.582C150.381 74.1247 151.137 74.8653 151.694 75.804C152.266 76.728 152.552 77.7987 152.552 79.016C152.552 80.2187 152.266 81.2893 151.694 82.228C151.122 83.1667 150.359 83.9073 149.406 84.45C148.453 84.9927 147.397 85.264 146.238 85.264ZM146.238 82.624C146.883 82.624 147.448 82.47 147.932 82.162C148.431 81.854 148.819 81.4287 149.098 80.886C149.391 80.3287 149.538 79.7053 149.538 79.016C149.538 78.312 149.391 77.696 149.098 77.168C148.819 76.6253 148.431 76.2 147.932 75.892C147.448 75.5693 146.883 75.408 146.238 75.408C145.578 75.408 144.999 75.5693 144.5 75.892C144.001 76.2 143.605 76.6253 143.312 77.168C143.033 77.696 142.894 78.312 142.894 79.016C142.894 79.7053 143.033 80.3287 143.312 80.886C143.605 81.4287 144.001 81.854 144.5 82.162C144.999 82.47 145.578 82.624 146.238 82.624ZM158.368 85.264C157.532 85.264 156.806 85.1247 156.19 84.846C155.574 84.5673 155.097 84.1713 154.76 83.658C154.422 83.13 154.254 82.5213 154.254 81.832C154.254 81.172 154.4 80.5853 154.694 80.072C154.987 79.544 155.442 79.104 156.058 78.752C156.674 78.4 157.451 78.1507 158.39 78.004L162.306 77.366V79.566L158.94 80.138C158.368 80.2407 157.942 80.424 157.664 80.688C157.385 80.952 157.246 81.2967 157.246 81.722C157.246 82.1327 157.4 82.4627 157.708 82.712C158.03 82.9467 158.426 83.064 158.896 83.064C159.497 83.064 160.025 82.9393 160.48 82.69C160.949 82.426 161.308 82.0667 161.558 81.612C161.822 81.1573 161.954 80.6587 161.954 80.116V77.036C161.954 76.5227 161.748 76.0973 161.338 75.76C160.942 75.408 160.414 75.232 159.754 75.232C159.138 75.232 158.588 75.4007 158.104 75.738C157.634 76.0607 157.29 76.4933 157.07 77.036L154.716 75.892C154.95 75.2613 155.317 74.7187 155.816 74.264C156.329 73.7947 156.93 73.428 157.62 73.164C158.309 72.9 159.057 72.768 159.864 72.768C160.846 72.768 161.712 72.9513 162.46 73.318C163.208 73.67 163.787 74.1687 164.198 74.814C164.623 75.4447 164.836 76.1853 164.836 77.036V85H162.108V82.954L162.724 82.91C162.416 83.4233 162.049 83.856 161.624 84.208C161.198 84.5453 160.714 84.8093 160.172 85C159.629 85.176 159.028 85.264 158.368 85.264ZM167.499 85V73.032H170.205V75.694L169.985 75.298C170.264 74.4033 170.697 73.78 171.283 73.428C171.885 73.076 172.603 72.9 173.439 72.9H174.143V75.452H173.109C172.288 75.452 171.628 75.7087 171.129 76.222C170.631 76.7207 170.381 77.4247 170.381 78.334V85H167.499ZM181.294 85.264C180.135 85.264 179.101 84.9927 178.192 84.45C177.282 83.8927 176.564 83.1373 176.036 82.184C175.508 81.2307 175.244 80.1747 175.244 79.016C175.244 77.8427 175.508 76.7867 176.036 75.848C176.564 74.9093 177.282 74.1613 178.192 73.604C179.116 73.0467 180.142 72.768 181.272 72.768C182.181 72.768 182.988 72.9513 183.692 73.318C184.41 73.67 184.975 74.1687 185.386 74.814L184.946 75.408V68.346H187.828V85H185.1V82.69L185.408 83.262C184.997 83.9073 184.425 84.406 183.692 84.758C182.958 85.0953 182.159 85.264 181.294 85.264ZM181.602 82.624C182.262 82.624 182.841 82.47 183.34 82.162C183.838 81.854 184.227 81.4287 184.506 80.886C184.799 80.3433 184.946 79.72 184.946 79.016C184.946 78.3267 184.799 77.7107 184.506 77.168C184.227 76.6107 183.838 76.178 183.34 75.87C182.841 75.562 182.262 75.408 181.602 75.408C180.956 75.408 180.377 75.5693 179.864 75.892C179.35 76.2 178.947 76.6253 178.654 77.168C178.375 77.696 178.236 78.312 178.236 79.016C178.236 79.72 178.375 80.3433 178.654 80.886C178.947 81.4287 179.35 81.854 179.864 82.162C180.377 82.47 180.956 82.624 181.602 82.624Z" fill="#3E3E3E"/>
</g>
<defs>
<clipPath id="clip0_73_514">
<rect width="219" height="128" rx="10" fill="white"/>
</clipPath>
</defs>
</svg>
