<svg id="Layer_1" enable-background="new 0 0 512 512" height="512" viewBox="0 0 512 512" width="512" xmlns="http://www.w3.org/2000/svg"><g id="Layer_2_00000154384451377842327240000015995761767817410971_"><g id="Layer_1-2"><g id="_36.SantaCrown"><path d="m256 107.6-84.5 132c-6.5 10.2-20 13.1-30.2 6.6-.3-.2-.5-.4-.8-.5l-89.6-63.2 50.8 224c47.3-23.5 115.2-35.6 154.3-35.6s107 12.1 154.3 35.6l50.8-224-89.6 63.2c-9.9 7-23.5 4.6-30.5-5.3-.2-.3-.4-.5-.5-.8z" fill="#ffc943"/><path d="m418.3 371.1-8 35.3c-47.3-23.5-115.2-35.6-154.3-35.6s-107 12.1-154.3 35.6l-8-35.3-42.9-188.7c24.5 39.8 44.2 71.6 74.1 105.9 33.4 38.2 85.8 48.4 146.7 49.4 58.6 1.1 123.6 19.2 146.7 33.4z" fill="#ffaa39"/><path d="m77.4 420.5c0-14.2 8.7-27 22-32.2 52.3-20.8 117.1-31.4 156.6-31.4s104.3 10.6 156.6 31.4c13.3 5.2 22 18 22 32.2 0 23.4-22.8 40.2-45.1 33-47.2-15.3-99.6-23.1-133.4-23.1s-86.2 7.8-133.4 23.1c-22.4 7.3-45.3-9.5-45.3-33z" fill="#ffc943"/><path d="m432.2 433.1c-5.2 13.3-17.9 22-32.2 22.1-3.6 0-7.2-.6-10.6-1.7-47.2-15.3-99.6-23.1-133.4-23.1s-86.2 7.8-133.4 23.1c-22.3 7.2-45.1-9.5-45.1-33 0-10.1 4.4-19.7 12.1-26.2-.3 1.8-.5 3.6-.5 5.4-.4 23.4 22.1 40.6 44.5 33.8 47.5-14.5 100-21.4 133.8-20.8s86.1 9.3 133 25.5c10.8 3.7 22.7 1.9 31.8-5.1z" fill="#ffaa39"/><g fill="#faf180"><circle cx="256" cy="107.6" r="50.8"/><circle cx="461.2" cy="182.4" r="50.8"/><circle cx="50.8" cy="182.4" r="50.8"/></g><path d="m300.1 132.8c-13.9 24.4-45 32.9-69.4 19s-32.9-45-19-69.4c2.8-4.9 6.4-9.3 10.6-13-13.9 24.4-5.4 55.4 19 69.4 19 10.7 42.5 8.3 58.8-6z" fill="#ed9928"/><path d="m505.3 207.6c-13.9 24.4-45 32.9-69.4 18.9-24.4-13.9-32.9-45-18.9-69.4 2.8-4.9 6.4-9.3 10.6-13-13.9 24.4-5.5 55.4 18.9 69.4 18.9 10.8 42.5 8.5 58.8-5.9z" fill="#ed9928"/><path d="m95 207.6c-13.9 24.4-45 32.9-69.4 18.9-24.4-13.9-32.9-45-18.9-69.4 2.8-4.9 6.4-9.3 10.6-13-13.9 24.4-5.5 55.4 18.9 69.4 18.9 10.8 42.5 8.5 58.8-5.9z" fill="#ed9928"/></g></g></g></svg>