<svg width="141" height="129" viewBox="0 0 141 129" fill="none" xmlns="http://www.w3.org/2000/svg">
<path d="M-4.8392 93.9454C-1.20656 92.3048 -0.653763 88.356 0.846771 86.303C2.3473 84.2497 5.97993 82.9862 5.97993 82.9862C5.97993 82.9862 2.5052 80.3013 -3.02289 80.9329C-5.62181 81.2297 -7.57434 82.3997 -9.16879 83.6704C-8.34869 81.2916 -9.18118 79.9208 -7.76114 77.6583C-6.10272 75.0157 -2.86499 73.5885 -1.04832 69.2001C0.76799 64.8116 -1.04832 60.8739 -1.04832 60.8739C-1.04832 60.8739 -1.60114 62.4532 -3.81236 64.0328C-5.78899 65.4446 -11.3604 65.6613 -14.6645 69.9207C-12.9569 45.8837 3.75426 32.7478 15.3168 25.8956C25.2487 20.0101 31.6616 7.72657 58.495 9.50298C85.3283 11.2832 91.3023 28.4976 97.9507 41.529C101.631 48.7431 109.953 50.3392 116.971 55.3028C111.776 53.9437 108.482 56.4504 104.569 57.2412C99.8785 58.189 99.1417 54.8821 94.9297 54.9034C90.7178 54.9247 89.1385 56.3988 89.1385 56.3988C89.1385 56.3988 93.3504 55.7669 94.7192 59.3472C96.088 62.9272 97.7729 64.2719 101.985 63.705C106.197 63.1381 107.416 63.4439 109.649 65.4498C111.883 67.4553 117.042 65.9812 119.991 66.7181C121.738 67.1546 124.112 70.2523 125.758 72.7047C124.428 71.6287 122.608 70.4398 120.156 69.3456C113.311 66.2919 104.569 71.8778 104.569 71.8778C104.569 71.8778 111.462 73.4571 115.463 76.1949C119.464 78.9328 122.307 76.3002 125.045 77.2479C126.416 77.7227 127.523 78.2036 128.287 78.5655C128.288 78.5761 128.289 78.5864 128.289 78.5971C128.838 87.1104 125.621 94.6691 120.156 101.148C106.774 117.01 79.9152 126.408 61.8345 127.532C42.9248 128.704 9.73779 121.679 -6.02084 100.746C-7.41576 98.8945 -8.67171 96.932 -9.77113 94.8583C-8.19595 94.8497 -6.38274 94.6423 -4.8392 93.9454Z" fill="#A8B2F4"/>
<path d="M69.5328 53.6728C64.4817 51.5387 62.1169 45.714 64.251 40.6629C66.3851 35.6117 72.2098 33.247 77.2609 35.3811C82.312 37.5151 84.6767 43.3398 82.5427 48.391C80.4086 53.4421 74.5839 55.8068 69.5328 53.6728Z" fill="#7C84D5"/>
<path d="M4.98981 38.202C2.99913 38.202 1.38538 36.5883 1.38538 34.5976C1.38538 32.6069 2.99913 30.9932 4.98981 30.9932C6.98048 30.9932 8.59424 32.6069 8.59424 34.5976C8.59424 36.5883 6.98048 38.202 4.98981 38.202Z" fill="#7C84D5"/>
<path d="M-6.02151 100.746C9.73713 121.679 42.9242 128.704 61.8339 127.532C79.9145 126.407 106.774 117.01 120.155 101.148C115.058 95.4979 102.027 84.0548 77.9795 80.8377C45.6511 76.5112 23.1187 102.18 -1.31181 100.824C-2.95509 100.731 -4.52511 100.709 -6.02151 100.746Z" fill="#7C84D5"/>
<path d="M98.7733 34.0231C95.7722 25.0202 102.88 29.1792 105.565 34.9178C108.25 40.6568 113.304 41.2873 113.304 44.5257C113.304 47.7642 101.774 43.0259 98.7733 34.0231Z" stroke="#7C84D5" stroke-miterlimit="10"/>
<path d="M16.4833 22.7268C16.4833 22.7268 24.8546 15.6225 28.2502 13.3322C31.6462 11.0418 30.1456 7.96199 22.3668 11.5159C14.5879 15.0697 11.271 21.9318 12.2979 23.3577C13.3244 24.7832 16.4833 22.7268 16.4833 22.7268Z" stroke="#7C84D5" stroke-miterlimit="10"/>
<path d="M94.1668 43.9867C94.1668 44.2846 94.4083 44.5261 94.7062 44.5261C95.0041 44.5261 95.2456 44.2846 95.2456 43.9867C95.2456 43.6888 95.0041 43.4473 94.7062 43.4473C94.4083 43.4473 94.1668 43.6888 94.1668 43.9867Z" fill="#5661AF"/>
<path d="M89.639 45.0057C89.639 45.3036 89.8805 45.5451 90.1784 45.5451C90.4763 45.5451 90.7178 45.3036 90.7178 45.0057C90.7178 44.7078 90.4763 44.4663 90.1784 44.4663C89.8805 44.4663 89.639 44.7078 89.639 45.0057Z" fill="#5661AF"/>
<path d="M74.5072 28.8924C74.5072 29.1903 74.7486 29.4318 75.0465 29.4318C75.3444 29.4318 75.5859 29.1903 75.5859 28.8924C75.5859 28.5945 75.3444 28.353 75.0465 28.353C74.7486 28.353 74.5072 28.5945 74.5072 28.8924Z" fill="#5661AF"/>
<path d="M3.91096 76.7186C3.91096 77.0165 4.15245 77.258 4.45036 77.258C4.74826 77.258 4.98975 77.0165 4.98975 76.7186C4.98975 76.4207 4.74826 76.1792 4.45036 76.1792C4.15245 76.1792 3.91096 76.4207 3.91096 76.7186Z" fill="#5661AF"/>
<path d="M2.07404 75.2577C2.07404 75.5556 2.31554 75.797 2.61344 75.797C2.91135 75.797 3.15283 75.5556 3.15283 75.2577C3.15283 74.9597 2.91135 74.7183 2.61344 74.7183C2.31554 74.7183 2.07404 74.9597 2.07404 75.2577Z" fill="#5661AF"/>
<path d="M91.5865 43.1049C91.1068 43.1049 90.7179 42.716 90.7179 42.2363C90.7179 41.7566 91.1068 41.3677 91.5865 41.3677C92.0662 41.3677 92.4551 41.7566 92.4551 42.2363C92.4551 42.716 92.0662 43.1049 91.5865 43.1049Z" fill="#5661AF"/>
<path d="M-0.0482854 48.9911C-0.528 48.9911 -0.916894 48.6022 -0.916894 48.1225C-0.916894 47.6428 -0.528 47.2539 -0.0482854 47.2539C0.431429 47.2539 0.820312 47.6428 0.820312 48.1225C0.820312 48.6022 0.431429 48.9911 -0.0482854 48.9911Z" fill="#5661AF"/>
<path d="M92.4554 74.2442C92.4554 74.8658 92.9594 75.3698 93.581 75.3698C94.2026 75.3698 94.7065 74.8658 94.7065 74.2442C94.7065 73.6226 94.2026 73.1187 93.581 73.1187C92.9594 73.119 92.4554 73.6226 92.4554 74.2442Z" stroke="white" stroke-miterlimit="10"/>
<path d="M28.8377 26.2452C28.8377 26.8668 29.3417 27.3708 29.9633 27.3708C30.5849 27.3708 31.0889 26.8668 31.0889 26.2452C31.0889 25.6236 30.5849 25.1196 29.9633 25.1196C29.3417 25.1196 28.8377 25.6236 28.8377 26.2452Z" stroke="white" stroke-miterlimit="10"/>
<path d="M83.8734 25.9807C82.0296 25.2539 81.1241 23.17 81.8508 21.3262C82.5776 19.4824 84.6615 18.5769 86.5053 19.3037C88.3491 20.0305 89.2546 22.1143 88.5278 23.9581C87.801 25.8019 85.7172 26.7074 83.8734 25.9807Z" stroke="white" stroke-miterlimit="10"/>
<path d="M125.833 96.7096C121.772 96.7096 118.48 93.4174 118.48 89.3563C118.48 85.2951 121.772 82.0029 125.833 82.0029C129.894 82.0029 133.187 85.2951 133.187 89.3563C133.187 93.4174 129.894 96.7096 125.833 96.7096Z" stroke="white" stroke-miterlimit="10"/>
<path d="M70.0859 14.5264C70.0859 14.5264 71.635 15.3303 71.7083 18.7225C71.7815 22.1147 68.5318 23.6864 66.4826 23.6499L66.6621 23.1209C66.6621 23.1209 70.1523 22.7359 71.0581 19.7748C71.9642 16.8136 69.99 14.8029 69.99 14.8029L70.0859 14.5264Z" fill="#3D2624"/>
<path d="M13.659 73.7207C13.659 73.7207 14.368 79.0823 23.7726 81.1294C33.1772 83.1766 42.877 77.815 42.877 77.815L41.2942 77.6581C41.2942 77.6581 35.8095 80.837 29.2291 80.4473C22.6487 80.0572 18.9222 76.0606 18.9222 76.0606L13.659 73.7207Z" fill="#3D2624"/>
<path d="M11.3405 47.7896C10.7557 41.1607 19.9191 34.3368 30.8374 32.5796C41.7556 30.8225 40.9675 19.1777 40.9675 19.1777L62.7805 31.7289C62.7805 31.7289 63.7874 42.1356 71.0578 47.9846C78.3283 53.8337 79.5798 67.6766 76.168 73.1359C72.7562 78.5951 66.7121 78.9849 57.3047 78.4001C47.8974 77.8153 43.5368 78.3034 33.0796 79.1799C22.6223 80.0564 15.1661 82.4328 8.81586 70.8448C2.46562 59.2572 11.3405 47.7896 11.3405 47.7896ZM12.218 47.2533C12.218 47.2533 13.3391 43.9877 17.6284 40.6244C21.9178 37.2611 25.3299 35.409 25.3299 35.409C11.9745 39.601 11.8283 47.2536 11.8283 47.2536H12.218V47.2533Z" fill="#3D2624"/>
<path d="M70.299 41.8823C70.299 41.8823 73.3895 44.6701 75.5828 50.5191C77.7762 56.3682 82.4067 74.5004 82.4067 74.5004L74.9213 79.1678L67.6866 59.3902L70.299 41.8823Z" fill="#C56E5D"/>
<path d="M40.4735 70.0021C41.6121 73.3706 41.3321 77.0558 39.6885 80.2107L39.2867 81.9465V81.9503L38.1849 86.6933C45.7253 93.2386 56.1991 95.4461 62.6412 94.0236C69.0871 92.6012 70.7269 87.3273 70.7269 87.3273L69.7317 80.3582L71.438 64.8538C71.438 64.8538 72.772 62.816 73.3396 58.1241C73.911 53.4289 70.2993 41.8825 70.2993 41.8825L58.5651 37.1911L50.0078 36.4614L35.7342 41.8825L33.888 46.5076C33.9543 49.0652 35.8374 55.6436 37.8054 61.861C38.7377 64.8132 39.6885 67.6842 40.4735 70.0021Z" fill="#F7DBC6"/>
<path d="M49.9265 37.224C51.2674 39.6664 56.0541 42.7324 57.9871 42.062C59.92 41.3915 58.3534 37.9433 58.3534 37.9433C58.3356 37.4538 58.3177 37.0024 58.3042 36.5869C58.2148 33.8294 58.2327 32.6649 58.2327 32.6649L49.9265 27.1675C50.1208 28.1709 50.2172 29.3171 50.2505 30.4702C50.351 33.8249 49.9265 37.224 49.9265 37.224Z" fill="#C56E5D"/>
<path d="M49.9269 27.168C50.1213 28.1714 50.2176 29.3176 50.251 30.4707C51.2028 31.8987 52.7897 34.0394 54.4388 35.2128C56.1416 36.426 57.5362 36.6094 58.3047 36.587C58.2152 33.8295 58.2331 32.6651 58.2331 32.6651L49.9269 27.168Z" fill="#AF5448"/>
<path d="M67.2607 24.2473C67.2607 24.2473 66.9735 31.0471 62.1847 34.1118C57.3959 37.1765 50.692 30.7599 49.5427 27.2163C48.3934 23.6728 48.7766 16.0109 48.7766 16.0109C48.7766 16.0109 55.0976 11.7969 59.8861 11.7969C64.6745 11.7969 67.2607 14.1911 67.2607 14.1911C67.2607 14.1911 67.2607 20.7037 67.2607 24.2473Z" fill="#C56E5D"/>
<path d="M61.8027 11.9307C61.8027 11.9307 61.9451 14.4305 57.3479 17.3514C52.7507 20.2723 50.2581 20.8709 50.2581 20.8709L49.2846 26.2411C49.2846 26.2411 49.9533 27.9263 50.1404 28.539C50.3448 29.2077 50.265 31.334 50.265 31.334C50.265 31.334 46.3819 30.7585 45.0413 27.1674C45.0413 27.1674 41.0668 24.1991 40.9233 18.8358C40.7795 13.4725 43.557 11.7965 43.557 11.7965C43.557 11.7965 44.2718 5.37986 51.3606 4.27837C58.4494 3.17689 64.1 7.15146 64.1 7.15146C64.1 7.15146 67.5479 6.67261 69.4155 9.11467C71.283 11.5567 70.0859 14.5258 70.0859 14.5258C70.0859 14.5258 71.7141 16.1061 70.7564 18.692C69.7987 21.2778 67.2606 21.6129 67.2606 21.6129C67.2606 21.6129 67.0212 17.2073 65.7281 15.0046C64.435 12.8023 61.8027 11.9307 61.8027 11.9307Z" fill="#3D2624"/>
<path d="M49.9258 21.6617C49.9258 21.6617 49.0159 19.4109 47.1483 19.1715C45.2808 18.9321 45.137 22.2362 46.4301 24.4392C47.7232 26.6418 49.5426 26.2111 49.5426 26.2111L49.9258 21.6617Z" fill="#C56E5D"/>
<path d="M50.8354 19.1592C50.8354 19.1592 49.5905 22.9067 50.3088 25.8754C50.3088 25.8754 50.1069 25.6763 49.843 25.2917C49.242 24.4162 48.992 21.087 48.7226 19.9456L50.8354 19.1592Z" fill="#3D2624"/>
<path d="M64.1957 7.48732C64.1957 7.48732 62.6316 5.22071 59.6625 4.295C56.6934 3.3693 54.2036 4.295 54.2036 4.295L53.7247 4.26301C53.7247 4.26301 56.5022 2.92932 59.6309 3.88358C62.7595 4.83783 64.9302 7.29606 64.9302 7.29606L64.1957 7.48732Z" fill="#3D2624"/>
<path d="M43.5566 11.7969C43.5566 11.7969 41.9017 12.1161 40.9175 13.9039C39.9333 15.6916 40.9491 17.5066 40.9491 17.5066L41.1142 17.2878C41.1142 17.2878 40.3224 15.7474 41.3058 14.0635C42.2893 12.3796 43.5566 12.4673 43.5566 12.4673V11.7969Z" fill="#3D2624"/>
<path d="M66.6621 20.4746C66.6621 20.4746 66.4636 20.0212 65.047 20.0498C63.6304 20.078 62.7804 20.8713 62.7804 20.8713C62.7804 20.8713 63.4319 19.6532 64.7213 19.4829C66.0106 19.3129 66.6339 20.2765 66.6621 20.4746Z" fill="#3D2624"/>
<path d="M61.8029 11.9307C61.8029 11.9307 62.0251 14.3827 60.5886 16.3621C59.152 18.3414 54.9061 18.3414 54.9061 18.3414L54.7358 18.7223C54.7358 18.7223 58.9284 18.7563 60.6206 17.2558C62.3127 15.7553 62.504 13.2458 62.1848 11.9307H61.8029Z" fill="#3D2624"/>
<path d="M58.9531 20.6315C58.9531 20.6315 58.724 20.1079 57.088 20.1406C55.4519 20.1733 54.4705 21.0893 54.4705 21.0893C54.4705 21.0893 55.2231 19.6824 56.7116 19.4859C58.2005 19.2899 58.9204 20.4024 58.9531 20.6315Z" fill="#3D2624"/>
<path d="M62.7808 27.0724C62.7808 27.0724 62.5654 27.2878 61.7512 27.5272C60.9369 27.7666 60.3624 27.5272 60.3624 27.5272C60.3624 27.5272 60.6081 27.0724 61.2396 26.9764C61.8709 26.8808 62.7808 27.0724 62.7808 27.0724Z" fill="#913D37"/>
<path d="M62.7808 20.8711C62.7808 20.8711 62.3284 21.3499 62.1609 22.5949C61.9933 23.8398 62.1609 24.8216 62.1609 24.8216C62.1609 24.8216 62.7302 21.5656 62.7808 20.8711Z" fill="#AF5448"/>
<path d="M66.4824 22.26C66.4824 22.26 65.7879 22.5593 64.9141 22.6549C64.0404 22.7506 62.9626 22.4754 62.9626 22.4754C62.9626 22.4754 63.3637 21.3976 64.2915 21.1465C65.7521 20.7516 66.4824 22.26 66.4824 22.26Z" fill="#AF5448"/>
<path d="M58.9531 22.4365C58.9531 22.4365 58.809 21.3315 57.3962 21.0897C55.9837 20.8475 54.3074 22.3322 54.3074 22.3322C54.3074 22.3322 57.0855 23.6573 58.9531 22.4365Z" fill="#AF5448"/>
<path d="M64.6826 22.6435C65.6244 22.6276 66.4824 22.2603 66.4824 22.2603L66.6619 22.38C66.7789 22.4581 67.041 22.4918 67.041 22.4918C66.7878 22.6022 66.5254 22.5957 66.3651 22.576C66.0389 22.7625 65.4617 23.0167 64.7225 23.0267C63.5491 23.0425 62.9626 22.6356 62.9626 22.6356V22.4759C62.9626 22.4759 63.7407 22.6593 64.6826 22.6435Z" fill="#3D2624"/>
<path d="M54.3072 22.332C54.3072 22.332 55.4441 22.6778 56.6213 22.7101C57.7988 22.7421 58.8872 22.396 58.8872 22.396L59.1063 22.5326C59.2491 22.6213 59.5752 22.6709 59.5752 22.6709C59.2539 22.7751 58.9264 22.7548 58.7269 22.7252C58.311 22.9065 57.5786 23.1466 56.6546 23.1191C55.1878 23.0754 54.7355 22.7269 54.4169 22.5178C54.3719 22.4879 54.3072 22.332 54.3072 22.332Z" fill="#3D2624"/>
<path d="M62.7805 29.2438C62.7805 29.2438 62.5383 29.3556 61.5713 29.5472C60.6043 29.7388 58.3043 29.2438 58.3043 29.2438C58.3043 29.2438 60.0016 28.9566 60.5424 28.9886C61.0832 29.0205 61.4502 29.2885 61.4502 29.2885C61.4502 29.2885 61.9449 28.8926 62.2483 28.8926C62.5517 28.8926 63.1104 29.068 63.1104 29.068L62.7805 29.2438Z" fill="#913D37"/>
<path d="M62.4331 30.2676C62.4331 30.2676 61.7747 30.7144 60.817 30.7464C59.8593 30.7784 58.8218 30.3794 58.8218 30.3794C58.8218 30.3794 59.3983 31.207 60.6275 31.3347C61.8566 31.4623 62.4331 30.2676 62.4331 30.2676Z" fill="#AF5448"/>
<path d="M74.1904 91.5491L70.0683 82.7255C70.0683 82.7255 67.3276 85.6141 58.9529 85.9068C50.5783 86.1992 39.2868 81.9512 39.2868 81.9512C39.2868 81.9512 36.3945 89.4163 36.3945 92.1945C36.3945 94.9729 52.9182 105.94 52.9182 105.94L62.7156 105.209L74.1904 91.5491Z" fill="#743F3D"/>
<path d="M74.6598 105.94C74.6598 105.94 77.3667 106.994 78.2941 107.426C78.2941 107.426 82.3382 107.84 83.9615 108.318C85.5849 108.797 85.9949 110.973 86.3929 113.324C86.7913 115.674 89.8192 118.827 90.7586 120.463C91.6981 122.099 91.2495 124.043 91.1198 124.446C90.9901 124.849 91.5258 126.221 90.8519 127.071C90.1783 127.921 89.7858 127.483 89.4091 127.273C89.0324 127.063 88.9179 126.315 88.9179 126.315C88.9179 126.315 87.8725 126.111 87.4813 125.807C87.0902 125.504 87.4917 125.499 86.5254 125.188C85.5591 124.877 85.0616 124.628 84.5226 124.232C83.9836 123.836 80.934 118.542 78.9904 116.85C77.0471 115.157 73.5483 114.563 73.5483 114.563L74.6598 105.94Z" fill="#C56E5D"/>
<path d="M21.6747 115.444C28.2767 117.109 42.6139 118.279 55.4634 119.04C68.7019 119.825 80.3607 120.173 80.3607 120.173L82.3225 113.946L84.0625 108.425L45.5823 100.796C45.5823 100.796 46.6298 92.8292 38.2465 88.5371C38.2465 88.5371 13.2914 88.7349 7.24523 95.7535C1.20287 102.772 7.73336 111.936 21.6747 115.444Z" fill="#743F3D"/>
<path d="M59.2402 113.255C59.2402 113.255 56.5333 114.309 55.6062 114.741C55.6062 114.741 51.5622 115.155 49.9388 115.633C48.3155 116.112 47.9054 118.288 47.5074 120.638C47.1091 122.989 44.0812 126.142 43.1417 127.778C42.2023 129.414 42.6508 131.358 42.7805 131.761C42.9102 132.164 42.3746 133.536 43.0485 134.386C43.7221 135.235 44.1146 134.798 44.4912 134.588C44.8679 134.378 44.9825 133.63 44.9825 133.63C44.9825 133.63 46.0279 133.426 46.419 133.122C46.8101 132.819 46.4087 132.814 47.375 132.503C48.3413 132.192 48.8387 131.943 49.3778 131.547C49.9168 131.151 52.9664 125.857 54.91 124.165C56.8532 122.472 60.3521 121.878 60.3521 121.878L59.2402 113.255Z" fill="#C56E5D"/>
<path d="M72.0738 90.001C72.0738 90.001 104.975 90.001 110.239 95.85C115.503 101.699 112.579 109.157 108.338 111.643C104.098 114.128 59.6444 124.072 59.6444 124.072L57.3049 110.473L63.8632 108.426L60.3517 103.724L72.0738 90.001Z" fill="#743F3D"/>
<path d="M72.1709 91.2681C72.1709 91.2681 65.305 99.7683 61.5729 102.293C61.5729 102.293 69.2462 101.504 72.1709 91.2681Z" fill="#5E3030"/>
<path d="M98.687 98.6282C98.687 98.6282 92.9842 99.3592 84.0643 101.26C75.1443 103.161 63.8629 108.425 63.8629 108.425C63.8629 108.425 75.436 100.529 84.5025 98.6282C93.569 96.7269 98.687 98.6282 98.687 98.6282Z" fill="#5E3030"/>
<path d="M66.8721 106.507C66.8721 106.507 40.3421 98.5888 29.2288 96.7808C29.2288 96.7808 52.7275 103.844 63.8628 108.426L66.8721 106.507Z" fill="#5E3030"/>
<path d="M41.2939 90.5693C41.2939 90.5693 54.1553 96.9179 58.4839 103.354C58.4839 103.354 44.9265 96.4025 41.2939 90.5693Z" fill="#5E3030"/>
<path d="M74.9214 79.1678C74.9214 79.1678 77.1058 73.8533 82.2283 73.8052L102.568 87.6047C102.96 87.4014 103.648 87.1187 104.71 86.9212C106.542 86.5803 110.164 86.623 111.101 86.4527C111.553 86.3705 111.578 86.5961 111.385 86.8944C111.684 86.7705 112.159 87.1039 112.526 87.6457C113.104 88.4978 114.552 90.0857 114.552 90.9746C114.552 91.8635 112.976 92.7582 112.039 92.8009C112.039 92.8009 115.234 93.6103 115.831 94.7606C116.427 95.911 114.851 95.7407 114.339 95.4847C113.828 95.2292 110.547 94.3344 110.547 94.3344C110.547 94.3344 113.785 96.1239 113.871 97.3595C113.956 98.5952 112.848 97.8707 111.826 97.3595C110.803 96.8484 108.971 95.911 108.971 95.911C108.971 95.911 111.613 97.8281 111.144 98.6802C110.676 99.5322 108.503 97.5866 106.756 96.7913C105.009 95.9959 103.689 95.879 102.215 95.3062C100.152 94.505 99.0637 92.7788 99.0637 92.7788C95.4279 91.4262 79.8533 85.3705 74.9214 79.1678ZM109.183 90.7554C110.632 91.2666 112.294 90.7554 112.507 90.4998C112.72 90.2442 111.101 88.753 111.101 87.6027C111.101 87.4228 111.124 87.2834 111.161 87.1727C110.923 87.4214 110.588 87.6722 110.252 87.8156C109.354 88.1992 107.394 88.4097 106.883 88.709C106.372 89.0086 107.735 90.2443 109.183 90.7554Z" fill="#C56E5D"/>
<path d="M7.92838 61.6816C7.92838 61.6816 6.07629 67.3377 7.34359 71.5531C8.61089 75.7681 13.4609 76.7189 13.4609 76.7189L12.6811 75.744C12.6811 75.744 7.9043 74.9397 7.63633 68.3838C7.39759 62.5595 7.92838 61.6816 7.92838 61.6816Z" fill="#3D2624"/>
<path d="M106.609 88.6421C106.609 88.6421 105.001 89.5561 103.21 89.5561C101.419 89.5561 103.575 90.3604 104.91 89.9582C106.244 89.5561 106.609 88.6421 106.609 88.6421Z" fill="#AF5448"/>
<path d="M100.966 91.8236C100.966 91.8236 102.063 91.8601 103.598 92.6643C105.133 93.4686 105.937 95.5158 106.34 95.1869C106.742 94.858 105.645 91.7139 100.966 91.8236Z" fill="#AF5448"/>
<path d="M111.559 92.7456C111.559 92.7456 108.199 95.4632 107.796 95.4997C107.394 95.5361 109.183 92.8918 111.559 92.7456Z" fill="#AF5448"/>
<path d="M70.2251 63.5854C70.2251 63.5854 68.5667 62.7168 63.5123 62.7168C58.4579 62.7168 50.0454 64.691 50.0454 64.691C50.0454 64.691 65.566 64.7701 70.2251 63.5854Z" fill="#EFC9B6"/>
<path d="M39.6846 80.3035L39.2828 82.0394V82.0431L46.4473 84.2544C46.4473 84.2544 42.8026 75.4463 42.8724 68.7056C42.9426 61.9649 40.7424 53.5771 40.7424 53.5771L37.8015 61.9539C38.7338 64.9058 39.6849 67.7768 40.4699 70.095C41.6082 73.4634 41.3282 77.1487 39.6846 80.3035Z" fill="#EFC9B6"/>
<path d="M2.67168 101.229C3.04389 99.988 6.03292 98.5979 6.03292 98.5979C5.10412 98.7304 3.38858 98.1446 3.22346 97.2711C3.058 96.3977 4.18597 94.568 4.59464 93.6234C4.85436 93.0227 5.25994 92.6068 5.57642 92.6729C5.33115 92.4163 5.31396 92.1896 5.7732 92.1861C6.72573 92.1792 10.2762 91.4637 12.1396 91.4575C12.8909 91.4551 13.4702 91.5274 13.8974 91.6141L27.5233 72.4536C28.2766 67.7707 29.3162 55.9172 30.5453 50.6657C32.1539 43.7929 35.7356 41.8823 35.7356 41.8823C35.7356 41.8823 40.1773 44.5239 40.9179 49.6419C41.6586 54.76 35.1357 77.6583 35.1357 77.6583C32.8192 84.1726 20.6206 94.5831 18.9223 96.5281C18.9223 96.5281 18.0296 98.061 16.152 99.2319C14.8101 100.069 13.5345 100.43 11.9662 101.536C10.3979 102.642 8.62495 104.959 8.00575 104.208C7.38655 103.458 9.62531 101.083 9.62531 101.083C9.62531 101.083 7.99957 102.345 7.09003 103.037C6.18049 103.73 5.22692 104.648 5.08072 103.418C4.93452 102.188 7.78318 99.8274 7.78318 99.8274C7.78318 99.8274 4.72639 101.317 4.27163 101.663C3.81686 102.01 2.29982 102.47 2.67168 101.229ZM8.45708 96.0575C9.78527 95.2856 10.895 93.8181 10.337 93.6189C9.77908 93.4197 7.81415 93.5776 6.86024 93.3678C6.50351 93.2893 6.1282 93.1053 5.84784 92.9051C5.90494 93.0069 5.95311 93.1397 5.98682 93.3162C6.20079 94.4466 4.88739 96.213 5.14436 96.4246C5.40099 96.6361 7.1289 96.8294 8.45708 96.0575Z" fill="#C56E5D"/>
<path d="M10.7678 93.8027C10.7678 93.8027 12.376 94.7167 14.1672 94.7167C15.9584 94.7167 13.8019 95.521 12.4675 95.1189C11.1331 94.7167 10.7678 93.8027 10.7678 93.8027Z" fill="#AF5448"/>
<path d="M17.5737 96.2084C17.5737 96.2084 16.4771 96.2448 14.9414 97.0491C13.4062 97.8534 12.6019 99.9005 12.1998 99.5717C11.798 99.2425 12.8946 96.0986 17.5737 96.2084Z" fill="#AF5448"/>
<path d="M7.39209 98.0679C7.39209 98.0679 10.7526 100.785 11.1548 100.822C11.5569 100.858 9.76844 98.2141 7.39209 98.0679Z" fill="#AF5448"/>
<path d="M59.7608 39.3138C59.7608 39.3138 61.3577 42.3545 58.8217 43.1835C56.2858 44.0129 51.9424 41.1302 49.7312 38.998C49.7312 38.998 52.6531 43.6971 57.3917 44.447C62.13 45.1973 61.0309 40.3482 59.7608 39.3138Z" fill="#EFC9B6"/>
</svg>
