<svg width="375" height="149" viewBox="0 0 375 149" fill="none" xmlns="http://www.w3.org/2000/svg">
<g clip-path="url(#clip0_237_54)">
<rect width="375" height="149" fill="#F6EBE7"/>
<path fill-rule="evenodd" clip-rule="evenodd" d="M340.704 11.6115L375.495 53.0735V149H315.801C315.77 148.96 315.738 148.921 315.705 148.882L258.441 80.6379L242.492 61.6301L223.668 39.197C216.478 30.6279 217.606 17.7341 226.175 10.5438C234.744 3.35346 247.638 4.48155 254.828 13.0506L289.601 54.4915L310.521 79.4229C315.123 84.9074 323.375 85.6291 328.859 81.0274C334.343 76.4255 335.065 68.1734 330.463 62.6892L309.544 37.7578L289.934 14.3882C282.744 5.81917 283.872 -7.07465 292.441 -14.2652C301.01 -21.4555 313.904 -20.3274 321.094 -11.7584L340.704 11.6115ZM340.666 86.1597C336.419 86.1597 332.976 89.603 332.976 93.85C332.976 98.0974 336.419 101.541 340.666 101.541C344.913 101.541 348.357 98.0974 348.357 93.85C348.357 89.603 344.913 86.1597 340.666 86.1597ZM148.246 149C148.421 139.561 152.502 130.239 160.258 123.73C173.535 112.59 193.066 113.481 205.315 125.216L205.468 125.088L207.821 127.892L225.533 149H148.246ZM247.836 149L218.556 114.106L213.98 108.653C206.79 100.084 207.918 87.1898 216.487 79.9995C225.056 72.8092 237.95 73.9373 245.141 82.5061L249.716 87.9592L300.935 149H247.836Z" fill="#F5E1DA"/>
<path fill-rule="evenodd" clip-rule="evenodd" d="M323.54 113.693L353.166 149H334.609C335.236 147.164 334.919 145.05 333.587 143.463L314.777 121.046L292.498 94.4943C290.476 92.0844 290.793 88.4589 293.203 86.4369C295.613 84.4149 299.238 84.7322 301.26 87.1419L323.54 113.693ZM286.003 149L276.817 138.052C274.795 135.643 275.112 132.017 277.522 129.995C279.931 127.973 283.557 128.29 285.579 130.7L292.89 139.412L300.935 149H286.003ZM308.369 149L297.252 135.751L288.038 124.771C286.016 122.361 286.334 118.735 288.743 116.713C291.153 114.691 294.779 115.008 296.801 117.418L306.015 128.399L323.301 149H308.369Z" fill="#F1D4C9"/>
</g>
<defs>
<clipPath id="clip0_237_54">
<rect width="375" height="149" fill="white"/>
</clipPath>
</defs>
</svg>
